<?xml version="1.0" encoding="utf-8"?>
<!-- Generator: Adobe Illustrator 27.2.0, SVG Export Plug-In . SVG Version: 6.00 Build 0)  -->
<svg version="1.1" id="Layer_1" xmlns="http://www.w3.org/2000/svg" xmlns:xlink="http://www.w3.org/1999/xlink" x="0px" y="0px"
	 viewBox="0 0 90 31.18" style="enable-background:new 0 0 90 31.18;" xml:space="preserve">
<style type="text/css">
	.st0{fill:#444444;}
</style>
<g>
	<path class="st0" d="M30.09,8.83c0.39-0.59,0.7-1.22,0.94-1.88c0.09-0.25,0.13-0.7-0.22-0.75c-0.34-0.06-1.06,0.36-1.14,0.63
		c-0.63,2.26-2.42,3.84-4.32,5.18c-1.3,0.92-2.63,1.79-3.99,2.62c-1.89-0.41-3.81-0.58-5.77-0.45c1.02-1.15,2.03-2.29,3.05-3.44
		c0.79-0.89,1.58-1.78,2.37-2.67c0.2-0.22,0.41-0.71,0.2-0.99c-0.22-0.29-0.79-0.32-0.96-0.13c-2.09,2.35-3.99,5.01-6.07,7.38
		c-1.25,0.17-2.48,0.46-3.67,0.87c-1.18,0.41-2.26,0.98-3.12,1.91c-0.7,0.75-1.31,1.98-0.74,2.97c0.35,0.6,1.06,0.78,1.72,0.8
		c-1.55,1.74-3.1,3.49-4.64,5.23c-0.79,0.89-1.58,1.78-2.37,2.67c-0.2,0.22-0.41,0.71-0.2,0.99c0.22,0.29,0.6,0.01,0.77-0.18
		c2.15-2.42,4.3-4.84,6.44-7.26c0.45-0.51,0.91-1.02,1.36-1.54c1.8-0.26,3.6-0.98,5.24-1.64c2.12-0.86,4.16-1.9,6.12-3.07
		c2.22,0.49,5.02,1.28,6.25,3.2c1.68,2.62,0.59,6.94-1.74,8.82c-1.13,0.91-2.6,1.4-4.05,1.36c-0.64-0.02-1.3-0.15-1.83-0.51
		c-0.53-0.37-0.9-1-0.82-1.64c0.04-0.3,0.15-0.65-0.07-0.85c-0.26-0.23-0.67,0.05-0.84,0.35c-0.48,0.84-0.34,1.95,0.24,2.72
		c0.57,0.78,1.51,1.23,2.47,1.34c0.96,0.11,1.93-0.08,2.83-0.42c2.15-0.8,3.94-2.42,5.05-4.43c1.13-2.06,1.86-5.05,0.51-7.17
		c-1.25-1.96-3.26-2.88-5.4-3.59c-0.28-0.09-0.56-0.18-0.85-0.26c0.27-0.17,0.54-0.35,0.81-0.53C26,12.89,28.5,11.24,30.09,8.83z
		 M9.1,19.46c-0.51,0-1.28-0.03-1.51-0.58c-0.32-0.75,0.89-1.46,1.39-1.76c1-0.58,2.2-0.88,3.32-1.13c0.15-0.03,0.31-0.07,0.47-0.1
		c-1.04,1.18-2.09,2.35-3.13,3.53C9.46,19.44,9.28,19.46,9.1,19.46z M11.34,19.08c-0.05,0.01-0.09,0.02-0.14,0.04
		c1.02-1.15,2.04-2.3,3.06-3.45c1.7-0.2,3.44-0.18,5.13,0.08c-0.39,0.21-0.78,0.42-1.17,0.62C16.03,17.48,13.72,18.43,11.34,19.08z"
		/>
	<path class="st0" d="M32.59,19.12c-0.11-0.01-0.23,0.05-0.3,0.14c-0.04,0.06-0.08,0.13-0.17,0.13c-0.08,0-0.14-0.03-0.22-0.05
		c-0.17-0.06-0.38-0.05-0.55,0.01c-0.18,0.07-0.32,0.21-0.35,0.43c-0.06,0.46,0.33,0.82,0.69,1.02c0.14,0.08,0.31,0.16,0.47,0.12
		c0.13-0.03,0.24-0.13,0.33-0.23c0.32-0.36,0.48-0.91,0.31-1.38C32.79,19.21,32.7,19.13,32.59,19.12z"/>
	<path class="st0" d="M84.22,9.02c0.14,0.08,0.31,0.16,0.47,0.12c0.13-0.03,0.24-0.13,0.33-0.23c0.32-0.36,0.48-0.91,0.31-1.38
		c-0.04-0.11-0.12-0.18-0.24-0.19c-0.11-0.01-0.23,0.05-0.3,0.14c-0.04,0.06-0.08,0.13-0.17,0.13c-0.08,0-0.14-0.03-0.22-0.05
		c-0.17-0.06-0.38-0.05-0.55,0.01C83.7,7.64,83.56,7.78,83.53,8C83.47,8.46,83.85,8.82,84.22,9.02z"/>
	<path class="st0" d="M87,13.08c-1.47-1.6-3.29-2.85-5.14-3.98c0.25-0.5,0.5-1.01,0.71-1.53c0.21-0.54,0.33-1.3-0.18-1.72
		c-0.62-0.5-1.52-0.15-2.25,0.31c-0.03-0.1-0.06-0.19-0.1-0.26c-0.25-0.46-0.64-0.34-0.84,0.25c-0.57,0.94-1.13,1.86-1.71,2.81
		c-0.18,0.2-0.36,0.39-0.54,0.58c-0.25,0.26-0.95,1.24-1.38,1.12c-0.81-0.22,0.87-1.92,1.13-2.14c0.25-0.22,0.5-0.66,0.39-1
		c-0.11-0.34-0.47-0.27-0.69-0.08c-0.27,0.23-0.53,0.5-0.78,0.77c0.06-0.64-0.12-1.19-0.83-1.29c-0.03-0.01-0.06-0.01-0.1-0.01
		c-0.04,0-0.08,0-0.13,0.01c-1.13,0.13-2.04,0.99-2.67,1.88c-0.49,0.68-0.94,1.39-1.38,2.1c-0.18,0.29-0.36,0.58-0.56,0.86
		c-0.12,0.17-0.24,0.35-0.38,0.5c-0.04,0.05-0.1,0.12-0.16,0.15c-0.27,0.14-0.05-0.23,0-0.31c0.09-0.17,0.2-0.34,0.29-0.52
		c0.21-0.46,0.49-0.95,0.43-1.48C70,9.1,68.95,9.22,68.28,9.57c-0.38,0.2-0.71,0.48-0.99,0.8c-0.14-0.21-0.4-0.34-0.8-0.36
		c-0.53-0.02-1.11,0.29-1.53,0.58c-0.03-0.11-0.07-0.22-0.11-0.31c-0.25-0.46-0.64-0.34-0.84,0.25c-0.34,0.55-0.66,1.07-0.99,1.62
		c-1.03,1.03-2.18,2.03-3.46,2.74c-0.34,0.19-0.71,0.38-1.09,0.44c-0.14,0.02-0.31,0.04-0.44,0c0.04-0.13,0.08-0.26,0.13-0.4
		c0.36-1.01,0.99-2.15,1.62-3.22c0.08-0.11,0.16-0.22,0.24-0.33c0.07-0.1,0.12-0.21,0.15-0.33c0.09-0.14,0.17-0.29,0.26-0.43
		c0.66-1.08,1.34-2.15,2.04-3.21c0.36-0.12,0.71-0.23,1.07-0.35c4.64-1.49,9.29-3.01,14.01-4.22c0.8-0.2,1.6-0.41,2.42-0.54
		c0.12-0.02,0.25-0.04,0.37-0.05c-0.01,0,0.17-0.01,0.23-0.01c0.37,0,0.74,0.01,1.11,0.01c0.6,0,1.2-1.41,0.53-1.42
		c-0.59,0-1.19-0.04-1.78,0.04c-0.72,0.1-1.43,0.27-2.13,0.45C76,1.92,73.75,2.6,71.5,3.28c-2.65,0.8-5.29,1.64-7.93,2.49
		c0.54-0.8,1.09-1.6,1.65-2.39c0.21-0.29,0.25-0.72,0.14-1.06c-0.06-0.2-0.31-0.58-0.53-0.28c-1,1.4-1.97,2.82-2.92,4.26
		c-1.54,0.5-3.09,1.01-4.63,1.52c-0.64,0.21-1.28,0.42-1.92,0.64c-0.1,0.03-0.21,0.06-0.31,0.11c-0.45,0.19-0.82,0.71-1.15,1.06
		c-0.21,0.21-0.4,0.72-0.2,0.99c0.23,0.3,0.59,0,0.77-0.18c0.17-0.18,0.34-0.36,0.51-0.54c1.95-0.66,3.9-1.3,5.86-1.94
		c-0.33,0.53-0.66,1.06-0.99,1.6c-0.19,0.32-0.39,0.64-0.59,0.97c-1.14,1.57-2.32,3.13-3.63,4.56c-0.34,0.38-0.77,0.68-1.24,0.87
		c0-0.02,0.01-0.03,0.01-0.05c0.04-0.23,0.07-0.47,0.11-0.7c0.07-0.47,0.13-0.93,0.22-1.39c0.09-0.45,0.07-0.9-0.32-1.31
		c-0.27-0.29-0.94-0.46-1.27-0.23c-0.33,0.22-0.2,0.94,0.1,1.26c-0.78,0.99-1.7,1.91-2.71,2.67c-0.72,0.55-1.62,1.15-2.54,1.27
		c-0.05,0.01-0.1,0.01-0.15,0c0.06-0.21,0.1-0.3,0.2-0.51c0.23-0.54,0.51-1.06,0.79-1.57c0.56-0.99,1.16-1.95,1.79-2.9
		c0.56-0.83,1.12-1.66,1.7-2.46c0.21-0.29,0.25-0.72,0.14-1.06c-0.06-0.2-0.31-0.58-0.53-0.28c-0.72,0.99-1.42,2-2.09,3.03
		c0.26-1.99-0.06-4.59-2.41-4.83c-1.27-0.13-2.53,0.51-3.54,1.23c0.02-0.22,0-0.45-0.07-0.66c-0.08-0.26-0.43-0.78-0.71-0.37
		c-2.42,3.57-4.8,7.26-6.67,11.15c-0.54,1.12-1.05,2.28-1.27,3.51c-0.06,0.35-0.03,1.09,0.36,1.27c0.42,0.19,0.59-0.45,0.64-0.72
		c0.01-0.03,0.01-0.05,0.01-0.06c0-0.01,0.01-0.02,0.01-0.03c0.03-0.1,0.05-0.2,0.08-0.31c0.07-0.23,0.15-0.45,0.23-0.67
		c0.04-0.11,0-0.01,0.08-0.2c0.05-0.11,0.09-0.23,0.14-0.34c0.12-0.29,0.25-0.57,0.39-0.85c0.35-0.74,0.72-1.46,1.11-2.17
		c-0.11,1.05-0.05,2.14,0.44,3.08c1.21,2.3,4.03,1.26,5.66,0.09c1.01-0.73,1.92-1.64,2.7-2.66c0.06,0.35,0.21,0.69,0.55,0.81
		c0.65,0.24,1.62-0.32,2.16-0.62c1.53-0.87,2.89-2.2,3.97-3.59c0.02-0.02,0.03-0.05,0.04-0.07c-0.01,0.13-0.03,0.27-0.05,0.4
		c-0.09,0.61-0.3,1.24-0.12,1.86c0.39,1.34,1.79,0.08,2.34-0.49c0.45-0.46,0.88-0.95,1.29-1.45c-0.07,0.4-0.08,0.81,0.04,1.2
		c0.23,0.75,0.97,0.78,1.62,0.57c1.1-0.35,2.07-1.15,2.94-1.88c0.06-0.05,0.11-0.09,0.17-0.14c0.03,0.13,0.07,0.24,0.12,0.34
		c0.21,0.39,0.52,0.36,0.73,0c0.41-0.7,0.83-1.4,1.24-2.1c0.04-0.05,0.07-0.1,0.09-0.14c0.35-0.63,0.84-1.17,1.55-1.38
		c0.42-0.12,0.7,0.06,0.5,0.5c-0.24,0.54-0.49,1.07-0.75,1.59c-0.12,0.24-0.3,0.72,0.02,0.9c0.29,0.17,0.67-0.21,0.79-0.44
		c0.17-0.36,0.63-1.15,0.91-1.94c0.22-0.38,0.46-0.77,0.8-1.06c0.18-0.15,0.56-0.42,0.82-0.35c0.42,0.12-0.25,1.04-0.37,1.27
		c-0.23,0.44-0.45,0.98-0.26,1.48c0.43,1.09,1.67,0.04,2.08-0.5c0.22-0.28,0.42-0.57,0.61-0.87c0.14,0.31,0.44,0.51,0.97,0.5
		c0.97-0.01,1.78-0.59,2.39-1.33c0.04,0.2,0.13,0.38,0.28,0.54c0.77,0.84,1.87-0.3,2.4-0.85c0.11-0.12,0.22-0.24,0.34-0.35
		c0.02,0.04,0.03,0.08,0.06,0.12c0.21,0.39,0.52,0.36,0.73,0c0.6-1.02,1.21-2.04,1.81-3.05c0.45-0.35,1.1-0.77,1.56-0.59
		c0.41,0.16,0.08,0.6-0.04,0.86c-0.2,0.42-0.39,0.84-0.59,1.26c-0.19,0.39-0.26,0.9,0.16,1.16c1.49,0.9,2.95,1.87,4.24,3.04
		c1.18,1.07,2.55,2.56,2.64,4.23c0.06,1.13-0.66,1.86-1.6,2.47c-1.17,0.75-2.49,1.22-3.81,1.63c-3.73,1.14-7.53,2.15-11.32,3.04
		c-4.9,1.15-9.92,2.15-14.94,2.54c-1.37,0.1-2.75,0.15-4.12,0.09c-0.68-0.03-2.4-0.11-3.26-0.64c-0.95-0.6,1.17-1.29,1.73-1.37
		c1.16-0.15,2.36-0.04,3.51,0.11c0.59,0.08,1.22-1.33,0.53-1.42c-1.92-0.25-4.62-0.54-6.14,0.96c-0.72,0.71-1.52,2.37-0.53,2.98
		c2.15,1.34,8.5,0.7,11.2,0.34c2.79-0.37,5.56-0.86,8.31-1.43c4.68-0.97,9.28-2.24,13.88-3.54c2.73-0.77,6.54-1.92,7.48-4.97
		C89.37,16.43,88.32,14.51,87,13.08z M44.83,19.13c-1.15,1.01-3.43,2.46-4.8,1.01c-0.74-0.78-0.79-2.03-0.66-3.03
		c0.12-0.93,0.39-1.84,0.76-2.7c0.73-1.21,1.49-2.41,2.24-3.58c1.06-1.23,2.4-2.3,3.94-2.51c0.78-0.1,1.55,0.15,2.01,0.81
		c0.58,0.83,0.59,1.98,0.45,2.94C48.38,14.74,46.85,17.36,44.83,19.13z M47.7,17.47C47.68,17.47,47.68,17.46,47.7,17.47L47.7,17.47z
		 M47.79,17.77C47.8,17.87,47.78,17.85,47.79,17.77L47.79,17.77z M57.85,15.27C57.85,15.27,57.85,15.27,57.85,15.27
		C57.85,15.27,57.85,15.27,57.85,15.27C57.85,15.27,57.85,15.27,57.85,15.27z M57.85,15.29C57.86,15.3,57.86,15.31,57.85,15.29
		L57.85,15.29z M57.95,15.6C57.95,15.61,57.94,15.61,57.95,15.6c0,0,0,0,0-0.01C57.95,15.6,57.95,15.6,57.95,15.6
		C57.95,15.6,57.95,15.6,57.95,15.6z M57.95,15.6C57.95,15.6,57.95,15.6,57.95,15.6c0-0.02,0-0.02,0-0.03c0-0.01,0-0.01,0-0.02
		C57.96,15.55,57.96,15.58,57.95,15.6z M74.04,9.92c-0.35,0.62-0.9,1.22-1.66,1.25c-0.68,0.03-0.53-0.53-0.29-0.98
		c0.01-0.02,0.02-0.04,0.04-0.07c0.07-0.13,0.15-0.25,0.21-0.34c0.41-0.59,1.03-1.39,1.8-1.44C74.91,8.4,74.24,9.57,74.04,9.92z"/>
</g>
</svg>
