<?xml version="1.0" encoding="utf-8"?>
<!-- Generator: Adobe Illustrator 27.2.0, SVG Export Plug-In . SVG Version: 6.00 Build 0)  -->
<svg version="1.1" id="Layer_1" xmlns="http://www.w3.org/2000/svg" xmlns:xlink="http://www.w3.org/1999/xlink" x="0px" y="0px"
	 viewBox="0 0 90 90" style="enable-background:new 0 0 90 90;" xml:space="preserve">
<style type="text/css">
	.st0{fill:#FFFFFF;}
</style>
<rect x="0.75" y="8.87" class="st0" width="88.39" height="78.83"/>
<g>
	<path d="M82.19,63.97c0,0-5.88-16.61-13.78-26.85c0,0,3.14-4.45,2.22-11.49c0,0-2.13-1.01-6.92-0.97l-1.51,1.98l-0.95-1.66
		c0,0,3.58-5.54,4.35-10.33c0,0,1.25-4.4,4.47-7.06c0,0,1.33-0.87,2.25-1.69c0,0-9.05-3.99-18.2,0.87L53.6,7.71
		c0,0,5.43,2.97,4.05,10.23c0,0-3.38-5.42-10.87-6.14c0,0-0.58-1.62-1.72-2.66c-0.04-0.04-0.08-0.07-0.12-0.1
		c-0.04,0.03-0.08,0.07-0.12,0.1c-1.14,1.04-1.72,2.66-1.72,2.66c-7.49,0.72-10.87,6.14-10.87,6.14C30.87,10.67,36.3,7.71,36.3,7.71
		l-0.52-0.92c-9.15-4.86-18.2-0.87-18.2-0.87c0.92,0.82,2.25,1.69,2.25,1.69c3.22,2.66,4.47,7.06,4.47,7.06
		c0.77,4.79,4.35,10.33,4.35,10.33l-0.95,1.66l-1.51-1.98c-4.8-0.04-6.92,0.97-6.92,0.97c-0.92,7.04,2.22,11.49,2.22,11.49
		C13.59,47.36,7.71,63.97,7.71,63.97l9.48,6.14l6.34-1.96l-3.72,3.22c4.77,3.99,25.14,14.45,25.14,14.45h0
		c0,0,20.37-10.46,25.14-14.45l-3.72-3.22l6.34,1.96L82.19,63.97z M61.54,32.89C61.54,32.89,61.54,32.89,61.54,32.89
		c0.05,0.12,0.11,0.24,0.18,0.36c0,0.01,0.01,0.02,0.01,0.02c0.05,0.09,0.12,0.18,0.18,0.26c0.05,0.06,0.09,0.12,0.14,0.17
		c0.1,0.11,0.21,0.22,0.32,0.31c0.23,0.19,0.49,0.35,0.77,0.47c0.07,0.03,0.14,0.05,0.22,0.08c0.12,0.04,0.25,0.07,0.37,0.09
		c0.09,0.02,0.18,0.03,0.27,0.04c0.07,0.01,0.15,0.01,0.23,0.01c0.1,0,0.2-0.01,0.3-0.02s0.19-0.02,0.29-0.04
		c0.05-0.01,0.09-0.02,0.14-0.03c0.19-0.05,0.36-0.11,0.53-0.2c0.12-0.06,0.24-0.13,0.35-0.2c0.11-0.07,0.22-0.16,0.32-0.25
		c0.05-0.04,0.1-0.09,0.15-0.14c0.09-0.1,0.18-0.2,0.26-0.31c0.36-0.48,0.57-1.09,0.57-1.73c0-1.61-1.31-2.91-2.91-2.91
		c-0.46,0-0.89,0.11-1.27,0.29c-0.35,0.17-0.65,0.4-0.9,0.69c-0.03,0.03-0.06,0.07-0.09,0.1c0,0,0,0,0,0
		c0.02-0.08,0.05-0.16,0.07-0.24c0.04-0.13,0.08-0.26,0.13-0.39c0.04-0.11,0.08-0.21,0.12-0.32c0.04-0.11,0.08-0.21,0.13-0.32
		c0.28-0.68,0.65-1.37,1.12-2.05c0.21-0.31,0.44-0.61,0.69-0.91h0c0,0,0.01,0,0.03,0c0.21-0.02,1.78-0.16,4.07,0.36
		c0.39,0.09,0.79,0.19,1.22,0.32c0,0,0.18,2.49-0.17,5.01c-0.06,0.43-0.13,0.87-0.23,1.29c-0.18,0.8-0.42,1.56-0.76,2.19
		c-0.14,0.27-0.3,0.52-0.48,0.74c0,0-1,0.7-2.67,1.1c-0.87,0.21-1.93,0.34-3.13,0.24c0,0-0.37-1-0.52-2.53
		c-0.01-0.12-0.02-0.25-0.03-0.38c0,0,0,0,0,0c-0.01-0.1-0.01-0.21-0.02-0.32c0-0.04,0-0.08,0-0.12c0-0.08,0-0.17-0.01-0.25
		c0-0.04,0-0.08,0-0.11C61.53,33.14,61.53,33.01,61.54,32.89z M62.09,31.79c0-0.51,0.18-0.97,0.47-1.34c0.39-0.49,1-0.81,1.68-0.81
		c1.19,0,2.15,0.96,2.15,2.15c0,0.37-0.09,0.72-0.26,1.02c-0.05,0.09-0.11,0.18-0.17,0.26c-0.04,0.06-0.08,0.11-0.13,0.16
		c-0.02,0.03-0.05,0.05-0.07,0.07c-0.05,0.05-0.1,0.09-0.15,0.14c-0.12,0.1-0.25,0.18-0.39,0.26c-0.05,0.02-0.09,0.05-0.14,0.07
		c-0.13,0.05-0.26,0.1-0.4,0.13c-0.03,0.01-0.07,0.01-0.11,0.02c0,0,0,0,0,0c0,0,0,0,0,0c-0.11,0.02-0.22,0.02-0.33,0.02
		c-0.06,0-0.11,0-0.17-0.01c-0.05,0-0.11-0.01-0.16-0.02c-0.04-0.01-0.07-0.01-0.11-0.02c-0.14-0.03-0.27-0.07-0.4-0.13
		c-0.05-0.02-0.1-0.04-0.14-0.07c-0.14-0.07-0.27-0.16-0.39-0.26c-0.05-0.04-0.1-0.09-0.15-0.14c-0.02-0.02-0.05-0.05-0.07-0.07
		c-0.05-0.05-0.09-0.1-0.13-0.16c-0.06-0.08-0.12-0.17-0.17-0.26C62.18,32.51,62.09,32.16,62.09,31.79z M65.83,38.05
		c0,0-1.95,0.18-2.57,0.59V37.9c0,0,1.3,0.05,2.31-0.43L65.83,38.05z M67.67,38.79c0,0,0.69,1,1.75,2.67
		c0.18,0.28,0.36,0.57,0.56,0.88l-5.88,2.67l-0.64,0.29c-1.74-3.09-2.8-4.34-2.8-4.34S63.63,38.76,67.67,38.79z M59.43,62.08
		l-1.8,2.36c-0.85,1.11-1.92,2.03-3.16,2.67c-0.89,0.46-2.02,0.99-3.25,1.42c0,0,7.62-2.86,6.39-11.18c0,0,0.07,0.09,0.21,0.23
		c0.57,0.57,2.24,1.91,4.49,0.71L59.43,62.08z M62.28,65.27l-0.32,0.41l-0.02,0.02l-2.7,3.44c-0.07-0.42,0.03-0.86,0.3-1.22
		l2.31-3.11L62.28,65.27z M27.58,58.3c2.25,1.2,3.92-0.14,4.49-0.71c0.14-0.14,0.21-0.23,0.21-0.23
		c-1.23,8.32,6.39,11.18,6.39,11.18c-1.23-0.43-2.36-0.95-3.25-1.42c-1.24-0.65-2.32-1.56-3.16-2.67l-1.8-2.36L27.58,58.3z
		 M28.05,64.81l2.31,3.11c0.26,0.36,0.36,0.8,0.3,1.22l-2.7-3.44l-0.02-0.02l-0.32-0.41L28.05,64.81z M41.08,35.14
		c2.41,0.86,5.35,0.86,7.76,0c0,0,4.72-1.85,5.54-2.15c0.4-0.15,1.19-0.29,2.07-0.22c0.32,0.03,0.49,0.24,0.52,0.48
		c0.76,0.15,1.42,0.48,1.8,0.99c0,0-0.81-0.41-1.89-0.56c-0.1,0.15-0.26,0.25-0.5,0.25c-1.11-0.02-2.5,0.27-4.22,1.11
		c-0.54,0.26-1.09,0.51-1.65,0.72c-0.42,0.16-0.94,0.35-1.46,0.52c-1.06,0.35-2.15,0.57-3.27,0.64l-0.8,0.05c-0.02,0-0.05,0-0.07,0
		l-0.71-0.05c-1.16-0.08-2.31-0.3-3.41-0.67c-0.5-0.17-0.98-0.34-1.39-0.5c-0.56-0.21-1.11-0.46-1.65-0.72
		c-1.72-0.84-3.11-1.13-4.22-1.11c-0.23,0-0.4-0.1-0.5-0.25c-1.1,0.15-1.91,0.56-1.91,0.56c0.39-0.51,1.05-0.84,1.82-0.99
		c0.03-0.24,0.2-0.45,0.52-0.48c0.88-0.08,1.67,0.07,2.07,0.22C36.36,33.29,41.08,35.14,41.08,35.14z M39.47,29.25
		c0-2.96,2.4-5.36,5.36-5.36c0.04,0,0.08,0,0.12,0c0.04,0,0.08,0,0.12,0c2.96,0,5.36,2.4,5.36,5.36s-2.4,5.36-5.36,5.36
		c-0.04,0-0.08,0-0.12,0c-0.04,0-0.08,0-0.12,0C41.87,34.61,39.47,32.21,39.47,29.25z M52.25,40.98c0.1,0,0.19-0.01,0.27-0.01
		c0.34,0,0.63,0.01,0.86,0.03c-0.19,0.97-1.05,1.71-2.08,1.71c-0.45,0-0.87-0.14-1.22-0.38c-0.3-0.21-0.54-0.49-0.7-0.82
		c0.13-0.04,0.26-0.09,0.39-0.12c0.21,0.43,0.66,0.73,1.17,0.73C51.62,42.11,52.16,41.61,52.25,40.98z M51.22,41.16
		c0-0.05,0.04-0.08,0.08-0.08c0.05,0,0.08,0.04,0.08,0.08c0,0.05-0.04,0.08-0.08,0.08C51.26,41.24,51.22,41.2,51.22,41.16z
		 M53.8,42.2c0,0,0.03,2.37-4.47,0.97C49.33,43.17,52.76,43.38,53.8,42.2z M50.76,39.41c-2.2,1.58-3.32,1.41-3.32,1.41
		c-1.09-0.21-1.33-0.93-1.33-1.51c0-0.46,0.15-0.83,0.15-0.83c1.55,0.19,3.42-0.82,3.42-0.82c3.49-1.7,5.15-2.02,5.17-2.02
		c0.02,0.01,1.64,2.24,1.64,2.24c-0.64,0-1.23,0-1.81,0.04C53.45,38.01,52.26,38.34,50.76,39.41z M38.94,42.11
		c0.51,0,0.96-0.3,1.17-0.73c0.13,0.04,0.26,0.08,0.39,0.12c-0.16,0.33-0.4,0.61-0.7,0.82c-0.34,0.24-0.76,0.38-1.22,0.38
		c-1.03,0-1.89-0.74-2.08-1.71c0.23-0.02,0.52-0.03,0.86-0.03c0.09,0,0.18,0,0.27,0.01C37.74,41.61,38.28,42.11,38.94,42.11z
		 M38.51,41.16c0-0.05,0.04-0.08,0.08-0.08c0.05,0,0.08,0.04,0.08,0.08c0,0.05-0.04,0.08-0.08,0.08
		C38.55,41.24,38.51,41.2,38.51,41.16z M40.57,43.17c-4.5,1.4-4.47-0.97-4.47-0.97C37.14,43.38,40.57,43.17,40.57,43.17z
		 M39.13,39.41c-1.5-1.07-2.69-1.39-3.92-1.49c-0.58-0.05-1.17-0.04-1.81-0.04c0,0,1.62-2.23,1.64-2.24
		c0.02-0.01,1.67,0.31,5.17,2.02c0,0,1.87,1.01,3.42,0.82c0,0,0.15,0.38,0.15,0.83c0,0.59-0.24,1.3-1.33,1.51
		C42.45,40.81,41.34,40.99,39.13,39.41z M44.75,40.51l-0.51,0.55c0,0,0.24-0.89,0.01-1.74c-0.08-0.3-0.22-0.6-0.45-0.85h1.12v0h0.04
		l1.12,0c-0.23,0.25-0.37,0.55-0.45,0.85c-0.23,0.85,0.01,1.74,0.01,1.74l-0.51-0.55c0.02,0.93,1.02,1.32,1.02,1.32
		c-0.51,0.31-1.2,0.27-1.2,0.27h-0.04c0,0-0.68,0.04-1.2-0.27C43.74,41.84,44.73,41.44,44.75,40.51z M34.3,51.08
		c1.43,2.18,1.33,5.97,1.33,5.97C34.06,54.46,34.3,51.08,34.3,51.08z M40.84,69.8l0.34,0.73l0.22,0.48c-5.8-1.81-8.64-4.3-9.38-5.03
		c-0.14-0.14-0.2-0.21-0.2-0.21C36.86,68.91,40.84,69.8,40.84,69.8z M40.72,62.98c-0.07,0-0.14,0-0.21-0.01
		c-0.14-0.01-0.27-0.04-0.4-0.08c-0.06-0.02-0.13-0.04-0.19-0.07c-0.43-0.19-0.78-0.53-0.98-0.98l-0.36-0.81
		c-0.33-0.74-0.8-1.4-1.4-1.94l-0.25-0.22c-0.49-0.44-0.7-1.11-0.56-1.75l0.45-2.14l-0.07-2.73c-0.01-0.34,0.04-0.84,0.11-1.31
		c0.1-0.66,0.23-1.26,0.23-1.26c-0.63,0.73-0.66,1.57-0.66,1.57l-1.74-2.32c1.33-0.41,1.74-0.89,1.74-0.89
		c-1.45,0.38-2.88-0.39-2.88-0.39c3.02,0.46,3.99-0.7,3.99-0.7c-2.69,0.84-4.65-1.16-4.65-1.16c-1.23-0.61-1.07-4.18-1.07-4.18
		c0.19,1.36,0.85,2.81,0.85,2.81c-0.09-0.94,0.17-1.82,0.17-1.82c0.41-1.45,0.22-2.31,0.22-2.31c0.39,0.78,1.02,1.01,1.02,1.01
		c0.13,1.07,0.62,1.78,1.09,2.24h0c0.55,0.53,1.09,0.71,1.09,0.71c-0.87-0.75-0.92-1.58-0.92-1.58c1.98,2.05,5.06,1.12,5.06,1.12
		c-1.12,1.23-2.69,1.38-2.69,1.38c2.08,0.19,3.42-0.86,3.79-1.18c-0.17,0.31-0.38,0.58-0.57,0.81c-0.08,0.09-0.16,0.17-0.23,0.25
		c-0.04,0.04-0.07,0.07-0.11,0.11c-0.11,0.1-0.21,0.18-0.29,0.25c-0.13,0.11-0.22,0.16-0.22,0.16c0.07-0.03,0.14-0.06,0.21-0.09
		c0.07-0.03,0.13-0.07,0.19-0.11c0.13-0.08,0.24-0.17,0.35-0.27c0.11-0.1,0.21-0.2,0.31-0.31c0.09-0.11,0.18-0.22,0.26-0.32
		c-0.65,1.54-1.94,2.72-1.94,2.72c1.23-0.75,3-2.52,3-2.52c0.66,0.53,1.32,2.13,1.32,2.13v0c0-0.02,0.01-0.05,0.01-0.08
		c0-0.06,0-0.12,0-0.2c0-0.04-0.01-0.07-0.01-0.11c-0.07-0.63-0.37-1.61-0.48-1.97c-0.03-0.1-0.04-0.2-0.02-0.3
		c0.19-1.01,1.67-1.12,1.67-1.12s0.93,0.07,1.41,0.6c0.24,0.26,0.3,0.63,0.2,0.96c-0.12,0.4-0.34,1.14-0.42,1.69l0,0.15
		c-0.01,0.08-0.01,0.15-0.02,0.22c0,0.03,0,0.06,0,0.09c0,0.03,0,0.06,0.01,0.08v0c0,0,0.66-1.6,1.32-2.13c0,0,1.77,1.77,3,2.52
		c0,0-1.29-1.18-1.94-2.72c0.05,0.07,0.11,0.14,0.17,0.21c0.04,0.05,0.08,0.1,0.13,0.15c0.04,0.04,0.07,0.08,0.11,0.12
		c0.05,0.05,0.1,0.1,0.16,0.15c0.09,0.08,0.19,0.16,0.3,0.23c0.04,0.02,0.07,0.05,0.11,0.07c0.11,0.07,0.23,0.12,0.35,0.17
		c0,0-0.01,0-0.02-0.01c-0.01-0.01-0.04-0.03-0.06-0.05c-0.05-0.04-0.13-0.1-0.22-0.18c-0.3-0.26-0.78-0.72-1.12-1.34
		c0.36,0.33,1.71,1.37,3.79,1.18c0,0-1.57-0.15-2.69-1.38c0,0,3.08,0.92,5.06-1.12c0,0-0.05,0.84-0.92,1.58c0,0,0.54-0.19,1.09-0.71
		l0,0c0.48-0.46,0.96-1.17,1.09-2.24c0,0,0.63-0.23,1.02-1.01c0,0-0.19,0.86,0.22,2.31c0,0,0.26,0.89,0.17,1.82
		c0,0,0.66-1.45,0.85-2.81c0,0,0.15,3.56-1.07,4.18c0,0-1.96,1.99-4.65,1.16c0,0,0.97,1.16,3.99,0.7c0,0-1.43,0.77-2.88,0.39
		c0,0,0.41,0.48,1.74,0.89l-1.74,2.32c0,0-0.03-0.84-0.66-1.57c0,0,0.13,0.6,0.23,1.26c0,0,0,0,0,0c0.07,0.47,0.13,0.98,0.11,1.31
		l-0.07,2.73l0.45,2.14c0.14,0.64-0.08,1.31-0.56,1.75l-0.25,0.22c-0.6,0.54-1.07,1.21-1.4,1.94l-0.36,0.81
		c-0.2,0.45-0.55,0.79-0.98,0.98c-0.06,0.03-0.13,0.05-0.19,0.07c-0.06,0.02-0.13,0.04-0.2,0.05c-0.13,0.03-0.27,0.04-0.41,0.04
		l-1.61-0.03c-0.17,0-0.33-0.03-0.49-0.07c-0.13-0.04-0.26-0.08-0.38-0.14s-0.23-0.13-0.34-0.22c-0.04-0.03-0.08-0.07-0.12-0.1
		c-0.09-0.08-0.17-0.18-0.24-0.27c-0.04-0.05-0.07-0.1-0.11-0.16c-0.05-0.08-0.09-0.17-0.13-0.26c-0.04-0.09-0.07-0.18-0.09-0.28
		c0,0,0,0,0,0c-0.01-0.02-0.71-2.73-0.72-2.73c-0.01,0-0.72,2.73-0.72,2.73l0,0c-0.02,0.07-0.04,0.13-0.06,0.2
		c-0.02,0.06-0.05,0.13-0.08,0.19c-0.04,0.09-0.09,0.17-0.15,0.25c-0.05,0.08-0.11,0.15-0.17,0.22c-0.11,0.12-0.23,0.22-0.36,0.31
		c-0.22,0.15-0.47,0.25-0.74,0.3c-0.11,0.02-0.22,0.03-0.33,0.03L40.72,62.98z M54.27,57.05c0,0-0.1-3.78,1.33-5.97
		C55.6,51.08,55.84,54.46,54.27,57.05z M48.72,70.53l0.34-0.73c0,0,3.98-0.89,9.02-4.04c0,0-0.07,0.08-0.2,0.21
		c-0.74,0.73-3.58,3.22-9.38,5.03L48.72,70.53z M60.46,33.7l0.64-0.95v2.44L60.46,33.7z M58.05,20.57c0.86-2.64,0.87-4.75,0.87-4.75
		c0-0.01,0-0.02,0-0.03c0.4-4.2-2.08-6.81-3.22-7.78c-0.33-0.28-0.55-0.42-0.55-0.42c0.02-0.01,0.03-0.01,0.05-0.02
		c2.55-1.29,5.2-1.79,7.53-1.9c0.38-0.02,0.74-0.03,1.1-0.03c0.24,0,0.47,0,0.7,0.01c0.23,0.01,0.45,0.02,0.67,0.03
		c0.12,0.01,0.23,0.01,0.35,0.02c0.2,0.02,0.4,0.03,0.6,0.05c0.3,0.03,0.59,0.06,0.86,0.1c0.18,0.02,0.36,0.05,0.52,0.08
		c0.17,0.03,0.33,0.05,0.48,0.08c0.11,0.02,0.22,0.04,0.33,0.06c0.1,0.02,0.2,0.04,0.3,0.06c0.13,0.03,0.24,0.05,0.35,0.08
		c0.05,0.01,0.11,0.02,0.15,0.04c0.04,0.01,0.09,0.02,0.12,0.03c0.07,0.02,0.13,0.03,0.18,0.05c0.05,0.01,0.1,0.03,0.15,0.04
		c0,0,0.01,0,0.01,0c0.14,0.04,0.21,0.06,0.21,0.06c-0.06,0.01-0.12,0.03-0.18,0.05C69.62,6.49,69.6,6.5,69.59,6.5
		c-0.04,0.02-0.09,0.03-0.13,0.05c-0.02,0.01-0.03,0.01-0.05,0.02c-0.12,0.05-0.24,0.11-0.35,0.18C69.04,6.76,69.02,6.77,69,6.78
		c-0.05,0.03-0.09,0.06-0.13,0.09c-0.01,0.01-0.03,0.02-0.04,0.03c-0.12,0.08-0.23,0.17-0.35,0.26c-0.01,0.01-0.02,0.02-0.04,0.03
		c-0.05,0.04-0.09,0.08-0.14,0.12c-0.01,0.01-0.02,0.02-0.03,0.03c-0.12,0.11-0.23,0.22-0.34,0.34c-0.01,0.01-0.02,0.02-0.02,0.02
		c-0.05,0.05-0.1,0.11-0.15,0.17c-0.01,0.01-0.01,0.01-0.02,0.02c-0.11,0.13-0.23,0.27-0.34,0.41c0,0-0.01,0.01-0.01,0.01
		c-0.05,0.07-0.11,0.14-0.16,0.21c0,0,0,0-0.01,0.01C67.11,8.69,67,8.85,66.89,9.02c0,0,0,0,0,0c0,0,0,0,0,0
		c-0.07,0.1-0.14,0.21-0.2,0.32c-0.9,1.44-1.67,3.21-2.29,4.85c0,0,0,0,0,0c-0.04,0.1-0.07,0.19-0.11,0.28c0,0,0,0.01,0,0.01
		c-0.07,0.19-0.14,0.38-0.2,0.57c0,0.01,0,0.01-0.01,0.02c-0.03,0.09-0.06,0.17-0.09,0.25c0,0.01-0.01,0.02-0.01,0.03
		c-0.06,0.18-0.12,0.35-0.18,0.52c0,0.01-0.01,0.02-0.01,0.04c-0.02,0.07-0.05,0.15-0.07,0.22c0,0.01-0.01,0.03-0.01,0.04
		c-0.05,0.16-0.1,0.32-0.15,0.48c-0.01,0.02-0.01,0.03-0.02,0.05c-0.02,0.06-0.04,0.12-0.06,0.18c-0.01,0.02-0.01,0.04-0.02,0.05
		c-0.05,0.14-0.09,0.29-0.13,0.42c-0.01,0.02-0.01,0.03-0.02,0.05c-0.02,0.05-0.03,0.1-0.05,0.15c0,0.02-0.01,0.03-0.01,0.05
		c-0.02,0.06-0.04,0.13-0.06,0.19c-0.26,0.9-0.41,1.47-0.41,1.47c-0.26,0.71-0.54,1.38-0.83,2.02c-4.19,9.3-10.93,11.6-12.1,11.94
		c0.02-0.03,0.13-0.15,0.27-0.36c0.41-0.6,1.14-1.9,1.1-3.59c0-0.02,0-0.04,0-0.05c0-0.08,0-0.16-0.01-0.24
		C55.2,26.88,57.12,23.42,58.05,20.57z M50.59,26.49l1.92,0.27c-0.43,0.37-1.73,0.27-1.73,0.27L50.59,26.49z M36.3,16.4L36.3,16.4
		c1.36-1.38,3.28-2.64,5.94-3.16c0.36-0.07,0.74-0.13,1.13-0.17c0,0,0,0,0,0l-0.18,1.66c0,0,0.22-0.91,0.64-1.95
		c0.08-0.21,0.17-0.42,0.27-0.63c0.24-0.52,0.52-1.03,0.84-1.46c0.32,0.43,0.6,0.94,0.84,1.46c0.1,0.21,0.19,0.43,0.27,0.63
		c0.42,1.05,0.64,1.95,0.64,1.95l-0.18-1.66c0,0,0,0,0,0c0.37,0.04,0.72,0.09,1.06,0.16c0.02,0,0.05,0.01,0.07,0.01h0
		c2.66,0.51,4.58,1.77,5.94,3.16c0,0,0,0,0,0c2.3,2.33,3,5.01,3,5.01c-0.1,1.28-2.4,3.73-2.4,3.73c-0.07-0.85-0.2-1.65-0.36-2.4
		c-0.07-0.3-0.14-0.58-0.21-0.86c-0.23-0.84-0.5-1.61-0.8-2.3c-0.15-0.35-0.3-0.67-0.45-0.98c-0.25-0.51-0.51-0.96-0.75-1.36
		c-0.37-0.6-0.71-1.07-0.96-1.39c-0.04-0.05-0.08-0.1-0.12-0.15c-0.06-0.08-0.12-0.14-0.17-0.2c-0.03-0.03-0.05-0.06-0.07-0.08
		c-0.01-0.01-0.02-0.03-0.03-0.04c-0.03-0.04-0.06-0.06-0.07-0.08c-0.01-0.01-0.01-0.01-0.01-0.01c0.09,0.19,0.18,0.38,0.26,0.57
		c0,0,0,0.01,0,0.01c0.03,0.08,0.07,0.16,0.1,0.24c0.08,0.19,0.16,0.37,0.23,0.56c0.03,0.07,0.06,0.14,0.09,0.22
		c0.04,0.09,0.07,0.19,0.11,0.28c0.03,0.08,0.06,0.16,0.09,0.23c0.03,0.09,0.06,0.18,0.1,0.28c0.03,0.08,0.06,0.16,0.08,0.24
		c0.03,0.09,0.06,0.18,0.09,0.27c0.03,0.08,0.05,0.16,0.08,0.24c0.03,0.09,0.05,0.18,0.08,0.27c0.02,0.08,0.05,0.16,0.07,0.24
		c0.03,0.09,0.05,0.17,0.07,0.26c0.02,0.08,0.04,0.16,0.07,0.23c0.02,0.08,0.05,0.17,0.07,0.25c0.02,0.08,0.04,0.16,0.06,0.23
		c0.02,0.08,0.04,0.16,0.06,0.24c0.02,0.08,0.04,0.16,0.06,0.23c0.02,0.08,0.04,0.15,0.05,0.23c0.02,0.08,0.03,0.15,0.05,0.23
		c0.02,0.07,0.03,0.15,0.05,0.22c0.02,0.08,0.03,0.15,0.05,0.23c0.01,0.07,0.03,0.14,0.04,0.21c0.02,0.08,0.03,0.15,0.04,0.23
		c0.01,0.06,0.02,0.13,0.04,0.19c0.01,0.08,0.03,0.16,0.04,0.23c0.01,0.06,0.02,0.11,0.03,0.17c0.01,0.08,0.03,0.17,0.04,0.25
		c0.01,0.05,0.02,0.09,0.02,0.14c0.02,0.12,0.04,0.23,0.05,0.35c0,0.01,0,0.01,0,0.02c0.2,1.39,0.23,2.28,0.23,2.28l-2.99-0.43
		c-0.02-0.73-0.06-1.41-0.1-2.03c-0.25-3.56-0.86-5.52-1.18-6.34v0c-0.02-0.06-0.04-0.11-0.06-0.15c-0.03-0.07-0.05-0.13-0.08-0.17
		c-0.01-0.02-0.02-0.04-0.03-0.05c-0.01-0.02-0.02-0.03-0.02-0.04c-0.01-0.01-0.01-0.02-0.01-0.03c0-0.01-0.01-0.01-0.01-0.01
		c0,0,0,0,0,0c0,0,0,0,0,0v0c0.51,1.36,0.4,6.7,0.36,7.98c-1.02-0.73-2.27-1.17-3.61-1.2c-1.34,0.03-2.59,0.47-3.61,1.2
		c-0.04-1.27-0.15-6.62,0.36-7.98c0,0,0,0,0,0c0,0,0,0,0,0c0,0-0.01,0.02-0.03,0.06c-0.01,0.01-0.02,0.03-0.02,0.05c0,0,0,0,0,0
		c-0.02,0.04-0.04,0.08-0.06,0.13c-0.01,0.01-0.01,0.03-0.02,0.04c-0.01,0.03-0.02,0.05-0.04,0.09c-0.01,0.03-0.03,0.06-0.04,0.1
		l0,0c-0.32,0.82-0.93,2.79-1.18,6.34c-0.04,0.63-0.08,1.3-0.1,2.03l-2.99,0.43c0,0,0.03-0.89,0.23-2.28c0-0.01,0-0.01,0-0.02
		c0.02-0.11,0.03-0.23,0.05-0.35c0.01-0.04,0.02-0.09,0.02-0.14c0.01-0.08,0.03-0.16,0.04-0.25c0.01-0.06,0.02-0.11,0.03-0.17
		c0.01-0.08,0.03-0.16,0.04-0.23c0.01-0.06,0.02-0.13,0.04-0.19c0.01-0.08,0.03-0.15,0.04-0.23c0.01-0.07,0.03-0.14,0.04-0.2
		c0.02-0.08,0.03-0.15,0.05-0.23c0.02-0.07,0.03-0.15,0.05-0.22c0.02-0.08,0.03-0.15,0.05-0.23c0.02-0.08,0.04-0.15,0.05-0.23
		c0.02-0.08,0.04-0.15,0.06-0.23c0.02-0.08,0.04-0.16,0.06-0.24c0.02-0.08,0.04-0.16,0.06-0.23c0.02-0.08,0.04-0.17,0.07-0.25
		c0.02-0.08,0.04-0.16,0.07-0.24c0.02-0.09,0.05-0.17,0.07-0.26c0.02-0.08,0.05-0.16,0.07-0.24c0.03-0.09,0.05-0.18,0.08-0.26
		c0.02-0.08,0.05-0.16,0.08-0.24c0.03-0.09,0.06-0.18,0.09-0.27c0.03-0.08,0.05-0.16,0.08-0.24c0.03-0.09,0.06-0.18,0.1-0.28
		c0.03-0.08,0.06-0.16,0.09-0.23c0.03-0.09,0.07-0.19,0.11-0.28c0.03-0.07,0.06-0.15,0.09-0.22c0.07-0.18,0.15-0.37,0.23-0.55
		c0.03-0.08,0.07-0.16,0.1-0.24c0,0,0-0.01,0-0.01c0.08-0.19,0.17-0.38,0.26-0.57c0,0-0.02,0.02-0.05,0.06
		c-0.03,0.03-0.07,0.07-0.12,0.13c-0.03,0.04-0.07,0.08-0.11,0.13c-0.02,0.03-0.04,0.05-0.07,0.08c-0.05,0.07-0.11,0.14-0.18,0.22
		c-0.11,0.14-0.23,0.3-0.35,0.48c-0.09,0.12-0.17,0.25-0.27,0.39c-0.05,0.07-0.09,0.14-0.14,0.22c-0.07,0.11-0.14,0.23-0.22,0.35
		c-0.07,0.12-0.15,0.25-0.22,0.38c-0.05,0.09-0.1,0.18-0.15,0.27c-0.15,0.28-0.31,0.58-0.46,0.9c-0.3,0.64-0.6,1.36-0.85,2.15
		c-0.09,0.26-0.17,0.54-0.24,0.82c-0.08,0.28-0.15,0.57-0.21,0.86c-0.16,0.75-0.29,1.55-0.36,2.4c0,0-2.3-2.46-2.4-3.73
		C33.3,21.41,34,18.73,36.3,16.4z M39.31,26.49l-0.19,0.54c0,0-1.29,0.09-1.73-0.27L39.31,26.49z M27.93,21.26
		c-0.29-0.64-0.56-1.31-0.83-2.02c0,0-0.14-0.57-0.41-1.47c-0.02-0.06-0.04-0.12-0.05-0.19c0-0.02-0.01-0.03-0.01-0.05
		c-0.01-0.05-0.03-0.1-0.05-0.15c-0.01-0.02-0.01-0.03-0.02-0.05c-0.04-0.13-0.08-0.27-0.13-0.42c-0.01-0.02-0.01-0.03-0.02-0.05
		c-0.02-0.06-0.04-0.12-0.06-0.18c-0.01-0.02-0.01-0.03-0.02-0.05c-0.05-0.15-0.1-0.31-0.15-0.47c0-0.01-0.01-0.03-0.01-0.04
		c-0.02-0.07-0.05-0.14-0.07-0.21c0-0.01-0.01-0.03-0.01-0.04c-0.06-0.17-0.12-0.34-0.18-0.52c0-0.01-0.01-0.02-0.01-0.03
		c-0.03-0.08-0.06-0.17-0.09-0.25c0-0.01-0.01-0.01-0.01-0.02c-0.07-0.18-0.13-0.37-0.2-0.56c0,0,0-0.01,0-0.01
		c-0.03-0.09-0.07-0.19-0.1-0.28c0,0,0,0,0,0c-0.66-1.76-1.51-3.67-2.49-5.16c0,0,0,0,0,0c0,0,0,0,0,0
		c-0.11-0.16-0.22-0.32-0.33-0.48c0,0,0,0-0.01-0.01c-0.05-0.07-0.11-0.14-0.16-0.21c0,0-0.01-0.01-0.01-0.01
		c-0.11-0.14-0.22-0.28-0.34-0.41c-0.01-0.01-0.01-0.01-0.02-0.02c-0.05-0.06-0.1-0.11-0.15-0.17c-0.01-0.01-0.02-0.02-0.02-0.02
		c-0.11-0.12-0.23-0.23-0.34-0.34c-0.01-0.01-0.02-0.02-0.03-0.03c-0.05-0.04-0.09-0.08-0.14-0.12c-0.01-0.01-0.02-0.02-0.04-0.03
		c-0.11-0.09-0.23-0.18-0.35-0.26c-0.01-0.01-0.03-0.02-0.04-0.03c-0.04-0.03-0.09-0.06-0.13-0.09c-0.02-0.01-0.03-0.02-0.05-0.03
		c-0.12-0.07-0.23-0.13-0.35-0.18c-0.02-0.01-0.03-0.01-0.05-0.02c-0.04-0.02-0.09-0.03-0.13-0.05c-0.02-0.01-0.03-0.01-0.05-0.02
		c-0.06-0.02-0.12-0.04-0.18-0.05h0c0,0,0.07-0.02,0.2-0.06c0.01,0,0.02-0.01,0.04-0.01c0.08-0.02,0.19-0.05,0.32-0.08
		c0.04-0.01,0.09-0.02,0.14-0.03c0.05-0.01,0.09-0.02,0.14-0.03c0.11-0.02,0.22-0.05,0.35-0.08c0.27-0.06,0.59-0.12,0.94-0.18
		c0.14-0.02,0.29-0.05,0.44-0.07c0.08-0.01,0.15-0.02,0.23-0.03c0.18-0.02,0.37-0.05,0.56-0.07c0.11-0.01,0.21-0.02,0.32-0.03
		c0.19-0.02,0.39-0.04,0.6-0.05c0.21-0.02,0.43-0.03,0.66-0.04c0.22-0.01,0.45-0.02,0.69-0.02c0.12,0,0.24,0,0.35,0
		c0.36,0,0.73,0.01,1.1,0.03c2.33,0.11,4.98,0.61,7.53,1.9c0.02,0.01,0.03,0.01,0.05,0.02c0,0-0.22,0.14-0.55,0.42
		c-1.14,0.97-3.62,3.58-3.22,7.78c0,0.01,0,0.02,0,0.03c0,0,0.01,2.1,0.86,4.73c0.93,2.85,2.84,6.33,6.82,8.41
		c0,0.08,0,0.16-0.01,0.24c0,0.02,0,0.04,0,0.05c-0.05,1.69,0.68,2.99,1.1,3.59c0.14,0.21,0.25,0.34,0.27,0.36
		C38.86,32.86,32.12,30.57,27.93,21.26z M29.44,33.7l-0.64,1.49v-2.44L29.44,33.7z M21.47,34.84c-0.3-0.58-0.52-1.26-0.69-1.97
		c-0.11-0.47-0.2-0.96-0.26-1.44c-0.34-2.52-0.17-5.01-0.17-5.01c0.42-0.13,0.83-0.24,1.22-0.32c2.29-0.52,3.86-0.38,4.08-0.36
		c0.02,0,0.02,0,0.03,0h0c0.25,0.3,0.48,0.61,0.69,0.91c0.47,0.68,0.84,1.37,1.12,2.05c0.09,0.21,0.17,0.43,0.24,0.64
		c0.07,0.21,0.14,0.42,0.2,0.63c-0.07-0.08-0.14-0.16-0.21-0.24c-0.07-0.07-0.13-0.13-0.21-0.19c-0.07-0.06-0.15-0.11-0.22-0.17
		c-0.46-0.31-1.02-0.49-1.62-0.49c-0.35,0-0.69,0.06-1,0.18c-0.07,0.03-0.14,0.05-0.21,0.08c-0.13,0.06-0.26,0.13-0.39,0.21
		c-0.11,0.07-0.22,0.15-0.32,0.24c-0.01,0.01-0.02,0.02-0.03,0.03c-0.59,0.53-0.97,1.31-0.97,2.17c0,0.4,0.08,0.77,0.22,1.12
		c0.08,0.2,0.18,0.38,0.31,0.55c0.15,0.22,0.33,0.41,0.53,0.58c0.14,0.12,0.3,0.22,0.46,0.31c0.08,0.04,0.17,0.09,0.25,0.12
		c0.22,0.09,0.45,0.16,0.69,0.2c0.14,0.02,0.29,0.03,0.44,0.03c0.05,0,0.09,0,0.14,0c0.14-0.01,0.28-0.03,0.41-0.05
		c0.11-0.02,0.22-0.05,0.32-0.08c0.07-0.02,0.15-0.05,0.22-0.08c0.19-0.08,0.36-0.17,0.53-0.29c0.04-0.02,0.07-0.05,0.1-0.07
		c0.1-0.08,0.2-0.16,0.29-0.24c0.01,0,0.01-0.01,0.02-0.01c0.11-0.1,0.21-0.22,0.3-0.34c0.15-0.2,0.28-0.41,0.37-0.65c0,0,0,0,0,0
		c0,0,0,0,0,0c0,0.13,0,0.25,0,0.37c0,0.04,0,0.08,0,0.11c0,0.09,0,0.17-0.01,0.25c0,0.04,0,0.08,0,0.12c0,0.11-0.01,0.22-0.02,0.32
		c0,0,0,0,0,0c-0.01,0.13-0.02,0.26-0.03,0.38c-0.15,1.53-0.52,2.53-0.52,2.53c-1.2,0.1-2.25-0.03-3.13-0.24
		c-1.67-0.4-2.67-1.1-2.67-1.1C21.8,35.4,21.63,35.13,21.47,34.84z M27.81,31.79c0,0.37-0.09,0.72-0.26,1.02
		c-0.05,0.09-0.11,0.18-0.17,0.26c-0.04,0.06-0.09,0.11-0.13,0.16c-0.02,0.03-0.05,0.05-0.07,0.07c-0.05,0.05-0.1,0.09-0.15,0.14
		c-0.12,0.1-0.25,0.18-0.39,0.26c-0.05,0.02-0.09,0.05-0.14,0.07c-0.13,0.05-0.26,0.1-0.4,0.13c-0.03,0.01-0.07,0.01-0.11,0.02
		c-0.05,0.01-0.11,0.01-0.16,0.02c-0.05,0-0.11,0.01-0.17,0.01c-0.11,0-0.22-0.01-0.33-0.02c0,0,0,0,0,0c0,0,0,0,0,0
		c-0.04-0.01-0.07-0.01-0.11-0.02c-0.14-0.03-0.27-0.07-0.4-0.13c-0.05-0.02-0.1-0.04-0.14-0.07c-0.14-0.07-0.27-0.16-0.39-0.26
		c-0.05-0.04-0.1-0.09-0.15-0.14c-0.02-0.02-0.05-0.05-0.07-0.07c-0.05-0.05-0.09-0.1-0.13-0.16c-0.06-0.08-0.12-0.17-0.17-0.26
		c-0.17-0.3-0.26-0.65-0.26-1.02c0-1.19,0.96-2.15,2.15-2.15c0.68,0,1.29,0.32,1.68,0.81C27.64,30.82,27.81,31.28,27.81,31.79z
		 M26.64,37.9v0.74c-0.62-0.41-2.57-0.59-2.57-0.59l0.27-0.59C25.35,37.95,26.64,37.9,26.64,37.9z M20.48,41.47
		c1.07-1.67,1.75-2.67,1.75-2.67c4.04-0.04,7,2.17,7,2.17s-1.06,1.25-2.8,4.34l-0.64-0.29l-5.88-2.67
		C20.11,42.04,20.3,41.74,20.48,41.47z M19.27,61.57c-0.01,0.02-0.01,0.03-0.02,0.05c-0.65,1.8-1.31,3.73-1.98,5.81l-7.54-4.2
		c0.35-1.24,0.79-2.52,1.3-3.82c0.1-0.27,0.21-0.53,0.32-0.8c0.38-0.95,0.79-1.9,1.23-2.85l7.57,3.44
		C19.86,59.96,19.56,60.75,19.27,61.57z M20.49,58.3l-0.98-0.45l-6.53-2.97c0.22-0.47,0.44-0.93,0.67-1.39
		c0.72-1.46,1.46-2.88,2.21-4.23l7.04,3.2C22.14,54.18,21.33,56.12,20.49,58.3z M23.29,51.59l-0.66-0.3l-6.31-2.87
		c0.23-0.41,0.46-0.82,0.69-1.21c0.86-1.49,1.68-2.86,2.4-4.04l6.56,2.98C25.18,47.6,24.28,49.4,23.29,51.59z M22.82,71.17
		l-0.51-0.32l4.9-4.18l0.53-0.45l1.17,1.49c-0.18-0.09-0.39-0.14-0.6-0.14c-0.77,0-1.4,0.63-1.4,1.4s0.63,1.4,1.4,1.4
		c0.77,0,1.4-0.63,1.4-1.4c0-0.1-0.01-0.19-0.03-0.28l0.78,0.99c-0.02,0.04-0.04,0.07-0.07,0.11l-2.89,4.3L22.82,71.17z
		 M29.14,69.08c-0.06,0.45-0.47,0.77-0.93,0.72c-0.45-0.06-0.77-0.47-0.72-0.93c0.06-0.45,0.47-0.77,0.93-0.72
		C28.87,68.21,29.2,68.63,29.14,69.08z M28.67,74.82l-0.14-0.09l-0.61-0.38l2.88-4.28c0.49-0.74,0.47-1.71-0.06-2.42l-2.31-3.12
		l-0.03-0.05c0.09-0.06,0.19-0.09,0.3-0.09h0c0.11,0,0.23,0.01,0.34,0.03c0.57,0.09,1.09,0.42,1.41,0.91l1.92,2.92
		c0.18,0.27,0.18,0.61,0.02,0.89l-3.5,5.82L28.67,74.82z M58.55,76.2l-0.18,0.1l-0.39,0.22l-0.11,0.06l-1.58,0.89l-6.4,3.59
		l-0.44,0.25l-4.5,2.53l0-0.09c0,0,0,0,0,0l0,0.09l-4.53-2.54l-0.41-0.23l-6.65-3.73l-1.34-0.75l-0.11-0.06l-0.39-0.22l-0.41-0.23
		l-0.34-0.19l-0.95-0.53l3.34-5.79c0.29,0.19,0.61,0.37,0.94,0.55c3.88,2.11,9.73,3.61,9.73,3.61c0.17,2.39,1.13,3.34,1.13,3.34
		s0.92-0.95,1.09-3.34c0,0,5.85-1.51,9.73-3.61c0.33-0.18,0.64-0.36,0.94-0.55l3.34,5.79L58.55,76.2z M61.37,74.73l-0.14,0.09
		l-0.22,0.14l-3.5-5.82c-0.16-0.27-0.16-0.62,0.02-0.89l1.92-2.92c0.32-0.49,0.84-0.82,1.41-0.91c0.11-0.02,0.22-0.03,0.34-0.03
		c0.11,0,0.21,0.03,0.3,0.09l-0.04,0.05l-2.31,3.12c-0.53,0.71-0.55,1.69-0.06,2.42l2.88,4.28L61.37,74.73z M67.58,70.85l-0.51,0.32
		l-4.69,2.93l-2.89-4.3c-0.02-0.04-0.05-0.07-0.07-0.11l0.78-0.99c-0.02,0.09-0.03,0.18-0.03,0.28c0,0.77,0.63,1.4,1.4,1.4
		s1.4-0.63,1.4-1.4s-0.63-1.4-1.4-1.4c-0.22,0-0.42,0.05-0.6,0.14l1.17-1.49l0.53,0.45L67.58,70.85z M61.48,68.15
		c0.45-0.06,0.87,0.26,0.93,0.72c0.06,0.45-0.26,0.87-0.72,0.93c-0.45,0.06-0.87-0.26-0.93-0.72C60.7,68.63,61.02,68.21,61.48,68.15
		z M63.93,46.15l6.56-2.98c0.73,1.18,1.55,2.55,2.4,4.04c0.23,0.4,0.46,0.8,0.69,1.21l-6.31,2.87l-0.66,0.3
		C65.62,49.4,64.71,47.6,63.93,46.15z M67,52.46l7.04-3.2c0.74,1.35,1.49,2.78,2.21,4.23c0.23,0.46,0.45,0.93,0.67,1.39l-6.53,2.97
		l-0.98,0.45C68.57,56.12,67.76,54.18,67,52.46z M70.65,61.61c-0.01-0.02-0.01-0.03-0.02-0.05c-0.3-0.82-0.59-1.61-0.88-2.38
		l7.57-3.44c0.43,0.95,0.84,1.9,1.23,2.85c0.11,0.27,0.21,0.53,0.32,0.8c0.5,1.3,0.94,2.58,1.3,3.82l-7.54,4.2
		C71.96,65.34,71.29,63.41,70.65,61.61z"/>
	<path d="M44.8,58.03L44.8,58.03l0.03,0c0.01,0,0.02,0,0.03,0l0.11,0c0,0,3.32-0.3,3.87,2.39c0,0,0.05-0.6-0.15-1.53
		c0,0,0.68,0.26,1.06,0.87c0,0,0.09-3.32-4.77-2.98h-0.04c-4.86-0.34-4.77,2.98-4.77,2.98c0.37-0.61,1.06-0.87,1.06-0.87
		c-0.2,0.94-0.15,1.53-0.15,1.53C41.55,58.05,44.18,58.01,44.8,58.03z"/>
	<path d="M39.76,51.07c0.03,0.19,0.12,0.37,0.24,0.5c0.02,0.02,0.05,0.05,0.07,0.07c0.06,0.05,0.13,0.09,0.2,0.12
		c0.12,0.05,0.26,0.08,0.4,0.07c0.02,0,0.03,0,0.05,0l1.51-0.17c0.2-0.02,0.41,0.04,0.55,0.19l2.15,2.06v0.01c0.01,0,0.02,0,0.04,0
		c0,0,0,0,0,0V53.9l2.15-2.06c0.15-0.14,0.35-0.21,0.55-0.19l1.51,0.17c0.02,0,0.03,0,0.05,0c0.08,0.01,0.17,0,0.24-0.02
		c0.05-0.01,0.1-0.03,0.15-0.05c0.07-0.03,0.14-0.07,0.2-0.12h0c0.03-0.02,0.05-0.04,0.07-0.07c0.13-0.13,0.22-0.3,0.24-0.5
		l0.14-1.08l1.93,3.12l-0.09-1.47c-0.07-1.15-0.6-2.22-1.48-2.98l-1.64-1.42c-0.6-0.52-1.52-0.38-1.95,0.29
		c-0.3,0.47-0.55,1.03-0.55,1.54l1.14-1.02c0,0,1.73-0.85,1.67,2.12c0,0.03,0,0.07,0,0.1c0,0,0.05,0.7-0.66,0.15
		c0,0-0.61-0.85-1.91,0.34c0,0-1.02,0.87-1.79,0.78l0-0.06c0,0,0,0,0,0l0,0.06c-0.77,0.09-1.79-0.78-1.79-0.78
		c-1.3-1.19-1.91-0.34-1.91-0.34c-0.72,0.55-0.66-0.15-0.66-0.15c0-0.03,0-0.07,0-0.1c-0.06-2.97,1.67-2.12,1.67-2.12l1.14,1.02
		c0-0.51-0.26-1.06-0.55-1.54c-0.43-0.67-1.35-0.81-1.95-0.29l-1.64,1.42c-0.87,0.75-1.4,1.83-1.48,2.98l-0.09,1.47l1.93-3.12
		L39.76,51.07z"/>
	<path d="M47.41,55.36c0,0,3.87-0.02,4.33,3.61c0,0,0.46-2.88-1.55-4.74l0.34,1.33c0,0-1.46-1.15-3.47-1.38
		c-0.3-0.03-0.61-0.01-0.91,0.07l-1.14,0.27l-0.06,0.02l-0.08-0.02l-1.13-0.27c-0.3-0.08-0.6-0.1-0.91-0.07
		c-2.01,0.23-3.47,1.38-3.47,1.38l0.34-1.33c-2.01,1.86-1.55,4.74-1.55,4.74c0.46-3.63,4.33-3.61,4.33-3.61H47.41z"/>
	<path d="M49.41,29.25c0-2.49-1.99-4.52-4.46-4.58c-2.47,0.06-4.46,2.09-4.46,4.58c0,2.49,1.99,4.52,4.46,4.58
		C47.42,33.77,49.41,31.74,49.41,29.25z M42.22,32.41c-0.91-0.75-1.49-1.89-1.49-3.16c0-1.37,0.67-2.58,1.7-3.33
		c0.68-0.49,1.5-0.78,2.4-0.78c0.04,0,0.08,0,0.12,0c0.04,0,0.08,0,0.12,0c0.9,0,1.73,0.29,2.4,0.78c1.03,0.75,1.7,1.96,1.7,3.33
		c0,1.27-0.58,2.41-1.49,3.16c-0.71,0.59-1.62,0.94-2.61,0.94c-0.04,0-0.08,0-0.12,0c-0.04,0-0.08,0-0.12,0
		C43.84,33.35,42.93,33,42.22,32.41z"/>
</g>
</svg>
