<svg xmlns="http://www.w3.org/2000/svg" viewBox="0 0 33.32028 37.61382">
  <defs>
    <style>
      .a {
        fill: #fdc305;
      }

      .b {
        fill: #f06351;
      }
    </style>
  </defs>
  <title>logo-mobile</title>
  <g>
    <g>
      <path class="a" d="M6.07074,20.7235l.05316-2.26581A143.66051,143.66051,0,0,1,26.28858,17.127q-.01554.90789-.05784,1.82051A25.45221,25.45221,0,0,1,32.26657,17.134,16.67029,16.67029,0,0,0,.18768,20.385C2.35965,20.52054,6.07074,20.7235,6.07074,20.7235Z"/>
      <path class="a" d="M27.23874,24.2275c-1.16,1.28432-1.392,1.2-1.392,3.456,0,.90848.02761,4.89768.0351,9.17227A16.68442,16.68442,0,0,0,33.03549,19.898,33.68288,33.68288,0,0,0,27.23874,24.2275Z"/>
      <path class="a" d="M6.35874,25.7155s-3.792-1.44-5.184-1.824A10.58777,10.58777,0,0,0,0,23.6082,16.66424,16.66424,0,0,0,8.67817,37.61382Z"/>
    </g>
    <path class="b" d="M26.29451,17.12177A90.15644,90.15644,0,0,0,24.89267.65428s-.144-1.296-.864-.24a14.16932,14.16932,0,0,0-1.2,3.936,70.34529,70.34529,0,0,0-12.768.336c-.816-2.736-2.208-3.936-2.88-3.648s-.72,3.312-.72,3.312l-.33084,14.1022A143.65891,143.65891,0,0,1,26.29451,17.12177Z"/>
    <path d="M12.41267,13.99828c-.04554-.09107,1.02216.68072,1.40616.92072s.60984.42328.60984.59128-.264.336-.624.336-.912-.12-.96-.264c0,0,.6-.024.936-.024h.288A8.24388,8.24388,0,0,1,12.41267,13.99828Z"/>
    <path d="M19.88567,14.11153s-1.04715,1.27434-1.08613,1.33282-.1657.34115.18519.29241a7.92777,7.92777,0,0,0,1.21837-.28266c.10722-.05848.06943-.19567-.117-.17544-.20456.02219-.68229.04873-.98445.10721l.841-1.2608S19.96909,14.00664,19.88567,14.11153Z"/>
    <path d="M16.75367,20.20228a2.3045,2.3045,0,0,0,1.089-1.008c.279-.657.036-.91207-.441-.978a2.44272,2.44272,0,0,0-1.737.339c-.396.369-.342.729-.054.954A4.9752,4.9752,0,0,0,16.75367,20.20228Z"/>
    <path class="b" d="M16.34867,21.45328a1.96212,1.96212,0,0,1-.45842.594,1.72418,1.72418,0,0,1-1.01761.38674,2.158,2.158,0,0,1-1.45144-.44528,2.08255,2.08255,0,0,1-.53256-.44178.9429.9429,0,0,0-.356-.25268s.74756,4.0988,2.56556,4.7468,2.14356-.7493,2.20048-1.133a5.59392,5.59392,0,0,0-.82017-3.22335C16.46394,21.38143,16.44786,21.58463,16.34867,21.45328Z"/>
    <path d="M14.70786,22.58633l-.01579-.00007A3.45791,3.45791,0,0,1,12.35918,21.168a.144.144,0,0,1,.23269-.16967,3.23116,3.23116,0,0,0,2.10365,1.29994l.012.00007a2.08674,2.08674,0,0,0,1.6277-.98989l.14231-.18854.10238.2129c.00359.00735.373.75551.98852.794.49634.03121,1.05244-.41109,1.61578-1.27807a.144.144,0,1,1,.24146.15693c-.63275.97387-1.26478,1.44732-1.87685,1.40847a1.54694,1.54694,0,0,1-1.1172-.764A2.25008,2.25008,0,0,1,14.70786,22.58633Z"/>
    <path class="b" d="M26.23667,18.92366a58.14752,58.14752,0,0,0-5.064,5.19133,31.63669,31.63669,0,0,1-5.292,4.87564c-.216-.52615-1.62-1.50829-1.62-1.50829s-3.132-2.13967-5.184-3.82335a33.11491,33.11491,0,0,1-3.12585-3.01161c-.292-.01564-1.06548-.0572-2.006-.10892A22.54731,22.54731,0,0,0,15.91667,29.3414c.864-.14031,3.276-1.85906,5.076-3.26212a57.44138,57.44138,0,0,0,5.94-5.89287,6.0678,6.0678,0,0,0,1.136-1.97016C26.95935,18.59868,26.23667,18.92366,26.23667,18.92366Z"/>
  </g>
</svg>
