<svg xmlns="http://www.w3.org/2000/svg" xmlns:xlink="http://www.w3.org/1999/xlink" viewBox="0 0 2924.35951 12122.7312">
  <defs>
    <style>
      .a {
        fill: url(#a);
      }

      .b {
        fill: url(#b);
      }

      .c {
        fill: url(#c);
      }

      .d {
        fill: url(#d);
      }

      .e {
        fill: url(#e);
      }

      .f {
        fill: url(#f);
      }

      .g {
        fill: url(#g);
      }

      .h {
        fill: url(#h);
      }

      .i {
        fill: url(#i);
      }

      .j {
        fill: url(#j);
      }

      .k {
        fill: url(#k);
      }

      .l {
        fill: url(#l);
      }

      .m {
        fill: url(#m);
      }

      .n {
        fill: url(#n);
      }

      .o {
        fill: url(#o);
      }

      .p {
        fill: none;
      }

      .q {
        isolation: isolate;
      }

      .as, .r {
        fill: #fff;
      }

      .s {
        clip-path: url(#p);
      }

      .ak, .an, .az, .t, .w {
        opacity: 0.21;
      }

      .t {
        fill: url(#q);
      }

      .af, .bk, .u {
        opacity: 0.9;
      }

      .u {
        fill: url(#r);
      }

      .v {
        clip-path: url(#s);
      }

      .w {
        fill: url(#t);
      }

      .am, .x {
        opacity: 0.65;
      }

      .x {
        fill: url(#u);
      }

      .y {
        opacity: 0.8;
      }

      .z {
        mask: url(#v);
      }

      .aa {
        fill: #ecb998;
      }

      .aa, .as {
        mix-blend-mode: overlay;
      }

      .ab {
        mask: url(#w);
      }

      .ac {
        mask: url(#x);
      }

      .ad {
        opacity: 0.52;
      }

      .ae {
        clip-path: url(#y);
      }

      .af {
        fill: url(#z);
      }

      .ag {
        mask: url(#aa);
      }

      .ah {
        mask: url(#ab);
      }

      .ai {
        mask: url(#ac);
      }

      .aj {
        clip-path: url(#ad);
      }

      .ak {
        fill: url(#ae);
      }

      .al {
        clip-path: url(#af);
      }

      .am {
        fill: url(#ag);
      }

      .an {
        fill: url(#ah);
      }

      .ao {
        fill: #f5f6f7;
      }

      .ap {
        fill: url(#ai);
      }

      .aq {
        mix-blend-mode: soft-light;
      }

      .ar {
        mask: url(#aj);
      }

      .at {
        mask: url(#ak);
      }

      .au {
        mask: url(#al);
      }

      .av {
        mask: url(#am);
      }

      .aw {
        mask: url(#an);
      }

      .ax {
        mask: url(#ao);
      }

      .ay {
        clip-path: url(#ap);
      }

      .az {
        fill: url(#aq);
      }

      .ba {
        opacity: 0.13;
      }

      .bb {
        fill: #459ad4;
      }

      .bc, .bl {
        fill: #e92429;
      }

      .bc {
        fill-rule: evenodd;
      }

      .bd {
        mask: url(#ar);
      }

      .be {
        mask: url(#as);
      }

      .bf {
        mask: url(#at);
      }

      .bg {
        fill: #2a3570;
      }

      .bh {
        font-size: 114px;
        font-family: MyriadPro-Regular, Myriad Pro;
      }

      .bi {
        clip-path: url(#au);
      }

      .bj {
        clip-path: url(#av);
      }

      .bk {
        fill: url(#aw);
      }
    </style>
    <radialGradient id="a" cx="3992.36068" cy="4814.14645" r="62.16372" gradientTransform="translate(70675.04517 -48370.49379) rotate(90) scale(13.65584 14.48337)" gradientUnits="userSpaceOnUse">
      <stop offset="0.00562" stop-color="#fff"/>
      <stop offset="1" stop-color="#010101"/>
    </radialGradient>
    <radialGradient id="b" cx="3992.36015" cy="4814.14249" r="40.59209" xlink:href="#a"/>
    <radialGradient id="c" cx="2898.65392" cy="4807.05439" r="40.59209" gradientTransform="translate(40643.61396 -12326.00645) rotate(90) scale(4.7184 8.2854)" xlink:href="#a"/>
    <radialGradient id="d" cx="2898.65642" cy="4807.05873" r="26.15311" gradientTransform="translate(40643.61396 -12326.00645) rotate(90) scale(4.7184 8.2854)" xlink:href="#a"/>
    <radialGradient id="e" cx="4213.45085" cy="4809.28743" r="62.16372" gradientTransform="translate(70675.04523 -50116.79019) rotate(90) scale(14.07646 14.48337)" xlink:href="#a"/>
    <radialGradient id="f" cx="4213.45032" cy="4809.28347" r="40.59209" gradientTransform="translate(70675.04523 -50116.79019) rotate(90) scale(14.07646 14.48337)" xlink:href="#a"/>
    <radialGradient id="g" cx="4213.45282" cy="4809.28781" r="26.15311" gradientTransform="translate(70675.04523 -50116.79019) rotate(90) scale(14.07646 14.48337)" xlink:href="#a"/>
    <radialGradient id="h" cx="3992.36265" cy="4814.14684" r="26.15311" xlink:href="#a"/>
    <radialGradient id="i" cx="3971.17702" cy="4804.21498" r="36.09482" gradientTransform="translate(50960.11733 -48370.49409) rotate(90) scale(13.65584 10.4507)" xlink:href="#a"/>
    <radialGradient id="j" cx="3971.17671" cy="4804.21268" r="23.56944" gradientTransform="translate(50960.11733 -48370.49409) rotate(90) scale(13.65584 10.4507)" xlink:href="#a"/>
    <radialGradient id="k" cx="3971.17816" cy="4804.2152" r="15.18558" gradientTransform="translate(50960.11733 -48370.49409) rotate(90) scale(13.65584 10.4507)" xlink:href="#a"/>
    <radialGradient id="l" cx="2779.51287" cy="4776.48962" r="93.14306" gradientTransform="translate(42824.82457 -13716.42071) rotate(90) scale(5.2338 8.71676)" xlink:href="#a"/>
    <radialGradient id="m" cx="2779.51207" cy="4776.48369" r="60.82119" gradientTransform="translate(42824.82457 -13716.42071) rotate(90) scale(5.2338 8.71676)" xlink:href="#a"/>
    <radialGradient id="n" cx="2779.51582" cy="4776.4902" r="39.18654" gradientTransform="translate(42824.82457 -13716.42071) rotate(90) scale(5.2338 8.71676)" xlink:href="#a"/>
    <radialGradient id="o" cx="2898.65445" cy="4807.05835" r="62.16372" gradientTransform="translate(40643.61396 -12326.00645) rotate(90) scale(4.7184 8.2854)" xlink:href="#a"/>
    <clipPath id="p" transform="translate(256.0838)">
      <rect class="p" x="0.17742" y="8275.06481" width="1920" height="2432.81812"/>
    </clipPath>
    <linearGradient id="q" x1="1186.17815" y1="8325.72229" x2="1186.17815" y2="11189.61322" gradientUnits="userSpaceOnUse">
      <stop offset="0.34839" stop-color="#91c5dd" stop-opacity="0.5"/>
      <stop offset="0.64939" stop-color="#459ad4"/>
    </linearGradient>
    <linearGradient id="r" x1="1216.0838" y1="9206.22456" x2="1216.0838" y2="9896.88686" gradientUnits="userSpaceOnUse">
      <stop offset="0" stop-color="#90cfef" stop-opacity="0"/>
      <stop offset="0.88419" stop-color="#459ad4"/>
    </linearGradient>
    <clipPath id="s" transform="translate(256.0838)">
      <polygon class="p" points="1919.927 6484.825 0.177 7162.892 0.177 5168.731 1920.177 5169.481 1919.927 6484.825"/>
    </clipPath>
    <linearGradient id="t" x1="1194.62387" y1="5115.98699" x2="1194.62387" y2="6309.36105" gradientUnits="userSpaceOnUse">
      <stop offset="0.19135" stop-color="#90cfef" stop-opacity="0"/>
      <stop offset="0.79602" stop-color="#459ad4"/>
    </linearGradient>
    <linearGradient id="u" x1="1143.03334" y1="3134.18724" x2="1143.03334" y2="7486.94777" gradientUnits="userSpaceOnUse">
      <stop offset="0.52649" stop-color="#90cfef" stop-opacity="0.5"/>
      <stop offset="1" stop-color="#459ad4"/>
    </linearGradient>
    <mask id="v" x="305.76144" y="5299.62844" width="1800.64317" height="1697.82999" maskUnits="userSpaceOnUse">
      <g transform="translate(256.0838)">
        <path class="a" d="M950.01372,6997.45843c-497.38317,0-900.33608-379.96081-900.33608-848.79778,0-469.04468,402.95291-849.03221,900.33608-849.03221,497.33732,0,900.30709,379.98753,900.30709,849.03221C1850.32081,6617.49762,1447.351,6997.45843,950.01372,6997.45843Z"/>
      </g>
    </mask>
    <mask id="w" x="618.20361" y="5594.24231" width="1175.87348" height="1108.58767" maskUnits="userSpaceOnUse">
      <g transform="translate(256.0838)">
        <path class="b" d="M950.01372,6702.83c-324.71891,0-587.89391-248.15337-587.89391-554.16934,0-306.2176,263.175-554.41834,587.89391-554.41834,324.76459,0,587.97957,248.20074,587.97957,554.41834C1537.99329,6454.67662,1274.77831,6702.83,950.01372,6702.83Z"/>
      </g>
    </mask>
    <mask id="x" x="827.28309" y="5791.43633" width="757.5887" height="714.26795" maskUnits="userSpaceOnUse">
      <g transform="translate(256.0838)">
        <path class="h" d="M950.01372,6505.70429c-209.197,0-378.81443-159.93555-378.81443-357.04364,0-197.375,169.61739-357.22432,378.81443-357.22432,209.25409,0,378.77427,159.84931,378.77427,357.22432C1328.788,6345.76874,1159.26781,6505.70429,950.01372,6505.70429Z"/>
      </g>
    </mask>
    <clipPath id="y" transform="translate(256.0838)">
      <rect class="p" x="1.12441" y="6886.71586" width="970.09661" height="428.33616" transform="translate(972.34543 14201.76788) rotate(-180)"/>
    </clipPath>
    <linearGradient id="z" x1="4597.31957" y1="-382.7843" x2="4597.31957" y2="216.37323" gradientTransform="translate(-3890.95305 7224.03265)" xlink:href="#t"/>
    <mask id="aa" x="631.60346" y="5366.34736" width="754.41661" height="985.83013" maskUnits="userSpaceOnUse">
      <g transform="translate(256.0838)">
        <path class="i" d="M752.734,6352.17749c-208.389,0-377.21438-220.62092-377.21438-492.847,0-272.34669,168.82543-492.98313,377.21438-492.98313,208.36973,0,377.20223,220.63644,377.20223,492.98313C1129.93627,6131.55657,961.10377,6352.17749,752.734,6352.17749Z"/>
      </g>
    </mask>
    <mask id="ab" x="762.50755" y="5537.41233" width="492.65646" height="643.69173" maskUnits="userSpaceOnUse">
      <g transform="translate(256.0838)">
        <path class="j" d="M752.734,6181.10406c-136.04769,0-246.31029-144.08807-246.31029-321.77357,0-177.80258,110.2626-321.91816,246.31029-321.91816,136.06682,0,246.34617,144.11558,246.34617,321.91816C999.08021,6037.016,888.80086,6181.10406,752.734,6181.10406Z"/>
      </g>
    </mask>
    <mask id="ac" x="850.10571" y="5651.91131" width="317.40742" height="414.73344" maskUnits="userSpaceOnUse">
      <g transform="translate(256.0838)">
        <path class="k" d="M752.734,6066.64475c-87.64742,0-158.71213-92.86518-158.71213-207.31426,0-114.60407,71.06471-207.41918,158.71213-207.41918,87.67131,0,158.69529,92.81511,158.69529,207.41918C911.42933,5973.77957,840.40535,6066.64475,752.734,6066.64475Z"/>
      </g>
    </mask>
    <clipPath id="ad" transform="translate(256.0838)">
      <rect class="p" x="0.17742" y="2912.06493" width="1920" height="2432.81812"/>
    </clipPath>
    <linearGradient id="ae" x1="1186.17815" y1="2962.72241" x2="1186.17815" y2="5826.61335" gradientUnits="userSpaceOnUse">
      <stop offset="0.34839" stop-color="#90cfef" stop-opacity="0.5"/>
      <stop offset="0.64939" stop-color="#459ad4"/>
    </linearGradient>
    <clipPath id="af" transform="translate(256.0838)">
      <polygon class="p" points="1920.134 1987.944 0.221 2666.606 0.177 672.148 1920.177 672.481 1920.134 1987.944"/>
    </clipPath>
    <linearGradient id="ag" x1="1143.94664" y1="828.73783" x2="1143.94664" y2="3200.06566" xlink:href="#ae"/>
    <linearGradient id="ah" x1="1195.50188" y1="619.10684" x2="1195.50188" y2="1812.4809" xlink:href="#t"/>
    <linearGradient id="ai" x1="256.30482" y1="244.4812" x2="2176.30482" y2="244.4812" gradientUnits="userSpaceOnUse">
      <stop offset="0" stop-color="#90cfef"/>
      <stop offset="1" stop-color="#459ad4"/>
    </linearGradient>
    <mask id="aj" x="633.50683" y="343.48119" width="1623.7784" height="975.0034" maskUnits="userSpaceOnUse">
      <g transform="translate(256.0838)">
        <path class="l" d="M1189.32531,1318.48459c-448.52866,0-811.90228-218.198-811.90228-487.43439,0-269.35568,363.37362-487.569,811.90228-487.569,448.4873,0,811.87613,218.21333,811.87613,487.569C2001.20144,1100.28661,1637.81261,1318.48459,1189.32531,1318.48459Z"/>
      </g>
    </mask>
    <mask id="ak" x="915.25996" y="512.66746" width="1060.37553" height="636.62249" maskUnits="userSpaceOnUse">
      <g transform="translate(256.0838)">
        <path class="m" d="M1189.32531,1149.29c-292.824,0-530.14915-142.50565-530.14915-318.23975,0-175.84988,237.32513-318.38274,530.14915-318.38274,292.8652,0,530.22638,142.53286,530.22638,318.38274C1719.55169,1006.7843,1482.19051,1149.29,1189.32531,1149.29Z"/>
      </g>
    </mask>
    <mask id="al" x="1103.803" y="625.90898" width="683.17599" height="410.17869" maskUnits="userSpaceOnUse">
      <g transform="translate(256.0838)">
        <path class="n" d="M1189.32531,1036.08767c-188.64906,0-341.60611-91.8453-341.60611-205.03747,0-113.34545,152.957-205.14122,341.60611-205.14122,188.70049,0,341.56988,91.79577,341.56988,205.14122C1530.89519,944.24237,1378.0258,1036.08767,1189.32531,1036.08767Z"/>
      </g>
    </mask>
    <mask id="am" x="556.25573" y="1057.68548" width="1030.08159" height="586.63848" maskUnits="userSpaceOnUse">
      <g transform="translate(256.0838)">
        <path class="o" d="M815.221,1644.324c-284.53458,0-515.04909-131.285-515.04909-293.27874,0-162.0655,230.51451-293.35974,515.04909-293.35974,284.50835,0,515.0325,131.29424,515.0325,293.35974C1330.25352,1513.039,1099.72937,1644.324,815.221,1644.324Z"/>
      </g>
    </mask>
    <mask id="an" x="734.99238" y="1159.4812" width="672.67388" height="383.042" maskUnits="userSpaceOnUse">
      <g transform="translate(256.0838)">
        <path class="c" d="M815.221,1542.5232c-185.75973,0-336.31244-85.74257-336.31244-191.478,0-105.80508,150.55271-191.564,336.31244-191.564,185.78585,0,336.36144,85.75894,336.36144,191.564C1151.58246,1456.78063,1001.00687,1542.5232,815.221,1542.5232Z"/>
      </g>
    </mask>
    <mask id="ao" x="854.59904" y="1227.61618" width="433.38858" height="246.79566" maskUnits="userSpaceOnUse">
      <g transform="translate(256.0838)">
        <path class="d" d="M815.221,1474.41183c-119.67392,0-216.70578-55.26133-216.70578-123.36661,0-68.19751,97.03186-123.429,216.70578-123.429,119.70655,0,216.6828,55.23153,216.6828,123.429C1031.90382,1419.1505,934.92757,1474.41183,815.221,1474.41183Z"/>
      </g>
    </mask>
    <clipPath id="ap" transform="translate(256.0838)">
      <rect class="p" x="0.17742" y="1956.88665" width="1920" height="853.14"/>
    </clipPath>
    <linearGradient id="aq" x1="4312.17195" y1="1079.14862" x2="4312.17195" y2="2272.52268" gradientTransform="translate(5599.46608 3979.73536) rotate(180)" xlink:href="#t"/>
    <mask id="ar" x="376.13653" y="8318.62084" width="1800.64317" height="1750.12574" maskUnits="userSpaceOnUse">
      <g transform="translate(256.0838)">
        <path class="e" d="M1020.38882,10068.74658c-497.38318,0-900.33609-391.66418-900.33609-874.94205,0-483.492,402.95291-875.18369,900.33609-875.18369,497.33732,0,900.30709,391.69172,900.30709,875.18369C1920.69591,9677.0824,1517.72614,10068.74658,1020.38882,10068.74658Z"/>
      </g>
    </mask>
    <mask id="as" x="688.5787" y="8622.30926" width="1175.87348" height="1142.73387" maskUnits="userSpaceOnUse">
      <g transform="translate(256.0838)">
        <path class="f" d="M1020.38882,9765.04313c-324.71892,0-587.89392-255.79687-587.89392-571.2386,0-315.64957,263.175-571.49527,587.89392-571.49527,324.76459,0,587.97956,255.8457,587.97956,571.49527C1608.36838,9509.24626,1345.15341,9765.04313,1020.38882,9765.04313Z"/>
      </g>
    </mask>
    <mask id="at" x="897.65818" y="8825.57716" width="757.5887" height="736.2685" maskUnits="userSpaceOnUse">
      <g transform="translate(256.0838)">
        <path class="g" d="M1020.38882,9561.84566c-209.197,0-378.81444-164.86181-378.81444-368.04113,0-203.45446,169.61739-368.22737,378.81444-368.22737,209.25408,0,378.77427,164.77291,378.77427,368.22737C1399.16309,9396.98385,1229.6429,9561.84566,1020.38882,9561.84566Z"/>
      </g>
    </mask>
    <clipPath id="au" transform="translate(256.0838)">
      <rect class="p" x="1307.12441" y="5021.4812" width="614" height="584"/>
    </clipPath>
    <clipPath id="av" transform="translate(256.0838)">
      <rect class="p" x="1363.0302" y="5118.71913" width="970.09661" height="428.33616"/>
    </clipPath>
    <linearGradient id="aw" x1="3459.41378" y1="-1612.78745" x2="3459.41378" y2="-1013.62991" gradientTransform="translate(5599.46608 3979.73536) rotate(180)" xlink:href="#t"/>
    
  </defs>
  <title>Asset 1</title>
  <g class="q">
    <g>
      <rect class="r" x="256.26122" y="234.4812" width="1920" height="11888.25"/>
      <rect class="p" x="256.26122" y="234.9812" width="1920" height="1080"/>
      <g class="s">
        <polygon class="t" points="2335.064 8325.722 37.293 9137.465 41.925 9545.161 37.293 9545.161 47.77 10467.254 2252.6 9665.175 2302.977 9665.175 2335.064 8325.722"/>
      </g>
      <rect class="u" x="256.0838" y="9206.22456" width="1920" height="690.6623"/>
      <g class="v">
        <g>
          <polygon class="r" points="1426.536 5624.393 109.69 6102.787 100.1 6076.129 1416.946 5597.735 1426.536 5624.393"/>
          <polygon class="w" points="2234.869 5320.329 2244.957 5115.987 158.82 5856.739 144.29 6309.361 150.741 6309.154 158.82 6057.499 2234.869 5320.329"/>
          <polygon class="x" points="2286.067 5325.618 0 6137.361 2.91 6309.483 0 6309.483 19.908 7486.948 2245.186 6559.855 2246.148 6519.481 2257.613 6519.481 2286.067 5325.618"/>
        </g>
      </g>
      <g class="y">
        <g class="z">
          <path class="aa" d="M950.01372,6997.45843c-497.38317,0-900.33608-379.96081-900.33608-848.79778,0-469.04468,402.95291-849.03221,900.33608-849.03221,497.33732,0,900.30709,379.98753,900.30709,849.03221C1850.32081,6617.49762,1447.351,6997.45843,950.01372,6997.45843Z" transform="translate(256.0838)"/>
        </g>
        <g class="ab">
          <path class="aa" d="M950.01372,6702.83c-324.71891,0-587.89391-248.15337-587.89391-554.16934,0-306.2176,263.175-554.41834,587.89391-554.41834,324.76459,0,587.97957,248.20074,587.97957,554.41834C1537.99329,6454.67662,1274.77831,6702.83,950.01372,6702.83Z" transform="translate(256.0838)"/>
        </g>
        <g class="ac">
          <path class="aa" d="M950.01372,6505.70429c-209.197,0-378.81443-159.93555-378.81443-357.04364,0-197.375,169.61739-357.22432,378.81443-357.22432,209.25409,0,378.77427,159.84931,378.77427,357.22432C1328.788,6345.76874,1159.26781,6505.70429,950.01372,6505.70429Z" transform="translate(256.0838)"/>
        </g>
      </g>
      <g class="ad">
        <g class="ae">
          <polygon class="af" points="1231.211 6943.843 1236.302 6841.248 183.762 7213.158 176.431 7440.406 179.686 7440.302 183.762 7313.953 1231.211 6943.843"/>
        </g>
      </g>
      <g class="y">
        <g class="ag">
          <path class="aa" d="M752.734,6352.17749c-208.389,0-377.21438-220.62092-377.21438-492.847,0-272.34669,168.82543-492.98313,377.21438-492.98313,208.36973,0,377.20223,220.63644,377.20223,492.98313C1129.93627,6131.55657,961.10377,6352.17749,752.734,6352.17749Z" transform="translate(256.0838)"/>
        </g>
        <g class="ah">
          <path class="aa" d="M752.734,6181.10406c-136.04769,0-246.31029-144.08807-246.31029-321.77357,0-177.80258,110.2626-321.91816,246.31029-321.91816,136.06682,0,246.34617,144.11558,246.34617,321.91816C999.08021,6037.016,888.80086,6181.10406,752.734,6181.10406Z" transform="translate(256.0838)"/>
        </g>
        <g class="ai">
          <path class="aa" d="M752.734,6066.64475c-87.64742,0-158.71213-92.86518-158.71213-207.31426,0-114.60407,71.06471-207.41918,158.71213-207.41918,87.67131,0,158.69529,92.81511,158.69529,207.41918C911.42933,5973.77957,840.40535,6066.64475,752.734,6066.64475Z" transform="translate(256.0838)"/>
        </g>
      </g>
      <g class="aj">
        <polygon class="ak" points="2335.064 2962.722 37.293 3774.466 41.925 4182.162 37.293 4182.162 47.77 5104.254 2252.6 4302.175 2302.977 4302.175 2335.064 2962.722"/>
      </g>
      <g class="al">
        <g>
          <polygon class="am" points="2251.801 2272.973 28.046 3200.066 1.696 1640.481 2286.198 828.738 2251.801 2272.973"/>
          <polygon class="r" points="1427.255 1127.513 111.31 1605.907 101.727 1579.249 1417.672 1100.855 1427.255 1127.513"/>
          <polygon class="an" points="2235.035 823.449 2245.117 619.107 160.406 1359.859 145.887 1812.481 152.334 1812.274 160.406 1560.619 2235.035 823.449"/>
        </g>
      </g>
      <g>
        <g>
          <rect class="ao" x="256.80482" y="234.9812" width="1919" height="129"/>
          <path class="r" d="M1919.221,235.4812v128H1.221v-128h1918m1-1H.221v130h1920v-130Z" transform="translate(256.0838)"/>
        </g>
        <rect class="ap" x="256.30482" y="234.4812" width="1920" height="20"/>
        <g>
          <g class="aq">
            <use transform="translate(1841.54638 403.73373) rotate(180) scale(0.48603 0.28626)" xlink:href="#ax"/>
          </g>
          <g class="aq">
            <use transform="translate(1841.54638 403.73373) rotate(180) scale(0.48603 0.28626)" xlink:href="#ax"/>
          </g>
        </g>
      </g>
      <g>
        <g class="aq">
          <use transform="matrix(0.45764, -0.16369, 0.09641, 0.26954, 698.19925, 1354.87946)" xlink:href="#ax"/>
        </g>
        <g class="aq">
          <use transform="matrix(0.45764, -0.16369, 0.09641, 0.26954, 698.19925, 1354.87946)" xlink:href="#ax"/>
        </g>
      </g>
      <g>
        <g class="ar">
          <path class="as" d="M1189.32531,1318.48459c-448.52866,0-811.90228-218.198-811.90228-487.43439,0-269.35568,363.37362-487.569,811.90228-487.569,448.4873,0,811.87613,218.21333,811.87613,487.569C2001.20144,1100.28661,1637.81261,1318.48459,1189.32531,1318.48459Z" transform="translate(256.0838)"/>
        </g>
        <g class="at">
          <path class="as" d="M1189.32531,1149.29c-292.824,0-530.14915-142.50565-530.14915-318.23975,0-175.84988,237.32513-318.38274,530.14915-318.38274,292.8652,0,530.22638,142.53286,530.22638,318.38274C1719.55169,1006.7843,1482.19051,1149.29,1189.32531,1149.29Z" transform="translate(256.0838)"/>
        </g>
        <g class="au">
          <path class="as" d="M1189.32531,1036.08767c-188.64906,0-341.60611-91.8453-341.60611-205.03747,0-113.34545,152.957-205.14122,341.60611-205.14122,188.70049,0,341.56988,91.79577,341.56988,205.14122C1530.89519,944.24237,1378.0258,1036.08767,1189.32531,1036.08767Z" transform="translate(256.0838)"/>
        </g>
      </g>
      <g class="y">
        <g class="av">
          <path class="aa" d="M815.221,1644.324c-284.53458,0-515.04909-131.285-515.04909-293.27874,0-162.0655,230.51451-293.35974,515.04909-293.35974,284.50835,0,515.0325,131.29424,515.0325,293.35974C1330.25352,1513.039,1099.72937,1644.324,815.221,1644.324Z" transform="translate(256.0838)"/>
        </g>
        <g class="aw">
          <path class="aa" d="M815.221,1542.5232c-185.75973,0-336.31244-85.74257-336.31244-191.478,0-105.80508,150.55271-191.564,336.31244-191.564,185.78585,0,336.36144,85.75894,336.36144,191.564C1151.58246,1456.78063,1001.00687,1542.5232,815.221,1542.5232Z" transform="translate(256.0838)"/>
        </g>
        <g class="ax">
          <path class="aa" d="M815.221,1474.41183c-119.67392,0-216.70578-55.26133-216.70578-123.36661,0-68.19751,97.03186-123.429,216.70578-123.429,119.70655,0,216.6828,55.23153,216.6828,123.429C1031.90382,1419.1505,934.92757,1474.41183,815.221,1474.41183Z" transform="translate(256.0838)"/>
        </g>
      </g>
      <g class="ay">
        <polygon class="az" points="248.529 2696.244 238.455 2900.587 2321.625 2159.835 2336.133 1707.213 2329.692 1707.42 2321.625 1959.075 248.529 2696.244"/>
      </g>
      <g>
        <g class="aq">
          <use transform="matrix(-0.45764, 0.16369, -0.09641, -0.26954, 1944.18094, 2116.73761)" xlink:href="#ax"/>
        </g>
        <g class="aq">
          <use transform="matrix(-0.45764, 0.16369, -0.09641, -0.26954, 1944.18094, 2116.73761)" xlink:href="#ax"/>
        </g>
      </g>
      <g class="ba">
        <polygon class="bb" points="455.846 3029.049 505.297 3013.306 483.336 3063.31 455.846 3029.049"/>
        <polyline class="bb" points="377.486 3005.043 395.508 3027.505 363.088 3037.825"/>
        <polyline class="bb" points="434.338 2969.625 426.252 2959.547 440.797 2954.917"/>
        <polyline class="bb" points="357.779 3054.981 353.762 3049.976 360.987 3047.675"/>
        <polyline class="bb" points="395.216 2958.095 391.2 2953.089 398.425 2950.789"/>
      </g>
      <g>
        <g class="aq">
          <use transform="matrix(0.45764, -0.16369, 0.09641, 0.26954, 344.19943, 3625.92242)" xlink:href="#ax"/>
        </g>
        <g class="aq">
          <use transform="matrix(0.45764, -0.16369, 0.09641, 0.26954, 344.19943, 3625.92242)" xlink:href="#ax"/>
        </g>
      </g>
      <g>
        <g class="aq">
          <use transform="matrix(-0.45764, 0.16369, -0.09641, -0.26954, 1849.21286, 4524.86639)" xlink:href="#ax"/>
        </g>
        <g class="aq">
          <use transform="matrix(-0.45764, 0.16369, -0.09641, -0.26954, 1795.20746, 4518.86579)" xlink:href="#ax"/>
        </g>
      </g>
      <g>
        <g class="aq">
          <use transform="matrix(-0.45764, 0.16369, -0.09641, -0.26954, 1827.17915, 6652.73912)" xlink:href="#ax"/>
        </g>
        <g class="aq">
          <use transform="matrix(-0.45764, 0.16369, -0.09641, -0.26954, 1827.17915, 6652.73912)" xlink:href="#ax"/>
        </g>
      </g>
      <g>
        <g class="aq">
          <use transform="matrix(0.45764, -0.16369, 0.09641, 0.26954, 759.83446, 5827.53803)" xlink:href="#ax"/>
        </g>
        <g class="aq">
          <use transform="matrix(0.45764, -0.16369, 0.09641, 0.26954, 759.83446, 5827.53803)" xlink:href="#ax"/>
        </g>
      </g>
      <g>
        <path class="bc" d="M1115.903,6022.546a4.49985,4.49985,0,1,0,4.50012,4.49988A4.5,4.5,0,0,0,1115.903,6022.546Z" transform="translate(256.0838)"/>
        <path class="bc" d="M1115.903,6049.2124a4.49985,4.49985,0,1,0,4.50012,4.49988A4.5,4.5,0,0,0,1115.903,6049.2124Z" transform="translate(256.0838)"/>
        <path class="bc" d="M1115.903,6075.87885a4.49985,4.49985,0,1,0,4.50012,4.49987A4.5,4.5,0,0,0,1115.903,6075.87885Z" transform="translate(256.0838)"/>
        <path class="bc" d="M1115.903,6102.54494a4.50022,4.50022,0,1,0,4.50012,4.49988A4.5,4.5,0,0,0,1115.903,6102.54494Z" transform="translate(256.0838)"/>
      </g>
      <g class="y">
        <g class="bd">
          <path class="aa" d="M1020.38882,10068.74658c-497.38318,0-900.33609-391.66418-900.33609-874.94205,0-483.492,402.95291-875.18369,900.33609-875.18369,497.33732,0,900.30709,391.69172,900.30709,875.18369C1920.69591,9677.0824,1517.72614,10068.74658,1020.38882,10068.74658Z" transform="translate(256.0838)"/>
        </g>
        <g class="be">
          <path class="aa" d="M1020.38882,9765.04313c-324.71892,0-587.89392-255.79687-587.89392-571.2386,0-315.64957,263.175-571.49527,587.89392-571.49527,324.76459,0,587.97956,255.8457,587.97956,571.49527C1608.36838,9509.24626,1345.15341,9765.04313,1020.38882,9765.04313Z" transform="translate(256.0838)"/>
        </g>
        <g class="bf">
          <path class="aa" d="M1020.38882,9561.84566c-209.197,0-378.81444-164.86181-378.81444-368.04113,0-203.45446,169.61739-368.22737,378.81444-368.22737,209.25408,0,378.77427,164.77291,378.77427,368.22737C1399.16309,9396.98385,1229.6429,9561.84566,1020.38882,9561.84566Z" transform="translate(256.0838)"/>
        </g>
      </g>
      <rect class="bg" x="256.60298" y="9892.27921" width="1920" height="80"/>
      <g>
        <g class="aq">
          <use transform="translate(1871.54601 9931.73449) rotate(180) scale(0.5613 0.28626)" xlink:href="#ax"/>
        </g>
        <g class="aq">
          <use transform="translate(1871.54601 9931.73449) rotate(180) scale(0.5613 0.28626)" xlink:href="#ax"/>
        </g>
      </g>
      <text class="bh" transform="translate(2480.00013 95.4187)">1366-768</text>
      <g class="bi">
        <g class="bj">
          <polygon class="bk" points="1615.207 5489.929 1610.117 5592.523 2662.657 5220.613 2669.987 4993.365 2666.733 4993.469 2662.657 5119.818 1615.207 5489.929"/>
        </g>
      </g>
      <g>
        <polygon class="bl" points="978.007 319.632 973.41 315.035 982.603 315.035 978.007 319.632"/>
        <polygon class="bl" points="863.512 319.632 858.916 315.035 868.109 315.035 863.512 319.632"/>
      </g>
    </g>
  </g>
</svg>
