<svg xmlns="http://www.w3.org/2000/svg" width="108.094" height="30.625" viewBox="0 0 108.094 30.625">
  <defs>
    <style>
      .cls-1 {
        fill: #fff;
        fill-rule: evenodd;
      }
    </style>
  </defs>
  <path id="Borodoff" class="cls-1" d="M165.633,28.515a16.239,16.239,0,0,0,3.976-1.66,7.334,7.334,0,0,0,2.25-2.009,3.877,3.877,0,0,0,.722-2.208A3.345,3.345,0,0,0,171,19.824a8.144,8.144,0,0,0-4.715-1.121,21.686,21.686,0,0,0-3.055.249q-1.727.249-3.4,0.614t-3.063.764a14.676,14.676,0,0,0-1.776.581,7.3,7.3,0,0,0-2.432,2.432,6.17,6.17,0,0,0-1.337,2.631,0.543,0.543,0,0,0,.614.614,14.6,14.6,0,0,0,3.354-.755q2.49-.755,2.49-1.021a1.19,1.19,0,0,0-.813-0.5,0.141,0.141,0,0,1-.1-0.1,1.828,1.828,0,0,1,1-.523,23.843,23.843,0,0,1,2.291-.672q1.286-.315,2.872-0.564a18.349,18.349,0,0,1,2.814-.249,8.285,8.285,0,0,1,3.3.5,1.67,1.67,0,0,1,1.079,1.61,2.089,2.089,0,0,1-1.012,1.66,9.2,9.2,0,0,1-3,1.287,40.235,40.235,0,0,1-5.1.955l1.984-2.241q0.839-.946,1.212-1.378a1.594,1.594,0,0,0,.373-0.531c0-.055-0.052-0.083-0.157-0.083a2.388,2.388,0,0,0-.291.017,5.912,5.912,0,0,0-3.079,1.287,21.441,21.441,0,0,0-3.246,3.345q-1.627.2-2.665,0.332t-1.4.224a1.3,1.3,0,0,0-.581.29,0.751,0.751,0,0,0-.216.581,1.061,1.061,0,0,0,.564.955,4.378,4.378,0,0,0,1.926.407,30.919,30.919,0,0,0-2.673,3.8,5.61,5.61,0,0,0-.863,2.656,2.927,2.927,0,0,0,1.411,2.565,7.061,7.061,0,0,0,3.935.938,12.853,12.853,0,0,0,3.361-.506,18.754,18.754,0,0,0,3.6-1.4,10.542,10.542,0,0,0,2.847-2.042,3.4,3.4,0,0,0,1.1-2.341q0-1.959-2.623-3.055a16.832,16.832,0,0,0-1.735-.573q-0.988-.274-2.15-0.5t-2.64-.357l0.847-1A35.176,35.176,0,0,0,165.633,28.515Zm-3.544,3.893a9.057,9.057,0,0,1,2.473.822,1.359,1.359,0,0,1,.814,1.179,2.189,2.189,0,0,1-1.1,1.644,9.172,9.172,0,0,1-2.723,1.32,10.218,10.218,0,0,1-3.046.506,3.861,3.861,0,0,1-2.366-.623,1.775,1.775,0,0,1-.822-1.419,1.917,1.917,0,0,1,.291-0.988,9.911,9.911,0,0,1,.963-1.278q0.672-.788,1.535-1.818Q160.429,32.051,162.089,32.408Zm19.222,3.868a3.707,3.707,0,0,1-.489.3,1.207,1.207,0,0,1-.557.141h-0.249l-0.3-.3a10.045,10.045,0,0,0,1.02-2.274,7.071,7.071,0,0,0,.374-2.009,1.96,1.96,0,0,0-.232-1.121,1.417,1.417,0,0,0-.864-0.44,1.235,1.235,0,0,0,.382-0.764,0.739,0.739,0,0,0-.448-0.672,2.62,2.62,0,0,0-1.229-.241,5.058,5.058,0,0,0-2.374.689,10.347,10.347,0,0,0-2.4,1.81,10.579,10.579,0,0,0-1.826,2.416,5.013,5.013,0,0,0-.705,2.357,5.96,5.96,0,0,0,.456,2.374,4.26,4.26,0,0,0,1.22,1.677,2.638,2.638,0,0,0,1.694.614q1.644,0,3.8-2.557a3.9,3.9,0,0,0,1.909-.266,8.815,8.815,0,0,0,1.76-1.328V35.571Q181.526,36.118,181.311,36.276ZM177.559,33.7a5.751,5.751,0,0,0-.431,2.133,4.391,4.391,0,0,0,.282,1.494,5.243,5.243,0,0,1-2.391,1.228q-1.527,0-1.527-1.1,0-.149.415-2.009a3.663,3.663,0,0,1,.913-1.386,11.407,11.407,0,0,1,1.66-1.361q0.98-.672,2.358-1.5A17.626,17.626,0,0,0,177.559,33.7Zm9.528-.556q0.348-.066,1-0.183t1.228-.224q0.581-.108,1.046-0.208a24.233,24.233,0,0,0-1.585,2.133A11.224,11.224,0,0,0,187.7,36.65a4.445,4.445,0,0,0-.365,1.627,3.118,3.118,0,0,0,.464,1.851,1.392,1.392,0,0,0,1.163.639,2.605,2.605,0,0,0,1.361-.49,12.2,12.2,0,0,0,1.66-1.32q0.9-.83,2.274-2.274V35.571q-2.507,2.059-3.519,2.059a0.781,0.781,0,0,1-.963-0.78,4.057,4.057,0,0,1,.6-1.677,9.86,9.86,0,0,1,1.477-2.059,14.866,14.866,0,0,0,1.054-1.187,1.285,1.285,0,0,0,.308-0.755,3.441,3.441,0,0,0-.183-1.1,1.166,1.166,0,0,0-.465-0.7,1.2,1.2,0,0,0-.481-0.066,39.451,39.451,0,0,0-4.317.531,3.149,3.149,0,0,0,.515-1.145,0.287,0.287,0,0,0-.332-0.315,1,1,0,0,0-.448.116,3.834,3.834,0,0,0-1.328,1.029,8.633,8.633,0,0,0-1.229,1.71,3.361,3.361,0,0,0-.5,1.511,1.15,1.15,0,0,0,.241.8,1.823,1.823,0,0,0,.772.448A16.289,16.289,0,0,1,184.1,35.8v1.079a11.985,11.985,0,0,0,2.989-3.735h0Zm18.874,3.129a3.721,3.721,0,0,1-.49.3,1.2,1.2,0,0,1-.556.141h-0.249l-0.3-.3a10.048,10.048,0,0,0,1.021-2.274,7.1,7.1,0,0,0,.373-2.009,1.952,1.952,0,0,0-.232-1.121,1.414,1.414,0,0,0-.863-0.44,1.24,1.24,0,0,0,.382-0.764,0.741,0.741,0,0,0-.449-0.672,2.618,2.618,0,0,0-1.228-.241,5.052,5.052,0,0,0-2.374.689,10.3,10.3,0,0,0-2.4,1.81,10.55,10.55,0,0,0-1.826,2.416,5,5,0,0,0-.706,2.357,5.943,5.943,0,0,0,.457,2.374,4.25,4.25,0,0,0,1.22,1.677,2.635,2.635,0,0,0,1.693.614q1.644,0,3.8-2.557a3.9,3.9,0,0,0,1.909-.266,8.786,8.786,0,0,0,1.76-1.328V35.571Q206.176,36.118,205.961,36.276ZM202.209,33.7a5.753,5.753,0,0,0-.432,2.133,4.391,4.391,0,0,0,.282,1.494,5.245,5.245,0,0,1-2.39,1.228q-1.529,0-1.528-1.1,0-.149.415-2.009a3.663,3.663,0,0,1,.913-1.386,11.366,11.366,0,0,1,1.661-1.361q0.978-.672,2.357-1.5A17.609,17.609,0,0,0,202.209,33.7ZM216.1,39.074a3.683,3.683,0,0,0,.34,1.776,1.189,1.189,0,0,0,1.121.6q1.943,0,5.528-4.632V35.6a30.884,30.884,0,0,1-2.506,2.2,2.682,2.682,0,0,1-1.461.656q-0.963,0-.963-1.494a8.7,8.7,0,0,1,.88-3.578,35.427,35.427,0,0,1,2.108-3.926q1.228-1.992,2.49-4.092a7.276,7.276,0,0,0,1.262-2.963,1.2,1.2,0,0,0-.307-0.805,0.885,0.885,0,0,0-.673-0.357,2.315,2.315,0,0,0-1.112,1.013,26.26,26.26,0,0,0-1.934,3.088q-1.154,2.075-2.432,4.748a2.114,2.114,0,0,0-1.594-1.029,7.236,7.236,0,0,0-2.988,1.079,14.289,14.289,0,0,0-3.553,2.714,4.782,4.782,0,0,0-1.56,3.246,6.538,6.538,0,0,0,.381,2.191,6.354,6.354,0,0,0,.922,1.776,1.425,1.425,0,0,0,.971.7,2.272,2.272,0,0,0,.988-0.573,23.11,23.11,0,0,0,1.876-1.735q1.154-1.162,2.615-2.822a16.3,16.3,0,0,0-.4,3.437h0Zm1.179-6.217a4.893,4.893,0,0,1-.764,1.038q-0.449.465-1.419,1.287t-1.254,1.071c-0.132.111-.418,0.36-0.855,0.747a10.424,10.424,0,0,1-.954.78,1,1,0,0,1-.531.2,0.538,0.538,0,0,1-.416-0.183,0.667,0.667,0,0,1-.166-0.465,5.139,5.139,0,0,1,.283-1.378,2.85,2.85,0,0,1,.647-1.245,14.322,14.322,0,0,1,2.407-1.519,21.689,21.689,0,0,1,3.47-1.6A4.29,4.29,0,0,1,217.281,32.856Zm17.579,3.42a3.656,3.656,0,0,1-.49.3,1.2,1.2,0,0,1-.556.141h-0.249l-0.3-.3a10,10,0,0,0,1.021-2.274,7.107,7.107,0,0,0,.374-2.009,1.95,1.95,0,0,0-.233-1.121,1.414,1.414,0,0,0-.863-0.44,1.24,1.24,0,0,0,.382-0.764,0.741,0.741,0,0,0-.448-0.672,2.623,2.623,0,0,0-1.229-.241,5.055,5.055,0,0,0-2.374.689,10.326,10.326,0,0,0-2.4,1.81,10.55,10.55,0,0,0-1.826,2.416,5,5,0,0,0-.706,2.357,5.943,5.943,0,0,0,.457,2.374,4.25,4.25,0,0,0,1.22,1.677,2.638,2.638,0,0,0,1.694.614q1.642,0,3.8-2.557a3.9,3.9,0,0,0,1.909-.266,8.758,8.758,0,0,0,1.76-1.328V35.571Q235.075,36.118,234.86,36.276ZM231.108,33.7a5.753,5.753,0,0,0-.432,2.133,4.37,4.37,0,0,0,.283,1.494,5.243,5.243,0,0,1-2.391,1.228q-1.527,0-1.527-1.1,0-.149.415-2.009a3.651,3.651,0,0,1,.913-1.386,11.354,11.354,0,0,1,1.66-1.361q0.979-.672,2.357-1.5A17.715,17.715,0,0,0,231.108,33.7Zm14.724,2.872a11.71,11.71,0,0,1-1.1.822,5.58,5.58,0,0,1-1.029.515,5.586,5.586,0,0,0-.905-1.345,18.959,18.959,0,0,0-1.42-1.345q0.265-.514.872-1.544l1.652-2.806q1.046-1.776,1.876-3.237,0.132-.232.7-1.2t0.9-1.652a7.693,7.693,0,0,0,.5-1.37,6.026,6.026,0,0,0,.174-1.494,2.337,2.337,0,0,0-.216-1.079,0.614,0.614,0,0,0-.5-0.415,0.77,0.77,0,0,0-.6.39q-0.284.39-.93,1.519a68.317,68.317,0,0,0-4.051,8.3q-0.9,1.063-1.419,1.7a16.132,16.132,0,0,0-1.1,1.552,4.01,4.01,0,0,0-1.229.813A1.793,1.793,0,0,0,237.581,36a3.471,3.471,0,0,0,.813,2.108q-1.08,2.656-1.594,4.333a10.869,10.869,0,0,0-.514,3.188,5.711,5.711,0,0,0,.548,2.64,1.544,1.544,0,0,0,1.195,1.063,3.174,3.174,0,0,0,1.61-.739,10.392,10.392,0,0,0,2.092-2.117,12.606,12.606,0,0,0,1.594-2.565,8.542,8.542,0,0,0,.664-2.233,18.957,18.957,0,0,0,.149-2.573,7.232,7.232,0,0,0,1.411-.913q0.514-.448,1.511-1.444V35.6Q246.463,36.052,245.832,36.575Zm-4.217,7.147a6.58,6.58,0,0,1-1.137,2.258,1.754,1.754,0,0,1-1.088.764,0.924,0.924,0,0,1-.722-0.714,4.356,4.356,0,0,1-.307-1.727,14.193,14.193,0,0,1,1.262-5.13q0.249,0.1.456,0.2a4.433,4.433,0,0,0,.581.216,3.2,3.2,0,0,0,.656.141,4.02,4.02,0,0,0,.747-0.025l0.033,0.349A12.087,12.087,0,0,1,241.615,43.722Zm15.47-7.147a11.713,11.713,0,0,1-1.095.822,5.558,5.558,0,0,1-1.03.515,5.555,5.555,0,0,0-.9-1.345,18.959,18.959,0,0,0-1.42-1.345q0.266-.514.872-1.544t1.652-2.806q1.046-1.776,1.876-3.237,0.132-.232.7-1.2t0.9-1.652a7.772,7.772,0,0,0,.5-1.37,6.026,6.026,0,0,0,.174-1.494,2.337,2.337,0,0,0-.216-1.079,0.614,0.614,0,0,0-.5-0.415,0.77,0.77,0,0,0-.6.39q-0.284.39-.93,1.519a68.317,68.317,0,0,0-4.051,8.3q-0.9,1.063-1.419,1.7a16.132,16.132,0,0,0-1.1,1.552,4.01,4.01,0,0,0-1.229.813A1.793,1.793,0,0,0,248.834,36a3.473,3.473,0,0,0,.814,2.108q-1.08,2.656-1.594,4.333a10.869,10.869,0,0,0-.514,3.188,5.724,5.724,0,0,0,.547,2.64,1.546,1.546,0,0,0,1.2,1.063,3.174,3.174,0,0,0,1.61-.739,10.417,10.417,0,0,0,2.092-2.117,12.65,12.65,0,0,0,1.594-2.565,8.542,8.542,0,0,0,.664-2.233,18.957,18.957,0,0,0,.149-2.573,7.232,7.232,0,0,0,1.411-.913q0.514-.448,1.511-1.444V35.6Q257.716,36.052,257.085,36.575Zm-4.216,7.147a6.58,6.58,0,0,1-1.138,2.258,1.75,1.75,0,0,1-1.087.764,0.924,0.924,0,0,1-.722-0.714,4.356,4.356,0,0,1-.307-1.727,14.209,14.209,0,0,1,1.261-5.13q0.249,0.1.457,0.2a4.433,4.433,0,0,0,.581.216,3.181,3.181,0,0,0,.656.141,4.02,4.02,0,0,0,.747-0.025l0.033,0.349A12.087,12.087,0,0,1,252.869,43.722Z" transform="translate(-151.219 -18.719)"/>
</svg>
