<?xml version="1.0" encoding="utf-8"?>
<!-- Generator: Adobe Illustrator 21.1.0, SVG Export Plug-In . SVG Version: 6.00 Build 0)  -->
<svg version="1.1" id="Слой_1" xmlns="http://www.w3.org/2000/svg" xmlns:xlink="http://www.w3.org/1999/xlink" x="0px" y="0px"
	 viewBox="0 0 69 131.3" style="enable-background:new 0 0 69 131.3;" xml:space="preserve">
<style type="text/css">
	.st0{fill:#706455;}
</style>
<g>
	<g>
		<path class="st0" d="M34.6,131.3h-0.2c-19,0-34.4-15.4-34.4-34.4V34.4C0,15.4,15.4,0,34.4,0C53.6,0,69,15.4,69,34.4v62.5
			C69,115.9,53.6,131.3,34.6,131.3z M34.6,2.2C16.7,2.2,2.2,16.7,2.2,34.4v62.5c0,17.7,14.4,32.2,32.2,32.2h0.2
			c17.7,0,32.2-14.4,32.2-32.2V34.4C66.8,16.7,52.3,2.2,34.6,2.2z"/>
	</g>
	<g>
		<path class="st0" d="M34.5,66.4L34.5,66.4c-4.8,0-8.7-3.9-8.7-8.7V43.6c0-4.8,3.9-8.7,8.7-8.7c4.8,0,8.7,3.9,8.7,8.7v14.2
			C43.2,62.5,39.3,66.4,34.5,66.4z M34.5,37.2c-3.6,0-6.5,2.9-6.5,6.4v14.2c0,3.5,2.9,6.4,6.4,6.4h0c3.5,0,6.4-2.9,6.4-6.4V43.6
			C41,40.1,38.1,37.2,34.5,37.2z"/>
	</g>
	<g>
		
			<rect x="33.4" y="1.1" transform="matrix(1 -7.153783e-03 7.153783e-03 1 -0.1321 0.2473)" class="st0" width="2.2" height="34.9"/>
	</g>
</g>
</svg>
