<svg xmlns="http://www.w3.org/2000/svg" viewBox="0 0 235.44253 235.44263">
  <defs>
    <style>
      .a, .b, .c, .d {
        fill: none;
        stroke-miterlimit: 10;
      }

      .a, .c {
        stroke: #8499aa;
      }

      .a, .d {
        stroke-width: 2px;
      }

      .b {
        stroke: #5b6f7c;
        stroke-width: 3px;
      }

      .b, .c {
        stroke-linecap: round;
      }

      .d {
        stroke: #b52518;
      }
    </style>
  </defs>
  <title>Asset 39</title>
  <g>
    <circle class="a" cx="117.72127" cy="117.72132" r="116.68979" transform="translate(-48.76178 117.72128) rotate(-45)"/>
    <g>
      <path class="b" d="M164.34172,130.18418a26.08981,26.08981,0,0,1,7.67751,1.15206V67.2347H57.81422v97.88142H139.8017a26.04434,26.04434,0,0,1,24.54-34.93194Z"/>
      <rect class="c" x="57.81432" y="67.47289" width="114.2048" height="22.08181"/>
      <line class="b" x1="156.01129" y1="76.01586" x2="156.01129" y2="58.45343"/>
      <line class="b" x1="128.61485" y1="76.01586" x2="128.61485" y2="58.45343"/>
      <line class="b" x1="101.2186" y1="76.01586" x2="101.2186" y2="58.45343"/>
      <line class="b" x1="73.82205" y1="76.01586" x2="73.82205" y2="58.45343"/>
      <rect class="c" x="74.71575" y="105.14836" width="15.20978" height="11.99019"/>
      <rect class="c" x="107.31198" y="105.14836" width="15.2096" height="11.99019"/>
      <rect class="c" x="74.71575" y="133.67465" width="15.20978" height="11.99017"/>
      <rect class="c" x="107.31198" y="133.67465" width="15.2096" height="11.99017"/>
      <path class="b" d="M172.01923,131.33624a26.10526,26.10526,0,1,0,18.42626,24.95182A26.08981,26.08981,0,0,0,172.01923,131.33624Z"/>
      <polyline class="c" points="164.342 139.866 164.342 156.288 177.884 156.288"/>
    </g>
    <path class="d" d="M162.03071,98.87909v0a8.22384,8.22384,0,0,0-11.63027,0l-2.07731,2.07731-2.07732-2.07731a8.22384,8.22384,0,0,0-11.63027,0v0a8.22383,8.22383,0,0,0,0,11.63027l2.0773,2.07731L148.32313,124.217l11.63028-11.63028,2.0773-2.07731A8.22383,8.22383,0,0,0,162.03071,98.87909Z"/>
  </g>
</svg>
