<svg xmlns="http://www.w3.org/2000/svg" viewBox="0 0 135.63127 126.93838">
  <defs>
    <style>
      .a, .b, .c {
        fill: none;
        stroke-miterlimit: 10;
      }

      .a {
        stroke: #5b6f7c;
        stroke-width: 3px;
      }

      .a, .b {
        stroke-linecap: round;
      }

      .b {
        stroke: #8499aa;
      }

      .c {
        stroke: #b52518;
        stroke-width: 2px;
      }
    </style>
  </defs>
  <title>Asset 2</title>
  <g>
    <g>
      <path class="a" d="M108.0275,73.23075a26.08992,26.08992,0,0,1,7.67752,1.15206V10.28127H1.5v97.88142H83.48749a26.04432,26.04432,0,0,1,24.54-34.93194Z"/>
      <rect class="b" x="1.50011" y="10.51946" width="114.2048" height="22.08181"/>
      <line class="a" x1="99.69707" y1="19.06243" x2="99.69707" y2="1.5"/>
      <line class="a" x1="72.30063" y1="19.06243" x2="72.30063" y2="1.5"/>
      <line class="a" x1="44.90438" y1="19.06243" x2="44.90438" y2="1.5"/>
      <line class="a" x1="17.50784" y1="19.06243" x2="17.50784" y2="1.5"/>
      <rect class="b" x="18.40153" y="48.19493" width="15.20978" height="11.99019"/>
      <rect class="b" x="50.99776" y="48.19493" width="15.2096" height="11.99019"/>
      <rect class="b" x="18.40153" y="76.72122" width="15.20978" height="11.99017"/>
      <rect class="b" x="50.99776" y="76.72122" width="15.2096" height="11.99017"/>
      <path class="a" d="M115.705,74.38281a26.10527,26.10527,0,1,0,18.42625,24.95182A26.08992,26.08992,0,0,0,115.705,74.38281Z"/>
      <polyline class="b" points="108.028 82.912 108.028 99.335 121.57 99.335"/>
    </g>
    <path class="c" d="M105.7165,41.92566v0a8.22384,8.22384,0,0,0-11.63027,0L92.00891,44.003l-2.07732-2.07731a8.22384,8.22384,0,0,0-11.63027,0v0a8.22384,8.22384,0,0,0,0,11.63027l2.07731,2.07731L92.00891,67.26352l11.63028-11.63028,2.07731-2.07731A8.22384,8.22384,0,0,0,105.7165,41.92566Z"/>
  </g>
</svg>
