<?xml version="1.0" encoding="utf-8"?>
<!-- Generator: Adobe Illustrator 21.1.0, SVG Export Plug-In . SVG Version: 6.00 Build 0)  -->
<svg version="1.1" id="Слой_1" xmlns="http://www.w3.org/2000/svg" xmlns:xlink="http://www.w3.org/1999/xlink" x="0px" y="0px"
	 viewBox="0 0 46.3 56.2" style="enable-background:new 0 0 46.3 56.2;" xml:space="preserve">
<style type="text/css">
	.st0{fill:none;stroke:#8897A7;stroke-miterlimit:10;}
</style>
<g>
	<path class="st0" d="M22.6,11.5c12.2,0,22.1,9.9,22.1,22.1c0,12.2-9.9,22.1-22.1,22.1c-12.2,0-22.1-9.9-22.1-22.1
		C0.5,21.4,10.4,11.5,22.6,11.5L22.6,11.5z"/>
	<line class="st0" x1="20" y1="11.5" x2="20" y2="6.5"/>
	<line class="st0" x1="25.2" y1="6.5" x2="25.2" y2="11.5"/>
	<polyline class="st0" points="36.8,16.2 42.3,10.6 45.6,13.8 40,19.4 	"/>
	<path class="st0" d="M16.8,0.5h11.6c0.5,0,1,0.4,1,1v3.4c0,0.5-0.4,1-1,1H16.8c-0.5,0-1-0.4-1-1V1.5C15.8,0.9,16.3,0.5,16.8,0.5
		L16.8,0.5z"/>
	<path class="st0" d="M16.9,23.3c2.4,0,4.6,1.4,5.7,3.5c1.2-2.1,3.3-3.5,5.7-3.5c3.7,0,6.6,3.2,6.6,7.1c0,2.2-1,4.2-2.5,5.5
		l-9.8,9.8l-9.8-9.8c-1.5-1.3-2.5-3.3-2.5-5.5C10.3,26.5,13.2,23.3,16.9,23.3L16.9,23.3z"/>
</g>
</svg>
