<?xml version="1.0" encoding="utf-8"?>
<!-- Generator: Adobe Illustrator 21.1.0, SVG Export Plug-In . SVG Version: 6.00 Build 0)  -->
<svg version="1.1" id="Слой_1" xmlns="http://www.w3.org/2000/svg" xmlns:xlink="http://www.w3.org/1999/xlink" x="0px" y="0px"
	 viewBox="0 0 54.4 54.4" style="enable-background:new 0 0 54.4 54.4;" xml:space="preserve">
<style type="text/css">
	.st0{fill:none;stroke:#8897A7;stroke-miterlimit:10;}
</style>
<g>
	<path class="st0" d="M27.2,0.5c14.7,0,26.7,11.9,26.7,26.7c0,14.7-11.9,26.7-26.7,26.7c-14.7,0-26.7-11.9-26.7-26.7
		C0.5,12.4,12.4,0.5,27.2,0.5L27.2,0.5z"/>
	<line class="st0" x1="42.4" y1="12.5" x2="29.6" y2="25.4"/>
	<line class="st0" x1="24.6" y1="26.1" x2="14.7" y2="20.3"/>
	<path class="st0" d="M27.2,24.2c-1.7,0-3,1.3-3,3c0,1.7,1.3,3,3,3c1.7,0,3-1.3,3-3C30.2,25.5,28.8,24.2,27.2,24.2L27.2,24.2z"/>
	<line class="st0" x1="27.2" y1="6.9" x2="27.2" y2="8.8"/>
	<line class="st0" x1="6.9" y1="27.2" x2="8.8" y2="27.2"/>
	<line class="st0" x1="27.2" y1="47.5" x2="27.2" y2="45.6"/>
	<line class="st0" x1="47.5" y1="27.2" x2="45.6" y2="27.2"/>
</g>
</svg>
