<svg xmlns="http://www.w3.org/2000/svg" viewBox="0 0 133.87304 133.45397">
  <defs>
    <style>
      .a, .b, .c {
        fill: none;
        stroke-miterlimit: 10;
      }

      .a {
        stroke: #5b6f7c;
        stroke-width: 3px;
      }

      .a, .b {
        stroke-linecap: round;
      }

      .b {
        stroke: #8499aa;
      }

      .c {
        stroke: #b52518;
        stroke-width: 2px;
      }
    </style>
  </defs>
  <title>Asset 17</title>
  <g>
    <polygon class="a" points="1.5 23.04 1.5 131.954 110.414 131.954 1.5 23.04"/>
    <line class="b" x1="1.49989" y1="40.4831" x2="8.06575" y2="40.4831"/>
    <line class="b" x1="1.49989" y1="53.11379" x2="13.60475" y2="53.11379"/>
    <line class="b" x1="1.49989" y1="65.74448" x2="8.06575" y2="65.74448"/>
    <line class="b" x1="1.49989" y1="78.37518" x2="13.60475" y2="78.37518"/>
    <line class="b" x1="1.49989" y1="91.00587" x2="8.06575" y2="91.00587"/>
    <line class="b" x1="1.49989" y1="103.63657" x2="13.60475" y2="103.63657"/>
    <line class="b" x1="1.49989" y1="116.26726" x2="8.06575" y2="116.26726"/>
    <path class="a" d="M106.28491,107.91418l25.66876,5.20087-5.20085-25.66887L42.19652,2.88989a4.7452,4.7452,0,0,0-6.71084,0L21.72852,16.64716a4.74527,4.74527,0,0,0,0,6.71073Z"/>
    <line class="b" x1="51.69219" y1="12.28501" x2="31.22429" y2="32.75301"/>
    <polyline class="b" points="120.323 93.976 45.162 18.815 37.754 26.223 112.915 101.384"/>
    <line class="b" x1="126.85335" y1="87.44618" x2="106.38535" y2="107.91418"/>
    <path class="c" d="M61.23533,104.87532v.25988A11.15,11.15,0,0,0,49.85177,94.11728H46.23533V89.60462A11.63587,11.63587,0,0,0,34.75138,78.11728h-.11913A11.56057,11.56057,0,0,0,23.23533,89.60463v26.51265H49.85176A11.33807,11.33807,0,0,0,61.23533,104.87532Z"/>
  </g>
</svg>
