<svg xmlns="http://www.w3.org/2000/svg" viewBox="0 0 235.44253 235.44263">
  <defs>
    <style>
      .a, .b, .c, .d {
        fill: none;
        stroke-miterlimit: 10;
      }

      .a, .c {
        stroke: #8499aa;
      }

      .a, .d {
        stroke-width: 2px;
      }

      .b {
        stroke: #5b6f7c;
        stroke-width: 3px;
      }

      .b, .c {
        stroke-linecap: round;
      }

      .d {
        stroke: #b52518;
      }
    </style>
  </defs>
  <title>Asset 43</title>
  <g>
    <circle class="a" cx="117.72127" cy="117.72132" r="116.68979" transform="translate(-48.76178 117.72128) rotate(-45)"/>
    <g>
      <polygon class="b" points="63.032 68.79 63.032 177.704 171.946 177.704 63.032 68.79"/>
      <line class="c" x1="63.03173" y1="86.23307" x2="69.5976" y2="86.23307"/>
      <line class="c" x1="63.03173" y1="98.86377" x2="75.13659" y2="98.86377"/>
      <line class="c" x1="63.03173" y1="111.49446" x2="69.5976" y2="111.49446"/>
      <line class="c" x1="63.03173" y1="124.12516" x2="75.13659" y2="124.12516"/>
      <line class="c" x1="63.03173" y1="136.75585" x2="69.5976" y2="136.75585"/>
      <line class="c" x1="63.03173" y1="149.38654" x2="75.13659" y2="149.38654"/>
      <line class="c" x1="63.03173" y1="162.01724" x2="69.5976" y2="162.01724"/>
      <path class="b" d="M167.81675,153.66416l25.66877,5.20087-5.20086-25.66887-84.5563-84.55629a4.7452,4.7452,0,0,0-6.71084,0L83.26036,62.39713a4.74528,4.74528,0,0,0,0,6.71074Z"/>
      <line class="c" x1="113.22403" y1="58.03499" x2="92.75613" y2="78.50299"/>
      <polyline class="c" points="181.855 139.726 106.694 64.565 99.286 71.973 174.447 147.134"/>
      <line class="c" x1="188.38519" y1="133.19616" x2="167.91719" y2="153.66416"/>
      <path class="d" d="M122.76717,150.62529v.25988a11.15,11.15,0,0,0-11.38356-11.01791h-3.61644v-4.51267a11.63587,11.63587,0,0,0-11.48395-11.48733h-.11913A11.56057,11.56057,0,0,0,84.76717,135.3546v26.51266H111.3836A11.33806,11.33806,0,0,0,122.76717,150.62529Z"/>
    </g>
  </g>
</svg>
