<svg xmlns="http://www.w3.org/2000/svg" viewBox="0 0 120.8946 152.64198">
  <defs>
    <style>
      .a, .b, .c {
        fill: none;
        stroke-miterlimit: 10;
      }

      .a {
        stroke: #8499aa;
      }

      .a, .b {
        stroke-linecap: round;
      }

      .b {
        stroke: #5b6f7c;
        stroke-width: 3px;
      }

      .c {
        stroke: #b52518;
        stroke-width: 2px;
      }
    </style>
  </defs>
  <title>Asset 4</title>
  <g>
    <g>
      <line class="a" x1="60.64791" y1="11.27482" x2="60.69188" y2="0.5"/>
      <line class="a" x1="11.27482" y1="60.24693" x2="0.5" y2="60.20309"/>
      <line class="a" x1="120.3946" y1="60.69211" x2="109.61978" y2="60.64828"/>
      <line class="a" x1="25.81912" y1="25.53523" x2="18.23129" y2="17.88519"/>
      <line class="a" x1="103.0098" y1="18.23129" x2="95.35962" y2="25.8191"/>
      <line class="a" x1="15.09451" y1="41.44498" x2="5.15667" y2="37.28101"/>
      <line class="a" x1="115.7378" y1="83.61407" x2="105.79996" y2="79.45009"/>
      <line class="a" x1="83.6142" y1="5.15741" x2="79.45035" y2="15.09512"/>
      <line class="a" x1="14.94105" y1="79.07951" x2="4.96954" y2="83.16215"/>
      <line class="a" x1="115.92506" y1="37.73306" x2="105.95367" y2="41.8157"/>
      <line class="a" x1="37.73257" y1="4.9699" x2="41.81534" y2="14.9413"/>
      <path class="b" d="M43.68722,122.036l33.06027.135a68.43588,68.43588,0,0,1,14.7628-36.36069A40.10326,40.10326,0,0,0,58.04768,20.41034,40.10312,40.10312,0,0,0,28.61261,84.8355,72.83082,72.83082,0,0,1,43.68722,122.036Z"/>
      <path class="b" d="M39.50929,122.01908l-.0534,13.08281a15.93647,15.93647,0,0,0,15.87117,16.00126l9.5011.0387a15.9361,15.9361,0,0,0,16.00075-15.871l.05328-13.083Z"/>
      <line class="a" x1="80.83222" y1="134.45268" x2="84.93703" y2="134.46933"/>
      <line class="a" x1="35.35451" y1="134.26701" x2="39.45932" y2="134.28377"/>
    </g>
    <path class="c" d="M79.56712,52.4776h0a11.27781,11.27781,0,0,0-15.94923,0l-2.84873,2.84873-2.84874-2.84873a11.27781,11.27781,0,0,0-15.94923,0h0a11.27781,11.27781,0,0,0,0,15.94923l2.84872,2.84873L60.76916,87.2248,76.7184,71.27556l2.84872-2.84873A11.27781,11.27781,0,0,0,79.56712,52.4776Z"/>
  </g>
</svg>
