<svg xmlns="http://www.w3.org/2000/svg" viewBox="0 0 235.44253 235.44263">
  <defs>
    <style>
      .a, .b, .c, .d {
        fill: none;
        stroke-miterlimit: 10;
      }

      .a, .b {
        stroke: #8499aa;
      }

      .a, .d {
        stroke-width: 2px;
      }

      .b, .c {
        stroke-linecap: round;
      }

      .c {
        stroke: #5b6f7c;
        stroke-width: 3px;
      }

      .d {
        stroke: #b52518;
      }
    </style>
  </defs>
  <title>Asset 41</title>
  <g>
    <circle class="a" cx="117.72127" cy="117.72132" r="116.68979" transform="translate(-48.76178 117.72128) rotate(-45)"/>
    <g>
      <line class="b" x1="122.61567" y1="51.77746" x2="122.65964" y2="41.00264"/>
      <line class="b" x1="73.24258" y1="100.74957" x2="62.46776" y2="100.70573"/>
      <line class="b" x1="182.36236" y1="101.19474" x2="171.58753" y2="101.15092"/>
      <line class="b" x1="87.78688" y1="66.03787" x2="80.19905" y2="58.38783"/>
      <line class="b" x1="164.97756" y1="58.73393" x2="157.32737" y2="66.32174"/>
      <line class="b" x1="77.06227" y1="81.94762" x2="67.12443" y2="77.78365"/>
      <line class="b" x1="177.70556" y1="124.11671" x2="167.76772" y2="119.95273"/>
      <line class="b" x1="145.58195" y1="45.66005" x2="141.41811" y2="55.59776"/>
      <line class="b" x1="76.90881" y1="119.58215" x2="66.93729" y2="123.66479"/>
      <line class="b" x1="177.89282" y1="78.2357" x2="167.92142" y2="82.31834"/>
      <line class="b" x1="99.70033" y1="45.47254" x2="103.78309" y2="55.44394"/>
      <path class="c" d="M105.655,162.53862l33.06028.135A68.436,68.436,0,0,1,153.478,126.3129,40.10325,40.10325,0,0,0,120.01544,60.913a40.10311,40.10311,0,0,0-29.43507,64.42516A72.83072,72.83072,0,0,1,105.655,162.53862Z"/>
      <path class="c" d="M101.47705,162.52172l-.0534,13.08281a15.93646,15.93646,0,0,0,15.87117,16.00126l9.5011.0387a15.93611,15.93611,0,0,0,16.00075-15.871l.05328-13.08295Z"/>
      <line class="b" x1="142.79998" y1="174.95532" x2="146.90479" y2="174.97197"/>
      <line class="b" x1="97.32227" y1="174.76965" x2="101.42708" y2="174.78641"/>
    </g>
    <path class="d" d="M141.53487,92.98024h0a11.27779,11.27779,0,0,0-15.94922,0L122.73691,95.829l-2.84873-2.84873a11.27781,11.27781,0,0,0-15.94923,0h0a11.27781,11.27781,0,0,0,0,15.94923l2.84872,2.84873,15.94924,15.94924,15.94924-15.94924,2.84872-2.84873A11.27779,11.27779,0,0,0,141.53487,92.98024Z"/>
  </g>
</svg>
