<svg xmlns="http://www.w3.org/2000/svg" viewBox="0 0 235.44253 235.44263">
  <defs>
    <style>
      .a, .b, .c, .d {
        fill: none;
        stroke-miterlimit: 10;
      }

      .a, .c {
        stroke: #8499aa;
      }

      .a, .d {
        stroke-width: 2px;
      }

      .b {
        stroke: #5b6f7c;
        stroke-width: 3px;
      }

      .b, .c, .d {
        stroke-linecap: round;
      }

      .d {
        stroke: #b52518;
      }
    </style>
  </defs>
  <title>Asset 35</title>
  <g>
    <circle class="a" cx="117.72127" cy="117.72132" r="116.68979" transform="translate(-48.76178 117.72128) rotate(-45)"/>
    <g>
      <path class="b" d="M81.77344,52.19887v69.07338c.02708,0,.05354-.002.08061-.002a28.53737,28.53737,0,0,1,0,57.07473h91.74634V52.19887Z"/>
      <rect class="c" x="144.25707" y="134.60096" width="15.39669" height="29.79744"/>
      <line class="c" x1="145.95122" y1="104.02162" x2="157.95879" y2="104.02162"/>
      <line class="c" x1="121.68298" y1="104.02162" x2="133.69054" y2="104.02162"/>
      <line class="c" x1="97.41444" y1="104.02162" x2="109.42209" y2="104.02162"/>
      <line class="c" x1="145.95122" y1="122.21281" x2="157.95879" y2="122.21281"/>
      <line class="c" x1="121.68298" y1="122.21281" x2="133.69054" y2="122.21281"/>
      <line class="c" x1="121.68298" y1="140.40409" x2="133.69054" y2="140.40409"/>
      <line class="c" x1="121.68298" y1="158.59528" x2="133.69054" y2="158.59528"/>
      <line class="c" x1="97.41444" y1="122.21281" x2="109.42209" y2="122.21281"/>
      <rect class="c" x="95.71986" y="66.1454" width="63.9339" height="20.84907"/>
      <path class="c" d="M81.77344,178.34493h.08061c-.02707,0-.05353-.002-.08061-.002Z"/>
      <path class="b" d="M100.27107,128.01594a28.469,28.469,0,0,0-18.417-6.74574c-.02707,0-.05353.002-.08061.002a28.53542,28.53542,0,0,0,0,57.07063c.02708,0,.05354.002.08061.002a28.53238,28.53238,0,0,0,18.417-50.329Z"/>
    </g>
    <path class="d" d="M98.12488,138.94132h0a9.49953,9.49953,0,0,0-13.43438,0l-2.39956,2.39955-2.39955-2.39955a9.49954,9.49954,0,0,0-13.43439,0h0a9.49954,9.49954,0,0,0,0,13.43439l2.39954,2.39955,13.4344,13.4344,13.4344-13.4344,2.39954-2.39955A9.49954,9.49954,0,0,0,98.12488,138.94132Z"/>
  </g>
</svg>
