<svg xmlns="http://www.w3.org/2000/svg" viewBox="0 0 123.28365 129.14605">
  <defs>
    <style>
      .a, .b, .c {
        fill: none;
        stroke-linecap: round;
        stroke-miterlimit: 10;
      }

      .a {
        stroke: #5b6f7c;
        stroke-width: 3px;
      }

      .b {
        stroke: #8499aa;
      }

      .c {
        stroke: #b52518;
        stroke-width: 2px;
      }
    </style>
  </defs>
  <title>Asset 15</title>
  <g>
    <g>
      <path class="a" d="M29.9567,1.5V70.57337c.02708,0,.05354-.002.08061-.002a28.53737,28.53737,0,0,1,0,57.07473h91.74634V1.5Z"/>
      <rect class="b" x="92.44033" y="83.90209" width="15.39669" height="29.79744"/>
      <line class="b" x1="94.13448" y1="53.32275" x2="106.14205" y2="53.32275"/>
      <line class="b" x1="69.86624" y1="53.32275" x2="81.8738" y2="53.32275"/>
      <line class="b" x1="45.5977" y1="53.32275" x2="57.60535" y2="53.32275"/>
      <line class="b" x1="94.13448" y1="71.51393" x2="106.14205" y2="71.51393"/>
      <line class="b" x1="69.86624" y1="71.51393" x2="81.8738" y2="71.51393"/>
      <line class="b" x1="69.86624" y1="89.70522" x2="81.8738" y2="89.70522"/>
      <line class="b" x1="69.86624" y1="107.8964" x2="81.8738" y2="107.8964"/>
      <line class="b" x1="45.5977" y1="71.51393" x2="57.60535" y2="71.51393"/>
      <rect class="b" x="43.90312" y="15.44652" width="63.9339" height="20.84907"/>
      <path class="b" d="M29.9567,127.64605h.08061c-.02707,0-.05353-.002-.08061-.002Z"/>
      <path class="a" d="M48.45433,77.31706a28.469,28.469,0,0,0-18.417-6.74574c-.02707,0-.05353.002-.08061.002a28.53542,28.53542,0,0,0,0,57.07063c.02708,0,.05354.002.08061.002a28.53238,28.53238,0,0,0,18.417-50.329Z"/>
    </g>
    <path class="c" d="M46.30814,88.24245v0a9.49954,9.49954,0,0,0-13.43438,0L30.4742,90.642l-2.39955-2.39955a9.49956,9.49956,0,0,0-13.43439,0v0a9.49953,9.49953,0,0,0,0,13.43438l2.39954,2.39955,13.4344,13.4344,13.4344-13.4344,2.39954-2.39955A9.49953,9.49953,0,0,0,46.30814,88.24245Z"/>
  </g>
</svg>
