<svg xmlns="http://www.w3.org/2000/svg" viewBox="0 0 122.69839 126">
  <defs>
    <style>
      .a, .b, .d {
        fill: none;
        stroke-miterlimit: 10;
      }

      .a {
        stroke: #5b6f7c;
        stroke-width: 3px;
      }

      .a, .b {
        stroke-linecap: round;
      }

      .b {
        stroke: #8499aa;
      }

      .c {
        fill: #8499aa;
      }

      .d {
        stroke: #b52518;
        stroke-width: 2px;
      }
    </style>
  </defs>
  <title>Asset 14</title>
  <g>
    <g>
      <rect class="a" x="57.4671" y="37.0968" width="63.7313" height="34.27"/>
      <path class="a" d="M89.4268,37.0967V1.5H15.5166C7.7755,1.5,1.5,8.8862,1.5,17.9973v96.3294a7.182,7.182,0,0,1,.0639-.9312q.01395-.1116.0312-.2229c.0231-.1394.0521-.2722.0836-.4023,1.0224-4.8779,6.7453-8.617,13.6728-8.617H89.4268V71.3667"/>
      <line class="b" x1="14.934" y1="103.8667" x2="14.934" y2="1.5"/>
      <path class="a" d="M89.4267,124.5H15.3514C7.7015,124.5,1.5,119.9453,1.5,114.3266h0c0-5.6186,6.2015-10.1733,13.8514-10.1733H89.4267c-6.0079,6.0645-6.0079,14.2822,0,20.3467Z"/>
      <path class="a" d="M89.4267,124.5H15.3514C7.7015,124.5,1.5,119.9453,1.5,114.3266h0c0-5.6186,6.2015-10.1733,13.8514-10.1733H89.4267c-6.0079,6.0645-6.0079,14.2822,0,20.3467Z"/>
      <path class="c" d="M78.128,47.6885a5.24257,5.24257,0,0,1,1.6558,4.2641,5.05673,5.05673,0,0,1-1.69,4.2188,8.286,8.286,0,0,1-5.1833,1.3383H70.0982v4.6499H67.4216V46.304h5.4436Q76.4718,46.304,78.128,47.6885Zm-1.8939,6.5438a3.50413,3.50413,0,0,0,.8048-2.4957,2.58717,2.58717,0,0,0-1.0208-2.325,5.88564,5.88564,0,0,0-3.1981-.6802H70.0982v6.3509h3.1076A4.14418,4.14418,0,0,0,76.2341,54.2323Z"/>
      <path class="c" d="M94.936,48.3798a7.39585,7.39585,0,0,1,2.2908,5.7731,7.77,7.77,0,0,1-2.2234,5.8516Q92.78,62.16,88.1993,62.1596H82.9366V46.304h5.4436Q92.64425,46.304,94.936,48.3798Zm-.4089,5.8405q0-5.44365-6.2373-5.4437H85.6132V59.6417h2.971a6.39406,6.39406,0,0,0,4.4117-1.3724A5.15608,5.15608,0,0,0,94.5271,54.2203Z"/>
      <path class="c" d="M103.3506,48.7997v4.3545h7.0312v2.4727h-7.0312v6.5327h-2.6765V46.304h10.5697l-.0221,2.4957Z"/>
      <g>
        <line class="b" x1="85.148" y1="117.9072" x2="17.6858" y2="117.9072"/>
        <line class="b" x1="85.148" y1="110.7461" x2="37.1281" y2="110.7461"/>
      </g>
    </g>
    <path class="d" d="M46.42427,14.45717h0a6.43786,6.43786,0,0,0-9.10451,0l-1.62618,1.62617L34.0674,14.45716a6.43786,6.43786,0,0,0-9.10451,0h0a6.43785,6.43785,0,0,0,0,9.1045l1.62618,1.62618,9.10451,9.10451,9.10451-9.10451,1.62618-1.62618A6.43785,6.43785,0,0,0,46.42427,14.45717Z"/>
  </g>
</svg>
