<svg xmlns="http://www.w3.org/2000/svg" viewBox="0 0 235.44253 235.44263">
  <defs>
    <style>
      .a, .b, .c, .e {
        fill: none;
        stroke-miterlimit: 10;
      }

      .a, .c {
        stroke: #8499aa;
      }

      .a, .e {
        stroke-width: 2px;
      }

      .b {
        stroke: #5b6f7c;
        stroke-width: 3px;
      }

      .b, .c {
        stroke-linecap: round;
      }

      .d {
        fill: #8499aa;
      }

      .e {
        stroke: #b52518;
      }
    </style>
  </defs>
  <title>Asset 33</title>
  <g>
    <circle class="a" cx="117.72127" cy="117.72132" r="116.68979" transform="translate(-48.76178 117.72128) rotate(-45)"/>
    <g>
      <rect class="b" x="126.61604" y="86.66983" width="63.7313" height="34.27"/>
      <path class="b" d="M158.57574,86.66973V51.073H84.66554c-7.7411,0-14.0166,7.3862-14.0166,16.4973v96.3294a7.182,7.182,0,0,1,.0639-.9312q.01395-.1116.0312-.2229c.0231-.1394.0521-.2722.0836-.4023,1.0224-4.8779,6.7453-8.617,13.6728-8.617h74.0753v-32.7866"/>
      <line class="c" x1="84.08294" y1="153.43973" x2="84.08294" y2="51.07303"/>
      <path class="b" d="M158.57564,174.073H84.50034c-7.6499,0-13.8514-4.5547-13.8514-10.1734h0c0-5.6186,6.2015-10.1733,13.8514-10.1733h74.0753c-6.0079,6.0645-6.0079,14.2822,0,20.3467Z"/>
      <path class="b" d="M158.57564,174.073H84.50034c-7.6499,0-13.8514-4.5547-13.8514-10.1734h0c0-5.6186,6.2015-10.1733,13.8514-10.1733h74.0753c-6.0079,6.0645-6.0079,14.2822,0,20.3467Z"/>
      <path class="d" d="M147.27694,97.26153a5.24257,5.24257,0,0,1,1.6558,4.2641,5.05673,5.05673,0,0,1-1.69,4.2188,8.286,8.286,0,0,1-5.1833,1.3383h-2.8123v4.6499h-2.6766V95.877h5.4436Q145.62074,95.877,147.27694,97.26153Zm-1.8939,6.5438a3.50413,3.50413,0,0,0,.8048-2.4957,2.58717,2.58717,0,0,0-1.0208-2.325,5.88564,5.88564,0,0,0-3.1981-.6802h-2.7218v6.3509h3.1076A4.14418,4.14418,0,0,0,145.383,103.80533Z"/>
      <path class="d" d="M164.08494,97.95283a7.39585,7.39585,0,0,1,2.2908,5.7731,7.77,7.77,0,0,1-2.2234,5.8516q-2.22345,2.1555-6.8041,2.1551h-5.2627V95.877h5.4436Q161.79319,95.877,164.08494,97.95283Zm-.4089,5.8405q0-5.44365-6.2373-5.4437h-2.6766v10.8651h2.971a6.39406,6.39406,0,0,0,4.4117-1.3724A5.15608,5.15608,0,0,0,163.676,103.79333Z"/>
      <path class="d" d="M172.49954,98.37273v4.3545h7.0312v2.4727h-7.0312v6.5327H169.823V95.877h10.5697l-.0221,2.4957Z"/>
      <g>
        <line class="c" x1="154.29694" y1="167.48023" x2="86.83474" y2="167.48023"/>
        <line class="c" x1="154.29694" y1="160.31913" x2="106.27704" y2="160.31913"/>
      </g>
    </g>
    <path class="e" d="M115.57321,64.0302h0a6.43785,6.43785,0,0,0-9.1045,0l-1.62619,1.62617-1.62618-1.62617a6.43785,6.43785,0,0,0-9.1045,0h0a6.43783,6.43783,0,0,0,0,9.1045L95.738,74.76088l9.10451,9.10451,9.10452-9.10451,1.62617-1.62618A6.43783,6.43783,0,0,0,115.57321,64.0302Z"/>
  </g>
</svg>
