<svg xmlns="http://www.w3.org/2000/svg" viewBox="0 0 235.44253 235.44263">
  <defs>
    <style>
      .a, .b, .c, .d {
        fill: none;
      }

      .a, .c {
        stroke: #8499aa;
      }

      .a, .d {
        stroke-miterlimit: 10;
        stroke-width: 2px;
      }

      .b {
        stroke: #5b6f7c;
        stroke-width: 3px;
      }

      .b, .c {
        stroke-linecap: round;
        stroke-linejoin: round;
      }

      .d {
        stroke: #b52518;
      }
    </style>
  </defs>
  <title>Asset 38</title>
  <g>
    <circle class="a" cx="117.72127" cy="117.72132" r="116.68979" transform="translate(-48.76178 117.72128) rotate(-45)"/>
    <g>
      <path class="b" d="M68.96742,103.36829V148.3h0a226.93721,226.93721,0,0,0,92.28811,0h.00011V103.36829"/>
      <path class="c" d="M68.96742,137.64016h0a226.93335,226.93335,0,0,0,92.28811,0h.00011"/>
      <polygon class="b" points="115.112 82.6 47.828 98.374 115.112 114.148 182.395 98.374 115.112 82.6"/>
      <line class="b" x1="175.61783" y1="99.12052" x2="175.61783" y2="131.05877"/>
      <path class="b" d="M181.63094,137.60371a6.01332,6.01332,0,1,1-6.01311-6.05752A6.03531,6.03531,0,0,1,181.63094,137.60371Z"/>
      <path class="b" d="M68.96742,103.36829V148.3h0a226.93721,226.93721,0,0,0,92.28811,0h.00011V103.36829"/>
    </g>
    <path class="d" d="M162.12024,170.75768h0a8.22384,8.22384,0,0,0,11.63027,0l2.07732-2.07731,2.07732,2.07731a8.22384,8.22384,0,0,0,11.63027,0h0a8.22384,8.22384,0,0,0,0-11.63027l-2.07731-2.07731-11.63028-11.63028L164.19755,157.0501l-2.07731,2.07731A8.22384,8.22384,0,0,0,162.12024,170.75768Z"/>
  </g>
</svg>
