<svg xmlns="http://www.w3.org/2000/svg" viewBox="0 0 146.61619 93.06663">
  <defs>
    <style>
      .a, .b, .c {
        fill: none;
      }

      .a {
        stroke: #5b6f7c;
        stroke-width: 3px;
      }

      .a, .b {
        stroke-linecap: round;
        stroke-linejoin: round;
      }

      .b {
        stroke: #8499aa;
      }

      .c {
        stroke: #b52518;
        stroke-miterlimit: 10;
        stroke-width: 2px;
      }
    </style>
  </defs>
  <title>Asset 9</title>
  <g>
    <g>
      <path class="a" d="M22.63948,22.26852V67.20023h0a226.93721,226.93721,0,0,0,92.28811,0h.00011V22.26852"/>
      <path class="b" d="M22.63948,56.54039h0a226.93335,226.93335,0,0,0,92.28811,0h.00011"/>
      <polygon class="a" points="68.784 1.5 1.5 17.274 68.784 33.048 136.067 17.274 68.784 1.5"/>
      <line class="a" x1="129.28989" y1="18.02075" x2="129.28989" y2="49.959"/>
      <path class="a" d="M135.303,56.50394a6.01332,6.01332,0,1,1-6.0131-6.05752A6.03531,6.03531,0,0,1,135.303,56.50394Z"/>
      <path class="a" d="M22.63948,22.26852V67.20023h0a226.93721,226.93721,0,0,0,92.28811,0h.00011V22.26852"/>
    </g>
    <path class="c" d="M115.7923,89.65791h0a8.22384,8.22384,0,0,0,11.63027,0l2.07732-2.07731,2.07731,2.07731a8.22384,8.22384,0,0,0,11.63027,0h0a8.22383,8.22383,0,0,0,0-11.63027l-2.0773-2.07731L129.49989,64.32005,117.8696,75.95033l-2.0773,2.07731A8.22383,8.22383,0,0,0,115.7923,89.65791Z"/>
  </g>
</svg>
