<svg xmlns="http://www.w3.org/2000/svg" viewBox="0 0 235.44253 235.44263">
  <defs>
    <style>
      .a, .b, .c, .d {
        fill: none;
        stroke-miterlimit: 10;
      }

      .a, .d {
        stroke: #8499aa;
      }

      .a, .b {
        stroke-width: 2px;
      }

      .b {
        stroke: #b52518;
      }

      .c {
        stroke: #5b6f7c;
        stroke-width: 3px;
      }

      .c, .d {
        stroke-linecap: round;
      }
    </style>
  </defs>
  <title>Asset 42</title>
  <g>
    <circle class="a" cx="117.72127" cy="117.72132" r="116.68979" transform="translate(-48.76178 117.72128) rotate(-45)"/>
    <path class="b" d="M129.5818,113.56874h0a9.49956,9.49956,0,0,0-13.43439,0l-2.39955,2.39955-2.39956-2.39955a9.49954,9.49954,0,0,0-13.43438,0h0a9.49954,9.49954,0,0,0,0,13.43439l2.39954,2.39955,13.4344,13.4344,13.4344-13.4344,2.39954-2.39955A9.49954,9.49954,0,0,0,129.5818,113.56874Z"/>
    <g>
      <ellipse class="c" cx="113.03773" cy="127.00876" rx="52.47755" ry="52.63002"/>
      <ellipse class="d" cx="113.03773" cy="127.00876" rx="34.03349" ry="34.13245"/>
      <polygon class="c" points="179.923 60.316 163.354 76.933 158.145 63.167 174.713 46.55 179.923 60.316"/>
      <polygon class="c" points="179.923 60.316 163.354 76.933 177.08 82.158 193.649 65.541 179.923 60.316"/>
      <line class="c" x1="113.03773" y1="127.39558" x2="165.35629" y2="74.925"/>
    </g>
  </g>
</svg>
