<svg xmlns="http://www.w3.org/2000/svg" viewBox="0 0 137.2842 137.29445">
  <defs>
    <style>
      .a, .b, .c {
        fill: none;
        stroke-miterlimit: 10;
      }

      .a {
        stroke: #b52518;
        stroke-width: 2px;
      }

      .b {
        stroke: #5b6f7c;
        stroke-width: 3px;
      }

      .b, .c {
        stroke-linecap: round;
      }

      .c {
        stroke: #8499aa;
      }
    </style>
  </defs>
  <title>Asset 5</title>
  <g>
    <path class="a" d="M70.52161,69.72443h0a9.49956,9.49956,0,0,0-13.43439,0L54.68767,72.124l-2.39956-2.39955a9.49954,9.49954,0,0,0-13.43438,0h0a9.49954,9.49954,0,0,0,0,13.43439l2.39954,2.39955,13.4344,13.4344,13.4344-13.4344,2.39954-2.39955A9.49954,9.49954,0,0,0,70.52161,69.72443Z"/>
    <g>
      <ellipse class="b" cx="53.97755" cy="83.16445" rx="52.47755" ry="52.63002"/>
      <ellipse class="c" cx="53.97754" cy="83.16445" rx="34.03349" ry="34.13245"/>
      <polygon class="b" points="120.863 16.472 104.294 33.088 99.084 19.323 115.653 2.706 120.863 16.472"/>
      <polygon class="b" points="120.863 16.472 104.294 33.088 118.02 38.313 134.589 21.697 120.863 16.472"/>
      <line class="b" x1="53.97754" y1="83.55127" x2="106.2961" y2="31.08069"/>
    </g>
  </g>
</svg>
