<svg xmlns="http://www.w3.org/2000/svg" viewBox="0 0 49.65 49.02"><defs><style>.a{fill:none;stroke:#8897a7;stroke-miterlimit:10;}</style></defs><title>express-ico</title><path class="a" d="M9,33.23a2.24,2.24,0,0,0-.56.81L3.16,47.76A1.89,1.89,0,0,0,4.25,50.2L7.16,51.3c1.59.6,4.37-3.36,5.64-4.52.19-.18.37-.37.28-.62L12.25,44l.17-.36,2.19-.83a.48.48,0,0,0,.28-.62L14.06,40l.15-.33,2.16-.82a.48.48,0,0,0,.28-.62l-.77-2" transform="translate(-2.53 -2.85)"/><path class="a" d="M18.6,18.41a9.06,9.06,0,1,0,5.78,6.81c-3.06,2-6.2,2.38-7.6.8a2.56,2.56,0,0,1-.29-.41,1.1,1.1,0,1,1-.63-2l.24,0" transform="translate(-2.53 -2.85)"/><path class="a" d="M14.75,24.72a1.09,1.09,0,0,0,1.73.89,3.38,3.38,0,0,1-.39-2l-.24,0A1.1,1.1,0,0,0,14.75,24.72Z" transform="translate(-2.53 -2.85)"/><path class="a" d="M29.73,14.51l.11.15a2.86,2.86,0,1,1,.13,4.1A12.73,12.73,0,0,1,27.14,23,8.15,8.15,0,0,0,31,25.12l15.2,4.93,4.93-15.2a8.33,8.33,0,0,0-.35-6.94A7.88,7.88,0,0,0,40.28,4.13a7.52,7.52,0,0,0-4,6.53,7.52,7.52,0,0,0-7.65-.59,7.27,7.27,0,0,0-3.44,3.8" transform="translate(-2.53 -2.85)"/><path class="a" d="M30,18.76a2.85,2.85,0,1,0-.13-4.1C30.59,15.64,30.6,17.13,30,18.76Z" transform="translate(-2.53 -2.85)"/><path class="a" d="M25.18,13.88a13.68,13.68,0,0,0-5,2.92,15.78,15.78,0,0,0-1.57,1.61,9,9,0,0,1,5.78,6.81,15.74,15.74,0,0,0,2-1.49c.28-.25.55-.51.81-.77a8.61,8.61,0,0,1-1.6-2.2A8.33,8.33,0,0,1,25.18,13.88Z" transform="translate(-2.53 -2.85)"/><path class="a" d="M16.48,25.62a1.09,1.09,0,0,0-.39-2A3.38,3.38,0,0,0,16.48,25.62Z" transform="translate(-2.53 -2.85)"/><path class="a" d="M25.18,13.88a8.33,8.33,0,0,0,.36,6.89,8.61,8.61,0,0,0,1.6,2.2A12.73,12.73,0,0,0,30,18.76a2.83,2.83,0,0,1-.13-4.1l-.11-.15" transform="translate(-2.53 -2.85)"/><path class="a" d="M30,18.76c.63-1.63.62-3.12-.13-4.1a2.83,2.83,0,0,0,.13,4.1Z" transform="translate(-2.53 -2.85)"/></svg>