<svg xmlns="http://www.w3.org/2000/svg" viewBox="0 0 235.44253 235.44263">
  <defs>
    <style>
      .a, .b, .c, .d {
        fill: none;
        stroke-miterlimit: 10;
      }

      .a, .b {
        stroke: #8499aa;
      }

      .a, .d {
        stroke-width: 2px;
      }

      .b, .c {
        stroke-linecap: round;
      }

      .c {
        stroke: #5b6f7c;
        stroke-width: 3px;
      }

      .d {
        stroke: #b52518;
      }
    </style>
  </defs>
  <title>Asset 36</title>
  <g>
    <circle class="a" cx="117.72127" cy="117.72132" r="116.68979" transform="translate(-48.76178 117.72128) rotate(-45)"/>
    <g>
      <path class="b" d="M121.88918,58.67105c18.91835,0,21.159.0723,28.63058.413,6.90761.31541,10.65964,1.46979,13.15638,2.44011a23.46142,23.46142,0,0,1,13.44649,13.44649c.97032,2.49674,2.1247,6.24878,2.44011,13.15638.34071,7.47155.413,9.71223.413,28.63058,0,18.91895-.0723,21.15963-.413,28.63058-.31541,6.90821-1.46979,10.65994-2.44011,13.15668a23.46077,23.46077,0,0,1-13.44649,13.4468c-2.49674.97031-6.24877,2.1247-13.15638,2.4395-7.47064.341-9.71039.413-28.63058.413s-21.16023-.072-28.63057-.413c-6.90761-.3148-10.65965-1.46919-13.15639-2.4395a23.46107,23.46107,0,0,1-13.44649-13.4468c-.97032-2.49674-2.1247-6.24847-2.4401-13.15668-.34072-7.471-.413-9.71163-.413-28.63058,0-18.91835.0723-21.159.413-28.63058.3154-6.9076,1.46978-10.65964,2.4401-13.15638A23.46172,23.46172,0,0,1,80.10222,61.52417c2.49674-.97032,6.24878-2.1247,13.15639-2.44011,7.47154-.34071,9.71222-.413,28.63057-.413"/>
      <path class="c" d="M121.88918,45.90508c-19.24249,0-21.65548.08134-29.21258.42627a52.01647,52.01647,0,0,0-17.19853,3.29354A36.23025,36.23025,0,0,0,54.75645,70.34651a52.00137,52.00137,0,0,0-3.29354,17.19913c-.34493,7.5571-.42627,9.96949-.42627,29.212,0,19.2431.08134,21.65549.42627,29.21259A51.99786,51.99786,0,0,0,54.75645,163.169,36.2297,36.2297,0,0,0,75.47807,183.891,52.0247,52.0247,0,0,0,92.6766,187.1845c7.5571.34432,9.97009.426,29.21258.426s21.65519-.08164,29.21229-.426A52.025,52.025,0,0,0,168.3003,183.891,36.2297,36.2297,0,0,0,189.02192,163.169a51.9976,51.9976,0,0,0,3.29354-17.19883c.34492-7.5571.42626-9.96949.42626-29.21259,0-19.24249-.08134-21.65488-.42626-29.212a52.00111,52.00111,0,0,0-3.29354-17.19913A36.23025,36.23025,0,0,0,168.3003,49.62489a52.01677,52.01677,0,0,0-17.19883-3.29354c-7.5571-.34493-9.96976-.42627-29.21229-.42627"/>
      <path class="c" d="M121.88918,80.37414a36.38364,36.38364,0,1,0,36.38352,36.38348,36.384,36.384,0,0,0-36.38352-36.38348"/>
      <path class="b" d="M121.88918,140.37543a23.61766,23.61766,0,1,1,23.61752-23.61781,23.61786,23.61786,0,0,1-23.61752,23.61781"/>
    </g>
    <path class="d" d="M168.16661,73.67463h0a5.10448,5.10448,0,0,0-7.21882,0L159.65841,74.964,158.369,73.67462a5.10448,5.10448,0,0,0-7.21882,0h0a5.10446,5.10446,0,0,0,0,7.21882l1.28936,1.28937,7.21883,7.21883,7.21883-7.21883,1.28937-1.28937A5.10446,5.10446,0,0,0,168.16661,73.67463Z"/>
  </g>
</svg>
