<svg xmlns="http://www.w3.org/2000/svg" viewBox="0 0 144.70508 144.70538">
  <defs>
    <style>
      .a, .b, .c {
        fill: none;
        stroke-miterlimit: 10;
      }

      .a {
        stroke: #8499aa;
      }

      .a, .b {
        stroke-linecap: round;
      }

      .b {
        stroke: #5b6f7c;
        stroke-width: 3px;
      }

      .c {
        stroke: #b52518;
        stroke-width: 2px;
      }
    </style>
  </defs>
  <title>Asset 16</title>
  <g>
    <g>
      <path class="a" d="M72.35254,14.266c18.91835,0,21.159.0723,28.63057.413,6.90761.31541,10.65965,1.46979,13.15639,2.44011a21.94818,21.94818,0,0,1,8.14667,5.29985,21.94555,21.94555,0,0,1,5.29982,8.14664c.97032,2.49674,2.1247,6.24878,2.44011,13.15638.34071,7.47155.413,9.71223.413,28.63058,0,18.91895-.0723,21.15963-.413,28.63058-.31541,6.90821-1.46979,10.65994-2.44011,13.15668a23.46084,23.46084,0,0,1-13.44649,13.4468c-2.49674.97031-6.24878,2.1247-13.15639,2.4395-7.47064.341-9.71038.413-28.63057.413s-21.16024-.072-28.63058-.413c-6.9076-.3148-10.65964-1.46919-13.15638-2.4395a21.95541,21.95541,0,0,1-8.14664-5.29985,21.96,21.96,0,0,1-5.29985-8.147c-.97032-2.49674-2.1247-6.24847-2.44011-13.15668-.34071-7.471-.413-9.71163-.413-28.63058,0-18.91835.0723-21.159.413-28.63058.31541-6.9076,1.46979-10.65964,2.44011-13.15638a21.95636,21.95636,0,0,1,5.29985-8.14664,21.94775,21.94775,0,0,1,8.14664-5.29985c2.49674-.97032,6.24878-2.1247,13.15638-2.44011,7.47155-.34071,9.71223-.413,28.63058-.413"/>
      <path class="b" d="M72.35254,1.5c-19.24249,0-21.65549.08134-29.21259.42627A52.01646,52.01646,0,0,0,25.94143,5.21981a34.72219,34.72219,0,0,0-12.54938,8.17224A34.72724,34.72724,0,0,0,5.21981,25.94143,52.00137,52.00137,0,0,0,1.92627,43.14056C1.58134,50.69766,1.5,53.11005,1.5,72.35254c0,19.2431.08134,21.65549.42627,29.21259A51.99786,51.99786,0,0,0,5.21981,118.764a34.72835,34.72835,0,0,0,8.17224,12.54967,34.72628,34.72628,0,0,0,12.54938,8.17225A52.02468,52.02468,0,0,0,43.14,142.77942c7.5571.34432,9.9701.426,29.21259.426s21.65518-.08164,29.21228-.426a52.02489,52.02489,0,0,0,17.19883-3.29354A36.22962,36.22962,0,0,0,139.48527,118.764a51.99709,51.99709,0,0,0,3.29354-17.19883c.34493-7.5571.42627-9.96949.42627-29.21259,0-19.24249-.08134-21.65488-.42627-29.212a52.0006,52.0006,0,0,0-3.29354-17.19913A34.72737,34.72737,0,0,0,131.313,13.39205a34.722,34.722,0,0,0-12.54938-8.17224,52.01666,52.01666,0,0,0-17.19883-3.29354C94.00772,1.58134,91.59506,1.5,72.35254,1.5"/>
      <path class="b" d="M72.35254,35.96906a36.38364,36.38364,0,1,0,36.38351,36.38348A36.384,36.384,0,0,0,72.35254,35.96906"/>
      <path class="a" d="M72.35254,95.97036A23.61767,23.61767,0,1,1,95.97005,72.35254,23.61787,23.61787,0,0,1,72.35254,95.97036"/>
    </g>
    <path class="c" d="M118.63,29.26955h0a5.10449,5.10449,0,0,0-7.21883,0l-1.28937,1.28937-1.28938-1.28937a5.10448,5.10448,0,0,0-7.21882,0h0a5.10448,5.10448,0,0,0,0,7.21882l1.28937,1.28937,7.21883,7.21883,7.21883-7.21883L118.63,36.48837A5.10448,5.10448,0,0,0,118.63,29.26955Z"/>
  </g>
</svg>
