<svg xmlns="http://www.w3.org/2000/svg" xmlns:xlink="http://www.w3.org/1999/xlink" viewBox="0 0 1511.74289 332.15503">
  <defs>
    <style>
      .a {
        fill: #303c42;
      }

      .b {
        fill: #bc0808;
      }

      .c {
        fill: url(#a);
      }
    </style>
    <linearGradient id="a" x1="930.48617" y1="146.22977" x2="1468.86608" y2="146.22977" gradientUnits="userSpaceOnUse">
      <stop offset="0.49801" stop-color="#ff7bac" stop-opacity="0"/>
      <stop offset="1" stop-color="#bc0808"/>
    </linearGradient>
  </defs>
  <title>Asset 5</title>
  <g>
    <g>
      <path class="a" d="M140.81063,174.08966c.31365-4.7139-2.51443-4.7139-11.94223,0-21.05378,10.37006-43.99338,15.084-75.41723,15.084-12.88449.315-23.56821,0-24.19681-.62731-.62861-.6299,6.91337-24.19682,14.769-46.5091l2.82808-8.17059,18.2257-14.14105c25.454-19.48292,49.65084-36.13775,93.95918-63.79125,37.70861-23.88187,52.164-33.62332,54.99205-37.08,1.88582-2.19948.315-6.59972-2.82808-6.59972-.94226,0-8.17059,4.08529-16.02623,8.79919C102.78706,77.93166,79.84746,93.01562,59.421,110.29906a45.50833,45.50833,0,0,1-5.65616,4.08529c-1.25721,0,18.85431-53.73613,31.11019-82.64555C94.61647,8.79919,95.87369,3.14174,91.15979.62861A7.96339,7.96339,0,0,0,88.96031,0C86.13223,0,83.93275,3.45669,77.333,16.02623,65.07715,40.5367,51.25169,73.84636,38.05355,112.18488l-7.542,21.68174-7.85693,7.54327c-12.25459,12.56954-19.168,24.50918-19.48292,34.87925-.31365,5.97111.94356,9.11285,5.34251,14.45664l3.45669,3.76906-2.19948,7.54327C6.31475,214.3127.34364,245.10794.03,253.27853c-.31494,8.17059,1.88453,14.45665,5.02756,15.39891,4.399.94226,5.34251.62732,10.05512-3.77164,5.3425-4.7139,6.59971-9.11285,3.45668-11.93964a6.108,6.108,0,0,0-4.084-.94484c-1.88582.62989-2.51442.315-2.20076-1.56958,0-4.08659,5.65745-27.96845,9.42779-39.91068l3.45669-11.93964,12.56954.94227c29.853,1.88452,72.59044-5.97112,95.53-18.22571C139.55341,178.17625,140.81063,176.919,140.81063,174.08966ZM18.56934,170.94792c-3.77034,12.56954-5.65616,14.1417-4.7126,3.45669.30236-3.635,5.55516-13.95091,7.06181-14.41639a.34372.34372,0,0,1,.16522.27469C21.39872,160.57786,20.1415,165.29176,18.56934,170.94792Z"/>
      <path class="a" d="M734.09079,163.09228c-.94226,0-12.8832,5.34122-26.08134,11.93964-13.19815,6.601-25.14037,11.94223-26.71124,11.62728-1.57087-.31237-3.77034-2.51442-5.96982-7.22574-4.7139-9.4278-7.85693-11.94223-14.1417-11-2.82808.31495-6.28477.94226-7.227,1.57216-1.88582.62731-2.19948,0-2.19948-3.45669a14.055,14.055,0,0,0-2.82808-7.85564,9.55623,9.55623,0,0,0-7.542-3.45669c-6.84755.24307-15.97072,6.5969-23.535,17.0958-16.0343,8.04619-38.91968,22.2183-49.05289,31.29525l-3.77035,3.14432.94227-3.14432c.31495-1.56958,1.88582-9.42522,3.45668-17.59581,3.45669-19.48291,2.51443-30.16792-2.82808-30.16792-.6286,0-6.91337,5.34121-14.14041,11.62727-26.39628,24.19682-33.93827,29.538-38.02356,26.08134-1.88582-1.56957-1.88582-3.14173-1.25721-10.37006a74.06913,74.06913,0,0,1,2.10234-12.38278c1.95068-1.37943,2.75806-2.46836,2.92651-3.64344.223-1.67139-.04228-2.69764-.97776-3.10472,2.09976-8.04062,1.2101-10.722-3.42249-10.722-4.48285,0-7.543,4.56071-10.26454,15.006-20.63267,9.34825-45.09925,18.6239-51.95454,19.246-5.02756.6299-7.542.315-9.11285-.94226-2.51443-1.88453-2.51443-2.51442-.94356-7.54069a147.00949,147.00949,0,0,1,5.34251-13.82675c4.08529-9.74275,3.45668-13.5118-2.19948-13.5118-4.08529,0-7.542,3.76905-11.94093,12.8819-.02485.05349-.04486.10472-.0697.158-4.17372,1.14266-9.745,2.73668-17.215,4.87081-24.82542,6.91337-37.395,8.7979-40.538,6.28606a8.33821,8.33821,0,0,1-1.88453-5.3438c0-5.97111-2.51442-14.45406-5.02755-16.65354-5.65746-5.3438-21.99734.62732-33.62462,11.93964-3.77034,3.77164-6.59842,5.97111-6.59842,5.3438a30.81916,30.81916,0,0,1,2.09621-5.96369c1.78836-1.44123,2.30274-2.39688,2.30274-3.46411a6.396,6.396,0,0,0-.18749-1.66671c2.42117-6.13149,2.44634-8.33048.50114-10.27551-2.82808-3.14174-6.91337-1.88453-10.37006,3.14432a58.77151,58.77151,0,0,0-5.85559,11.32378c-39.77159,22.32164-44.23734,24.21246-57.62071,27.01215-10.68372,2.19947-15.39762,1.57216-18.54065-1.88453-2.19947-2.19947-2.19947-3.14174-.94226-7.54327l1.57087-4.7139,5.02884,2.51442c4.71261,2.19948,5.65617,2.51443,10.37007.94227,8.7979-3.14174,16.33988-16.65354,13.5118-24.82413-1.57087-4.39895-7.542-7.85564-13.19814-7.85564-8.73337,0-18.61229,8.09258-25.22976,20.38387-14.79773,6.20313-37.4795,17.24327-50.1849,24.868a37.69093,37.69093,0,0,1-7.542,4.084c-.31365-.315-1.88452-3.45669-3.77034-7.22832-4.0853-7.85564-3.77164-13.51181,1.88582-22.30971,4.7126-7.54327,4.7126-12.56954-.62861-12.88449a1.15445,1.15445,0,0,0-.94355-.31494c-4.7139.31494-10.37007,6.59842-13.82676,15.39891-3.77034,10.05511-2.82808,17.28344,3.143,26.08134a77.25522,77.25522,0,0,1,4.7139,7.54069c0,.6299-3.45668,3.77164-7.22832,7.22832a84.45913,84.45913,0,0,0-12.56954,13.51181c-4.39895,5.97111-5.65616,8.48553-5.65616,12.56953,0,5.3438,1.88582,8.48554,6.28477,10.0577,5.97111,2.19948,13.82675-1.88711,21.99734-10.37006,8.17058-8.80049,11.31232-16.34118,10.68372-24.82671l-.94227-6.59843,9.74146-5.65616c5.34251-3.14174,19.48291-10.37007,31.11019-16.02623,3.22887-1.5294,6.4274-3.0555,9.43038-4.49173-2.64318,10.7861,1.47309,18.73145,11.93448,22.71743,5.02756,1.88453,7.542,1.88453,18.85431-.31495,11.15033-2.168,27.819-9.84794,54.77456-25.41449-1.94,7.69518-2.56477,14.66188-1.03972,17.55885,2.82808,5.3438,6.59843,3.45669,16.65483-8.483,11.94094-13.82675,16.65484-18.22828,22.9396-21.37,9.4278-5.02627,10.05641-4.7139,10.99867,5.34379.62861,10.37007,2.19948,13.82675,7.542,16.65355,5.02755,2.51442,17.59709,1.57216,31.11018-2.8268,5.34122-1.57216,16.65484-5.02884,25.45274-7.54327,1.03359-.30631,2.05717-.61247,3.06074-.91588-2.31242,9.37673-.50824,16.52559,5.4248,20.08385,4.7139,3.14432,14.7703,3.45669,23.88315.94484,7.19541-1.93688,28.52058-10.69751,43.16729-17.4831-1.49148,11.80774.78027,20.19364,6.48226,24.08153,8.17059,5.34122,16.33988,1.56958,36.13775-16.02623,7.85564-6.59842,14.45535-12.25717,14.45535-11.94222.62861.31495-5.97111,27.33855-9.11285,37.70862-3.143,10.685-4.08529,12.25717-12.56954,21.37-20.42646,21.68239-37.0813,44.307-47.13641,63.79-5.65746,11-6.91338,14.45664-7.22833,21.68239-.6286,7.22832-.31365,8.48553,1.88582,11a11.21338,11.21338,0,0,0,7.227,2.51442c19.48291,0,44.62328-35.19677,60.33456-84.21772,3.45668-10.05511,6.59971-20.42517,7.542-22.9396,2.19947-6.28606,21.99734-22.31228,44.93694-35.82409,1.818-1.06916,3.66192-2.14623,5.48965-3.20748-3.30567,7.63862-3.15368,11.83218-.151,14.83476,5.02885,5.02885,10.685,2.82679,33.93827-13.19944,16.96978-11.31232,19.48292-11.62469,22.9396-4.084,5.65746,13.19685,11.31362,15.71128,22.62595,10.99738,9.4278-4.084,41.79391-21.36744,44.30833-23.56692C736.60521,168.4335,736.91887,163.09228,734.09079,163.09228ZM154.32114,235.17566c-3.143,2.19947-8.17059,3.36063-8.17059,1.47352,0-4.084,16.96849-22.72071,20.11152-22.72071h.31366C169.40381,215.92847,161.86183,229.20455,154.32114,235.17566Zm103.06686-75.855c3.143,0,3.45669.31494,2.82808,2.82937a36.85273,36.85273,0,0,1-3.14174,5.96853c-2.6406,3.81576-10.20775,4.61249-11.19971,1.37709,1.557-1.409,2.22659-2.96216,1.82645-4.117C250.33522,162.49062,254.99168,159.32065,257.388,159.32065Zm279.04815,94.27283c-7.85693,22.62465-19.16926,43.99467-30.48159,57.19153a37.46251,37.46251,0,0,1-10.26218,8.80048l-5.54958,2.82679v-4.399c0-5.34121,9.63358-24.51176,18.43278-37.39625,8.17058-11.62469,23.51491-31.10761,28.22881-35.19419l3.58558-3.14174Zm100.24007-72.90539c-4.7139,3.14432-9.74146,6.28606-11.31233,7.22832-3.77163,2.51443-3.45669.94227,1.25592-6.28348,4.0853-6.601,11.62728-13.51438,14.1417-13.51438.94227,0,2.51314,1.57216,3.14174,3.77163C645.16046,175.34687,644.84681,175.66182,636.67622,180.68809Z"/>
      <path class="a" d="M937.72042,146.43616c2.51313-3.14174-1.57217-5.65616-9.11415-5.65616-5.02755,0-5.96982-.315-5.96982-2.19948.31366-1.57216,3.77035-14.9183,7.85564-30.00226C949.3464,37.56,951.23222,7.92847,936.4632,6.92847h-.94355a15.94868,15.94868,0,0,0-7.542,2.03574C916.98029,15.249,877.07091,75.501,850.361,126.72145c-4.08529,8.16994-8.17059,15.357-8.79919,15.98691-.62861.31237-12.88449,1.234-27.65351,1.8639-29.853,1.25721-33.93827,2.18916-28.59576,7.53038,1.88453,1.88711,4.399,2.19432,27.02489,1.252l24.82542-.62989-7.85693,15.71c-20.11152,40.85293-32.99471,70.07537-41.48025,94.58713-2.19947,5.97111-2.51313,7.85532-1.25592,9.42748,1.88453,2.19947,4.399,2.19931,5.96982-.31511.94356-1.25721,5.65617-12.25467,10.685-24.1969,5.02756-12.25459,17.28344-38.65092,27.0249-58.76373l17.91075-37.08132,22.626-.62732c12.56954-.6299,25.13907-1.25722,28.2821-1.57217,4.0853-.31237,5.34122,0,5.34122,1.25721-.31366.94226-2.82808,11.62728-5.96982,23.88187-10.37006,39.28077-21.36873,83.90276-22.626,92.3883-1.25721,6.59843-1.25721,8.48553.62861,10.37006,2.19948,2.51443,2.82808,2.82679,5.65616.62732,3.45669-2.19948,15.084-41.79262,33.30967-115.013,3.77163-15.08138,3.143-14.13912,12.56954-14.45407C934.26373,148.63563,936.77686,148.00832,937.72042,146.43616Zm-28.59706-11.31233L907.23883,140.78l-10.37006.62989C875.5,142.6671,853.189,143.29442,853.189,142.6671c0-1.57216,22.311-41.16724,34.25193-61.27876,21.05378-35.50914,41.79391-64.41985,46.19415-64.41985,2.82808,0-1.88582,33.62461-7.85693,57.19282C921.37924,90.81614,911.32284,127.26819,909.12336,135.12383Z"/>
      <path class="a" d="M1438.93626,169.69071c-24.82542,6.91337-37.395,8.7979-40.538,6.28606a8.33821,8.33821,0,0,1-1.88453-5.3438c0-5.97111-2.51442-14.45406-5.02755-16.65354-5.65746-5.3438-21.99734.62732-33.62462,11.93964-3.77034,3.77164-6.59842,5.97111-6.59842,5.3438,0-.94485,1.57086-4.7139,3.14173-8.48554,3.45669-8.17058,3.77035-10.685,1.57087-12.88448-2.82808-3.14174-6.91337-1.88453-10.37006,3.14432a65.8264,65.8264,0,0,0-7.36773,15.37261c-4.05657,1.89485-8.78305,4.17089-13.68605,6.62214-13.19815,6.601-25.14037,11.94223-26.71124,11.62728-1.57087-.31237-3.77035-2.51442-5.96982-7.22574-4.7139-9.4278-7.85693-11.94223-14.1417-11-2.82808.31495-6.28477.94226-7.227,1.57216-1.88582.62731-2.19948,0-2.19948-3.45669a14.055,14.055,0,0,0-2.82808-7.85564,9.55623,9.55623,0,0,0-7.542-3.45669c-6.17409.21919-14.20011,5.40471-21.2645,14.11548-.64862.31318-1.29755.62643-1.99134.9659-7.542,3.77164-16.96849,8.17059-20.42518,9.74275-8.17059,3.14174-21.99734,5.97111-24.19682,5.02885-1.25721-.315-1.88581-2.82937-1.88581-9.4278,0-9.11285-2.19948-15.084-5.65617-16.65612-6.28477-2.19948-17.28344.62989-26.39629,6.91337l-5.65616,3.77164.31366-8.17059c.31495-12.88449-4.71261-16.34117-16.65483-10.37006-7.227,3.45669-20.42518,16.02623-27.96716,25.769-3.143,4.399-5.97112,7.85564-6.28477,7.85564-.444,0-.18039-1.80708.49565-4.48543a51.36271,51.36271,0,0,0,4.21954-5.56968c1.57087-3.14432,1.57087-3.77164,0-5.65617a6.40036,6.40036,0,0,0-.55471-.43232c.80931-2.233,1.648-4.3737,2.43794-6.16868,1.57216-4.084,1.88582-6.28348.94356-7.85564-2.82808-5.34122-8.48425-4.084-11.94093,2.82937-3.70355,6.993-6.58552,17.07094-7.61427,25.14706-3.03428,3.33447-6.5881,7.15814-10.29649,10.98939-9.11285,10.05512-17.59709,19.17055-18.54065,20.42518-3.45669,5.02885-23.88186,21.37-30.48158,24.51176-8.1693,4.08659-10.68372,2.82938-10.37006-5.02626.31494-9.74275,5.65745-34.56688,13.51309-61.908.19942-.752.43434-1.59048.68637-2.47062,1.28657-.55786,1.51569-1.38274,1.51569-2.8706a5.03448,5.03448,0,0,0-.22169-1.482c5.74554-18.724,18.00885-52.75974,19.38836-54.13925.31366-.31366,8.7979-.94227,18.85431-1.25593,14.14041-.31494,18.54065-.94355,19.79657-2.20076,1.25721-1.57087.94355-2.51314-1.57087-4.39895-2.51313-2.51443-4.08529-2.51443-18.2257-1.57087-8.79919.31365-15.71257.6286-15.71257.31365,0-1.57087,11.62728-25.76768,18.85431-39.90809,6.59972-12.88448,7.542-15.71257,6.59972-17.912a5.70807,5.70807,0,0,0-5.02756-2.51443c-3.143,0-4.40024,1.25722-8.48554,7.22833-5.65616,8.7979-15.08267,27.33855-21.68239,42.42251l-4.7139,11.31233-12.56954.94226c-16.02622,1.25722-18.2257,1.88582-18.53936,4.7139,0,3.77164,2.19948,4.40025,14.769,4.0853,6.59843-.31366,11.62727.315,11.62727.6286,0,.62861-3.45668,10.99867-7.85693,23.2552-3.17078,8.92206-6.147,18.22385-8.82759,27.4406-2.436.30132-5.09984.68508-7.82466,1.15516-18.2257,2.8268-20.74012,2.19948-25.76768.31237-1.88582-.62731-4.7139-3.45669-6.28477-6.28348-1.88582-2.82937-4.40024-5.02885-6.28477-5.34121-4.40024-.6299-11.62727,3.4541-17.59839,10.68243-3.14174,3.77163-6.91337,8.17058-8.48424,9.74275l-2.82808,3.14173.94226-3.14173c3.45669-15.084,3.77164-16.34118.94356-19.17055-2.19948-2.19948-3.143-2.51184-5.65617-1.25463-5.02885,2.19947-10.685,21.99475-11.31362,38.65088-.31365,5.97111.315,7.54069,2.19948,9.11285a8.34809,8.34809,0,0,0,4.40024,1.57216c1.25721,0,5.96982-5.97111,11.62728-14.1417,8.48424-12.56954,21.68239-27.6535,22.62465-26.08134,6.28477,8.7979,7.85693,10.05511,12.88449,11.31233,6.28477,1.88452,16.65483,1.88452,29.22437-.6299,1.4618-.3899,3.1085-.74574,4.783-1.07505-7.32643,26.901-11.74732,51.78892-10.44171,62.66811.62861,7.22574,2.19948,10.68243,5.65617,13.82675,7.22832,5.65617,21.36873-.315,39.28077-16.34117,8.00925-7.45074,23.74666-24.17536,35.89154-37.74024a6.2235,6.2235,0,0,0,3.073,3.17336c3.77035,1.57216,3.77035,1.57216,8.1693-1.25721,2.20077-1.25721,6.91337-5.97111,10.0564-10.37006,9.11286-11.62728,19.79787-22.62466,25.76769-26.08135l5.02756-2.82937-.62861,4.7139c-1.25592,7.22833-1.25592,14.769-.31366,17.91334,1.57087,5.02626,7.227,3.769,17.28344-3.77164,8.79919-6.91337,17.5971-10.685,20.11152-9.11285.94226.62732,1.25721,3.45669.62861,7.54069-1.25722,12.25717,4.08529,20.74013,13.5118,20.74013,6.18925,0,21.94829-5.29475,37.35817-12.49145-4.98883,10.00147-5.29539,15.01507-1.84774,18.46256,5.02885,5.02885,10.685,2.82679,33.93827-13.19944,16.96978-11.31232,19.48291-11.62469,22.9396-4.084,5.65746,13.19685,11.31362,15.71128,22.626,10.99738,5.44447-2.35856,18.53387-9.117,29.11143-14.83234-1.24979,6.17739-1.47858,11.46221-.20072,13.89007,2.82808,5.3438,6.59843,3.45669,16.65483-8.483,11.94094-13.82675,16.65484-18.22828,22.9396-21.37,9.4278-5.02627,10.05641-4.7139,10.99867,5.34379.62861,10.37007,2.19948,13.82675,7.542,16.65355,5.02755,2.51442,17.59709,1.57216,31.11018-2.8268,5.34122-1.57216,16.65484-5.02884,25.45274-7.54327,8.48554-2.51442,16.34117-5.02885,17.28344-5.97111.94355-.62731,1.57216-2.51442,1.57216-4.399C1468.47558,161.20517,1469.7315,160.89281,1438.93626,169.69071Zm-185.71758,10.99738c-4.7139,3.14432-9.74146,6.28606-11.31233,7.22832-3.77164,2.51443-3.45669.94227,1.25592-6.28348,4.0853-6.601,11.62728-13.51438,14.1417-13.51438.94227,0,2.51313,1.57216,3.14174,3.77163C1261.70292,175.34687,1261.38927,175.66182,1253.21868,180.68809Z"/>
    </g>
    <path class="b" d="M1511.733,150.23324h0a10.507,10.507,0,0,0-10.94977-10.04466l-3.74987.16166-.16167-3.74987a10.507,10.507,0,0,0-10.94976-10.04465h0a10.50694,10.50694,0,0,0-10.04466,10.94977l.16166,3.74986.90511,20.99444,20.99445-.90511,3.74986-.16167A10.50694,10.50694,0,0,0,1511.733,150.23324Z"/>
    <path class="c" d="M1439.31962,170.1683c-24.82542,6.91337-37.395,8.7979-40.538,6.28606a8.33823,8.33823,0,0,1-1.88453-5.3438c0-5.97111-2.51442-14.45407-5.02756-16.65354-5.65745-5.3438-21.99733.62731-33.62461,11.93964-3.77034,3.77164-6.59843,5.97111-6.59843,5.3438,0-.94485,1.57087-4.7139,3.14174-8.48554,3.45669-8.17059,3.77035-10.685,1.57087-12.88449-2.82808-3.14174-6.91337-1.88452-10.37006,3.14432a65.82667,65.82667,0,0,0-7.36773,15.37262c-4.05657,1.89485-8.78306,4.17088-13.68605,6.62214-13.19815,6.601-25.14037,11.94222-26.71124,11.62728-1.57087-.31237-3.77035-2.51443-5.96982-7.22575-4.7139-9.4278-7.85693-11.94222-14.1417-11-2.82808.315-6.28477.94227-7.227,1.57216-1.88582.62732-2.19948,0-2.19948-3.45668a14.0549,14.0549,0,0,0-2.82808-7.85564,9.55623,9.55623,0,0,0-7.542-3.45669c-6.17409.21919-14.20011,5.4047-21.26451,14.11548-.64861.31317-1.29754.62643-1.99133.9659-7.542,3.77164-16.96849,8.17059-20.42518,9.74275-8.17059,3.14174-21.99734,5.97111-24.19682,5.02885-1.25721-.31495-1.88581-2.82938-1.88581-9.4278,0-9.11285-2.19948-15.084-5.65617-16.65613-6.28477-2.19947-17.28344.6299-26.39629,6.91338l-5.65616,3.77164.31366-8.17059c.31495-12.88449-4.71261-16.34118-16.65483-10.37007-7.227,3.45669-20.42518,16.02623-27.96716,25.769-3.143,4.39895-5.97112,7.85564-6.28477,7.85564-.444,0-.18039-1.80708.49565-4.48544a51.3617,51.3617,0,0,0,4.21954-5.56968c1.57087-3.14432,1.57087-3.77163,0-5.65616a6.40054,6.40054,0,0,0-.55471-.43233c.80931-2.233,1.648-4.3737,2.43794-6.16868,1.57216-4.084,1.88582-6.28348.94356-7.85564-2.82808-5.34121-8.48425-4.084-11.94093,2.82937-3.70355,6.993-6.58552,17.07095-7.61427,25.14707-3.03428,3.33447-6.5881,7.15814-10.29649,10.98939-9.11285,10.05512-17.59709,19.17055-18.54065,20.42518-3.45669,5.02885-23.88186,21.37-30.48158,24.51176-8.1693,4.08659-10.68372,2.82937-10.37007-5.02627.315-9.74274,5.65746-34.56687,13.5131-61.908.19942-.752.43434-1.59047.68637-2.47062,1.28657-.55785,1.51568-1.38274,1.51568-2.87059a5.03415,5.03415,0,0,0-.22169-1.48205c5.74555-18.724,18.00886-52.75975,19.38837-54.13926.31366-.31366,8.7979-.94226,18.85431-1.25592,14.14041-.31495,18.54065-.94355,19.79657-2.20077,1.25721-1.57087.94355-2.51313-1.57087-4.39895-2.51313-2.51442-4.08529-2.51442-18.2257-1.57087-8.7992.31366-15.71257.62861-15.71257.31366,0-1.57087,11.62727-25.76768,18.85431-39.90809,6.59972-12.88449,7.542-15.71257,6.59972-17.912a5.70807,5.70807,0,0,0-5.02756-2.51442c-3.143,0-4.40024,1.25721-8.48554,7.22832-5.65616,8.79791-15.08267,27.33856-21.68239,42.42252l-4.7139,11.31233-12.56954.94226c-16.02622,1.25721-18.2257,1.88582-18.53936,4.7139,0,3.77164,2.19948,4.40024,14.769,4.08529,6.59843-.31365,11.62727.31495,11.62727.62861,0,.62861-3.45668,10.99867-7.85693,23.25519-3.17078,8.92206-6.147,18.22385-8.82759,27.44061-2.436.30131-5.09984.68508-7.82466,1.15516-18.2257,2.82679-20.74012,2.19948-25.76768.31237-1.88582-.62732-4.7139-3.45669-6.28477-6.28348-1.88582-2.82937-4.40024-5.02885-6.28477-5.34122-4.40024-.62989-11.62727,3.45411-17.59839,10.68243-3.14174,3.77164-6.91337,8.17059-8.48424,9.74275l-2.82808,3.14174.94226-3.14174c3.45669-15.084,3.77164-16.34117.94355-19.17055-2.19947-2.19947-3.143-2.51184-5.65616-1.25463-5.02885,2.19948-10.685,21.99476-11.31362,38.65088-.31365,5.97111.31495,7.54069,2.19948,9.11285a8.348,8.348,0,0,0,4.40024,1.57216c1.25721,0,5.96982-5.97111,11.62728-14.14169,8.48424-12.56954,21.68239-27.65351,22.62465-26.08135,6.28477,8.79791,7.85693,10.05512,12.88449,11.31233,6.28477,1.88453,16.65483,1.88453,29.22437-.6299,1.4618-.38989,3.1085-.74574,4.783-1.07505-7.32642,26.901-11.74731,51.78893-10.4417,62.66812.62861,7.22574,2.19948,10.68243,5.65617,13.82675,7.22832,5.65616,21.36873-.315,39.28077-16.34118,8.00924-7.45074,23.74666-24.17535,35.89154-37.74024a6.22356,6.22356,0,0,0,3.073,3.17337c3.77035,1.57216,3.77035,1.57216,8.1693-1.25722,2.20076-1.25721,6.91337-5.97111,10.0564-10.37006,9.11285-11.62727,19.79787-22.62465,25.76769-26.08134l5.02755-2.82937-.6286,4.7139c-1.25592,7.22832-1.25592,14.769-.31366,17.91333,1.57087,5.02627,7.227,3.76906,17.28344-3.77163,8.79919-6.91338,17.5971-10.685,20.11152-9.11285.94226.62731,1.25721,3.45668.62861,7.54069-1.25722,12.25717,4.08529,20.74012,13.5118,20.74012,6.18925,0,21.94829-5.29474,37.35817-12.49144-4.98883,10.00146-5.29539,15.01506-1.84774,18.46255,5.02885,5.02885,10.685,2.8268,33.93827-13.19943,16.96978-11.31233,19.48291-11.62469,22.9396-4.084,5.65746,13.19685,11.31362,15.71127,22.626,10.99737,5.44447-2.35856,18.53387-9.117,29.11142-14.83234-1.24979,6.17739-1.47857,11.46222-.20071,13.89008,2.82808,5.3438,6.59843,3.45669,16.65483-8.483,11.94093-13.82675,16.65483-18.22829,22.9396-21.37,9.4278-5.02626,10.05641-4.7139,10.99867,5.3438.62861,10.37006,2.19948,13.82675,7.542,16.65354,5.02756,2.51443,17.5971,1.57216,31.11019-2.82679,5.34122-1.57216,16.65484-5.02885,25.45274-7.54327,8.48553-2.51443,16.34117-5.02885,17.28344-5.97111.94355-.62732,1.57216-2.51443,1.57216-4.399C1468.85894,161.68276,1470.11486,161.37039,1439.31962,170.1683ZM1253.602,181.16567c-4.7139,3.14432-9.74146,6.28606-11.31233,7.22833-3.77164,2.51442-3.45669.94226,1.25592-6.28348,4.0853-6.601,11.62728-13.51439,14.1417-13.51439.94226,0,2.51313,1.57217,3.14174,3.77164C1262.08628,175.82446,1261.77262,176.13941,1253.602,181.16567Z"/>
  </g>
</svg>
