<?xml version="1.0" encoding="utf-8"?>
<!-- Generator: Adobe Illustrator 21.1.0, SVG Export Plug-In . SVG Version: 6.00 Build 0)  -->
<svg version="1.1" id="Слой_1" xmlns="http://www.w3.org/2000/svg" xmlns:xlink="http://www.w3.org/1999/xlink" x="0px" y="0px"
	 viewBox="0 0 156 14.4" style="enable-background:new 0 0 156 14.4;" xml:space="preserve">
<style type="text/css">
	.st0{fill:#353F4C;}
</style>
<g>
	<g>
		<g>
			<path class="st0" d="M0,14.1V0h7.7v0.8H0.9v5.8h5.6v0.8H0.9v5.9h7.2v0.8H0z"/>
			<path class="st0" d="M11,0h0.9v9.2c0,2.6,1.7,4.3,4.4,4.3s4.4-1.7,4.4-4.3V0h0.9v9.3c0,1.5-0.5,2.8-1.5,3.7
				c-1,0.9-2.2,1.4-3.8,1.4c-1.6,0-2.8-0.5-3.8-1.4c-1-0.9-1.4-2.2-1.4-3.7V0z"/>
			<path class="st0" d="M25.7,14.1V0h4.1c1.1,0,2,0.1,2.5,0.4c1.2,0.6,2,1.8,2,3.4c0,2-1.1,3.5-2.8,3.9v0c0.1,0.1,0.2,0.3,0.3,0.5
				l3.2,5.9h-1l-3.3-6.2h-4v6.2H25.7z M26.6,7.1h3.8c1.8,0,3-1.3,3-3.2c0-1.2-0.6-2.3-1.7-2.7c-0.4-0.2-1.1-0.3-2-0.3h-3.2V7.1z"/>
			<path class="st0" d="M57.5,14.1L58.6,0h0.8l4.1,8.9l0.7,1.6h0c0.2-0.6,0.5-1.1,0.7-1.6L69.1,0H70l1.1,14.1h-0.9L69.4,3.4
				l-0.1-1.9h0c-0.3,0.8-0.5,1.4-0.7,1.9l-3.8,8h-0.9l-3.8-8l-0.7-1.9h0c0,0.8,0,1.4-0.1,1.9l-0.9,10.7H57.5z"/>
			<path class="st0" d="M74.8,14.1V0h7.7v0.8h-6.8v5.8h5.6v0.8h-5.6v5.9h7.2v0.8H74.8z"/>
			<path class="st0" d="M86,14.1V0h4.4c2.1,0,3.8,0.6,5.1,1.9c1.3,1.2,1.9,3,1.9,5.2c0,2.2-0.6,3.9-1.9,5.2c-1.3,1.2-3,1.9-5.1,1.9
				H86z M86.9,13.3h3.4c1.9,0,3.4-0.5,4.5-1.6c1.1-1.1,1.7-2.6,1.7-4.6c0-2-0.6-3.5-1.7-4.6c-1.1-1.1-2.6-1.7-4.5-1.7h-3.4V13.3z"/>
			<path class="st0" d="M100.9,14.1V0h0.9v14.1H100.9z"/>
			<path class="st0" d="M104.5,14.1L109.7,0h0.9l5.3,14.1H115l-1.8-4.9h-6l-1.8,4.9H104.5z M107.5,8.4h5.4l-2.1-5.7L110.2,1h0
				c-0.2,0.7-0.4,1.3-0.5,1.7L107.5,8.4z"/>
			<path class="st0" d="M118.6,14.1V0h0.9v13.3h6.7v0.8H118.6z"/>
			<path class="st0" d="M127.2,14.1L132.5,0h0.9l5.3,14.1h-0.9L136,9.2h-6l-1.8,4.9H127.2z M130.3,8.4h5.4l-2.1-5.7L133,1h0
				c-0.2,0.7-0.4,1.3-0.5,1.7L130.3,8.4z"/>
		</g>
	</g>
	<path class="st0" d="M49.5,0.8c0.9,0,1.8,0.4,2.5,1c1.4,1.4,1.4,3.6,0,5l-0.5,0.5L46,12.8l-5.5-5.5L40,6.8c-1.4-1.4-1.4-3.6,0-5
		c0.7-0.7,1.6-1,2.5-1s1.8,0.4,2.5,1l0.5,0.5L46,2.8l0.5-0.5L47,1.8C47.7,1.2,48.6,0.8,49.5,0.8 M49.5,0c-1.1,0-2.2,0.4-3,1.3
		L46,1.8l-0.5-0.5c-0.8-0.8-1.9-1.3-3-1.3c-1.1,0-2.2,0.4-3,1.3c-1.7,1.7-1.7,4.4,0,6.1l0.5,0.5l6.1,6.1l6.1-6.1l0.5-0.5
		c1.7-1.7,1.7-4.4,0-6.1C51.7,0.4,50.6,0,49.5,0L49.5,0z"/>
	<path class="st0" d="M146.3,0.8L146.3,0.8c2.1,0,3.7,1.7,3.7,3.7l0,0.7l0,0.8l0.8,0l0.7,0c2.1,0,3.7,1.7,3.7,3.7
		c0,2.1-1.7,3.7-3.7,3.7l-0.7,0h-8.2V5.2l0-0.7C142.6,2.4,144.3,0.8,146.3,0.8 M146.3,0c-2.5,0-4.5,2-4.5,4.5l0,0.7v9h9l0.7,0
		c2.5,0,4.5-2,4.5-4.5c0-2.5-2-4.5-4.5-4.5l-0.7,0l0-0.7C150.8,2,148.8,0,146.3,0L146.3,0z"/>
</g>
</svg>
