<svg xmlns="http://www.w3.org/2000/svg" viewBox="0 0 55.21 55.22"><title>mini-phone</title><path d="M36.93,55.22a22.54,22.54,0,0,1-16-6.65L6.65,34.34a22.72,22.72,0,0,1,0-32.1,2.88,2.88,0,0,1,4,0l9.32,9.32a2.81,2.81,0,0,1,0,4l-3,3a5.84,5.84,0,0,0,0,8.25L28.43,38.29a5.83,5.83,0,0,0,8.25,0l3-3h0a2.87,2.87,0,0,1,4,0L53,44.6a2.81,2.81,0,0,1,0,4A22.53,22.53,0,0,1,36.93,55.22ZM8.63,2.42a1.8,1.8,0,0,0-1.28.53,21.72,21.72,0,0,0,0,30.68L21.59,47.86a21.69,21.69,0,0,0,30.68,0,1.81,1.81,0,0,0,0-2.56L42.95,36a1.85,1.85,0,0,0-2.56,0l-3,3a6.83,6.83,0,0,1-9.66,0L16.22,27.5a6.84,6.84,0,0,1,0-9.67l3-3a1.81,1.81,0,0,0,0-2.56L9.91,2.95A1.8,1.8,0,0,0,8.63,2.42Z" transform="translate(-0.01 0)" style="fill:#2d3d4b"/><path d="M39.08,25.39h-1a8.26,8.26,0,0,0-8.25-8.25v-1A9.26,9.26,0,0,1,39.08,25.39Z" transform="translate(-0.01 0)" style="fill:#2d3d4b"/><path d="M47.17,25.39h-1A16.36,16.36,0,0,0,29.83,9.05v-1A17.36,17.36,0,0,1,47.17,25.39Z" transform="translate(-0.01 0)" style="fill:#2d3d4b"/><path d="M55.22,25.39h-1A24.42,24.42,0,0,0,29.83,1V0A25.42,25.42,0,0,1,55.22,25.39Z" transform="translate(-0.01 0)" style="fill:#2d3d4b"/></svg>