<?xml version="1.0" encoding="utf-8"?>
<!-- Generator: Adobe Illustrator 21.1.0, SVG Export Plug-In . SVG Version: 6.00 Build 0)  -->
<svg version="1.1" id="Слой_1" xmlns="http://www.w3.org/2000/svg" xmlns:xlink="http://www.w3.org/1999/xlink" x="0px" y="0px"
	 viewBox="0 0 50.4 51" style="enable-background:new 0 0 50.4 51;" xml:space="preserve">
<style type="text/css">
	.st0{fill:none;stroke:#8897A7;stroke-miterlimit:10;}
</style>
<g>
	<path class="st0" d="M26.6,35.6l6.7-3.6c1.6-0.8,4.7-2.1,4.7,1l1.1-0.8c3.2-2.2,5.6-0.6,4.4,2.4c5.7-4.1,7.7,1.1,5.2,2.4L36.2,45
		l-5.3,3.4c-3.8,2.4-8.7,2.4-10.1,1.6c-8-2.1-10.3-4-17.2-3.1"/>
	<path class="st0" d="M0.2,32.7l8.2-3.3c2.1-0.9,4.4-0.6,5.3,0c1.5,1.1,3,2.2,4.5,3.3c6.2,4.6,6.7,3.4,14,3.9c1.6,0.1,2.7,2.7,0,3.7
		c-6.8,3.1-11,1.7-17.2-1.5"/>
	<path class="st0" d="M17.7,0.5c2.8,0,6.1,2.6,7.5,5.3c1.3-2.7,4.6-5.3,7.4-5.3c7.5,0,11.4,10.3,4.6,17L25.4,29l-12-11.6
		C6.4,11.1,10.2,0.5,17.7,0.5L17.7,0.5z"/>
</g>
</svg>
