<svg xmlns="http://www.w3.org/2000/svg" viewBox="0 0 126.90431 127.48013">
  <defs>
    <style>
      .a, .b, .c {
        fill: none;
      }

      .a {
        stroke: #5b6f7c;
        stroke-width: 3px;
      }

      .a, .b {
        stroke-linecap: round;
        stroke-linejoin: round;
      }

      .b {
        stroke: #8499aa;
      }

      .c {
        stroke: #b52518;
        stroke-miterlimit: 10;
        stroke-width: 2px;
      }
    </style>
  </defs>
  <title>Asset 7</title>
  <g>
    <g>
      <rect class="a" x="1.5" y="1.5" width="23.80718" height="23.80718"/>
      <rect class="a" x="1.5" y="102.17295" width="23.80718" height="23.80718"/>
      <rect class="a" x="101.59713" y="1.5" width="23.80718" height="23.80718"/>
      <line class="b" x1="25.30718" y1="13.40354" x2="101.59713" y2="13.40354"/>
      <line class="b" x1="13.40364" y1="25.30718" x2="13.40364" y2="101.5971"/>
      <polygon class="a" points="104.451 81.021 93.684 48.058 39.379 39.954 47.483 94.26 80.445 105.027 104.451 81.021"/>
      <line class="b" x1="68.50505" y1="69.08087" x2="39.3787" y2="39.95454"/>
      <rect class="a" x="74.10113" y="90.24675" width="51.62152" height="20.48193" transform="translate(-41.79203 100.08054) rotate(-45)"/>
    </g>
    <path class="c" d="M73.024,87.791h0A5.52627,5.52627,0,0,0,79.02134,82.78l.17617-1.96625,1.96625.17617a5.52628,5.52628,0,0,0,5.99738-5.01107h0a5.52627,5.52627,0,0,0-5.01107-5.99738l-1.96624-.17617-11.00845-.98632-.98632,11.00845-.17616,1.96624A5.52626,5.52626,0,0,0,73.024,87.791Z"/>
  </g>
</svg>
