<svg xmlns="http://www.w3.org/2000/svg" viewBox="0 0 235.44253 235.44263">
  <defs>
    <style>
      .a, .b, .c, .d {
        fill: none;
      }

      .a, .c {
        stroke: #8499aa;
      }

      .a, .d {
        stroke-miterlimit: 10;
        stroke-width: 2px;
      }

      .b {
        stroke: #5b6f7c;
        stroke-width: 3px;
      }

      .b, .c {
        stroke-linecap: round;
        stroke-linejoin: round;
      }

      .d {
        stroke: #b52518;
      }
    </style>
  </defs>
  <title>Asset 34</title>
  <g>
    <circle class="a" cx="117.72127" cy="117.72132" r="116.68979" transform="translate(-48.76178 117.72128) rotate(-45)"/>
    <g>
      <g>
        <rect class="b" x="59.16409" y="54.87313" width="23.80718" height="23.80718"/>
        <rect class="b" x="59.16409" y="155.54608" width="23.80718" height="23.80718"/>
        <rect class="b" x="159.26122" y="54.87313" width="23.80718" height="23.80718"/>
        <line class="c" x1="82.97127" y1="66.77667" x2="159.26122" y2="66.77667"/>
        <line class="c" x1="71.06773" y1="78.68031" x2="71.06773" y2="154.97023"/>
        <polygon class="b" points="162.115 134.394 151.348 101.432 97.043 93.328 105.147 147.633 138.109 158.4 162.115 134.394"/>
        <line class="c" x1="126.16914" y1="122.454" x2="97.04279" y2="93.32767"/>
        <rect class="b" x="131.76522" y="143.61988" width="51.62152" height="20.48193" transform="translate(-62.64311 156.48784) rotate(-45)"/>
      </g>
      <path class="d" d="M130.68805,141.16413h0a5.52627,5.52627,0,0,0,5.99738-5.01107l.17617-1.96624,1.96625.17616a5.52625,5.52625,0,0,0,5.99737-5.01106h0a5.52626,5.52626,0,0,0-5.01106-5.99738l-1.96624-.17617-11.00845-.98632-.98632,11.00845-.17617,1.96624A5.52626,5.52626,0,0,0,130.68805,141.16413Z"/>
    </g>
  </g>
</svg>
