<svg xmlns="http://www.w3.org/2000/svg" viewBox="0 0 235.44253 235.44263">
  <defs>
    <style>
      .a, .b, .c, .d {
        fill: none;
        stroke-miterlimit: 10;
      }

      .a, .c {
        stroke: #8499aa;
      }

      .a, .d {
        stroke-width: 2px;
      }

      .b {
        stroke: #5b6f7c;
        stroke-width: 3px;
      }

      .b, .c, .d {
        stroke-linecap: round;
      }

      .d {
        stroke: #b52518;
      }
    </style>
  </defs>
  <title>Asset 40</title>
  <g>
    <circle class="a" cx="117.72127" cy="117.72132" r="116.68979" transform="translate(-48.76178 117.72128) rotate(-45)"/>
    <g>
      <polyline class="b" points="57.123 173.61 163.271 173.61 163.271 73.891"/>
      <rect class="b" x="57.12266" y="114.4833" width="26.3933" height="47.2495"/>
      <polyline class="c" points="65.279 122.483 75.359 122.483 75.359 153.733"/>
      <rect class="b" x="92.53396" y="103.287" width="26.3934" height="58.4458"/>
      <polyline class="c" points="100.69 111.287 110.771 111.287 110.771 153.733"/>
      <rect class="b" x="127.94546" y="89.4377" width="26.3932" height="72.2951"/>
      <polyline class="c" points="136.102 97.438 146.182 97.438 146.182 153.733"/>
    </g>
    <path class="d" d="M179.10549,43.2671h0a9.49956,9.49956,0,0,0-13.43439,0l-2.39956,2.39955L160.872,43.26709a9.49956,9.49956,0,0,0-13.43439,0h0a9.49954,9.49954,0,0,0,0,13.43439l2.39954,2.39955,13.4344,13.4344,13.4344-13.4344,2.39955-2.39955A9.49956,9.49956,0,0,0,179.10549,43.2671Z"/>
  </g>
</svg>
