<svg width="48" height="33" viewBox="0 0 48 33" fill="none" xmlns="http://www.w3.org/2000/svg">
<path
        d="M10.6531 33C7.71428 33 5.18367 32.0248 3.06122 30.0745C1.02041 28.0461 0 25.6277 0 22.8192C0 21.4149 0.244898 20.1667 0.734694 19.0745C1.22449 17.9043 2 16.578 3.06122 15.0957L13.7143 0L20.9388 4.56383L14.6939 13.6915C16.5714 14.3936 18.1224 15.5638 19.3469 17.2021C20.5714 18.7624 21.1837 20.6348 21.1837 22.8192C21.1837 25.6277 20.1633 28.0461 18.1224 30.0745C16.0816 32.0248 13.5918 33 10.6531 33ZM37.4694 33C34.5306 33 32 32.0248 29.8776 30.0745C27.8367 28.0461 26.8163 25.6277 26.8163 22.8192C26.8163 21.4149 27.0612 20.1667 27.551 19.0745C28.0408 17.9043 28.8163 16.578 29.8776 15.0957L40.5306 0L47.7551 4.56383L41.5102 13.6915C43.3878 14.3936 44.9388 15.5638 46.1633 17.2021C47.3878 18.7624 48 20.6348 48 22.8192C48 25.6277 46.9796 28.0461 44.9388 30.0745C42.898 32.0248 40.4082 33 37.4694 33Z" fill="#bc2b21" fill-opacity="1" />
</svg>
