<svg xmlns="http://www.w3.org/2000/svg" viewBox="0 0 94.4329 131.62717">
  <defs>
    <style>
      .a, .b, .c {
        fill: none;
      }

      .a {
        stroke: #5b6f7c;
        stroke-width: 3px;
      }

      .a, .b {
        stroke-linecap: round;
        stroke-linejoin: round;
      }

      .b {
        stroke: #8499aa;
      }

      .c {
        stroke: #b52518;
        stroke-miterlimit: 10;
        stroke-width: 2px;
      }
    </style>
  </defs>
  <title>Asset 6</title>
  <g>
    <g>
      <rect class="a" x="1.5" y="1.5" width="91.4329" height="128.62717"/>
      <line class="b" x1="48.80384" y1="17.37228" x2="82.93438" y2="17.37228"/>
      <line class="b" x1="48.80384" y1="37.5748" x2="82.93438" y2="37.5748"/>
      <line class="b" x1="11.21072" y1="57.77732" x2="82.93438" y2="57.77732"/>
      <line class="b" x1="11.21072" y1="77.97983" x2="82.93438" y2="77.97983"/>
      <line class="b" x1="11.21072" y1="98.18235" x2="82.93438" y2="98.18235"/>
    </g>
    <g>
      <circle class="a" cx="27.35802" cy="22.38648" r="6.45337" transform="translate(-7.81666 25.90189) rotate(-45)"/>
      <path class="a" d="M27.358,32.43843A13.41289,13.41289,0,0,0,13.94517,45.85124H40.77084A13.41286,13.41286,0,0,0,27.358,32.43843Z"/>
    </g>
    <path class="b" d="M60.69693,122.40053c.20392-.06191.10959.37752-.09328.31214s-.24136-.331-.24345-.54419L60.241,110.26367a27.2351,27.2351,0,0,0,1.43237,7.36647q1.85944-3.926,3.7191-7.852a31.99291,31.99291,0,0,0,.05438,5.44563,50.76327,50.76327,0,0,0,5.23169-3.09019,10.4669,10.4669,0,0,1-.76613,3.92062c1.19215.206,2.29468-.59838,3.2757-1.30635a33.35772,33.35772,0,0,1,7.90681-4.21866"/>
    <path class="c" d="M27.72188,109.39357h0a3.57172,3.57172,0,0,0-5.05117,0l-.9022.9022-.90221-.9022a3.57172,3.57172,0,0,0-5.05117,0h0a3.5717,3.5717,0,0,0,0,5.05117l.9022.9022,5.05118,5.05118,5.05117-5.05118.9022-.9022A3.5717,3.5717,0,0,0,27.72188,109.39357Z"/>
  </g>
</svg>
