<svg xmlns="http://www.w3.org/2000/svg" viewBox="0 0 235.44253 235.44263">
  <defs>
    <style>
      .a, .b, .c, .d {
        fill: none;
      }

      .a, .c {
        stroke: #8499aa;
      }

      .a, .d {
        stroke-miterlimit: 10;
        stroke-width: 2px;
      }

      .b {
        stroke: #5b6f7c;
        stroke-width: 3px;
      }

      .b, .c {
        stroke-linecap: round;
        stroke-linejoin: round;
      }

      .d {
        stroke: #b52518;
      }
    </style>
  </defs>
  <title>Asset 32</title>
  <g>
    <circle class="a" cx="117.72127" cy="117.72132" r="116.68979" transform="translate(-48.76178 117.72128) rotate(-45)"/>
    <g>
      <rect class="b" x="72.89095" y="60.58677" width="91.4329" height="128.62717"/>
      <line class="c" x1="120.1948" y1="76.45905" x2="154.32534" y2="76.45905"/>
      <line class="c" x1="120.1948" y1="96.66157" x2="154.32534" y2="96.66157"/>
      <line class="c" x1="82.60168" y1="116.86408" x2="154.32534" y2="116.86408"/>
      <line class="c" x1="82.60168" y1="137.0666" x2="154.32534" y2="137.0666"/>
      <line class="c" x1="82.60168" y1="157.26912" x2="154.32534" y2="157.26912"/>
    </g>
    <g>
      <circle class="b" cx="98.74897" cy="81.47325" r="6.45337" transform="translate(-28.68738 93.68903) rotate(-45)"/>
      <path class="b" d="M98.74893,91.5252a13.41288,13.41288,0,0,0-13.4128,13.4128h26.82566A13.41286,13.41286,0,0,0,98.74893,91.5252Z"/>
    </g>
    <path class="c" d="M132.08788,181.4873c.20392-.06191.1096.37751-.09328.31214s-.24136-.331-.24345-.54419l-.11922-11.90481a27.235,27.235,0,0,0,1.43237,7.36646q1.85944-3.926,3.7191-7.852a31.99406,31.99406,0,0,0,.05438,5.44564,50.76448,50.76448,0,0,0,5.2317-3.09019,10.46691,10.46691,0,0,1-.76614,3.92062c1.19215.206,2.29469-.59838,3.2757-1.30635a33.35772,33.35772,0,0,1,7.90681-4.21866"/>
    <path class="d" d="M99.11284,168.48033h0a3.57173,3.57173,0,0,0-5.05118,0l-.9022.9022-.90221-.9022a3.57172,3.57172,0,0,0-5.05117,0h0a3.57173,3.57173,0,0,0,0,5.05118l.9022.9022,5.05118,5.05118,5.05118-5.05118.9022-.9022A3.57173,3.57173,0,0,0,99.11284,168.48033Z"/>
  </g>
</svg>
