<svg xmlns="http://www.w3.org/2000/svg" viewBox="0 0 235.44253 235.44263">
  <defs>
    <style>
      .a, .b, .c, .d {
        fill: none;
      }

      .a, .c {
        stroke: #8499aa;
      }

      .a, .b, .d {
        stroke-miterlimit: 10;
      }

      .a, .d {
        stroke-width: 2px;
      }

      .b {
        stroke: #5b6f7c;
        stroke-width: 3px;
      }

      .b, .c, .d {
        stroke-linecap: round;
      }

      .c {
        stroke-linejoin: round;
      }

      .d {
        stroke: #b52518;
      }
    </style>
  </defs>
  <title>Asset 37</title>
  <g>
    <circle class="a" cx="117.72127" cy="117.72132" r="116.68979" transform="translate(-48.76178 117.72128) rotate(-45)"/>
    <g>
      <path class="b" d="M79.80112,167.13536A13.69015,13.69015,0,1,1,66.11089,153.4453,13.69039,13.69039,0,0,1,79.80112,167.13536Z"/>
      <path class="b" d="M135.21186,167.13536a13.69033,13.69033,0,1,1-13.69041-13.69006A13.69044,13.69044,0,0,1,135.21186,167.13536Z"/>
      <path class="b" d="M190.62224,167.13536A13.69032,13.69032,0,1,1,176.932,153.4453,13.6904,13.6904,0,0,1,190.62224,167.13536Z"/>
      <line class="c" x1="121.52145" y1="77.7859" x2="121.52145" y2="153.4453"/>
      <polyline class="c" points="66.111 153.445 66.111 115.589 176.932 115.589 176.932 153.445"/>
    </g>
    <path class="d" d="M137.59071,49.40856h0a9.49956,9.49956,0,0,0-13.43439,0l-2.39955,2.39955-2.39956-2.39955a9.49954,9.49954,0,0,0-13.43438,0h0a9.49954,9.49954,0,0,0,0,13.43439l2.39954,2.39955,13.4344,13.4344,13.4344-13.4344,2.39954-2.39955A9.49954,9.49954,0,0,0,137.59071,49.40856Z"/>
  </g>
</svg>
