<svg xmlns="http://www.w3.org/2000/svg" viewBox="0 0 141.20141 136.69957">
  <defs>
    <style>
      .a, .b, .c {
        fill: none;
        stroke-linecap: round;
      }

      .a {
        stroke: #5b6f7c;
        stroke-width: 3px;
      }

      .a, .c {
        stroke-miterlimit: 10;
      }

      .b {
        stroke: #8499aa;
        stroke-linejoin: round;
      }

      .c {
        stroke: #b52518;
        stroke-width: 2px;
      }
    </style>
  </defs>
  <title>Asset 8</title>
  <g>
    <g>
      <path class="a" d="M28.88029,121.50917a13.69015,13.69015,0,1,1-13.69023-13.69006A13.69039,13.69039,0,0,1,28.88029,121.50917Z"/>
      <path class="a" d="M84.291,121.50917a13.69033,13.69033,0,1,1-13.69041-13.69006A13.69043,13.69043,0,0,1,84.291,121.50917Z"/>
      <path class="a" d="M139.70141,121.50917a13.69033,13.69033,0,1,1-13.69024-13.69006A13.6904,13.6904,0,0,1,139.70141,121.50917Z"/>
      <line class="b" x1="70.60062" y1="32.1597" x2="70.60062" y2="107.81911"/>
      <polyline class="b" points="15.19 107.819 15.19 69.963 126.011 69.963 126.011 107.819"/>
    </g>
    <path class="c" d="M86.66988,3.78237v0a9.49956,9.49956,0,0,0-13.43439,0L70.83594,6.1819,68.43638,3.78235a9.49954,9.49954,0,0,0-13.43438,0v0a9.49953,9.49953,0,0,0,0,13.43438l2.39954,2.39955,13.4344,13.4344,13.4344-13.4344,2.39954-2.39955A9.49953,9.49953,0,0,0,86.66988,3.78237Z"/>
  </g>
</svg>
