<?xml version="1.0" encoding="utf-8"?>
<!-- Generator: Adobe Illustrator 21.1.0, SVG Export Plug-In . SVG Version: 6.00 Build 0)  -->
<svg version="1.1" id="Слой_1" xmlns="http://www.w3.org/2000/svg" xmlns:xlink="http://www.w3.org/1999/xlink" x="0px" y="0px"
	 viewBox="0 0 53.1 48.4" style="enable-background:new 0 0 53.1 48.4;" xml:space="preserve">
<style type="text/css">
	.st0{fill:none;stroke:#8897A7;stroke-miterlimit:10;}
</style>
<g>
	<path class="st0" d="M15.8,22.5l12.9-11.9l4.4-9c1-2,4.8-1.3,5.6,0.8c0.8,2-0.1,7.4-1.2,9.3l-4.1,7.3l15-0.9
		c2.2-0.1,4.3,1.5,4.2,3.7l0,0c0,2.2-1.5,4.1-3.7,4.3l0,0c0.8,0.7,1.3,1.6,1.4,2.8l0,0c0.1,2-1.2,3.7-3.1,4.2c1,0.6,1.8,1.8,1.9,3.1
		v0c0.1,2-1.2,3.7-3.1,4.2c1,0.6,1.8,1.8,1.9,3.1v0c0.2,2.2-1.5,4.2-3.7,4.3l-16,0.4c-5.8,0.1-10.9-3.1-13.9-7.6"/>
	<path class="st0" d="M3.6,17.6h7.3c1.7,0,3.1,1.4,3.1,3.1v24.2c0,1.7-1.4,3.1-3.1,3.1H3.6c-1.7,0-3.1-1.4-3.1-3.1V20.6
		C0.5,19,1.9,17.6,3.6,17.6L3.6,17.6z M7,39.3c0.8,0,1.4,0.6,1.4,1.4c0,0.8-0.6,1.4-1.4,1.4s-1.4-0.6-1.4-1.4
		C5.6,40,6.3,39.3,7,39.3L7,39.3z"/>
</g>
</svg>
