<?xml version="1.0" encoding="utf-8"?>
<!-- Generator: Adobe Illustrator 21.1.0, SVG Export Plug-In . SVG Version: 6.00 Build 0)  -->
<svg version="1.1" id="Слой_1" xmlns="http://www.w3.org/2000/svg" xmlns:xlink="http://www.w3.org/1999/xlink" x="0px" y="0px"
	 viewBox="0 0 204 204" style="enable-background:new 0 0 204 204;" xml:space="preserve">
<style type="text/css">
	.st0{fill:#404952;}
</style>
<g>
	<g>
		<g>
			<g>
				<path class="st0" d="M104.5,43.8l26.6,26.6l2.2,2.2c7,7,7,18.4,0,25.5c-3.4,3.4-7.9,5.3-12.7,5.3s-9.3-1.9-12.7-5.3l-2.2-2.2
					l-1.2-1.2l-1.2,1.2l-2.2,2.2c-3.4,3.4-7.9,5.3-12.7,5.3s-9.3-1.9-12.7-5.3c-7-7-7-18.4,0-25.5l2.2-2.2L104.5,43.8 M104.5,41.4
					L76.7,69.2l-2.2,2.2c-7.7,7.7-7.7,20.1,0,27.8c3.8,3.8,8.9,5.8,13.9,5.8s10.1-1.9,13.9-5.8l2.2-2.2l2.2,2.2
					c3.8,3.8,8.9,5.8,13.9,5.8c5,0,10.1-1.9,13.9-5.8c7.7-7.7,7.7-20.1,0-27.8l-2.2-2.2L104.5,41.4L104.5,41.4z"/>
			</g>
		</g>
		<g>
			<path class="st0" d="M48.4,146.3v-22.6h1.4v10.6h14.3v-10.6h1.4v22.6h-1.4v-10.7H49.8v10.7H48.4z"/>
			<path class="st0" d="M69.8,146.3l8.4-22.6h1.5l8.4,22.6h-1.5l-2.9-7.8h-9.6l-2.9,7.8H69.8z M74.7,137.2h8.6l-3.4-9.2l-0.8-2.7H79
				c-0.3,1.2-0.6,2.1-0.8,2.7L74.7,137.2z"/>
			<path class="st0" d="M92.5,146.3v-22.6h7.6c1.7,0,3,0.5,4.1,1.5c1.1,1,1.6,2.4,1.6,4.1c0,2.4-1,4-2.9,4.9v0.1
				c2.3,0.6,3.8,2.9,3.8,5.7c0,1.9-0.6,3.4-1.8,4.5c-1.2,1.1-2.7,1.7-4.5,1.7H92.5z M93.9,133.8h6.2c2.5,0,4.3-1.7,4.3-4.4
				c0-2.7-1.7-4.4-4.3-4.4h-6.1V133.8z M93.9,145h6.4c3.1,0,5-1.9,5-4.9c0-3-2.1-5-5-5h-6.4V145z"/>
			<path class="st0" d="M112.1,146.3v-22.6h12.3v1.3h-11v9.3h9v1.3h-9v9.4h11.6v1.3H112.1z"/>
			<path class="st0" d="M130,146.3v-22.6h7.4c2,0,3.6,0.6,4.9,1.8c1.3,1.2,1.9,2.8,1.9,4.8c0,2-0.6,3.6-1.9,4.8
				c-1.3,1.2-2.9,1.8-4.9,1.8h-6v9.3H130z M131.4,135.6h6c3.4,0,5.5-2,5.5-5.4c0-3.4-2.1-5.3-5.5-5.3h-6V135.6z"/>
			<path class="st0" d="M145.9,146.3l7.3-11.9l-6.5-10.6h1.7l4.3,7.2l1.5,2.5h0.1c0.5-0.9,1-1.7,1.4-2.5l4.4-7.2h1.7l-6.5,10.6
				l7.3,11.9h-1.6l-5.2-8.6l-1.4-2.4h-0.1l-1.4,2.4l-5.2,8.5H145.9z"/>
		</g>
	</g>
	<g>
		<path class="st0" d="M99.1,204C99.1,204,99.1,204,99.1,204l-0.7,0c-0.9,0-1.6-0.8-1.6-1.7c0-0.9,0.8-1.6,1.7-1.6l0.7,0
			c0.9,0,1.6,0.8,1.6,1.7C100.7,203.3,100,204,99.1,204z M109.1,203.8c-0.9,0-1.6-0.7-1.7-1.6c-0.1-0.9,0.6-1.7,1.5-1.8l0.7,0
			c0.9-0.1,1.7,0.6,1.8,1.5c0.1,0.9-0.6,1.7-1.5,1.8l-0.7,0C109.2,203.8,109.2,203.8,109.1,203.8z M88.4,203.2c-0.1,0-0.1,0-0.2,0
			l-0.7-0.1c-0.9-0.1-1.6-1-1.4-1.9c0.1-0.9,1-1.6,1.9-1.4l0.7,0.1c0.9,0.1,1.6,1,1.4,1.9C90,202.6,89.3,203.2,88.4,203.2z
			 M119.7,202.5c-0.8,0-1.5-0.6-1.6-1.4c-0.2-0.9,0.4-1.8,1.3-2l0.7-0.1c0.9-0.2,1.8,0.4,2,1.3c0.2,0.9-0.4,1.8-1.3,2l-0.7,0.1
			C119.9,202.5,119.8,202.5,119.7,202.5z M77.9,201.2c-0.1,0-0.3,0-0.4,0l-0.6-0.2c-0.9-0.2-1.4-1.1-1.2-2c0.2-0.9,1.1-1.4,2-1.2
			l0.6,0.2c0.9,0.2,1.4,1.1,1.2,2C79.3,200.7,78.7,201.2,77.9,201.2z M130.1,200.1c-0.7,0-1.4-0.5-1.6-1.2c-0.3-0.9,0.3-1.8,1.1-2.1
			l0.6-0.2c0.9-0.3,1.8,0.2,2.1,1.1c0.3,0.9-0.2,1.8-1.1,2.1l-0.7,0.2C130.5,200,130.3,200.1,130.1,200.1z M67.7,198.1
			c-0.2,0-0.4,0-0.6-0.1l-0.6-0.2c-0.9-0.3-1.3-1.3-1-2.1c0.3-0.9,1.3-1.3,2.1-1l0.6,0.2c0.9,0.3,1.3,1.3,1,2.1
			C69,197.7,68.4,198.1,67.7,198.1z M140.2,196.5c-0.7,0-1.3-0.4-1.5-1c-0.3-0.9,0.1-1.8,0.9-2.2l0.6-0.2c0.8-0.4,1.8,0,2.2,0.9
			c0.4,0.9,0,1.8-0.9,2.2l-0.6,0.3C140.7,196.5,140.4,196.5,140.2,196.5z M57.8,193.9c-0.2,0-0.5-0.1-0.7-0.2l-0.5-0.3
			c-0.8-0.4-1.2-1.4-0.8-2.3c0.4-0.8,1.4-1.2,2.2-0.8l0.6,0.3c0.8,0.4,1.2,1.4,0.8,2.2C59,193.5,58.4,193.9,57.8,193.9z
			 M149.9,191.9c-0.6,0-1.2-0.3-1.5-0.9c-0.4-0.8-0.2-1.8,0.7-2.3l0.6-0.3c0.8-0.5,1.8-0.2,2.3,0.7c0.4,0.8,0.2,1.8-0.7,2.3
			l-0.6,0.3C150.4,191.8,150.2,191.9,149.9,191.9z M48.5,188.7c-0.3,0-0.6-0.1-0.9-0.3L47,188c-0.8-0.5-1-1.5-0.5-2.3
			c0.5-0.8,1.5-1,2.3-0.5l0.6,0.4c0.8,0.5,1,1.5,0.5,2.3C49.6,188.4,49,188.7,48.5,188.7z M159,186.3c-0.5,0-1-0.2-1.4-0.7
			c-0.5-0.8-0.3-1.8,0.4-2.3l0.5-0.4c0.8-0.5,1.8-0.3,2.3,0.4c0.5,0.8,0.3,1.8-0.4,2.3L160,186C159.7,186.2,159.3,186.3,159,186.3z
			 M39.7,182.5c-0.4,0-0.7-0.1-1-0.4l-0.5-0.4c-0.7-0.6-0.8-1.6-0.3-2.4c0.6-0.7,1.6-0.8,2.4-0.3l0.5,0.4c0.7,0.6,0.8,1.6,0.3,2.4
			C40.7,182.3,40.2,182.5,39.7,182.5z M167.5,179.8c-0.5,0-0.9-0.2-1.3-0.6c-0.6-0.7-0.5-1.8,0.2-2.4l0.5-0.4
			c0.7-0.6,1.8-0.5,2.4,0.2c0.6,0.7,0.5,1.8-0.2,2.4l-0.5,0.4C168.2,179.6,167.8,179.8,167.5,179.8z M31.7,175.4
			c-0.4,0-0.8-0.2-1.2-0.5l-0.5-0.5c-0.7-0.7-0.7-1.7,0-2.4c0.7-0.7,1.7-0.7,2.4,0l0.5,0.5c0.7,0.6,0.7,1.7,0,2.4
			C32.6,175.2,32.2,175.4,31.7,175.4z M175.2,172.4c-0.4,0-0.8-0.1-1.1-0.4c-0.7-0.6-0.7-1.7-0.1-2.4l0.5-0.5
			c0.6-0.7,1.7-0.7,2.4-0.1c0.7,0.6,0.7,1.7,0.1,2.4l-0.5,0.5C176.1,172.2,175.6,172.4,175.2,172.4z M24.5,167.5
			c-0.5,0-1-0.2-1.3-0.6l-0.4-0.5c-0.6-0.7-0.5-1.8,0.3-2.4c0.7-0.6,1.8-0.5,2.4,0.3l0.4,0.5c0.6,0.7,0.5,1.8-0.2,2.4
			C25.2,167.4,24.9,167.5,24.5,167.5z M182.1,164.2c-0.3,0-0.7-0.1-1-0.3c-0.7-0.6-0.9-1.6-0.3-2.3l0.4-0.5c0.6-0.7,1.6-0.9,2.3-0.3
			c0.7,0.6,0.9,1.6,0.3,2.3l-0.4,0.5C183.1,163.9,182.6,164.2,182.1,164.2z M18.1,158.9c-0.5,0-1.1-0.3-1.4-0.8l-0.4-0.6
			c-0.5-0.8-0.3-1.8,0.5-2.3c0.8-0.5,1.8-0.3,2.3,0.5l0.4,0.6c0.5,0.8,0.3,1.8-0.5,2.3C18.8,158.8,18.4,158.9,18.1,158.9z
			 M188.1,155.3c-0.3,0-0.6-0.1-0.9-0.2c-0.8-0.5-1.1-1.5-0.6-2.3l0.3-0.6c0.5-0.8,1.5-1.1,2.3-0.6c0.8,0.5,1.1,1.5,0.6,2.3
			l-0.3,0.6C189.2,155,188.6,155.3,188.1,155.3z M12.7,149.7c-0.6,0-1.2-0.3-1.5-0.9l-0.3-0.6c-0.4-0.8-0.1-1.8,0.7-2.2
			c0.8-0.4,1.8-0.1,2.2,0.7l0.3,0.6c0.4,0.8,0.1,1.8-0.7,2.3C13.2,149.6,13,149.7,12.7,149.7z M193.1,145.9c-0.2,0-0.5,0-0.7-0.2
			c-0.8-0.4-1.2-1.4-0.8-2.2l0.3-0.6c0.4-0.8,1.4-1.2,2.2-0.8c0.8,0.4,1.2,1.4,0.8,2.2l-0.3,0.6
			C194.3,145.5,193.7,145.9,193.1,145.9z M8.3,139.9c-0.7,0-1.3-0.4-1.6-1.1l-0.2-0.6c-0.3-0.9,0.1-1.8,1-2.2c0.9-0.3,1.8,0.1,2.2,1
			l0.2,0.6c0.3,0.9-0.1,1.8-1,2.2C8.7,139.9,8.5,139.9,8.3,139.9z M197.1,135.9c-0.2,0-0.4,0-0.5-0.1c-0.9-0.3-1.4-1.2-1.1-2.1
			l0.2-0.6c0.3-0.9,1.2-1.4,2.1-1.1c0.9,0.3,1.4,1.2,1.1,2.1l-0.2,0.6C198.4,135.5,197.8,135.9,197.1,135.9z M5,129.8
			c-0.7,0-1.4-0.5-1.6-1.2l-0.2-0.7c-0.2-0.9,0.3-1.8,1.2-2c0.9-0.2,1.8,0.3,2,1.2l0.2,0.6c0.2,0.9-0.3,1.8-1.2,2.1
			C5.3,129.8,5.1,129.8,5,129.8z M199.9,125.6c-0.1,0-0.2,0-0.4,0c-0.9-0.2-1.5-1.1-1.3-2l0.1-0.7c0.2-0.9,1.1-1.5,2-1.3
			c0.9,0.2,1.5,1.1,1.3,2l-0.1,0.7C201.4,125.1,200.7,125.6,199.9,125.6z M2.8,119.3c-0.8,0-1.5-0.6-1.7-1.4L1,117.2
			c-0.1-0.9,0.5-1.8,1.4-1.9c0.9-0.1,1.8,0.5,1.9,1.4l0.1,0.7c0.1,0.9-0.5,1.8-1.4,1.9C3,119.3,2.9,119.3,2.8,119.3z M201.7,115.1
			c-0.1,0-0.1,0-0.2,0c-0.9-0.1-1.6-0.9-1.5-1.8l0.1-0.7c0.1-0.9,0.9-1.6,1.8-1.5c0.9,0.1,1.6,0.9,1.5,1.8l-0.1,0.7
			C203.3,114.4,202.5,115.1,201.7,115.1z M1.7,108.7c-0.9,0-1.6-0.7-1.7-1.6l0-0.7c0-0.9,0.7-1.7,1.6-1.7c0.9-0.1,1.7,0.7,1.7,1.6
			l0,0.7C3.4,107.8,2.7,108.6,1.7,108.7C1.8,108.7,1.7,108.7,1.7,108.7z M202.3,104.4C202.3,104.4,202.3,104.4,202.3,104.4
			c-0.9,0-1.7-0.8-1.7-1.7l0-0.7c0-0.9,0.7-1.7,1.7-1.7c0.9,0,1.7,0.7,1.7,1.7l0,0.7C204,103.6,203.2,104.4,202.3,104.4z M1.7,98
			C1.7,98,1.7,98,1.7,98c-1-0.1-1.7-0.8-1.7-1.8l0-0.7C0.2,94.6,1,93.9,1.9,94c0.9,0.1,1.6,0.9,1.6,1.8l0,0.6
			C3.4,97.3,2.6,98,1.7,98z M201.9,94.5c-0.9,0-1.6-0.6-1.7-1.5l-0.1-0.7c-0.1-0.9,0.6-1.7,1.5-1.8c0.9-0.1,1.7,0.6,1.8,1.5l0.1,0.7
			c0.1,0.9-0.6,1.7-1.5,1.8C202,94.5,202,94.5,201.9,94.5z M2.9,87.3c-0.1,0-0.2,0-0.3,0c-0.9-0.1-1.5-1-1.4-1.9l0.1-0.7
			c0.2-0.9,1-1.5,1.9-1.4c0.9,0.2,1.5,1,1.4,1.9l-0.1,0.6C4.4,86.8,3.7,87.3,2.9,87.3z M200.4,83.9c-0.8,0-1.5-0.5-1.6-1.3l-0.1-0.6
			c-0.2-0.9,0.4-1.8,1.3-2c0.9-0.2,1.8,0.4,2,1.3l0.1,0.7c0.2,0.9-0.4,1.8-1.3,2C200.6,83.9,200.5,83.9,200.4,83.9z M5.2,76.9
			c-0.1,0-0.3,0-0.4-0.1c-0.9-0.2-1.4-1.2-1.2-2.1l0.2-0.7C4,73.2,5,72.7,5.8,73C6.7,73.2,7.2,74.1,7,75l-0.2,0.6
			C6.6,76.4,5.9,76.9,5.2,76.9z M197.7,73.5c-0.7,0-1.4-0.5-1.6-1.2l-0.2-0.6c-0.3-0.9,0.2-1.8,1.1-2.1c0.9-0.3,1.8,0.2,2.1,1.1
			l0.2,0.6c0.3,0.9-0.2,1.8-1.1,2.1C198.1,73.5,197.9,73.5,197.7,73.5z M8.6,66.7c-0.2,0-0.4,0-0.6-0.1c-0.9-0.3-1.3-1.3-0.9-2.2
			l0.3-0.6c0.3-0.9,1.3-1.3,2.2-0.9c0.9,0.3,1.3,1.3,0.9,2.2l-0.2,0.6C9.9,66.3,9.3,66.7,8.6,66.7z M194,63.5c-0.6,0-1.3-0.4-1.5-1
			l-0.3-0.6c-0.4-0.8,0-1.8,0.9-2.2c0.8-0.4,1.8,0,2.2,0.9l0.3,0.6c0.4,0.8,0,1.8-0.9,2.2C194.4,63.5,194.2,63.5,194,63.5z M13.1,57
			c-0.3,0-0.5-0.1-0.8-0.2c-0.8-0.4-1.1-1.4-0.7-2.3l0.3-0.6c0.4-0.8,1.4-1.1,2.3-0.7c0.8,0.4,1.1,1.4,0.7,2.3l-0.3,0.6
			C14.3,56.7,13.7,57,13.1,57z M189.1,53.9c-0.6,0-1.1-0.3-1.5-0.8l-0.3-0.6c-0.5-0.8-0.2-1.8,0.6-2.3c0.8-0.5,1.8-0.2,2.3,0.6
			l0.3,0.6c0.5,0.8,0.2,1.8-0.6,2.3C189.7,53.9,189.4,53.9,189.1,53.9z M18.6,47.8c-0.3,0-0.6-0.1-0.9-0.3c-0.8-0.5-1-1.6-0.5-2.3
			l0.4-0.6c0.5-0.8,1.6-1,2.3-0.4c0.8,0.5,1,1.6,0.4,2.3L20,47.1C19.6,47.6,19.1,47.8,18.6,47.8z M183.3,45c-0.5,0-1-0.2-1.4-0.7
			l-0.4-0.5c-0.5-0.7-0.4-1.8,0.4-2.3c0.7-0.5,1.8-0.4,2.3,0.4l0.4,0.6c0.5,0.7,0.4,1.8-0.4,2.3C184,44.9,183.7,45,183.3,45z
			 M25,39.3c-0.4,0-0.8-0.1-1.1-0.4c-0.7-0.6-0.8-1.6-0.2-2.4l0.4-0.5c0.6-0.7,1.7-0.8,2.4-0.2c0.7,0.6,0.8,1.7,0.2,2.4l-0.4,0.5
			C25.9,39.1,25.5,39.3,25,39.3z M176.6,36.6c-0.5,0-0.9-0.2-1.2-0.6l-0.4-0.5c-0.6-0.7-0.6-1.7,0.1-2.4c0.7-0.6,1.7-0.6,2.4,0.1
			l0.5,0.5c0.6,0.7,0.6,1.7-0.1,2.4C177.4,36.5,177,36.6,176.6,36.6z M32.3,31.5c-0.4,0-0.9-0.2-1.2-0.5c-0.6-0.7-0.6-1.7,0-2.4
			l0.5-0.5c0.7-0.6,1.7-0.6,2.4,0.1c0.6,0.7,0.6,1.7-0.1,2.4L33.4,31C33.1,31.3,32.7,31.5,32.3,31.5z M169.1,29.1
			c-0.4,0-0.8-0.1-1.1-0.4l-0.5-0.4c-0.7-0.6-0.8-1.7-0.1-2.4c0.6-0.7,1.7-0.8,2.4-0.1l0.5,0.5c0.7,0.6,0.7,1.7,0.1,2.4
			C170,28.9,169.5,29.1,169.1,29.1z M40.4,24.4c-0.5,0-1-0.2-1.3-0.6c-0.6-0.7-0.4-1.8,0.3-2.3l0.5-0.4c0.7-0.6,1.8-0.4,2.3,0.3
			c0.6,0.7,0.4,1.8-0.3,2.3l-0.5,0.4C41.1,24.3,40.7,24.4,40.4,24.4z M160.7,22.3c-0.3,0-0.7-0.1-1-0.3l-0.5-0.4
			c-0.8-0.5-0.9-1.6-0.4-2.3c0.5-0.8,1.6-0.9,2.3-0.4l0.5,0.4c0.8,0.5,0.9,1.6,0.4,2.3C161.8,22.1,161.3,22.3,160.7,22.3z
			 M49.2,18.3c-0.6,0-1.1-0.3-1.4-0.8c-0.5-0.8-0.2-1.8,0.5-2.3l0.6-0.4c0.8-0.5,1.8-0.2,2.3,0.6c0.5,0.8,0.2,1.8-0.6,2.3L50,18.1
			C49.8,18.3,49.5,18.3,49.2,18.3z M151.7,16.5c-0.3,0-0.6-0.1-0.8-0.2l-0.6-0.3c-0.8-0.5-1.1-1.5-0.6-2.3c0.5-0.8,1.5-1.1,2.3-0.6
			l0.6,0.3c0.8,0.5,1.1,1.5,0.6,2.3C152.9,16.2,152.3,16.5,151.7,16.5z M58.5,13.2c-0.6,0-1.2-0.3-1.5-0.9c-0.4-0.8-0.1-1.8,0.8-2.2
			l0.6-0.3c0.8-0.4,1.8,0,2.2,0.8c0.4,0.8,0,1.8-0.8,2.2L59.3,13C59,13.1,58.8,13.2,58.5,13.2z M142.2,11.7c-0.2,0-0.5,0-0.7-0.1
			l-0.6-0.3c-0.8-0.4-1.2-1.3-0.9-2.2c0.4-0.8,1.4-1.2,2.2-0.9l0.6,0.3c0.8,0.4,1.2,1.4,0.9,2.2C143.4,11.4,142.8,11.7,142.2,11.7z
			 M68.4,9.1c-0.7,0-1.3-0.4-1.6-1.1c-0.3-0.9,0.1-1.8,1-2.1l0.6-0.2c0.9-0.3,1.8,0.1,2.1,1c0.3,0.9-0.1,1.8-1,2.1L69,9
			C68.8,9,68.6,9.1,68.4,9.1z M132.2,8c-0.2,0-0.3,0-0.5-0.1L131,7.7c-0.9-0.3-1.4-1.2-1.1-2.1c0.3-0.9,1.2-1.4,2.1-1.1l0.7,0.2
			c0.9,0.3,1.4,1.2,1.1,2.1C133.5,7.5,132.9,8,132.2,8z M78.7,6.1c-0.8,0-1.4-0.5-1.6-1.3c-0.2-0.9,0.3-1.8,1.2-2l0.7-0.2
			c0.9-0.2,1.8,0.4,2,1.3c0.2,0.9-0.4,1.8-1.3,2L79.1,6C78.9,6,78.8,6.1,78.7,6.1z M121.8,5.3c-0.1,0-0.2,0-0.3,0l-0.6-0.1
			c-0.9-0.2-1.5-1.1-1.3-2c0.2-0.9,1.1-1.5,2-1.3l0.7,0.1c0.9,0.2,1.5,1.1,1.3,2C123.3,4.8,122.6,5.3,121.8,5.3z M89.2,4.1
			c-0.8,0-1.6-0.6-1.7-1.5c-0.1-0.9,0.5-1.8,1.5-1.9l0.7-0.1c0.9-0.1,1.8,0.5,1.9,1.5S91,3.9,90.1,4l-0.7,0.1
			C89.3,4.1,89.3,4.1,89.2,4.1z M111.2,3.8c-0.1,0-0.1,0-0.2,0l-0.7-0.1c-0.9-0.1-1.6-0.9-1.5-1.8c0.1-0.9,0.9-1.6,1.8-1.5l0.7,0.1
			c0.9,0.1,1.6,0.9,1.5,1.8C112.8,3.1,112.1,3.8,111.2,3.8z M99.9,3.4c-0.9,0-1.7-0.7-1.7-1.6c0-0.9,0.7-1.7,1.6-1.7l0.7,0
			c1,0,1.7,0.7,1.7,1.7c0,0.9-0.7,1.7-1.7,1.7L99.9,3.4C99.9,3.4,99.9,3.4,99.9,3.4z"/>
	</g>
</g>
</svg>
