<?xml version="1.0" encoding="utf-8"?>
<!-- Generator: Adobe Illustrator 21.1.0, SVG Export Plug-In . SVG Version: 6.00 Build 0)  -->
<svg version="1.1" id="Слой_1" xmlns="http://www.w3.org/2000/svg" xmlns:xlink="http://www.w3.org/1999/xlink" x="0px" y="0px"
	 viewBox="0 0 47.4 47.5" style="enable-background:new 0 0 47.4 47.5;" xml:space="preserve">
<style type="text/css">
	.st0{fill:none;stroke:#8897A7;stroke-miterlimit:10;}
</style>
<g>
	<path class="st0" d="M31.4,23.9c4.6,0,8.3,3.7,8.3,8.3c0,4.6-3.7,8.3-8.3,8.3c-4.6,0-8.3-3.7-8.3-8.3
		C23.1,27.6,26.8,23.9,31.4,23.9L31.4,23.9z"/>
	<path class="st0" d="M46.2,12.1v19.5c0,0.9-0.8,1.6-1.7,1.7l-4.1,0.2 M22.5,33.5L2.2,33.4c-0.9,0-1.7-0.8-1.7-1.7V2.9
		c0-0.9,0.8-1.7,1.7-1.7h33 M46.2,12.1h-9.3c-0.9,0-1.7-0.8-1.7-1.7V1.2L46.2,12.1L46.2,12.1z M6.4,8.5h22.9 M6.4,13.8h22.9 M6.4,19
		h22.9"/>
	<path class="st0" d="M31.4,28.3c2.2,0,3.9,1.8,3.9,3.9c0,2.2-1.8,3.9-3.9,3.9s-3.9-1.8-3.9-3.9C27.5,30,29.2,28.3,31.4,28.3
		L31.4,28.3z"/>
	<polyline class="st0" points="24.3,36.3 20.4,43.3 27.7,46.8 31.5,40.9 35.3,46.8 42.6,43.3 38.8,35.9 	"/>
</g>
</svg>
