<svg width="16" height="18" viewBox="0 0 16 18" fill="none" xmlns="http://www.w3.org/2000/svg">
<path d="M7.61747 9.50201C7.6358 9.50201 7.65413 9.50201 7.67613 9.50201C7.68346 9.50201 7.6908 9.50201 7.69813 9.50201C7.70913 9.50201 7.72379 9.50201 7.73479 9.50201C8.80895 9.48375 9.67781 9.10761 10.3194 8.38821C11.7308 6.80332 11.4962 4.08638 11.4705 3.8271C11.3789 1.88068 10.455 0.949471 9.69247 0.514905C9.12423 0.189894 8.46067 0.0146072 7.72012 0H7.69446C7.6908 0 7.68346 0 7.6798 0H7.6578C7.25087 0 6.45166 0.0657326 5.68545 0.500298C4.91558 0.934863 3.97706 1.86608 3.88541 3.8271C3.85975 4.08638 3.62512 6.80332 5.03656 8.38821C5.67445 9.10761 6.54331 9.48375 7.61747 9.50201ZM4.86425 3.91839C4.86425 3.90744 4.86792 3.89648 4.86792 3.88918C4.9889 1.27083 6.85493 0.989641 7.65413 0.989641H7.6688C7.67613 0.989641 7.68713 0.989641 7.69813 0.989641C8.68797 1.01155 10.3707 1.41325 10.4843 3.88918C10.4843 3.90013 10.4843 3.91109 10.488 3.91839C10.4917 3.94395 10.7483 6.42719 9.58249 7.73453C9.12056 8.25309 8.50466 8.50872 7.69446 8.51602C7.68713 8.51602 7.68346 8.51602 7.67613 8.51602C7.6688 8.51602 7.66513 8.51602 7.6578 8.51602C6.85126 8.50872 6.2317 8.25309 5.77344 7.73453C4.61129 6.43449 4.86059 3.9403 4.86425 3.91839Z" fill="#949494"/>
<path d="M15.2099 14.0083C15.2099 14.0046 15.2099 14.001 15.2099 13.9973C15.2099 13.9681 15.2062 13.9389 15.2062 13.906C15.1842 13.183 15.1366 11.4922 13.5455 10.9517C13.5345 10.9481 13.5199 10.9444 13.5089 10.9408C11.8555 10.5208 10.4807 9.57133 10.466 9.56038C10.2424 9.40335 9.93443 9.45813 9.77679 9.68089C9.61915 9.90365 9.67414 10.2104 9.89777 10.3674C9.96009 10.4112 11.4192 11.4228 13.2449 11.8902C14.0991 12.1933 14.1944 13.1026 14.2201 13.9352C14.2201 13.9681 14.2201 13.9973 14.2237 14.0265C14.2274 14.3552 14.2054 14.8628 14.1467 15.1549C13.5528 15.4909 11.2249 16.6522 7.68346 16.6522C4.1567 16.6522 1.81407 15.4873 1.2165 15.1513C1.15785 14.8592 1.13218 14.3516 1.13952 14.0229C1.13952 13.9937 1.14318 13.9645 1.14318 13.9316C1.16884 13.099 1.26416 12.1897 2.11836 11.8866C3.94406 11.4191 5.40316 10.4039 5.46548 10.3638C5.68911 10.2067 5.74411 9.9 5.58646 9.67723C5.42882 9.45447 5.12087 9.3997 4.89724 9.55673C4.88258 9.56768 3.51513 10.5172 1.8544 10.9371C1.83974 10.9408 1.82874 10.9444 1.81774 10.9481C0.226663 11.4922 0.179004 13.183 0.157008 13.9024C0.157008 13.9352 0.157008 13.9645 0.153342 13.9937C0.153342 13.9973 0.153342 14.001 0.153342 14.0046C0.149675 14.1945 0.146009 15.1696 0.340311 15.6589C0.376972 15.7538 0.442962 15.8342 0.530947 15.889C0.64093 15.962 3.27684 17.6345 7.68713 17.6345C12.0974 17.6345 14.7333 15.9583 14.8433 15.889C14.9276 15.8342 14.9973 15.7538 15.0339 15.6589C15.2172 15.1732 15.2136 14.1982 15.2099 14.0083Z" fill="#949494"/>
</svg>
