<svg width="16" height="15" viewBox="0 0 16 15" fill="none" xmlns="http://www.w3.org/2000/svg">
<path d="M12.0424 9.29201C11.7341 8.97226 11.3623 8.8013 10.9682 8.8013C10.5773 8.8013 10.2022 8.96909 9.88124 9.28884L8.87692 10.2861C8.79429 10.2418 8.71165 10.2006 8.6322 10.1595C8.51778 10.1025 8.40972 10.0486 8.31756 9.99166C7.3768 9.39648 6.52186 8.62085 5.70188 7.61727C5.3046 7.11707 5.03763 6.69601 4.84376 6.26862C5.10437 6.03118 5.34592 5.78424 5.58111 5.54681C5.6701 5.45816 5.75909 5.36635 5.84808 5.27771C6.5155 4.61288 6.5155 3.75177 5.84808 3.08694L4.98042 2.22266C4.8819 2.12452 4.7802 2.02321 4.68485 1.9219C4.49416 1.72562 4.29393 1.52301 4.08734 1.33306C3.77906 1.02913 3.41038 0.867676 3.02264 0.867676C2.6349 0.867676 2.25987 1.02913 1.94205 1.33306C1.93887 1.33622 1.93887 1.33622 1.93569 1.33939L0.855095 2.42528C0.448283 2.8305 0.216273 3.32438 0.165422 3.8974C0.0891444 4.82183 0.362471 5.68294 0.572234 6.24646C1.08711 7.62994 1.85623 8.91211 3.00357 10.2861C4.39563 11.9418 6.07055 13.2493 7.98384 14.1706C8.71483 14.5157 9.69055 14.9241 10.7807 14.9937C10.8474 14.9969 10.9173 15 10.9809 15C11.7151 15 12.3316 14.7373 12.8147 14.2149C12.8179 14.2086 12.8243 14.2054 12.8274 14.1991C12.9927 13.9996 13.1834 13.8192 13.3836 13.6261C13.5203 13.4963 13.6601 13.3601 13.7968 13.2177C14.1114 12.8916 14.2767 12.5117 14.2767 12.1223C14.2767 11.7297 14.1083 11.353 13.7873 11.0364L12.0424 9.29201ZM13.1802 12.6257C13.1771 12.6257 13.1771 12.6288 13.1802 12.6257C13.0563 12.7586 12.9292 12.8789 12.7925 13.0119C12.5859 13.2082 12.3761 13.4139 12.1791 13.6451C11.8581 13.987 11.4799 14.1484 10.9841 14.1484C10.9364 14.1484 10.8856 14.1484 10.8379 14.1453C9.89395 14.0851 9.01676 13.7179 8.35887 13.4045C6.56 12.537 4.98042 11.3055 3.66782 9.74473C2.58405 8.44356 1.85941 7.24054 1.3795 5.94887C1.08393 5.16057 0.975868 4.5464 1.02354 3.96705C1.05532 3.59664 1.19834 3.28955 1.46214 3.02679L2.54591 1.94723C2.70164 1.8016 2.86691 1.72246 3.029 1.72246C3.22923 1.72246 3.39131 1.84276 3.49302 1.94407C3.4962 1.94723 3.49937 1.9504 3.50255 1.95356C3.69642 2.13402 3.88076 2.3208 4.07463 2.52025C4.17316 2.62156 4.27486 2.72287 4.37656 2.82734L5.24422 3.69162C5.58111 4.0272 5.58111 4.33745 5.24422 4.67303C5.15205 4.76484 5.06306 4.85665 4.97089 4.94529C4.70392 5.21756 4.44966 5.47083 4.17316 5.71776C4.1668 5.72409 4.16044 5.72726 4.15727 5.73359C3.88394 6.00585 3.93479 6.27179 3.992 6.45224C3.99518 6.46174 3.99835 6.47123 4.00153 6.48073C4.22719 7.02526 4.54501 7.53813 5.0281 8.14914L5.03128 8.1523C5.90846 9.22869 6.83333 10.0676 7.85353 10.7103C7.98384 10.7926 8.11733 10.8591 8.24446 10.9224C8.35887 10.9794 8.46693 11.0332 8.5591 11.0902C8.57181 11.0965 8.58453 11.106 8.59724 11.1124C8.7053 11.1662 8.807 11.1915 8.91188 11.1915C9.17567 11.1915 9.34094 11.0269 9.39497 10.9731L10.4819 9.89036C10.59 9.78272 10.7616 9.65292 10.9618 9.65292C11.1589 9.65292 11.321 9.77638 11.4195 9.88402C11.4227 9.88719 11.4227 9.88719 11.4259 9.89036L13.1771 11.6347C13.5044 11.9577 13.5044 12.2901 13.1802 12.6257Z" fill="#949494"/>
<path d="M8.27944 3.56805C9.11214 3.70735 9.86856 4.09992 10.4724 4.70143C11.0763 5.30294 11.4672 6.05641 11.6102 6.88587C11.6452 7.09481 11.8263 7.24044 12.0329 7.24044C12.0584 7.24044 12.0806 7.23728 12.106 7.23411C12.3412 7.19612 12.497 6.97451 12.4588 6.74024C12.2872 5.73666 11.8105 4.82173 11.0826 4.09675C10.3548 3.37177 9.43632 2.89689 8.42882 2.72594C8.19363 2.68795 7.97433 2.84307 7.93301 3.07418C7.8917 3.30529 8.04425 3.53006 8.27944 3.56805Z" fill="#949494"/>
<path d="M15.1825 6.61682C14.8997 4.96424 14.1178 3.46046 12.9165 2.26377C11.7151 1.06708 10.2054 0.288277 8.5464 0.00651579C8.31439 -0.0346403 8.09509 0.123652 8.05378 0.35476C8.01564 0.589033 8.17137 0.807476 8.40656 0.848633C9.88761 1.09873 11.2384 1.79839 12.3126 2.86528C13.3868 3.93534 14.086 5.28083 14.3371 6.75611C14.3721 6.96506 14.5532 7.11069 14.7598 7.11069C14.7852 7.11069 14.8075 7.10752 14.8329 7.10436C15.0649 7.06953 15.2238 6.84792 15.1825 6.61682Z" fill="#949494"/>
</svg>
