<?xml version="1.0" standalone="no"?>
<!DOCTYPE svg PUBLIC "-//W3C//DTD SVG 1.1//EN" "http://www.w3.org/Graphics/SVG/1.1/DTD/svg11.dtd" >
<svg xmlns="http://www.w3.org/2000/svg" xmlns:xlink="http://www.w3.org/1999/xlink" version="1.1">
<metadata></metadata>
<defs>
<font id="museo_sans_cyrillic500" horiz-adv-x="790" >
<font-face units-per-em="2048" ascent="1581" descent="-467" />
<missing-glyph horiz-adv-x="512" />
<glyph unicode="ff" horiz-adv-x="1382" d="M72 877v159h129v35q0 94 27.5 168.5t70.5 114.5q109 102 293 102q49 0 76 -6v-172q-20 4 -52 4q-217 0 -217 -213v-33h494v35q0 94 27.5 168.5t70.5 114.5q109 102 293 102q49 0 76 -6v-172q-20 4 -51 4q-217 0 -217 -213v-33h243v-159h-243v-877h-199v877h-494v-877 h-198v877h-129z" />
<glyph unicode="fi" horiz-adv-x="1189" d="M72 877v159h129v35q0 94 27.5 168.5t70.5 114.5q109 102 293 102q36 0 76 -6v-172q-20 4 -52 4q-217 0 -217 -213v-33h639v-1036h-196v877h-443v-877h-198v877h-129zM838 1245v201h202v-201h-202z" />
<glyph unicode="fl" horiz-adv-x="1224" d="M74 864v162h129v45q0 94 27.5 168.5t70.5 114.5q109 102 293 102q36 0 76 -6v-172q-20 4 -52 4q-217 0 -217 -213v-43h244v-162h-244v-864h-198v864h-129zM829 285v1161h197v-1129q0 -81 28 -114t85 -33q27 0 35 2v-176q-44 -6 -66 -6q-279 0 -279 295z" />
<glyph unicode="ffi" horiz-adv-x="1882" d="M72 877v159h129v35q0 94 27.5 168.5t70.5 114.5q109 102 293 102q36 0 76 -6v-172q-20 4 -52 4q-217 0 -217 -213v-33h494v35q0 94 27.5 168.5t70.5 114.5q109 102 293 102q36 0 76 -6v-172q-20 4 -51 4q-217 0 -217 -213v-33h639v-1036h-197v877h-442v-877h-199v877 h-494v-877h-198v877h-129zM1530 1245v201h205v-201h-205z" />
<glyph unicode="ffl" horiz-adv-x="1914" d="M72 877v159h129v35q0 94 27.5 168.5t70.5 114.5q109 102 293 102q36 0 76 -6v-172q-20 4 -52 4q-217 0 -217 -213v-33h494v35q0 94 27.5 168.5t70.5 114.5q109 102 293 102q36 0 76 -6v-172q-20 4 -51 4q-217 0 -217 -213v-33h243v-159h-243v-877h-199v877h-494v-877 h-198v877h-129zM1520 285v1161h198v-1129q0 -81 28 -114t85 -33q27 0 35 2v-176q-44 -6 -66 -6q-280 0 -280 295z" />
<glyph unicode="fj" horiz-adv-x="1189" d="M72 877v159h129v35q0 94 27.5 168.5t70.5 114.5q109 102 293 102q36 0 76 -6v-172q-20 4 -52 4q-217 0 -217 -213v-33h639v-1071q0 -94 -28.5 -169t-73.5 -115q-42 -42 -100 -66q-85 -37 -193 -37q-8 0 -70 4v170q28 -4 45 -4q27 0 53 4t58.5 18.5t56 38t40 67 t16.5 101.5v900h-443v-877h-198v877h-129zM838 1245v201h202v-201h-202z" />
<glyph unicode=" "  horiz-adv-x="512" />
<glyph unicode="&#x09;" horiz-adv-x="512" />
<glyph unicode="&#xa0;" horiz-adv-x="512" />
<glyph unicode="!" horiz-adv-x="563" d="M178 0v203h205v-203h-205zM178 1446h205l-14 -1049h-179z" />
<glyph unicode="&#x22;" horiz-adv-x="747" d="M152 1085v385h157v-385h-157zM440 1085v385h156v-385h-156z" />
<glyph unicode="#" horiz-adv-x="1476" d="M88 391l27 150h268l61 346h-266l25 149h266l72 410h166l-72 -410h317l72 410h166l-72 -410h268l-26 -149h-266l-62 -346h264l-24 -150h-264l-70 -391h-166l68 391h-318l-67 -391h-166l67 391h-268zM549 541h317l62 346h-320z" />
<glyph unicode="$" horiz-adv-x="1181" d="M123 166l113 153q68 -68 169.5 -111.5t198.5 -43.5q108 0 179 58.5t71 154.5q0 143 -250 246q-185 77 -267 131q-195 128 -192 313q0 149 105 260q107 113 276 137v193h144v-191q209 -12 352 -143l-92 -166q-63 57 -149 92t-169 35q-111 0 -186.5 -62t-75.5 -151 q0 -31 9 -57t31 -49t42.5 -39.5t59 -36t64 -31.5t75 -33t74.5 -32q89 -42 169 -91q83 -46 134 -130t51 -189q0 -156 -105 -270q-103 -112 -284 -133v-189h-144v189q-255 24 -403 186z" />
<glyph unicode="%" horiz-adv-x="1562" d="M100 1167q0 123 90 213t220 90q128 0 221 -90q92 -89 92 -213q0 -126 -92 -215q-91 -88 -221 -88q-132 0 -220 88q-90 90 -90 215zM131 0l1108 1446h193l-1106 -1446h-195zM260 1167q0 -63 43.5 -107t106.5 -44q66 0 109.5 44t43.5 107t-45 108.5t-108 45.5t-106.5 -45.5 t-43.5 -108.5zM844 276q0 126 90 216t219 90t219 -90q92 -89 92 -216q0 -124 -92 -213q-88 -88 -219 -88t-219 88q-90 90 -90 213zM1004 278.5q0 -64.5 43 -108.5q43 -43 106.5 -43t106.5 43q44 44 44 108.5t-44 108.5q-43 44 -106.5 44t-106.5 -44t-43 -108.5z" />
<glyph unicode="&#x26;" horiz-adv-x="1380" d="M115 403q0 127 69.5 231t184.5 140v4q-90 39 -141.5 122t-51.5 198q0 175 123 274q125 98 324 98q77 0 176 -22l-51 -162q-47 12 -109 12q-112 0 -184 -60t-72 -161q0 -90 57 -159q59 -68 207 -68h268v197h201v-197h193v-176h-193v-193q0 -239 -133.5 -372.5 t-368.5 -133.5q-221 0 -360 121q-139 124 -139 307zM322 416q0 -110 81.5 -182t210.5 -72q145 0 223 83.5t78 246.5v182h-274q-153 0 -236 -67.5t-83 -190.5z" />
<glyph unicode="'" horiz-adv-x="462" d="M152 1085v385h157v-385h-157z" />
<glyph unicode="(" horiz-adv-x="600" d="M109 696q0 431 237 809h174q-231 -387 -231 -811q0 -468 231 -889h-174q-237 396 -237 891z" />
<glyph unicode=")" horiz-adv-x="600" d="M80 -195q231 421 231 889q0 424 -231 811h174q238 -380 238 -809q0 -493 -238 -891h-174z" />
<glyph unicode="*" horiz-adv-x="1013" d="M102 1085l56 175l272 -105l-16 291h186l-16 -291l274 102l55 -170l-280 -77v-4l182 -226l-147 -106l-160 241h-4l-156 -241l-149 106l184 226v4z" />
<glyph unicode="+" horiz-adv-x="1181" d="M49 504v160h459v503h168v-503h457v-160h-457v-504h-168v504h-459z" />
<glyph unicode="," horiz-adv-x="557" d="M72 -207l127 422h209l-179 -422h-157z" />
<glyph unicode="-" horiz-adv-x="884" d="M143 496v176h598v-176h-598z" />
<glyph unicode="." horiz-adv-x="499" d="M143 0v215h213v-215h-213z" />
<glyph unicode="../default.htm" horiz-adv-x="851" d="M78 -86l520 1610h176l-520 -1610h-176z" />
<glyph unicode="0" horiz-adv-x="1273" d="M125 725q0 326 111 526q58 105 160.5 162t240.5 57q512 0 512 -745q0 -750 -512 -750q-113 0 -201 38t-146 104.5t-95.5 162.5t-53.5 205.5t-16 239.5zM334 725q0 -563 303 -563t303 563q0 559 -303 559t-303 -559z" />
<glyph unicode="1" horiz-adv-x="1011" d="M106 1110l347 336h180v-1270h317v-176h-833v176h319v934l2 88h-4q-15 -30 -69 -84l-136 -131z" />
<glyph unicode="2" horiz-adv-x="1173" d="M113 111q0 104 39 194t102 155.5t138.5 124t151 110t138.5 102.5t102 113t39 130q0 106 -73.5 173t-188.5 67q-87 0 -166 -50.5t-127 -133.5l-149 100q68 125 189 199.5t270 74.5q201 0 327 -114q127 -115 127 -301q0 -115 -51 -207q-11 -21 -23 -40t-29 -39t-26.5 -32.5 t-33.5 -33t-31.5 -28t-37.5 -30.5t-34.5 -26.5t-41 -29.5t-38.5 -28q-40 -29 -168 -117q-81 -53 -132 -124t-52 -144h721v-176h-932q-10 72 -10 111z" />
<glyph unicode="3" horiz-adv-x="1161" d="M90 172l111 154q65 -70 159.5 -114t190.5 -44q123 0 209 74q86 77 86 190q0 127 -98 197q-92 69 -240 69h-98l-48 109l316 371q27 33 78 84l12 10v4q-44 -6 -123 -6h-489v176h864v-129l-393 -455q104 -9 194 -53q98 -46 164 -145t66 -226q0 -189 -138 -327 q-139 -136 -354 -136q-130 0 -254.5 52t-214.5 145z" />
<glyph unicode="4" horiz-adv-x="1249" d="M70 387v127l669 932h230v-889h196v-170h-196v-387h-199v387h-700zM293 557h477v528l8 146h-4q-37 -76 -72 -121l-409 -549v-4z" />
<glyph unicode="5" horiz-adv-x="1153" d="M100 176l115 148q126 -156 317 -156q133 0 224 82q92 83 92 211q0 131 -94 213q-93 84 -234 84q-134 0 -244 -72l-118 43l71 717h732v-176h-555l-33 -305l-13 -74h5q82 43 188 43q228 0 365 -137q139 -136 139 -336q0 -207 -148 -346q-146 -140 -364 -140 q-130 0 -248 52.5t-197 148.5z" />
<glyph unicode="6" horiz-adv-x="1222" d="M117 655q0 115 24 228.5t76.5 220t127 187.5t183.5 130t238 49q156 0 283 -59l-66 -174q-89 47 -209 47q-185 0 -295 -143q-110 -139 -137 -342h4q44 61 133 98t187 37q203 0 329 -135q127 -136 127 -342q0 -209 -131 -346q-133 -136 -334 -136q-233 0 -387 189 q-153 187 -153 491zM330 551q0 -134 94 -262q95 -127 240 -127q115 0 186.5 83t71.5 212q0 138 -81 222.5t-216 84.5q-118 0 -207 -59q-88 -58 -88 -154z" />
<glyph unicode="7" horiz-adv-x="1099" d="M84 1270v176h967v-139l-652 -1307h-211l564 1137q46 89 71 118l11 15v4q-36 -4 -103 -4h-647z" />
<glyph unicode="8" horiz-adv-x="1234" d="M113 412q0 74 26 144.5t70 121.5q72 84 135 125q-162 113 -162 284q0 160 117 271q115 112 334 112q204 0 328 -106q126 -105 126 -279q0 -85 -36 -170q-33 -77 -65 -122t-73 -86q197 -120 197 -308q0 -174 -137 -299t-359 -125q-214 0 -358 123q-143 125 -143 314z M319 428q0 -118 89 -195q87 -75 204 -75q120 0 205 67q86 71 86 178q0 96 -92 156q-41 29 -88 53q-18 9 -117 54l-110 49q-177 -124 -177 -287zM383 1087q0 -52 31 -104q23 -35 88 -78q10 -7 119 -63q10 -4 41 -17t56.5 -24t39.5 -17q131 137 131 285q0 102 -71 160.5 t-189 58.5q-113 0 -179.5 -56.5t-66.5 -144.5z" />
<glyph unicode="9" horiz-adv-x="1222" d="M98 987q0 214 131 348q132 135 334 135q237 0 387 -188q154 -189 154 -494q0 -298 -158 -544q-77 -124 -206 -196.5t-287 -72.5t-281 60l66 176q98 -49 206 -49q186 0 297 141q111 144 138 344h-5q-42 -61 -131.5 -98t-187.5 -37q-204 0 -330 135q-127 136 -127 340z M301 987q0 -136 80.5 -220.5t214.5 -84.5q121 0 209 61q88 64 88 142q0 147 -98 272q-95 127 -230 127q-120 0 -192 -82.5t-72 -214.5z" />
<glyph unicode=":" horiz-adv-x="495" d="M143 0v211h209v-211h-209zM143 825v211h209v-211h-209z" />
<glyph unicode=";" horiz-adv-x="589" d="M109 -207l108 422h205l-156 -422h-157zM221 825v211h205v-211h-205z" />
<glyph unicode="&#x3c;" horiz-adv-x="1181" d="M86 516v135l954 426v-182l-731 -309v-4l731 -310v-182z" />
<glyph unicode="=" horiz-adv-x="1181" d="M102 309v160h977v-160h-977zM102 696v160h977v-160h-977z" />
<glyph unicode="&#x3e;" horiz-adv-x="1181" d="M139 90v182l731 310v4l-731 309v182l955 -426v-135z" />
<glyph unicode="?" horiz-adv-x="954" d="M80 1343q147 132 356 132q177 0 303 -105q125 -104 125 -270q0 -68 -20 -126.5t-52 -101t-70.5 -80t-77 -71.5t-70.5 -68.5t-52 -78.5t-20 -93v-84h-193v97q0 63 19 117t49.5 93t67.5 75t74 69t67.5 67t49.5 77.5t19 92.5q0 86 -66.5 144.5t-166.5 58.5q-123 0 -232 -86z M303 0v203h205v-203h-205z" />
<glyph unicode="@" horiz-adv-x="1630" d="M115 494q0 319 217 536q218 221 530 221q280 0 404 -118q129 -117 129 -297v-580h147v-150h-559q-186 0 -305 113t-119 273q0 158 117 272q119 113 307 113h221q-2 93 -91.5 151.5t-240.5 58.5q-233 0 -397 -176q-162 -174 -162 -417q0 -250 162 -418q164 -170 420 -170 v-162q-339 0 -559 217q-221 215 -221 533zM760 496q0 -101 67.5 -170.5t169.5 -69.5h207v483h-203q-104 0 -172.5 -70t-68.5 -173z" />
<glyph unicode="A" horiz-adv-x="1312" d="M31 0l518 1446h215l518 -1446h-209l-145 416h-545l-145 -416h-207zM436 584h438l-159 456l-58 207h-4q-26 -115 -55 -207z" />
<glyph unicode="B" horiz-adv-x="1277" d="M190 0v1446h506q191 0 305.5 -99.5t114.5 -269.5q0 -104 -47.5 -186t-132.5 -125v-4q111 -32 175.5 -128t64.5 -222q0 -196 -134 -306q-130 -106 -333 -106h-519zM393 176h326q115 0 181.5 67.5t66.5 180.5q0 111 -68 178.5t-180 67.5h-326v-494zM393 838h303 q96 0 154.5 61t58.5 158t-58 155t-157 58h-301v-432z" />
<glyph unicode="C" horiz-adv-x="1468" d="M102 731q0 316 207 529q207 210 529 210q329 0 528 -190l-102 -152q-79 72 -193.5 115t-224.5 43q-245 0 -391 -158q-144 -156 -144 -395q0 -237 148 -405q147 -166 391 -166q121 0 238.5 50t205.5 138l109 -145q-230 -230 -559 -230q-331 0 -537 215q-205 217 -205 541z " />
<glyph unicode="D" horiz-adv-x="1509" d="M190 0v1446h482q333 0 532 -193q199 -190 199 -528q0 -339 -199 -532t-532 -193h-482zM393 176h264q250 0 393.5 144t143.5 405q0 257 -144.5 401t-392.5 144h-264v-1094z" />
<glyph unicode="E" horiz-adv-x="1155" d="M190 0v1446h842v-176h-639v-453h518v-176h-518v-465h674v-176h-877z" />
<glyph unicode="F" horiz-adv-x="1052" d="M190 0v1446h797v-176h-594v-477h506v-177h-506v-616h-203z" />
<glyph unicode="G" horiz-adv-x="1560" d="M102 725q0 316 211 530q212 215 527 215q317 0 526 -176l-102 -149q-74 62 -188 101.5t-222 39.5q-244 0 -395 -160q-148 -160 -148 -397q0 -246 152 -407q151 -160 379 -160q235 0 409 180v209h-233v176h420v-727h-178v90l2 62h-5q-76 -80 -195.5 -128.5t-248.5 -48.5 q-299 0 -504 211q-207 213 -207 539z" />
<glyph unicode="H" horiz-adv-x="1536" d="M190 0v1446h203v-635h752v635h201v-1446h-201v635h-752v-635h-203z" />
<glyph unicode="I" horiz-adv-x="585" d="M190 0v1446h203v-1446h-203z" />
<glyph unicode="J" horiz-adv-x="1091" d="M57 416v71h201v-61q0 -120 57.5 -192t169.5 -72q103 0 165.5 65t62.5 191v852h-365v176h565v-1030q0 -218 -127 -330q-126 -111 -301 -111q-177 0 -303 111q-125 113 -125 330z" />
<glyph unicode="K" horiz-adv-x="1257" d="M190 0v1446h203v-608h215l367 608h223l-422 -686v-4l449 -756h-232l-385 662h-215v-662h-203z" />
<glyph unicode="L" horiz-adv-x="1077" d="M190 0v1446h203v-1270h649v-176h-852z" />
<glyph unicode="M" horiz-adv-x="1742" d="M135 0l119 1446h211l334 -782l69 -195h4q57 160 72 195l334 782h211l117 -1446h-201l-70 911l-4 213h-4q-62 -177 -78 -213l-288 -651h-181l-286 651l-78 217h-4q1 -44 1 -80q0 -86 -5 -137l-70 -911h-203z" />
<glyph unicode="N" horiz-adv-x="1540" d="M190 0v1446h201l645 -938l119 -211h4q-12 129 -12 211v938h201v-1446h-199l-645 938l-119 211h-4q12 -129 12 -211v-938h-203z" />
<glyph unicode="O" horiz-adv-x="1685" d="M100 733q0 313 211 524q213 213 533 213q317 0 530 -213q211 -211 211 -524q0 -323 -211 -540q-212 -218 -530 -218q-321 0 -533 218q-211 217 -211 540zM309 733q0 -241 152 -407q150 -164 383 -164q231 0 381 164q151 165 151 407q0 236 -151 393q-151 160 -381 160 q-232 0 -383 -160q-152 -158 -152 -393z" />
<glyph unicode="P" horiz-adv-x="1241" d="M190 0v1446h531q201 0 326 -125q127 -124 127 -328t-127 -331t-326 -127h-328v-535h-203zM393 711h295q129 0 205 76t76 206q0 129 -75 203t-204 74h-297v-559z" />
<glyph unicode="Q" horiz-adv-x="1687" d="M102 731q0 315 211 526q213 213 529 213q322 0 532 -213q211 -211 211 -526q0 -273 -168 -477l170 -164l-119 -127l-168 170q-196 -158 -458 -158q-317 0 -531 220q-209 218 -209 536zM311 731q0 -236 152 -405q153 -164 379 -164q188 0 315 106l-170 166l117 127 l166 -170q106 144 106 340q0 239 -153 395q-151 160 -381 160q-225 0 -379 -160q-152 -158 -152 -395z" />
<glyph unicode="R" horiz-adv-x="1286" d="M190 0v1446h459q187 0 269 -39q107 -48 168 -147t61 -232q0 -140 -70.5 -249.5t-187.5 -147.5v-4q25 -35 41 -66l307 -561h-229l-306 575h-309v-575h-203zM393 752h291q118 0 188 72t70 194q0 168 -135 227q-58 25 -174 25h-240v-518z" />
<glyph unicode="S" horiz-adv-x="1116" d="M84 166l115 153q71 -69 169.5 -112t194.5 -43q115 0 184.5 56.5t69.5 150.5q0 154 -248 256q-175 71 -251 119q-199 124 -199 317v6q0 179 133 291q134 110 340 110q247 0 403 -147l-92 -166q-62 58 -148.5 92.5t-170.5 34.5q-114 0 -187 -57t-73 -148q0 -29 8.5 -54.5 t20.5 -45t36 -40t42.5 -33.5t54.5 -31t57.5 -27.5l64.5 -28.5t64 -28q107 -49 168 -86q81 -46 130.5 -129.5t49.5 -188.5q0 -175 -123 -295q-123 -117 -338 -117q-281 0 -475 191z" />
<glyph unicode="T" horiz-adv-x="1259" d="M31 1270v176h1196v-176h-498v-1270h-201v1270h-497z" />
<glyph unicode="U" horiz-adv-x="1486" d="M174 512v934h203v-932q0 -165 99 -258.5t267 -93.5q169 0 267 94t98 260v930h203v-934q0 -242 -156 -389q-157 -148 -410 -148q-256 0 -413 148q-158 149 -158 389z" />
<glyph unicode="V" horiz-adv-x="1318" d="M25 1446h217l360 -1022l55 -199h5q27 119 55 199l362 1022h215l-528 -1446h-213z" />
<glyph unicode="W" horiz-adv-x="1927" d="M59 1446h213l252 -1061l29 -154h4q12 76 33 154l284 1061h179l282 -1061l33 -154h4q9 78 27 154l268 1061h209l-381 -1446h-231l-254 938l-43 203h-9q-18 -109 -45 -203l-251 -938h-234z" />
<glyph unicode="X" horiz-adv-x="1224" d="M33 0l454 745l-426 701h232l227 -391l92 -172h4q36 82 89 172l229 391h233l-430 -701l457 -745h-227l-265 444l-90 166h-4q-61 -119 -88 -166l-262 -444h-225z" />
<glyph unicode="Y" horiz-adv-x="1212" d="M20 1446h230l266 -475l88 -183h4q54 122 88 183l267 475h229l-485 -834v-612h-201v612z" />
<glyph unicode="Z" horiz-adv-x="1216" d="M74 0v135l694 1004q50 73 92 116l12 15v4q-54 -4 -106 -4h-657v176h1015v-133l-696 -1006q-50 -71 -88 -114l-14 -17v-4q50 4 106 4h701v-176h-1059z" />
<glyph unicode="[" horiz-adv-x="616" d="M176 -195v1700h340v-149h-166v-1399h166v-152h-340z" />
<glyph unicode="\" horiz-adv-x="851" d="M78 1524h176l520 -1610h-176z" />
<glyph unicode="]" horiz-adv-x="616" d="M100 -43h166v1399h-166v149h340v-1700h-340v152z" />
<glyph unicode="^" horiz-adv-x="1253" d="M141 506l410 940h129l410 -940h-181l-295 721l-292 -721h-181z" />
<glyph unicode="_" horiz-adv-x="1222" d="M59 0h1104v-160h-1104v160z" />
<glyph unicode="`" horiz-adv-x="1021" d="M330 1806h213l149 -260h-168z" />
<glyph unicode="a" horiz-adv-x="1079" d="M68 283q0 113 62 191.5t169 111.5q177 59 387 59h53v21q0 227 -227 227q-153 0 -291 -100l-80 145q63 54 172 88.5t215 34.5q197 0 303.5 -105t106.5 -301v-655h-186v104l6 82h-4q-48 -94 -140 -152.5t-200 -58.5q-140 0 -244 84q-102 83 -102 224zM266 299 q0 -70 53 -118t142 -48q124 0 201 103t77 227v39h-51q-422 0 -422 -203z" />
<glyph unicode="b" horiz-adv-x="1230" d="M154 0v1446h198v-479l-8 -88h4q47 84 138 133t198 49q209 0 332 -150t123 -393q0 -246 -131 -395q-133 -148 -340 -148q-102 0 -190.5 50t-139.5 137h-4q6 -30 6 -78v-84h-186zM346 514q0 -151 76 -258q77 -109 217 -109q130 0 214.5 101t84.5 268t-81 269t-212 102 q-133 0 -216 -97t-83 -276z" />
<glyph unicode="c" horiz-adv-x="1116" d="M86 518q0 231 156 387t399 156t389 -152l-94 -139q-119 119 -287 119q-157 0 -258 -107q-102 -105 -102 -262q0 -158 102 -266q104 -107 264 -107q86 0 173 38.5t147 101.5l80 -146q-73 -76 -183.5 -121t-230.5 -45q-242 0 -399 154q-156 153 -156 389z" />
<glyph unicode="d" horiz-adv-x="1230" d="M90 518q0 247 131 393q132 150 338 150q101 0 187 -44.5t135 -125.5h4q-4 40 -4 70v485h196v-1446h-188v104l6 70h-4q-49 -91 -139 -145t-205 -54q-206 0 -332 150q-125 149 -125 393zM293 518q0 -167 81 -269t212 -102q133 0 216 97t83 276q0 148 -78 258 q-77 109 -217 109q-130 0 -213.5 -101t-83.5 -268z" />
<glyph unicode="e" horiz-adv-x="1140" d="M86 518q0 243 147 393t373 150q209 0 330 -139q119 -137 119 -347q0 -31 -8 -83h-754q9 -165 108 -254q105 -91 248 -91q169 0 305 121l84 -145q-73 -67 -182.5 -107.5t-218.5 -40.5q-240 0 -397 154q-154 157 -154 389zM299 635h555q-4 127 -74 199.5t-178 72.5 q-118 0 -200.5 -73t-102.5 -199z" />
<glyph unicode="f" horiz-adv-x="694" d="M74 864v162h129v45q0 94 27.5 168.5t70.5 114.5q109 102 293 102q36 0 76 -6v-172q-20 4 -52 4q-217 0 -217 -213v-43h244v-162h-244v-864h-198v864h-129z" />
<glyph unicode="g" horiz-adv-x="1216" d="M92 541q0 229 121 374q122 146 332 146q108 0 194.5 -40.5t132.5 -117.5h7q-7 14 -7 31v102h191v-993q0 -123 -44 -217t-119.5 -148.5t-166 -81t-192.5 -26.5q-181 0 -355 86l66 156q137 -70 285 -70q152 0 239.5 73t87.5 216v84l6 65h-4q-101 -168 -311 -168 q-212 0 -338 150q-125 149 -125 379zM293 547q0 -165 81 -264t220 -99q128 0 201 87.5t73 269.5q0 348 -293 348q-133 0 -207.5 -91t-74.5 -251z" />
<glyph unicode="h" horiz-adv-x="1234" d="M154 0v1446h198v-537l-8 -86h4q45 91 146 164q103 74 243 74q355 0 355 -397v-664h-199v618q0 133 -42.5 197t-152.5 64q-148 0 -247 -111q-99 -108 -99 -276v-492h-198z" />
<glyph unicode="i" horiz-adv-x="503" d="M150 1245v201h204v-201h-204zM154 0v1036h198v-1036h-198z" />
<glyph unicode="j" horiz-adv-x="503" d="M-115 -248q28 -4 45 -4q28 0 54.5 4t58.5 18.5t55.5 38t39.5 67t16 101.5v1059h198v-1071q0 -94 -28.5 -169t-73.5 -115q-111 -103 -282 -103h-13q-4 0 -70 4v170zM150 1245v201h204v-201h-204z" />
<glyph unicode="k" horiz-adv-x="1069" d="M154 0v1446h198v-791h148l280 381h226l-344 -456v-5l382 -575h-231l-309 485h-152v-485h-198z" />
<glyph unicode="l" horiz-adv-x="546" d="M154 285v1161h196v-1129q0 -81 28 -114t85 -33q27 0 35 2v-176q-44 -6 -66 -6q-278 0 -278 295z" />
<glyph unicode="m" horiz-adv-x="1871" d="M154 0v1036h192v-141l-6 -78h4q42 99 141 170q103 74 220 74q257 0 309 -236h4q49 100 145 166q101 70 223 70q176 0 259.5 -97.5t83.5 -299.5v-664h-199v621q0 132 -40.5 196t-141.5 64q-138 0 -224 -121q-84 -122 -84 -277v-483h-198v621q0 132 -38.5 196t-139.5 64 q-140 0 -226 -121t-86 -277v-483h-198z" />
<glyph unicode="n" horiz-adv-x="1234" d="M154 0v1036h192v-141l-6 -78h4q43 94 139 166q104 78 254 78q355 0 355 -397v-664h-199v618q0 133 -42.5 197t-152.5 64q-148 0 -247 -111q-99 -108 -99 -270v-498h-198z" />
<glyph unicode="o" horiz-adv-x="1288" d="M86 520q0 233 162 385q164 156 395 156q232 0 397 -154q162 -152 162 -387q0 -234 -162 -389q-164 -156 -395 -156q-233 0 -397 156q-162 155 -162 389zM289 520q0 -160 102 -268q105 -105 254 -105q148 0 252 107t104 266q0 160 -104 264q-105 105 -252 105 q-149 0 -254 -105q-102 -105 -102 -264z" />
<glyph unicode="p" horiz-adv-x="1230" d="M154 -410v1446h184v-92l-6 -78h4q50 92 141.5 143.5t206.5 51.5q209 0 332 -150t123 -393q0 -246 -131 -395q-133 -148 -338 -148q-207 0 -322 177h-4q8 -33 8 -91v-471h-198zM346 514q0 -145 78 -258q80 -109 215 -109q130 0 214.5 101t84.5 268t-81 269t-212 102 q-133 0 -216 -97t-83 -276z" />
<glyph unicode="q" horiz-adv-x="1230" d="M90 518q0 247 131 393q132 150 338 150q104 0 192.5 -48t137.5 -132h4q-4 40 -4 71v84h188v-1446h-196v480l4 90h-4q-46 -83 -134 -134t-200 -51q-206 0 -332 150q-125 149 -125 393zM293 518q0 -167 81 -269t212 -102q133 0 216 97t83 276q0 148 -78 258 q-77 109 -217 109q-130 0 -213.5 -101t-83.5 -268z" />
<glyph unicode="r" horiz-adv-x="770" d="M154 0v1036h192v-186l-6 -76h4q39 122 128 198.5t202 76.5q8 0 27 -2t26 -3v-196q-20 4 -57 4q-155 0 -238 -127q-80 -127 -80 -295v-430h-198z" />
<glyph unicode="s" horiz-adv-x="915" d="M66 127l94 135q127 -121 305 -121q80 0 128 36t48 99q0 50 -50 88.5t-138 71.5q-39 14 -58.5 21.5t-57.5 24t-59.5 29.5t-52 33t-48 41.5t-35 48t-25.5 59t-8 69.5q0 138 104 218.5t268 80.5q209 0 336 -115l-80 -143q-44 42 -116.5 67t-145.5 25q-81 0 -128.5 -33.5 t-47.5 -95.5q0 -92 188 -162q54 -17 95 -33t91.5 -44.5t83.5 -60.5t55 -80q22 -46 22 -100q0 -140 -105 -225q-106 -86 -268 -86q-243 0 -395 152z" />
<glyph unicode="t" horiz-adv-x="714" d="M61 864v162h140v295h194v-295h250v-162h-250v-463q0 -158 111 -211q50 -23 105 -23q26 0 53 5v-176q-50 -6 -70 -6q-106 0 -197 37q-200 87 -200 352v485h-136z" />
<glyph unicode="u" horiz-adv-x="1222" d="M141 373v663h199v-618q0 -130 43.5 -194t151.5 -64q153 0 245 114q92 115 92 277v485h197v-1036h-192v143l8 76h-4q-40 -90 -144 -168q-101 -76 -241 -76q-355 0 -355 398z" />
<glyph unicode="v" horiz-adv-x="1081" d="M39 1036h211l252 -700l37 -141h4q12 67 35 141l251 700h209l-383 -1036h-227z" />
<glyph unicode="w" horiz-adv-x="1695" d="M49 1036h211l215 -727l27 -110h4q6 30 29 110l223 725h184l223 -725l27 -110h4q5 34 27 110l217 727h207l-332 -1036h-221l-213 666l-31 112h-4q-8 -37 -29 -112l-213 -666h-221z" />
<glyph unicode="x" horiz-adv-x="1021" d="M35 0l354 532l-334 504h228l192 -315l33 -62h4q6 10 35 62l192 315h228l-334 -504l354 -532h-225l-217 346l-33 55h-4l-31 -55l-217 -346h-225z" />
<glyph unicode="y" horiz-adv-x="1095" d="M27 1036h223l260 -678l39 -125h4q12 55 35 123l252 680h215l-488 -1222q-44 -117 -133 -180.5t-203 -63.5q-48 0 -97.5 15t-76.5 34l-24 14l69 152q57 -45 119 -45q124 0 189 154l51 118z" />
<glyph unicode="z" horiz-adv-x="1046" d="M74 0v115l524 655l84 96v4q-46 -4 -100 -4h-486v170h854v-114l-522 -656q-25 -33 -76 -84l-12 -12v-4q34 6 102 6h527v-172h-895z" />
<glyph unicode="{" horiz-adv-x="727" d="M84 578v176q83 17 128.5 75.5t45.5 151.5v172q0 88 24 157t62 107q57 53 123 73.5t123 18.5l47 -2v-151h-27q-20 0 -39.5 -3.5t-46 -16.5t-45.5 -35t-33 -63.5t-14 -96.5v-211q0 -90 -45 -159.5t-121 -100.5v-4q166 -64 166 -260v-236q0 -57 14 -98.5t33 -63.5t46 -34.5 t46 -15.5t39 -3h27v-152q-24 -4 -47 -4q-88 0 -160 33q-172 78 -172 326v196q0 92 -44.5 151.5t-129.5 72.5z" />
<glyph unicode="|" horiz-adv-x="520" d="M172 -326v1948h174v-1948h-174z" />
<glyph unicode="}" horiz-adv-x="727" d="M90 -45h29q54 0 104 33q33 19 52.5 66.5t19.5 115.5v236q0 93 43.5 162t122.5 98v4q-71 27 -118.5 98t-47.5 162v211q0 138 -72 180q-53 35 -104 35h-29v151q12 2 47 2q90 0 158 -32q174 -78 174 -324v-172q0 -92 45.5 -153t128.5 -74v-176q-80 -10 -127 -72.5 t-47 -151.5v-196q0 -89 -24.5 -159.5t-63.5 -107.5q-54 -53 -120.5 -73.5t-123.5 -18.5l-47 4v152z" />
<glyph unicode="~" horiz-adv-x="1251" d="M139 418q0 171 74.5 258.5t212.5 87.5q67 0 126 -29.5t93 -70.5q85 -101 172 -101q69 0 103 54t34 139h162q0 -346 -285 -346q-59 0 -107 20.5t-80 49.5t-62 58t-66.5 49.5t-79.5 20.5q-68 0 -100.5 -54t-32.5 -136h-164z" />
<glyph unicode="&#xa1;" horiz-adv-x="520" d="M156 -412l14 1049h178l12 -1049h-204zM156 831v203h204v-203h-204z" />
<glyph unicode="&#xa2;" horiz-adv-x="1181" d="M109 723q0 229 116 387q115 161 316 188v172h145v-172q132 -20 231 -102.5t154 -214.5l-180 -70q-89 203 -273 203q-144 0 -225.5 -108t-81.5 -283q0 -180 80.5 -284.5t226.5 -104.5q184 0 273 201l180 -70q-57 -131 -157 -216.5t-228 -98.5v-175h-145v175 q-199 27 -316 186q-116 162 -116 387z" />
<glyph unicode="&#xa3;" horiz-adv-x="1181" d="M98 0v176h125v477h-90v144h90v278q0 170 125 283q124 112 320 112t342 -131l-119 -141q-94 88 -221 88q-109 0 -175.5 -62t-66.5 -157v-270h377v-144h-377v-477h666v-176h-996z" />
<glyph unicode="&#xa4;" horiz-adv-x="1249" d="M111 348v144h143v143h-143v164h143v647h477q210 0 330.5 -110.5t120.5 -301.5q0 -187 -129 -295q-124 -106 -330 -106h-266v-141h512v-144h-512v-348h-203v348h-143zM457 799h239q129 0 203 66t74 177t-72.5 175.5t-200.5 64.5h-243v-483z" />
<glyph unicode="&#xa5;" horiz-adv-x="1181" d="M27 1446h231l242 -451l88 -207h4q54 138 88 207l244 451h231l-338 -606h207v-129h-276l-56 -99v-73h332v-131h-332v-408h-205v408h-333v131h333v73l-53 99h-280v129h211z" />
<glyph unicode="&#xa7;" horiz-adv-x="915" d="M104 -23l91 138q88 -76 198 -76q96 0 156.5 57.5t60.5 157.5q0 40 -12 92l-135 770h162l143 -799q10 -62 10 -92q0 -156 -104 -254t-281 -98q-170 0 -289 104zM137 1120q0 156 104.5 253t280.5 97q173 0 289 -104l-94 -131q-85 70 -195 70q-99 0 -158 -54.5t-59 -152.5 q0 -37 10 -82l140 -789h-162l-146 799q-10 45 -10 94z" />
<glyph unicode="&#xa8;" horiz-adv-x="1021" d="M258 1599v207h164v-207h-164zM602 1599v207h162v-207h-162z" />
<glyph unicode="&#xa9;" horiz-adv-x="1685" d="M113 723q0 309 213 528t514 219q307 0 520 -219q215 -218 215 -528q0 -312 -215 -530q-212 -218 -520 -218q-302 0 -514 218q-213 219 -213 530zM262 723q0 -256 166 -434q170 -176 412 -176q245 0 415 176t170 434t-170 434t-415 176q-243 0 -412 -178 q-166 -175 -166 -432zM453 721q0 170 110 289q114 120 293 120q104 0 194 -54.5t140 -147.5l-127 -68q-27 55 -84 92t-119 37q-113 0 -183.5 -76.5t-70.5 -191.5q0 -118 69 -193t185 -75q62 0 116 35.5t87 93.5l127 -68q-44 -87 -136 -145t-198 -58q-183 0 -293 119 t-110 291z" />
<glyph unicode="&#xaa;" horiz-adv-x="872" d="M152 543v116h561v-116h-561zM152 981q0 225 387 225h20v13q0 129 -131 129q-85 0 -170 -58l-59 101q100 75 247 75q127 0 194 -66.5t67 -191.5v-411h-140v94h-4q-24 -46 -75.5 -76.5t-112.5 -30.5q-94 0 -158.5 54t-64.5 143zM301 991q0 -39 28 -63.5t77 -24.5 q64 0 108.5 55.5t44.5 126.5v17h-24q-234 0 -234 -111z" />
<glyph unicode="&#xab;" horiz-adv-x="1148" d="M92 578l336 421h199l-336 -421l336 -420h-199zM506 578l336 421h198l-335 -421l335 -420h-198z" />
<glyph unicode="&#xac;" horiz-adv-x="1282" d="M147 696v160h977v-549h-166v389h-811z" />
<glyph unicode="&#xad;" horiz-adv-x="884" d="M143 496v176h598v-176h-598z" />
<glyph unicode="&#xae;" horiz-adv-x="1685" d="M113 723q0 309 213 528t514 219q307 0 520 -219q215 -218 215 -528q0 -312 -215 -530q-212 -218 -520 -218q-302 0 -514 218q-213 219 -213 530zM262 723q0 -256 166 -434q170 -176 412 -176q245 0 415 176t170 434t-170 434t-415 176q-243 0 -412 -178 q-166 -175 -166 -432zM590 340v774h299q108 0 174.5 -65.5t66.5 -171.5q0 -78 -41.5 -134.5t-99.5 -70.5v-4q10 -10 27 -43l149 -285h-161l-142 299h-127v-299h-145zM735 745h123q60 0 92.5 35t32.5 97q0 59 -32.5 91.5t-90.5 32.5h-125v-256z" />
<glyph unicode="&#xaf;" horiz-adv-x="1021" d="M252 1606v145h520v-145h-520z" />
<glyph unicode="&#xb0;" horiz-adv-x="837" d="M109 1167q0 123 90 213t219 90q128 0 221 -90q92 -89 92 -213q0 -126 -92 -215q-91 -88 -221 -88q-131 0 -219 88q-90 90 -90 215zM268 1167q0 -66 43.5 -109.5t106.5 -43.5q66 0 109.5 43.5t43.5 109.5q0 63 -45 108.5t-108 45.5t-106.5 -45.5t-43.5 -108.5z" />
<glyph unicode="&#xb1;" horiz-adv-x="1181" d="M49 504v160h459v503h168v-503h457v-160h-457v-504h-168v504h-459zM82 -195h1018v-157h-1018v157z" />
<glyph unicode="&#xb2;" d="M90 940q0 70 24 129t62 99.5t84.5 75.5t93 64.5t84.5 58t62 64.5t24 76q0 57 -42 95t-105 38q-92 0 -174 -98l-101 92q44 65 121 106.5t160 41.5q129 0 211 -76q84 -75 84 -193q0 -78 -40 -144t-106 -112q-25 -17 -71 -46t-75 -48.5t-61 -46.5t-49.5 -55.5t-19.5 -59.5 h436v-135h-596q-6 38 -6 74z" />
<glyph unicode="&#xb3;" d="M72 981l86 109q32 -44 90 -73.5t119 -29.5q70 0 120 45.5t50 110.5q0 66 -52.5 105.5t-128.5 39.5h-69l-35 78l182 211l51 49v4q-41 -6 -75 -6h-289v137h555v-98l-223 -258q107 -14 173 -82t66 -180q0 -119 -90 -209q-88 -88 -229 -88q-89 0 -170 35.5t-131 99.5z" />
<glyph unicode="&#xb4;" horiz-adv-x="1021" d="M330 1546l147 260h215l-196 -260h-166z" />
<glyph unicode="&#xb5;" horiz-adv-x="1230" d="M172 -410v1446h199v-618q0 -132 41.5 -195t148.5 -63q157 0 246 114q92 115 92 277v485h199v-1036h-191v141l4 74h-6q-15 -36 -53 -84q-29 -39 -70 -74q-42 -33 -113.5 -57.5t-146.5 -24.5q-126 0 -186 66h-4q16 -109 16 -164v-287h-176z" />
<glyph unicode="&#xb6;" horiz-adv-x="1222" d="M78 971q0 198 141 336q145 139 344 139h555v-176h-403v-1372h-152v596q-199 0 -342 137t-143 340zM842 -102v1255h153v-1255h-153z" />
<glyph unicode="&#xb7;" horiz-adv-x="495" d="M143 487v215h207v-215h-207z" />
<glyph unicode="&#xb8;" horiz-adv-x="1021" d="M350 -291q32 -14 86 -14q99 0 99 63q0 64 -109 64l-37 -2l60 227l100 -22v-15l-25 -112q67 -8 107.5 -48t40.5 -102q0 -84 -58 -128t-151 -44q-57 0 -113 12v121z" />
<glyph unicode="&#xb9;" d="M137 1550l217 211h138v-760h188v-135h-533v135h191v510l4 54h-4q-10 -20 -35 -45l-74 -70z" />
<glyph unicode="&#xba;" horiz-adv-x="989" d="M143 1130q0 146 101 240q101 98 248 98q145 0 249 -96q103 -95 103 -242t-103 -247q-105 -97 -247 -97q-145 0 -250 97q-101 98 -101 247zM176 543v116h639v-116h-639zM291 1130q0 -92 58 -151t145 -59q85 0 142.5 59.5t57.5 150.5q0 90 -57.5 148.5t-142.5 58.5 q-87 0 -145 -58.5t-58 -148.5z" />
<glyph unicode="&#xbb;" horiz-adv-x="1148" d="M109 158l335 420l-335 421h198l336 -421l-336 -420h-198zM520 158l336 420l-336 421h199l336 -421l-336 -420h-199z" />
<glyph unicode="&#xbc;" horiz-adv-x="1953" d="M113 1237l217 211h137v-760h188v-135h-532v135h190v510l4 53h-4q-11 -22 -34 -45l-74 -69zM535 0l688 1446h151l-686 -1446h-153zM1169 219v103l410 573h166v-541h127v-135h-127v-219h-152v219h-424zM1335 354h258v252l6 119h-4q-30 -61 -59 -98l-201 -269v-4z" />
<glyph unicode="&#xbd;" horiz-adv-x="1931" d="M111 1237l217 211h137v-760h188v-135h-532v135h190v510l4 53h-4q-10 -20 -35 -45l-73 -69zM535 0l688 1446h151l-686 -1446h-153zM1227 74q0 70 24 129t62 99.5t84.5 75.5t93 64.5t84.5 58t62 64.5t24 76q0 57 -42.5 95t-105.5 38q-92 0 -174 -98l-100 92 q44 64 121 105.5t160 41.5q130 0 211 -75q84 -75 84 -193q0 -78 -40 -144t-106 -112q-25 -17 -71 -46t-75 -48.5t-61 -46.5t-49.5 -55.5t-19.5 -59.5h436v-135h-596q-6 38 -6 74z" />
<glyph unicode="&#xbe;" horiz-adv-x="1986" d="M88 668l86 108q32 -44 89.5 -73t119.5 -29q70 0 120 45t50 110q0 66 -52 106t-128 40h-70l-35 78l183 211l51 49v4q-40 -6 -76 -6h-289v137h555v-98l-223 -258q107 -14 173.5 -82.5t66.5 -180.5q0 -117 -91 -208q-89 -89 -229 -89q-88 0 -169.5 35.5t-131.5 100.5zM565 0 l688 1446h152l-686 -1446h-154zM1200 219v103l410 573h166v-541h127v-135h-127v-219h-152v219h-424zM1366 354h258v252l6 119h-4q-30 -61 -59 -98l-201 -269v-4z" />
<glyph unicode="&#xbf;" horiz-adv-x="935" d="M78 -66q0 68 20 126.5t52 101t70.5 80t77 71.5t70.5 68.5t52 78.5t20 93v84h193v-96q0 -63 -19 -117t-49.5 -93.5t-67.5 -75t-74 -69t-67.5 -67t-49.5 -77.5t-19 -93q0 -86 66.5 -144.5t166.5 -58.5q123 0 232 86l110 -141q-146 -131 -356 -131q-178 0 -303 104t-125 270 zM434 831v203h205v-203h-205z" />
<glyph unicode="&#xc0;" horiz-adv-x="1312" d="M31 0l518 1446h215l518 -1446h-209l-145 416h-545l-145 -416h-207zM381 1806h213l149 -260h-168zM436 584h438l-159 456l-58 207h-4q-26 -115 -55 -207z" />
<glyph unicode="&#xc1;" horiz-adv-x="1312" d="M31 0l518 1446h215l518 -1446h-209l-145 416h-545l-145 -416h-207zM436 584h438l-159 456l-58 207h-4q-26 -115 -55 -207zM567 1546l148 260h215l-197 -260h-166z" />
<glyph unicode="&#xc2;" horiz-adv-x="1312" d="M31 0l518 1446h215l518 -1446h-209l-145 416h-545l-145 -416h-207zM371 1546l180 260h205l182 -260h-174l-109 164h-4l-106 -164h-174zM436 584h438l-159 456l-58 207h-4q-26 -115 -55 -207z" />
<glyph unicode="&#xc3;" horiz-adv-x="1312" d="M31 0l518 1446h215l518 -1446h-209l-145 416h-545l-145 -416h-207zM309 1548q0 260 209 260q33 0 65 -14.5t57 -35t48 -40.5t45.5 -34.5t42.5 -14.5q39 0 59.5 37.5t20.5 95.5h143q0 -260 -208 -260q-34 0 -66.5 14.5t-57.5 35t-48 40.5t-45.5 34.5t-41.5 14.5 q-79 0 -79 -133h-144zM436 584h438l-159 456l-58 207h-4q-26 -115 -55 -207z" />
<glyph unicode="&#xc4;" horiz-adv-x="1312" d="M31 0l518 1446h215l518 -1446h-209l-145 416h-545l-145 -416h-207zM401 1599v207h164v-207h-164zM436 584h438l-159 456l-58 207h-4q-26 -115 -55 -207zM745 1599v207h162v-207h-162z" />
<glyph unicode="&#xc5;" horiz-adv-x="1312" d="M31 0l518 1446h215l518 -1446h-209l-145 416h-545l-145 -416h-207zM436 584h438l-159 456l-58 207h-4q-26 -115 -55 -207zM481 1673q0 68 50.5 111t123.5 43t122.5 -43t49.5 -111q0 -66 -50.5 -108.5t-121.5 -42.5q-73 0 -123.5 42.5t-50.5 108.5zM588 1673 q0 -30 18.5 -48.5t48.5 -18.5q29 0 48.5 19t19.5 48q0 32 -19 52t-49 20q-31 0 -49 -20t-18 -52z" />
<glyph unicode="&#xc6;" horiz-adv-x="1796" d="M18 0l598 1446h1059v-176h-639v-453h518v-176h-518v-465h672v-176h-872v643h-351l-256 -643h-211zM553 811h283v459h-97z" />
<glyph unicode="&#xc7;" horiz-adv-x="1468" d="M102 731q0 316 207 529q207 210 529 210q329 0 528 -190l-102 -152q-79 72 -193.5 115t-224.5 43q-245 0 -391 -158q-144 -156 -144 -395q0 -237 148 -405q147 -166 391 -166q121 0 238.5 50t205.5 138l109 -145q-219 -219 -531 -228l-16 -79q67 -8 107.5 -48t40.5 -102 q0 -84 -58 -128t-151 -44q-57 0 -113 12v121q32 -14 86 -14q98 0 98 63q0 64 -108 64l-37 -2l41 160q-299 27 -479 237q-181 211 -181 514z" />
<glyph unicode="&#xc8;" horiz-adv-x="1155" d="M190 0v1446h842v-176h-639v-453h518v-176h-518v-465h674v-176h-877zM359 1806h213l149 -260h-168z" />
<glyph unicode="&#xc9;" horiz-adv-x="1155" d="M190 0v1446h842v-176h-639v-453h518v-176h-518v-465h674v-176h-877zM543 1546l147 260h215l-196 -260h-166z" />
<glyph unicode="&#xca;" horiz-adv-x="1155" d="M190 0v1446h842v-176h-639v-453h518v-176h-518v-465h674v-176h-877zM348 1546l180 260h205l182 -260h-174l-108 164h-4l-107 -164h-174z" />
<glyph unicode="&#xcb;" horiz-adv-x="1155" d="M190 0v1446h842v-176h-639v-453h518v-176h-518v-465h674v-176h-877zM381 1599v207h164v-207h-164zM725 1599v207h162v-207h-162z" />
<glyph unicode="&#xcc;" horiz-adv-x="585" d="M20 1806h213l150 -260h-168zM190 0v1446h203v-1446h-203z" />
<glyph unicode="&#xcd;" horiz-adv-x="585" d="M190 0v1446h203v-1446h-203zM207 1546l147 260h215l-196 -260h-166z" />
<glyph unicode="&#xce;" horiz-adv-x="585" d="M12 1546l181 260h204l183 -260h-174l-109 164h-4l-107 -164h-174zM190 0v1446h203v-1446h-203z" />
<glyph unicode="&#xcf;" horiz-adv-x="585" d="M43 1599v207h164v-207h-164zM190 0v1446h203v-1446h-203zM387 1599v207h162v-207h-162z" />
<glyph unicode="&#xd0;" horiz-adv-x="1521" d="M84 639v168h119v639h481q334 0 533 -193q198 -189 198 -528q0 -340 -198 -532q-199 -193 -533 -193h-481v639h-119zM403 176h267q250 0 393 144t143 405q0 257 -144 401t-392 144h-267v-463h308v-168h-308v-463z" />
<glyph unicode="&#xd1;" horiz-adv-x="1540" d="M190 0v1446h201l645 -938l119 -211h4q-12 129 -12 211v938h201v-1446h-199l-645 938l-119 211h-4q12 -129 12 -211v-938h-203zM424 1548q0 260 209 260q33 0 65 -14.5t57 -35t48 -40.5t45.5 -34.5t42.5 -14.5q39 0 59.5 37.5t20.5 95.5h143q0 -260 -209 -260 q-34 0 -66 14.5t-57.5 35t-48 40.5t-45 34.5t-41.5 14.5q-80 0 -80 -133h-143z" />
<glyph unicode="&#xd2;" horiz-adv-x="1685" d="M100 733q0 313 211 524q213 213 533 213q317 0 530 -213q211 -211 211 -524q0 -323 -211 -540q-212 -218 -530 -218q-321 0 -533 218q-211 217 -211 540zM309 733q0 -241 152 -407q150 -164 383 -164q231 0 381 164q151 165 151 407q0 236 -151 393q-151 160 -381 160 q-232 0 -383 -160q-152 -158 -152 -393zM568 1806h213l149 -260h-168z" />
<glyph unicode="&#xd3;" horiz-adv-x="1685" d="M100 733q0 313 211 524q213 213 533 213q317 0 530 -213q211 -211 211 -524q0 -323 -211 -540q-212 -218 -530 -218q-321 0 -533 218q-211 217 -211 540zM309 733q0 -241 152 -407q150 -164 383 -164q231 0 381 164q151 165 151 407q0 236 -151 393q-151 160 -381 160 q-232 0 -383 -160q-152 -158 -152 -393zM754 1546l147 260h215l-196 -260h-166z" />
<glyph unicode="&#xd4;" horiz-adv-x="1685" d="M100 733q0 313 211 524q213 213 533 213q317 0 530 -213q211 -211 211 -524q0 -323 -211 -540q-212 -218 -530 -218q-321 0 -533 218q-211 217 -211 540zM309 733q0 -241 152 -407q150 -164 383 -164q231 0 381 164q151 165 151 407q0 236 -151 393q-151 160 -381 160 q-232 0 -383 -160q-152 -158 -152 -393zM559 1546l180 260h205l182 -260h-174l-108 164h-4l-107 -164h-174z" />
<glyph unicode="&#xd5;" horiz-adv-x="1685" d="M100 733q0 313 211 524q213 213 533 213q317 0 530 -213q211 -211 211 -524q0 -323 -211 -540q-212 -218 -530 -218q-321 0 -533 218q-211 217 -211 540zM309 733q0 -241 152 -407q150 -164 383 -164q231 0 381 164q151 165 151 407q0 236 -151 393q-151 160 -381 160 q-232 0 -383 -160q-152 -158 -152 -393zM498 1548q0 260 209 260q33 0 65 -14.5t57 -35t48 -40.5t45.5 -34.5t42.5 -14.5q39 0 59 37.5t20 95.5h144q0 -260 -209 -260q-34 0 -66 14.5t-57.5 35t-48 40.5t-45 34.5t-41.5 14.5q-80 0 -80 -133h-143z" />
<glyph unicode="&#xd6;" horiz-adv-x="1685" d="M100 733q0 313 211 524q213 213 533 213q317 0 530 -213q211 -211 211 -524q0 -323 -211 -540q-212 -218 -530 -218q-321 0 -533 218q-211 217 -211 540zM309 733q0 -241 152 -407q150 -164 383 -164q231 0 381 164q151 165 151 407q0 236 -151 393q-151 160 -381 160 q-232 0 -383 -160q-152 -158 -152 -393zM590 1599v207h164v-207h-164zM934 1599v207h162v-207h-162z" />
<glyph unicode="&#xd7;" horiz-adv-x="1181" d="M57 113l424 471l-424 471l115 112l418 -465l418 465l114 -112l-424 -471l424 -471l-114 -113l-418 465l-418 -465z" />
<glyph unicode="&#xd8;" horiz-adv-x="1683" d="M100 731q0 314 215 526q216 213 529 213q207 0 379 -100l94 129l100 -69l-92 -130q124 -105 192 -252t68 -317q0 -318 -215 -536q-214 -220 -526 -220q-218 0 -393 111l-97 -137l-102 69l100 140q-119 106 -185.5 255.5t-66.5 317.5zM309 731q0 -242 162 -407l637 886 q-122 76 -264 76q-222 0 -379 -160q-156 -159 -156 -395zM563 244q125 -82 279 -82q223 0 379 164q155 162 155 405q0 247 -170 406z" />
<glyph unicode="&#xd9;" horiz-adv-x="1486" d="M174 512v934h203v-932q0 -165 99 -258.5t267 -93.5q169 0 267 94t98 260v930h203v-934q0 -242 -156 -389q-157 -148 -410 -148q-256 0 -413 148q-158 149 -158 389zM467 1806h213l149 -260h-168z" />
<glyph unicode="&#xda;" horiz-adv-x="1486" d="M174 512v934h203v-932q0 -165 99 -258.5t267 -93.5q169 0 267 94t98 260v930h203v-934q0 -242 -156 -389q-157 -148 -410 -148q-256 0 -413 148q-158 149 -158 389zM653 1546l148 260h215l-197 -260h-166z" />
<glyph unicode="&#xdb;" horiz-adv-x="1486" d="M174 512v934h203v-932q0 -165 99 -258.5t267 -93.5q169 0 267 94t98 260v930h203v-934q0 -242 -156 -389q-157 -148 -410 -148q-256 0 -413 148q-158 149 -158 389zM459 1546l180 260h205l182 -260h-174l-109 164h-4l-106 -164h-174z" />
<glyph unicode="&#xdc;" horiz-adv-x="1486" d="M174 512v934h203v-932q0 -165 99 -258.5t267 -93.5q169 0 267 94t98 260v930h203v-934q0 -242 -156 -389q-157 -148 -410 -148q-256 0 -413 148q-158 149 -158 389zM489 1599v207h164v-207h-164zM833 1599v207h162v-207h-162z" />
<glyph unicode="&#xdd;" horiz-adv-x="1212" d="M20 1446h230l266 -475l88 -183h4q54 122 88 183l267 475h229l-485 -834v-612h-201v612zM516 1546l148 260h215l-197 -260h-166z" />
<glyph unicode="&#xde;" horiz-adv-x="1245" d="M190 0v1446h203v-246h328q201 0 326 -125q127 -124 127 -327q0 -205 -127 -332t-328 -127h-326v-289h-203zM393 465h295q129 0 205 76.5t76 206.5q0 129 -75 202.5t-204 73.5h-297v-559z" />
<glyph unicode="&#xdf;" horiz-adv-x="1204" d="M154 0v1085q0 180 131 281q131 104 311 104q165 0 278 -96q111 -94 111 -233q0 -47 -15 -89t-38 -71t-49.5 -59t-49.5 -53t-38 -52t-15 -57q0 -29 27 -60.5t68 -58.5t88.5 -63.5t88.5 -74t68 -91.5t27 -115q0 -148 -103 -231q-103 -80 -247 -80q-176 0 -291 59v176 q120 -63 266 -63q77 0 124.5 38t47.5 109q0 52 -53.5 106t-130.5 97q-76 46 -129 112t-53 134q0 52 30 104.5t72 93.5q104 100 104 187q0 66 -53 112.5t-141 46.5q-102 0 -170 -61t-68 -166v-1071h-198z" />
<glyph unicode="&#xe0;" horiz-adv-x="1079" d="M68 283q0 113 62 191.5t169 111.5q177 59 387 59h53v21q0 227 -227 227q-153 0 -291 -100l-80 145q63 54 172 88.5t215 34.5q197 0 303.5 -105t106.5 -301v-655h-186v104l6 82h-4q-48 -94 -140 -152.5t-200 -58.5q-140 0 -244 84q-102 83 -102 224zM262 1448h213 l150 -260h-168zM266 299q0 -70 53 -118t142 -48q124 0 201 103t77 227v39h-51q-422 0 -422 -203z" />
<glyph unicode="&#xe1;" horiz-adv-x="1079" d="M68 283q0 113 62 191.5t169 111.5q177 59 387 59h53v21q0 227 -227 227q-153 0 -291 -100l-80 145q63 54 172 88.5t215 34.5q197 0 303.5 -105t106.5 -301v-655h-186v104l6 82h-4q-48 -94 -140 -152.5t-200 -58.5q-140 0 -244 84q-102 83 -102 224zM266 299 q0 -70 53 -118t142 -48q124 0 201 103t77 227v39h-51q-422 0 -422 -203zM442 1188l148 260h215l-197 -260h-166z" />
<glyph unicode="&#xe2;" horiz-adv-x="1079" d="M68 283q0 113 62 191.5t169 111.5q177 59 387 59h53v21q0 227 -227 227q-153 0 -291 -100l-80 145q63 54 172 88.5t215 34.5q197 0 303.5 -105t106.5 -301v-655h-186v104l6 82h-4q-48 -94 -140 -152.5t-200 -58.5q-140 0 -244 84q-102 83 -102 224zM248 1188l180 260h205 l182 -260h-174l-109 164h-4l-106 -164h-174zM266 299q0 -70 53 -118t142 -48q124 0 201 103t77 227v39h-51q-422 0 -422 -203z" />
<glyph unicode="&#xe3;" horiz-adv-x="1079" d="M68 283q0 113 62 191.5t169 111.5q177 59 387 59h53v21q0 227 -227 227q-153 0 -291 -100l-80 145q63 54 172 88.5t215 34.5q197 0 303.5 -105t106.5 -301v-655h-186v104l6 82h-4q-48 -94 -140 -152.5t-200 -58.5q-140 0 -244 84q-102 83 -102 224zM188 1190 q0 260 209 260q33 0 65 -14.5t57 -35t48 -40.5t45.5 -34.5t42.5 -14.5q39 0 59.5 37.5t20.5 95.5h144q0 -260 -209 -260q-34 0 -66 14.5t-57.5 35t-48 40.5t-45 34.5t-41.5 14.5q-80 0 -80 -133h-144zM266 299q0 -70 53 -118t142 -48q124 0 201 103t77 227v39h-51 q-422 0 -422 -203z" />
<glyph unicode="&#xe4;" horiz-adv-x="1079" d="M68 283q0 113 62 191.5t169 111.5q177 59 387 59h53v21q0 227 -227 227q-153 0 -291 -100l-80 145q63 54 172 88.5t215 34.5q197 0 303.5 -105t106.5 -301v-655h-186v104l6 82h-4q-48 -94 -140 -152.5t-200 -58.5q-140 0 -244 84q-102 83 -102 224zM266 299 q0 -70 53 -118t142 -48q124 0 201 103t77 227v39h-51q-422 0 -422 -203zM281 1241v207h163v-207h-163zM625 1241v207h161v-207h-161z" />
<glyph unicode="&#xe5;" horiz-adv-x="1079" d="M68 283q0 113 62 191.5t169 111.5q177 59 387 59h53v21q0 227 -227 227q-153 0 -291 -100l-80 145q63 54 172 88.5t215 34.5q197 0 303.5 -105t106.5 -301v-655h-186v104l6 82h-4q-48 -94 -140 -152.5t-200 -58.5q-140 0 -244 84q-102 83 -102 224zM266 299 q0 -70 53 -118t142 -48q124 0 201 103t77 227v39h-51q-422 0 -422 -203zM358 1315q0 68 50 110.5t124 42.5q73 0 123 -42.5t50 -110.5q0 -66 -51 -109t-122 -43q-73 0 -123.5 43t-50.5 109zM465 1315q0 -30 18.5 -49t48.5 -19q29 0 48.5 19.5t19.5 48.5q0 32 -19 51.5 t-49 19.5q-31 0 -49 -19.5t-18 -51.5z" />
<glyph unicode="&#xe6;" horiz-adv-x="1767" d="M70 291q0 118 61 188.5t166 110.5q65 27 135 35q121 16 256 16h51v25q0 227 -233 227q-152 0 -287 -100l-80 145q66 55 171 89t208 34q263 0 346 -182h4q123 182 367 182q207 0 326 -137q118 -136 118 -344q0 -6 -4 -84h-745q7 -163 102 -256t244 -93q173 0 307 119 l82 -143q-72 -66 -182.5 -107t-218.5 -41q-153 0 -268 67t-177 191h-4q-21 -59 -102 -145q-44 -49 -122 -80t-167 -31q-148 0 -252 84q-102 83 -102 230zM270 301q0 -71 53 -118.5t144 -47.5q120 0 197 103q77 106 77 229v29h-98q-373 0 -373 -195zM938 641h541 q-4 120 -73.5 190t-172.5 70q-118 0 -196.5 -68t-98.5 -192z" />
<glyph unicode="&#xe7;" horiz-adv-x="1118" d="M86 518q0 231 156 387t399 156t389 -152l-94 -139q-119 119 -287 119q-157 0 -258 -107q-102 -105 -102 -262q0 -158 102 -266q104 -107 264 -107q86 0 173 38.5t147 101.5l80 -146q-145 -157 -389 -166l-17 -77q67 -8 107.5 -48t40.5 -102q0 -84 -58 -128t-151 -44 q-58 0 -113 12v121q35 -14 86 -14q98 0 98 63q0 64 -108 64l-37 -2l41 162q-209 27 -340 176q-129 147 -129 360z" />
<glyph unicode="&#xe8;" horiz-adv-x="1140" d="M86 518q0 243 147 393t373 150q209 0 330 -139q119 -137 119 -347q0 -31 -8 -83h-754q9 -165 108 -254q105 -91 248 -91q169 0 305 121l84 -145q-73 -67 -182.5 -107.5t-218.5 -40.5q-240 0 -397 154q-154 157 -154 389zM299 635h555q-4 127 -74 199.5t-178 72.5 q-118 0 -200.5 -73t-102.5 -199zM332 1448h213l149 -260h-168z" />
<glyph unicode="&#xe9;" horiz-adv-x="1140" d="M86 518q0 243 147 393t373 150q209 0 330 -139q119 -137 119 -347q0 -31 -8 -83h-754q9 -165 108 -254q105 -91 248 -91q169 0 305 121l84 -145q-73 -67 -182.5 -107.5t-218.5 -40.5q-240 0 -397 154q-154 157 -154 389zM299 635h555q-4 127 -74 199.5t-178 72.5 q-118 0 -200.5 -73t-102.5 -199zM514 1188l148 260h215l-197 -260h-166z" />
<glyph unicode="&#xea;" horiz-adv-x="1140" d="M86 518q0 243 147 393t373 150q209 0 330 -139q119 -137 119 -347q0 -31 -8 -83h-754q9 -165 108 -254q105 -91 248 -91q169 0 305 121l84 -145q-73 -67 -182.5 -107.5t-218.5 -40.5q-240 0 -397 154q-154 157 -154 389zM299 635h555q-4 127 -74 199.5t-178 72.5 q-118 0 -200.5 -73t-102.5 -199zM319 1188l181 260h204l183 -260h-174l-109 164h-4l-107 -164h-174z" />
<glyph unicode="&#xeb;" horiz-adv-x="1140" d="M86 518q0 243 147 393t373 150q209 0 330 -139q119 -137 119 -347q0 -31 -8 -83h-754q9 -165 108 -254q105 -91 248 -91q169 0 305 121l84 -145q-73 -67 -182.5 -107.5t-218.5 -40.5q-240 0 -397 154q-154 157 -154 389zM299 635h555q-4 127 -74 199.5t-178 72.5 q-118 0 -200.5 -73t-102.5 -199zM352 1241v207h164v-207h-164zM696 1241v207h162v-207h-162z" />
<glyph unicode="&#xec;" horiz-adv-x="503" d="M-18 1448h213l149 -260h-168zM154 0v1036h198v-1036h-198z" />
<glyph unicode="&#xed;" horiz-adv-x="503" d="M154 0v1036h198v-1036h-198zM166 1188l147 260h215l-196 -260h-166z" />
<glyph unicode="&#xee;" horiz-adv-x="503" d="M-29 1188l181 260h204l183 -260h-174l-109 164h-4l-107 -164h-174zM154 0v1036h198v-1036h-198z" />
<glyph unicode="&#xef;" horiz-adv-x="503" d="M4 1241v207h164v-207h-164zM154 0v1036h198v-1036h-198zM348 1241v207h162v-207h-162z" />
<glyph unicode="&#xf0;" horiz-adv-x="1189" d="M90 481q0 194 129 332q132 141 356 141q69 0 133.5 -20t92.5 -45l26 -21h4q-63 167 -223 273l-370 -164l-21 127l254 113q-118 60 -264 94l55 162q247 -58 424 -164l285 125l18 -125l-188 -86q295 -246 295 -660q0 -223 -119 -397q-61 -88 -166 -139.5t-236 -51.5 q-222 0 -354 150q-131 149 -131 356zM293 477q0 -135 76 -233q76 -99 213 -99q154 0 231 115q80 118 80 268q0 118 -79.5 192.5t-209.5 74.5q-148 0 -231 -95q-80 -92 -80 -223z" />
<glyph unicode="&#xf1;" horiz-adv-x="1234" d="M154 0v1036h192v-141l-6 -78h4q43 94 139 166q104 78 254 78q355 0 355 -397v-664h-199v618q0 133 -42.5 197t-152.5 64q-148 0 -247 -111q-99 -108 -99 -270v-498h-198zM293 1190q0 260 209 260q33 0 65 -14.5t57 -35t48 -40.5t45.5 -34.5t42.5 -14.5q39 0 59.5 37.5 t20.5 95.5h143q0 -260 -209 -260q-34 0 -66 14.5t-57.5 35t-48 40.5t-45 34.5t-41.5 14.5q-80 0 -80 -133h-143z" />
<glyph unicode="&#xf2;" horiz-adv-x="1288" d="M86 520q0 233 162 385q164 156 395 156q232 0 397 -154q162 -152 162 -387q0 -234 -162 -389q-164 -156 -395 -156q-233 0 -397 156q-162 155 -162 389zM289 520q0 -160 102 -268q105 -105 254 -105q148 0 252 107t104 266q0 160 -104 264q-105 105 -252 105 q-149 0 -254 -105q-102 -105 -102 -264zM369 1448h213l149 -260h-168z" />
<glyph unicode="&#xf3;" horiz-adv-x="1288" d="M86 520q0 233 162 385q164 156 395 156q232 0 397 -154q162 -152 162 -387q0 -234 -162 -389q-164 -156 -395 -156q-233 0 -397 156q-162 155 -162 389zM289 520q0 -160 102 -268q105 -105 254 -105q148 0 252 107t104 266q0 160 -104 264q-105 105 -252 105 q-149 0 -254 -105q-102 -105 -102 -264zM555 1188l147 260h216l-197 -260h-166z" />
<glyph unicode="&#xf4;" horiz-adv-x="1288" d="M86 520q0 233 162 385q164 156 395 156q232 0 397 -154q162 -152 162 -387q0 -234 -162 -389q-164 -156 -395 -156q-233 0 -397 156q-162 155 -162 389zM289 520q0 -160 102 -268q105 -105 254 -105q148 0 252 107t104 266q0 160 -104 264q-105 105 -252 105 q-149 0 -254 -105q-102 -105 -102 -264zM360 1188l181 260h204l183 -260h-174l-109 164h-4l-106 -164h-175z" />
<glyph unicode="&#xf5;" horiz-adv-x="1288" d="M86 520q0 233 162 385q164 156 395 156q232 0 397 -154q162 -152 162 -387q0 -234 -162 -389q-164 -156 -395 -156q-233 0 -397 156q-162 155 -162 389zM289 520q0 -160 102 -268q105 -105 254 -105q148 0 252 107t104 266q0 160 -104 264q-105 105 -252 105 q-149 0 -254 -105q-102 -105 -102 -264zM299 1190q0 260 209 260q33 0 65 -14.5t57 -35t48 -40.5t45.5 -34.5t42.5 -14.5q39 0 59.5 37.5t20.5 95.5h143q0 -260 -209 -260q-34 0 -66 14.5t-57.5 35t-48 40.5t-45 34.5t-41.5 14.5q-80 0 -80 -133h-143z" />
<glyph unicode="&#xf6;" horiz-adv-x="1288" d="M86 520q0 233 162 385q164 156 395 156q232 0 397 -154q162 -152 162 -387q0 -234 -162 -389q-164 -156 -395 -156q-233 0 -397 156q-162 155 -162 389zM289 520q0 -160 102 -268q105 -105 254 -105q148 0 252 107t104 266q0 160 -104 264q-105 105 -252 105 q-149 0 -254 -105q-102 -105 -102 -264zM391 1241v207h164v-207h-164zM735 1241v207h162v-207h-162z" />
<glyph unicode="&#xf7;" horiz-adv-x="1181" d="M74 504v160h1034v-160h-1034zM494 90v186h192v-186h-192zM494 891v186h192v-186h-192z" />
<glyph unicode="&#xf8;" horiz-adv-x="1290" d="M86 520q0 235 162 387q165 154 397 154q147 0 277 -68l82 113l96 -70l-80 -110q184 -156 184 -406q0 -233 -164 -389t-395 -156q-144 0 -262 62l-80 -115l-98 70l78 108q-197 159 -197 420zM289 520q0 -157 104 -264l422 588q-74 45 -170 45q-147 0 -252 -105 q-104 -104 -104 -264zM489 184q75 -37 156 -37q150 0 252 105q104 107 104 268q0 148 -94 246z" />
<glyph unicode="&#xf9;" horiz-adv-x="1222" d="M141 373v663h199v-618q0 -130 43.5 -194t151.5 -64q153 0 245 114q92 115 92 277v485h197v-1036h-192v143l8 76h-4q-40 -90 -144 -168q-101 -76 -241 -76q-355 0 -355 398zM332 1448h213l149 -260h-168z" />
<glyph unicode="&#xfa;" horiz-adv-x="1222" d="M141 373v663h199v-618q0 -130 43.5 -194t151.5 -64q153 0 245 114q92 115 92 277v485h197v-1036h-192v143l8 76h-4q-40 -90 -144 -168q-101 -76 -241 -76q-355 0 -355 398zM516 1188l148 260h215l-197 -260h-166z" />
<glyph unicode="&#xfb;" horiz-adv-x="1222" d="M141 373v663h199v-618q0 -130 43.5 -194t151.5 -64q153 0 245 114q92 115 92 277v485h197v-1036h-192v143l8 76h-4q-40 -90 -144 -168q-101 -76 -241 -76q-355 0 -355 398zM319 1188l181 260h205l182 -260h-174l-109 164h-4l-106 -164h-175z" />
<glyph unicode="&#xfc;" horiz-adv-x="1222" d="M141 373v663h199v-618q0 -130 43.5 -194t151.5 -64q153 0 245 114q92 115 92 277v485h197v-1036h-192v143l8 76h-4q-40 -90 -144 -168q-101 -76 -241 -76q-355 0 -355 398zM352 1241v207h164v-207h-164zM696 1241v207h162v-207h-162z" />
<glyph unicode="&#xfd;" horiz-adv-x="1095" d="M27 1036h223l260 -678l39 -125h4q12 55 35 123l252 680h215l-488 -1222q-44 -117 -133 -180.5t-203 -63.5q-48 0 -97.5 15t-76.5 34l-24 14l69 152q57 -45 119 -45q124 0 189 154l51 118zM461 1188l147 260h215l-196 -260h-166z" />
<glyph unicode="&#xfe;" horiz-adv-x="1228" d="M154 -410v1856h198v-473l-4 -84h4q44 80 129.5 126t198.5 46q206 0 334 -152q125 -149 125 -391t-131 -391q-131 -152 -334 -152q-101 0 -190 45t-132 125h-4q4 -50 4 -90v-465h-198zM346 516q0 -165 81.5 -268t215.5 -103q128 0 211 103q84 107 84 270q0 165 -82 266 q-80 105 -209 105q-135 0 -218 -95.5t-83 -277.5z" />
<glyph unicode="&#xff;" horiz-adv-x="1095" d="M27 1036h223l260 -678l39 -125h4q12 55 35 123l252 680h215l-488 -1222q-44 -117 -133 -180.5t-203 -63.5q-48 0 -97.5 15t-76.5 34l-24 14l69 152q57 -45 119 -45q124 0 189 154l51 118zM297 1241v207h164v-207h-164zM641 1241v207h162v-207h-162z" />
<glyph unicode="&#x100;" horiz-adv-x="1312" d="M31 0l518 1446h215l518 -1446h-209l-145 416h-545l-145 -416h-207zM395 1606v145h520v-145h-520zM436 584h438l-159 456l-58 207h-4q-26 -115 -55 -207z" />
<glyph unicode="&#x101;" horiz-adv-x="1079" d="M68 283q0 113 62 191.5t169 111.5q177 59 387 59h53v21q0 227 -227 227q-153 0 -291 -100l-80 145q63 54 172 88.5t215 34.5q197 0 303.5 -105t106.5 -301v-655h-186v104l6 82h-4q-48 -94 -140 -152.5t-200 -58.5q-140 0 -244 84q-102 83 -102 224zM266 299 q0 -70 53 -118t142 -48q124 0 201 103t77 227v39h-51q-422 0 -422 -203zM274 1247v146h521v-146h-521z" />
<glyph unicode="&#x102;" horiz-adv-x="1312" d="M31 0l518 1446h215l518 -1446h-209l-145 416h-545l-145 -416h-207zM385 1778v28h147v-26q0 -59 34.5 -91t88.5 -32q52 0 86.5 33t34.5 92v24h148v-28q0 -109 -77.5 -174.5t-191.5 -65.5q-116 0 -193 65t-77 175zM436 584h438l-159 456l-58 207h-4q-26 -115 -55 -207z" />
<glyph unicode="&#x103;" horiz-adv-x="1079" d="M68 283q0 113 62 191.5t169 111.5q177 59 387 59h53v21q0 227 -227 227q-153 0 -291 -100l-80 145q63 54 172 88.5t215 34.5q197 0 303.5 -105t106.5 -301v-655h-186v104l6 82h-4q-48 -94 -140 -152.5t-200 -58.5q-140 0 -244 84q-102 83 -102 224zM262 1419v29h148v-27 q0 -59 34 -91t88 -32q52 0 86.5 33t34.5 92v25h148v-29q0 -109 -77.5 -174t-191.5 -65q-116 0 -193 64.5t-77 174.5zM266 299q0 -70 53 -118t142 -48q124 0 201 103t77 227v39h-51q-422 0 -422 -203z" />
<glyph unicode="&#x104;" horiz-adv-x="1312" d="M31 0l518 1446h215l518 -1446q-131 -104 -131 -182q0 -33 26.5 -55t59.5 -29l27 -4l-47 -154q-20 0 -82 18q-64 18 -110 62t-46 115q0 121 135 229h-41l-145 416h-545l-145 -416h-207zM436 584h438l-159 456l-58 207h-4q-26 -115 -55 -207z" />
<glyph unicode="&#x105;" horiz-adv-x="1079" d="M68 283q0 113 62 191.5t169 111.5q177 59 387 59h53v21q0 227 -227 227q-153 0 -291 -100l-80 145q63 54 172 88.5t215 34.5q197 0 303.5 -105t106.5 -301v-655q-133 -103 -133 -182q0 -33 25.5 -55t58.5 -29l29 -4l-46 -154q-22 0 -84 18q-64 18 -109.5 62t-45.5 115 q0 115 141 229h-22v104l6 82h-4q-48 -94 -140 -152.5t-200 -58.5q-140 0 -244 84q-102 83 -102 224zM266 299q0 -70 53 -118t142 -48q124 0 201 103t77 227v39h-51q-422 0 -422 -203z" />
<glyph unicode="&#x106;" horiz-adv-x="1468" d="M102 731q0 316 207 529q207 210 529 210q329 0 528 -190l-102 -152q-79 72 -193.5 115t-224.5 43q-245 0 -391 -158q-144 -156 -144 -395q0 -237 148 -405q147 -166 391 -166q121 0 238.5 50t205.5 138l109 -145q-230 -230 -559 -230q-331 0 -537 215q-205 217 -205 541z M733 1546l148 260h215l-197 -260h-166z" />
<glyph unicode="&#x107;" horiz-adv-x="1116" d="M86 518q0 231 156 387t399 156t389 -152l-94 -139q-119 119 -287 119q-157 0 -258 -107q-102 -105 -102 -262q0 -158 102 -266q104 -107 264 -107q86 0 173 38.5t147 101.5l80 -146q-73 -76 -183.5 -121t-230.5 -45q-242 0 -399 154q-156 153 -156 389zM510 1188l147 260 h215l-196 -260h-166z" />
<glyph unicode="&#x108;" horiz-adv-x="1468" d="M102 731q0 316 207 529q207 210 529 210q329 0 528 -190l-102 -152q-79 72 -193.5 115t-224.5 43q-245 0 -391 -158q-144 -156 -144 -395q0 -237 148 -405q147 -166 391 -166q121 0 238.5 50t205.5 138l109 -145q-230 -230 -559 -230q-331 0 -537 215q-205 217 -205 541z M539 1546l180 260h205l182 -260h-174l-109 164h-4l-106 -164h-174z" />
<glyph unicode="&#x109;" horiz-adv-x="1116" d="M86 518q0 231 156 387t399 156t389 -152l-94 -139q-119 119 -287 119q-157 0 -258 -107q-102 -105 -102 -262q0 -158 102 -266q104 -107 264 -107q86 0 173 38.5t147 101.5l80 -146q-73 -76 -183.5 -121t-230.5 -45q-242 0 -399 154q-156 153 -156 389zM315 1188l181 260 h204l183 -260h-174l-109 164h-4l-107 -164h-174z" />
<glyph unicode="&#x10a;" horiz-adv-x="1468" d="M102 731q0 316 207 529q207 210 529 210q329 0 528 -190l-102 -152q-79 72 -193.5 115t-224.5 43q-245 0 -391 -158q-144 -156 -144 -395q0 -237 148 -405q147 -166 391 -166q121 0 238.5 50t205.5 138l109 -145q-230 -230 -559 -230q-331 0 -537 215q-205 217 -205 541z M735 1606v200h176v-200h-176z" />
<glyph unicode="&#x10b;" horiz-adv-x="1116" d="M86 518q0 231 156 387t399 156t389 -152l-94 -139q-119 119 -287 119q-157 0 -258 -107q-102 -105 -102 -262q0 -158 102 -266q104 -107 264 -107q86 0 173 38.5t147 101.5l80 -146q-73 -76 -183.5 -121t-230.5 -45q-242 0 -399 154q-156 153 -156 389zM514 1247v201h176 v-201h-176z" />
<glyph unicode="&#x10c;" horiz-adv-x="1468" d="M102 731q0 316 207 529q207 210 529 210q329 0 528 -190l-102 -152q-79 72 -193.5 115t-224.5 43q-245 0 -391 -158q-144 -156 -144 -395q0 -237 148 -405q147 -166 391 -166q121 0 238.5 50t205.5 138l109 -145q-230 -230 -559 -230q-331 0 -537 215q-205 217 -205 541z M539 1806h174l106 -166h4l109 166h174l-182 -260h-205z" />
<glyph unicode="&#x10d;" horiz-adv-x="1116" d="M86 518q0 231 156 387t399 156t389 -152l-94 -139q-119 119 -287 119q-157 0 -258 -107q-102 -105 -102 -262q0 -158 102 -266q104 -107 264 -107q86 0 173 38.5t147 101.5l80 -146q-73 -76 -183.5 -121t-230.5 -45q-242 0 -399 154q-156 153 -156 389zM315 1448h174 l107 -166h4l109 166h174l-183 -260h-204z" />
<glyph unicode="&#x10e;" horiz-adv-x="1509" d="M190 0v1446h482q333 0 532 -193q199 -190 199 -528q0 -339 -199 -532t-532 -193h-482zM393 176h264q250 0 393.5 144t143.5 405q0 257 -144.5 401t-392.5 144h-264v-1094zM416 1806h174l106 -166h4l109 166h174l-182 -260h-205z" />
<glyph unicode="&#x10f;" horiz-adv-x="1249" d="M90 518q0 247 131 393q132 150 338 150q101 0 187 -44.5t135 -125.5h4q-4 40 -4 70v485h196v-1446h-188v104l6 70h-4q-49 -91 -139 -145t-205 -54q-206 0 -332 150q-125 149 -125 393zM293 518q0 -167 81 -269t212 -102q133 0 216 97t83 276q0 148 -78 258 q-77 109 -217 109q-130 0 -213.5 -101t-83.5 -268zM1180 1147q39 107 39 172q0 58 -25 125h174q14 -52 14 -105q0 -87 -51 -192h-151z" />
<glyph unicode="&#x110;" horiz-adv-x="1521" d="M84 639v168h119v639h481q334 0 533 -193q198 -189 198 -528q0 -340 -198 -532q-199 -193 -533 -193h-481v639h-119zM403 176h267q250 0 393 144t143 405q0 257 -144 401t-392 144h-267v-463h308v-168h-308v-463z" />
<glyph unicode="&#x111;" horiz-adv-x="1230" d="M90 518q0 247 131 393q132 150 338 150q101 0 187.5 -43t132.5 -121h4q-2 20 -2 70v186h-269v129h269v164h196v-164h156v-129h-156v-1153h-188v98l2 70h-4q-48 -90 -136.5 -141.5t-203.5 -51.5q-206 0 -332 150q-125 149 -125 393zM293 518q0 -167 81 -269t212 -102 q133 0 216 97t83 276q0 150 -78 260q-77 109 -217 109q-130 0 -213.5 -101.5t-83.5 -269.5z" />
<glyph unicode="&#x112;" horiz-adv-x="1155" d="M190 0v1446h842v-176h-639v-453h518v-176h-518v-465h674v-176h-877zM375 1606v145h520v-145h-520z" />
<glyph unicode="&#x113;" horiz-adv-x="1140" d="M86 518q0 243 147 393t373 150q209 0 330 -139q119 -137 119 -347q0 -31 -8 -83h-754q9 -165 108 -254q105 -91 248 -91q169 0 305 121l84 -145q-73 -67 -182.5 -107.5t-218.5 -40.5q-240 0 -397 154q-154 157 -154 389zM299 635h555q-4 127 -74 199.5t-178 72.5 q-118 0 -200.5 -73t-102.5 -199zM346 1247v146h520v-146h-520z" />
<glyph unicode="&#x114;" horiz-adv-x="1155" d="M190 0v1446h842v-176h-639v-453h518v-176h-518v-465h674v-176h-877zM363 1778v28h147v-26q0 -59 34.5 -91t88.5 -32q52 0 86.5 33t34.5 92v24h147v-28q0 -109 -77 -174.5t-191 -65.5q-116 0 -193 65t-77 175z" />
<glyph unicode="&#x115;" horiz-adv-x="1140" d="M86 518q0 243 147 393t373 150q209 0 330 -139q119 -137 119 -347q0 -31 -8 -83h-754q9 -165 108 -254q105 -91 248 -91q169 0 305 121l84 -145q-73 -67 -182.5 -107.5t-218.5 -40.5q-240 0 -397 154q-154 157 -154 389zM299 635h555q-4 127 -74 199.5t-178 72.5 q-118 0 -200.5 -73t-102.5 -199zM334 1419v29h147v-27q0 -59 34.5 -91t88.5 -32q52 0 86.5 33t34.5 92v25h147v-29q0 -109 -77 -174t-191 -65q-116 0 -193 64.5t-77 174.5z" />
<glyph unicode="&#x116;" horiz-adv-x="1155" d="M190 0v1446h842v-176h-639v-453h518v-176h-518v-465h674v-176h-877zM545 1606v200h176v-200h-176z" />
<glyph unicode="&#x117;" horiz-adv-x="1140" d="M86 518q0 243 147 393t373 150q209 0 330 -139q119 -137 119 -347q0 -31 -8 -83h-754q9 -165 108 -254q105 -91 248 -91q169 0 305 121l84 -145q-73 -67 -182.5 -107.5t-218.5 -40.5q-240 0 -397 154q-154 157 -154 389zM299 635h555q-4 127 -74 199.5t-178 72.5 q-118 0 -200.5 -73t-102.5 -199zM516 1247v201h176v-201h-176z" />
<glyph unicode="&#x118;" horiz-adv-x="1155" d="M190 0v1446h842v-176h-639v-453h518v-176h-518v-465h674v-176q-133 -103 -133 -182q0 -33 26.5 -55t59.5 -29l29 -4l-48 -154q-19 0 -81 18q-64 18 -110 62t-46 115q0 120 145 229h-719z" />
<glyph unicode="&#x119;" horiz-adv-x="1140" d="M86 518q0 243 147 393t373 150q209 0 330 -139q119 -137 119 -347l-8 -83h-754q9 -165 108 -254q105 -91 248 -91q166 0 305 121l82 -145q-17 -17 -100 -78q-85 -62 -129.5 -116.5t-44.5 -110.5q0 -33 26.5 -55t59.5 -29l26 -4l-45 -154q-22 0 -84 18q-64 18 -109.5 62 t-45.5 115q0 109 125 213q-47 -9 -78 -9q-240 0 -397 154q-154 157 -154 389zM299 635h555q-4 127 -74 199.5t-178 72.5q-117 0 -200 -74t-103 -198z" />
<glyph unicode="&#x11a;" horiz-adv-x="1155" d="M190 0v1446h842v-176h-639v-453h518v-176h-518v-465h674v-176h-877zM348 1806h174l107 -166h4l108 166h174l-182 -260h-205z" />
<glyph unicode="&#x11b;" horiz-adv-x="1140" d="M86 518q0 243 147 393t373 150q209 0 330 -139q119 -137 119 -347q0 -31 -8 -83h-754q9 -165 108 -254q105 -91 248 -91q169 0 305 121l84 -145q-73 -67 -182.5 -107.5t-218.5 -40.5q-240 0 -397 154q-154 157 -154 389zM299 635h555q-4 127 -74 199.5t-178 72.5 q-118 0 -200.5 -73t-102.5 -199zM319 1448h175l106 -166h4l109 166h174l-182 -260h-205z" />
<glyph unicode="&#x11c;" horiz-adv-x="1560" d="M102 725q0 316 211 530q212 215 527 215q317 0 526 -176l-102 -149q-74 62 -188 101.5t-222 39.5q-244 0 -395 -160q-148 -160 -148 -397q0 -246 152 -407q151 -160 379 -160q235 0 409 180v209h-233v176h420v-727h-178v90l2 62h-5q-76 -80 -195.5 -128.5t-248.5 -48.5 q-299 0 -504 211q-207 213 -207 539zM532 1546l181 260h204l183 -260h-174l-109 164h-4l-107 -164h-174z" />
<glyph unicode="&#x11d;" horiz-adv-x="1216" d="M92 541q0 229 121 374q122 146 332 146q108 0 194.5 -40.5t132.5 -117.5h7q-7 14 -7 31v102h191v-993q0 -123 -44 -217t-119.5 -148.5t-166 -81t-192.5 -26.5q-181 0 -355 86l66 156q137 -70 285 -70q152 0 239.5 73t87.5 216v84l6 65h-4q-101 -168 -311 -168 q-212 0 -338 150q-125 149 -125 379zM293 547q0 -165 81 -264t220 -99q128 0 201 87.5t73 269.5q0 348 -293 348q-133 0 -207.5 -91t-74.5 -251zM307 1188l180 260h205l182 -260h-174l-108 164h-4l-107 -164h-174z" />
<glyph unicode="&#x11e;" horiz-adv-x="1560" d="M102 725q0 316 211 530q212 215 527 215q317 0 526 -176l-102 -149q-74 62 -188 101.5t-222 39.5q-244 0 -395 -160q-148 -160 -148 -397q0 -246 152 -407q151 -160 379 -160q235 0 409 180v209h-233v176h420v-727h-178v90l2 62h-5q-76 -80 -195.5 -128.5t-248.5 -48.5 q-299 0 -504 211q-207 213 -207 539zM549 1778v28h147v-26q0 -59 34.5 -91t88.5 -32q52 0 86.5 33t34.5 92v24h147v-28q0 -109 -77 -174.5t-191 -65.5q-116 0 -193 65t-77 175z" />
<glyph unicode="&#x11f;" horiz-adv-x="1216" d="M92 541q0 229 121 374q122 146 332 146q108 0 194.5 -40.5t132.5 -117.5h7q-7 14 -7 31v102h191v-993q0 -123 -44 -217t-119.5 -148.5t-166 -81t-192.5 -26.5q-181 0 -355 86l66 156q137 -70 285 -70q152 0 239.5 73t87.5 216v84l6 65h-4q-101 -168 -311 -168 q-212 0 -338 150q-125 149 -125 379zM293 547q0 -165 81 -264t220 -99q128 0 201 87.5t73 269.5q0 348 -293 348q-133 0 -207.5 -91t-74.5 -251zM322 1419v29h147v-27q0 -59 34.5 -91t88.5 -32q52 0 86.5 33t34.5 92v25h147v-29q0 -109 -77 -174t-191 -65q-116 0 -193 64.5 t-77 174.5z" />
<glyph unicode="&#x120;" horiz-adv-x="1560" d="M102 725q0 316 211 530q212 215 527 215q317 0 526 -176l-102 -149q-74 62 -188 101.5t-222 39.5q-244 0 -395 -160q-148 -160 -148 -397q0 -246 152 -407q151 -160 379 -160q235 0 409 180v209h-233v176h420v-727h-178v90l2 62h-5q-76 -80 -195.5 -128.5t-248.5 -48.5 q-299 0 -504 211q-207 213 -207 539zM731 1606v200h176v-200h-176z" />
<glyph unicode="&#x121;" horiz-adv-x="1216" d="M92 541q0 229 121 374q122 146 332 146q108 0 194.5 -40.5t132.5 -117.5h7q-7 14 -7 31v102h191v-993q0 -123 -44 -217t-119.5 -148.5t-166 -81t-192.5 -26.5q-181 0 -355 86l66 156q137 -70 285 -70q152 0 239.5 73t87.5 216v84l6 65h-4q-101 -168 -311 -168 q-212 0 -338 150q-125 149 -125 379zM293 547q0 -165 81 -264t220 -99q128 0 201 87.5t73 269.5q0 348 -293 348q-133 0 -207.5 -91t-74.5 -251zM504 1247v201h176v-201h-176z" />
<glyph unicode="&#x122;" horiz-adv-x="1560" d="M102 725q0 316 211 530q212 215 527 215q317 0 526 -176l-102 -149q-74 62 -188 101.5t-222 39.5q-244 0 -395 -160q-148 -160 -148 -397q0 -246 152 -407q151 -160 379 -160q235 0 409 180v209h-233v176h420v-727h-178v90l2 62h-5q-76 -80 -195.5 -128.5t-248.5 -48.5 q-299 0 -504 211q-207 213 -207 539zM705 -418q38 104 38 172q0 60 -24 125h174q14 -52 14 -104q0 -88 -51 -193h-151z" />
<glyph unicode="&#x123;" horiz-adv-x="1216" d="M92 541q0 229 121 374q122 146 332 146q108 0 194.5 -40.5t132.5 -117.5h7q-7 14 -7 31v102h191v-993q0 -123 -44 -217t-119.5 -148.5t-166 -81t-192.5 -26.5q-181 0 -355 86l66 156q137 -70 285 -70q152 0 239.5 73t87.5 216v84l6 65h-4q-101 -168 -311 -168 q-212 0 -338 150q-125 149 -125 379zM293 547q0 -165 81 -264t220 -99q128 0 201 87.5t73 269.5q0 348 -293 348q-133 0 -207.5 -91t-74.5 -251zM496 1255q0 86 51 191h149q-39 -107 -39 -170q0 -56 25 -123h-172q-14 52 -14 102z" />
<glyph unicode="&#x124;" horiz-adv-x="1536" d="M190 0v1446h203v-635h752v635h201v-1446h-201v635h-752v-635h-203zM483 1546l181 260h204l183 -260h-174l-109 164h-4l-107 -164h-174z" />
<glyph unicode="&#x125;" horiz-adv-x="1234" d="M-27 1546l181 260h204l183 -260h-174l-109 164h-4l-107 -164h-174zM154 0v1446h198v-537l-8 -86h4q45 91 146 164q103 74 243 74q355 0 355 -397v-664h-199v618q0 133 -42.5 197t-152.5 64q-148 0 -247 -111q-99 -108 -99 -276v-492h-198z" />
<glyph unicode="&#x126;" horiz-adv-x="1554" d="M70 1053v137h135v256h205v-256h735v256h205v-256h133v-137h-133v-1053h-205v635h-735v-635h-205v1053h-135zM410 811h735v242h-735v-242z" />
<glyph unicode="&#x127;" horiz-adv-x="1234" d="M6 1153v129h148v164h198v-164h273v-129h-273v-238l-4 -86h4q41 90 142 160q104 72 243 72q355 0 355 -397v-664h-199v618q0 133 -42.5 197t-152.5 64q-155 0 -249 -113q-97 -114 -97 -268v-498h-198v1153h-148z" />
<glyph unicode="&#x128;" horiz-adv-x="585" d="M-49 1548q0 260 209 260q33 0 65 -14.5t57 -35t48 -40.5t45.5 -34.5t42.5 -14.5q39 0 59.5 37.5t20.5 95.5h143q0 -260 -209 -260q-74 0 -147 70q-69 69 -111 69q-80 0 -80 -133h-143zM190 0v1446h203v-1446h-203z" />
<glyph unicode="&#x129;" horiz-adv-x="503" d="M-88 1190q0 260 209 260q75 0 145 -70q72 -69 113 -69q39 0 59.5 37.5t20.5 95.5h143q0 -260 -209 -260q-34 0 -66 14.5t-57.5 35t-48 40.5t-45 34.5t-41.5 14.5q-80 0 -80 -133h-143zM154 0v1036h198v-1036h-198z" />
<glyph unicode="&#x12a;" horiz-adv-x="585" d="M37 1606v145h520v-145h-520zM190 0v1446h203v-1446h-203z" />
<glyph unicode="&#x12b;" horiz-adv-x="503" d="M-4 1247v146h520v-146h-520zM154 0v1036h198v-1036h-198z" />
<glyph unicode="&#x12c;" horiz-adv-x="585" d="M27 1778v28h147v-26q0 -59 34.5 -91t88.5 -32q52 0 86.5 33t34.5 92v24h147v-28q0 -109 -77 -174.5t-191 -65.5q-116 0 -193 65t-77 175zM190 0v1446h203v-1446h-203z" />
<glyph unicode="&#x12d;" horiz-adv-x="503" d="M-14 1419v29h147v-27q0 -59 34.5 -91t88.5 -32q52 0 86.5 33t34.5 92v25h147v-29q0 -109 -77 -174t-191 -65q-116 0 -193 64.5t-77 174.5zM154 0v1036h198v-1036h-198z" />
<glyph unicode="&#x12e;" horiz-adv-x="585" d="M90 -229q0 117 139 229h-39v1446h203v-1446q-131 -104 -131 -182q0 -33 26.5 -55t59.5 -29l27 -4l-47 -154q-20 0 -82 18q-64 18 -110 62t-46 115z" />
<glyph unicode="&#x12f;" horiz-adv-x="505" d="M49 -229q0 115 141 229h-36v1036h198v-1036q-131 -104 -131 -182q0 -33 26.5 -55t59.5 -29l27 -4l-45 -154q-22 0 -84 18q-64 18 -110 62t-46 115zM150 1245v201h204v-201h-204z" />
<glyph unicode="&#x130;" horiz-adv-x="585" d="M190 0v1446h203v-1446h-203zM209 1606v200h176v-200h-176z" />
<glyph unicode="&#x131;" horiz-adv-x="503" d="M154 0v1036h198v-1036h-198z" />
<glyph unicode="&#x132;" horiz-adv-x="1245" d="M190 0v1446h203v-1446h-203zM582 -8v184q40 0 75.5 7t75 27.5t67 54t46 92t18.5 135.5v954h205v-957q0 -497 -487 -497z" />
<glyph unicode="&#x133;" horiz-adv-x="1009" d="M150 1245v201h204v-201h-204zM154 0v1036h198v-1036h-198zM389 -248q28 -4 45 -4q28 0 54 4t58.5 18.5t55.5 38t39 67t16 101.5v1059h199v-1071q0 -94 -28.5 -169t-73.5 -115q-115 -107 -295 -103q-4 0 -70 4v170zM653 1245v201h205v-201h-205z" />
<glyph unicode="&#x134;" horiz-adv-x="1091" d="M57 416v71h201v-61q0 -120 57.5 -192t169.5 -72q103 0 165.5 65t62.5 191v852h-365v176h565v-1030q0 -218 -127 -330q-126 -111 -301 -111q-177 0 -303 111q-125 113 -125 330zM342 1546l180 260h205l182 -260h-174l-108 164h-4l-107 -164h-174z" />
<glyph unicode="&#x135;" horiz-adv-x="503" d="M-115 -248q36 -4 45 -4q28 0 54.5 4t58.5 18.5t55.5 38t39.5 67t16 101.5v1059h198v-1071q0 -94 -28.5 -169t-73.5 -115q-115 -107 -295 -103q-38 0 -70 4v170zM-29 1186l181 260h192l180 -260h-166l-108 166h-4l-107 -166h-168z" />
<glyph unicode="&#x136;" horiz-adv-x="1257" d="M190 0v1446h203v-608h215l367 608h223l-422 -686v-4l449 -756h-232l-385 662h-215v-662h-203zM543 -418q39 107 39 172q0 58 -25 125h174q14 -52 14 -104q0 -88 -51 -193h-151z" />
<glyph unicode="&#x137;" horiz-adv-x="1069" d="M154 0v1446h198v-791h148l280 381h226l-344 -456v-5l382 -575h-231l-309 485h-152v-485h-198zM451 -418q38 104 38 172q0 60 -24 125h174q14 -52 14 -104q0 -88 -51 -193h-151z" />
<glyph unicode="&#x138;" horiz-adv-x="1064" d="M154 0v1036h198v-407h144l297 407h229l-360 -481v-4l366 -551h-237l-291 461h-148v-461h-198z" />
<glyph unicode="&#x139;" horiz-adv-x="1077" d="M190 0v1446h203v-1270h649v-176h-852zM207 1546l147 260h215l-196 -260h-166z" />
<glyph unicode="&#x13a;" horiz-adv-x="546" d="M154 285v1161h196v-1129q0 -81 28 -114t85 -33q27 0 35 2v-176q-44 -6 -66 -6q-278 0 -278 295zM168 1546l147 260h215l-196 -260h-166z" />
<glyph unicode="&#x13b;" horiz-adv-x="1077" d="M190 0v1446h203v-1270h649v-176h-852zM522 -418q39 107 39 172q0 60 -24 125h174q14 -52 14 -104q0 -88 -51 -193h-152z" />
<glyph unicode="&#x13c;" horiz-adv-x="546" d="M154 285v1161h196v-1129q0 -81 28 -114t85 -33q27 0 35 2v-176q-44 -6 -66 -6q-278 0 -278 295zM221 -418q39 107 39 172q0 60 -24 125h174q14 -52 14 -104q0 -88 -51 -193h-152z" />
<glyph unicode="&#x13d;" horiz-adv-x="1079" d="M190 0v1446h203v-1270h649v-176h-852zM551 1147q39 107 39 172q0 58 -25 125h174q15 -56 15 -105q0 -85 -52 -192h-151z" />
<glyph unicode="&#x13e;" horiz-adv-x="563" d="M154 285v1161h196v-1129q0 -81 28 -114t85 -33q27 0 35 2v-176q-44 -6 -66 -6q-278 0 -278 295zM455 1147q39 107 39 172q0 58 -25 125h174q14 -52 14 -105q0 -87 -51 -192h-151z" />
<glyph unicode="&#x13f;" horiz-adv-x="1079" d="M190 0v1446h203v-1270h649v-176h-852zM631 668v215h207v-215h-207z" />
<glyph unicode="&#x140;" horiz-adv-x="702" d="M154 285v1161h196v-1129q0 -81 28 -114t85 -33q27 0 35 2v-176q-44 -6 -66 -6q-278 0 -278 295zM498 668v215h207v-215h-207z" />
<glyph unicode="&#x141;" horiz-adv-x="1087" d="M80 547v198l123 70v631h200v-516l224 129v-199l-224 -129v-555h648v-176h-848v616z" />
<glyph unicode="&#x142;" horiz-adv-x="585" d="M33 563v199l149 86v598h199v-483l168 96v-199l-168 -98v-445q0 -147 111 -147l36 2v-176q-30 -6 -67 -6q-279 0 -279 295v364z" />
<glyph unicode="&#x143;" horiz-adv-x="1540" d="M190 0v1446h201l645 -938l119 -211h4q-12 129 -12 211v938h201v-1446h-199l-645 938l-119 211h-4q12 -129 12 -211v-938h-203zM680 1546l147 260h215l-196 -260h-166z" />
<glyph unicode="&#x144;" horiz-adv-x="1234" d="M154 0v1036h192v-141l-6 -78h4q43 94 139 166q104 78 254 78q355 0 355 -397v-664h-199v618q0 133 -42.5 197t-152.5 64q-148 0 -247 -111q-99 -108 -99 -270v-498h-198zM549 1188l147 260h215l-196 -260h-166z" />
<glyph unicode="&#x145;" horiz-adv-x="1540" d="M190 0v1446h201l645 -938l119 -211h4q-12 129 -12 211v938h201v-1446h-199l-645 938l-119 211h-4q12 -129 12 -211v-938h-203zM662 -418q38 104 38 172q0 60 -24 125h174q14 -52 14 -104q0 -88 -51 -193h-151z" />
<glyph unicode="&#x146;" horiz-adv-x="1234" d="M154 0v1036h192v-141l-6 -78h4q43 94 139 166q104 78 254 78q355 0 355 -397v-664h-199v618q0 133 -42.5 197t-152.5 64q-148 0 -247 -111q-99 -108 -99 -270v-498h-198zM512 -418q39 107 39 172q0 58 -25 125h174q15 -55 15 -104q0 -88 -51 -193h-152z" />
<glyph unicode="&#x147;" horiz-adv-x="1540" d="M190 0v1446h201l645 -938l119 -211h4q-12 129 -12 211v938h201v-1446h-199l-645 938l-119 211h-4q12 -129 12 -211v-938h-203zM485 1806h174l107 -166h4l109 166h174l-183 -260h-204z" />
<glyph unicode="&#x148;" horiz-adv-x="1234" d="M154 0v1036h192v-141l-6 -78h4q43 94 139 166q104 78 254 78q355 0 355 -397v-664h-199v618q0 133 -42.5 197t-152.5 64q-148 0 -247 -111q-99 -108 -99 -270v-498h-198zM354 1448h174l107 -166h4l109 166h174l-183 -260h-204z" />
<glyph unicode="&#x149;" horiz-adv-x="1234" d="M-8 1147q39 107 39 172q0 58 -25 125h174q15 -56 15 -105q0 -85 -52 -192h-151zM154 0v1036h192v-141l-6 -78h4q43 94 139 166q104 78 254 78q355 0 355 -397v-664h-199v618q0 133 -42.5 197t-152.5 64q-148 0 -247 -111q-99 -108 -99 -270v-498h-198z" />
<glyph unicode="&#x14a;" horiz-adv-x="1538" d="M190 0v1446h201l645 -938l119 -211h4q-12 129 -12 211v938h201v-1391q0 -131 -41.5 -229t-114.5 -150q-136 -96 -320 -96v187q97 0 179 61q81 60 90 186l-637 924l-119 211h-4q12 -129 12 -211v-938h-203z" />
<glyph unicode="&#x14b;" horiz-adv-x="1234" d="M154 0v1036h192v-153l-4 -60h4q41 89 139 162q101 76 252 76q355 0 355 -397v-705q0 -94 -29 -169.5t-74 -115.5q-114 -106 -295 -102l-69 4v170q12 -2 45 -2q29 0 54.5 4t58 18t55.5 37t39 66.5t16 101.5v647q0 133 -42.5 197t-152.5 64q-155 0 -249 -113 q-97 -114 -97 -268v-498h-198z" />
<glyph unicode="&#x14c;" horiz-adv-x="1685" d="M100 733q0 313 211 524q213 213 533 213q317 0 530 -213q211 -211 211 -524q0 -323 -211 -540q-212 -218 -530 -218q-321 0 -533 218q-211 217 -211 540zM309 733q0 -241 152 -407q150 -164 383 -164q231 0 381 164q151 165 151 407q0 236 -151 393q-151 160 -381 160 q-232 0 -383 -160q-152 -158 -152 -393zM584 1606v145h520v-145h-520z" />
<glyph unicode="&#x14d;" horiz-adv-x="1288" d="M86 520q0 233 162 385q164 156 395 156q232 0 397 -154q162 -152 162 -387q0 -234 -162 -389q-164 -156 -395 -156q-233 0 -397 156q-162 155 -162 389zM289 520q0 -160 102 -268q105 -105 254 -105q148 0 252 107t104 266q0 160 -104 264q-105 105 -252 105 q-149 0 -254 -105q-102 -105 -102 -264zM385 1247v146h520v-146h-520z" />
<glyph unicode="&#x14e;" horiz-adv-x="1685" d="M100 733q0 313 211 524q213 213 533 213q317 0 530 -213q211 -211 211 -524q0 -323 -211 -540q-212 -218 -530 -218q-321 0 -533 218q-211 217 -211 540zM309 733q0 -241 152 -407q150 -164 383 -164q231 0 381 164q151 165 151 407q0 236 -151 393q-151 160 -381 160 q-232 0 -383 -160q-152 -158 -152 -393zM572 1778v28h147v-26q0 -59 34.5 -91t88.5 -32q52 0 86.5 33t34.5 92v24h147v-28q0 -109 -77 -174.5t-191 -65.5q-116 0 -193 65t-77 175z" />
<glyph unicode="&#x14f;" horiz-adv-x="1288" d="M86 520q0 233 162 385q164 156 395 156q232 0 397 -154q162 -152 162 -387q0 -234 -162 -389q-164 -156 -395 -156q-233 0 -397 156q-162 155 -162 389zM289 520q0 -160 102 -268q105 -105 254 -105q148 0 252 107t104 266q0 160 -104 264q-105 105 -252 105 q-149 0 -254 -105q-102 -105 -102 -264zM373 1419v29h147v-27q0 -59 34.5 -91t88.5 -32q52 0 86.5 33t34.5 92v25h147v-29q0 -109 -77 -174t-191 -65q-116 0 -193 64.5t-77 174.5z" />
<glyph unicode="&#x150;" horiz-adv-x="1685" d="M100 733q0 313 211 524q213 213 533 213q317 0 530 -213q211 -211 211 -524q0 -323 -211 -540q-212 -218 -530 -218q-321 0 -533 218q-211 217 -211 540zM309 733q0 -241 152 -407q150 -164 383 -164q231 0 381 164q151 165 151 407q0 236 -151 393q-151 160 -381 160 q-232 0 -383 -160q-152 -158 -152 -393zM571 1546l139 260h181l-146 -260h-174zM887 1546l149 260h207l-197 -260h-159z" />
<glyph unicode="&#x151;" horiz-adv-x="1288" d="M86 520q0 233 162 385q164 156 395 156q232 0 397 -154q162 -152 162 -387q0 -234 -162 -389q-164 -156 -395 -156q-233 0 -397 156q-162 155 -162 389zM289 520q0 -160 102 -268q105 -105 254 -105q148 0 252 107t104 266q0 160 -104 264q-105 105 -252 105 q-149 0 -254 -105q-102 -105 -102 -264zM373 1188l139 260h180l-145 -260h-174zM688 1188l150 260h206l-196 -260h-160z" />
<glyph unicode="&#x152;" horiz-adv-x="1957" d="M102 725q0 313 213 526q216 213 535 213q43 0 135 -10q73 -8 117 -8h733v-176h-639v-453h520v-176h-520v-465h674v-176h-768q-42 0 -115 -8q-92 -10 -137 -10q-319 0 -535 213q-213 216 -213 530zM311 725q0 -243 150 -406q148 -161 389 -161q77 0 127 12l18 4v1098 q-69 16 -145 16q-238 0 -387 -162q-152 -166 -152 -401z" />
<glyph unicode="&#x153;" horiz-adv-x="2054" d="M86 516q0 240 160 391q165 154 393 154q301 0 448 -246h5q129 246 426 246q211 0 329 -139q119 -137 119 -347l-6 -83h-756q12 -158 112.5 -251.5t244.5 -93.5q168 0 307 121l82 -145q-74 -68 -183 -108t-219 -40q-314 0 -452 252h-4q-144 -252 -453 -252 q-230 0 -393 150q-160 151 -160 391zM289 516q0 -164 102 -266q106 -103 252 -103q149 0 252 103q104 104 104 272q0 163 -104 264q-106 103 -252 103q-147 0 -252 -105q-102 -102 -102 -268zM1210 635h553q-4 125 -72.5 196.5t-174.5 71.5q-117 0 -200 -72t-106 -196z" />
<glyph unicode="&#x154;" horiz-adv-x="1286" d="M190 0v1446h459q187 0 269 -39q107 -48 168 -147t61 -232q0 -140 -70.5 -249.5t-187.5 -147.5v-4q25 -35 41 -66l307 -561h-229l-306 575h-309v-575h-203zM393 752h291q118 0 188 72t70 194q0 168 -135 227q-58 25 -174 25h-240v-518zM537 1546l147 260h215l-196 -260 h-166z" />
<glyph unicode="&#x155;" horiz-adv-x="770" d="M154 0v1036h192v-186l-6 -76h4q39 122 128 198.5t202 76.5q8 0 27 -2t26 -3v-196q-20 4 -57 4q-155 0 -238 -127q-80 -127 -80 -295v-430h-198zM369 1188l147 260h215l-196 -260h-166z" />
<glyph unicode="&#x156;" horiz-adv-x="1286" d="M190 0v1446h459q187 0 269 -39q107 -48 168 -147t61 -232q0 -140 -70.5 -249.5t-187.5 -147.5v-4q25 -35 41 -66l307 -561h-229l-306 575h-309v-575h-203zM393 752h291q118 0 188 72t70 194q0 168 -135 227q-58 25 -174 25h-240v-518zM559 -418q39 107 39 172 q0 58 -25 125h175q14 -52 14 -104q0 -88 -51 -193h-152z" />
<glyph unicode="&#x157;" horiz-adv-x="770" d="M152 -418q38 104 38 172q0 60 -24 125h174q14 -52 14 -104q0 -88 -51 -193h-151zM154 0v1036h192v-186l-6 -76h4q39 122 128 198.5t202 76.5q8 0 27 -2t26 -3v-196q-20 4 -57 4q-155 0 -238 -127q-80 -127 -80 -295v-430h-198z" />
<glyph unicode="&#x158;" horiz-adv-x="1286" d="M190 0v1446h459q187 0 269 -39q107 -48 168 -147t61 -232q0 -140 -70.5 -249.5t-187.5 -147.5v-4q25 -35 41 -66l307 -561h-229l-306 575h-309v-575h-203zM340 1806h174l107 -166h4l109 166h174l-183 -260h-204zM393 752h291q118 0 188 72t70 194q0 168 -135 227 q-58 25 -174 25h-240v-518z" />
<glyph unicode="&#x159;" horiz-adv-x="770" d="M154 0v1036h192v-186l-6 -76h4q39 122 128 198.5t202 76.5q8 0 27 -2t26 -3v-196q-20 4 -57 4q-155 0 -238 -127q-80 -127 -80 -295v-430h-198zM176 1448h174l107 -166h4l108 166h174l-182 -260h-205z" />
<glyph unicode="&#x15a;" horiz-adv-x="1116" d="M84 166l115 153q71 -69 169.5 -112t194.5 -43q115 0 184.5 56.5t69.5 150.5q0 154 -248 256q-175 71 -251 119q-202 126 -199 323q0 179 133 291q134 110 340 110q247 0 403 -147l-92 -166q-62 58 -148.5 92.5t-170.5 34.5q-114 0 -187 -57t-73 -148q0 -29 8.5 -54.5 t20.5 -45t36 -40t42.5 -33.5t54.5 -31t57.5 -27.5l64.5 -28.5t64 -28q107 -49 168 -86q81 -46 130.5 -129.5t49.5 -188.5q0 -175 -123 -295q-123 -117 -338 -117q-281 0 -475 191zM471 1546l147 260h216l-197 -260h-166z" />
<glyph unicode="&#x15b;" horiz-adv-x="915" d="M66 127l94 135q127 -121 305 -121q80 0 128 36t48 99q0 50 -50 88.5t-138 71.5q-39 14 -58.5 21.5t-57.5 24t-59.5 29.5t-52 33t-48 41.5t-35 48t-25.5 59t-8 69.5q0 138 104 218.5t268 80.5q209 0 336 -115l-80 -143q-44 42 -116.5 67t-145.5 25q-81 0 -128.5 -33.5 t-47.5 -95.5q0 -92 188 -162q54 -17 95 -33t91.5 -44.5t83.5 -60.5t55.5 -80t21.5 -105q0 -135 -105 -220q-106 -86 -268 -86q-243 0 -395 152zM367 1188l147 260h215l-197 -260h-165z" />
<glyph unicode="&#x15c;" horiz-adv-x="1116" d="M84 166l115 153q71 -69 169.5 -112t194.5 -43q115 0 184.5 56.5t69.5 150.5q0 154 -248 256q-175 71 -251 119q-202 126 -199 323q0 179 133 291q134 110 340 110q247 0 403 -147l-92 -166q-62 58 -148.5 92.5t-170.5 34.5q-114 0 -187 -57t-73 -148q0 -29 8.5 -54.5 t20.5 -45t36 -40t42.5 -33.5t54.5 -31t57.5 -27.5l64.5 -28.5t64 -28q107 -49 168 -86q81 -46 130.5 -129.5t49.5 -188.5q0 -175 -123 -295q-123 -117 -338 -117q-281 0 -475 191zM279 1546l180 260h205l182 -260h-174l-109 164h-4l-106 -164h-174z" />
<glyph unicode="&#x15d;" horiz-adv-x="915" d="M66 127l94 135q127 -121 305 -121q80 0 128 36t48 99q0 50 -50 88.5t-138 71.5q-39 14 -58.5 21.5t-57.5 24t-59.5 29.5t-52 33t-48 41.5t-35 48t-25.5 59t-8 69.5q0 138 104 218.5t268 80.5q209 0 336 -115l-80 -143q-44 42 -116.5 67t-145.5 25q-81 0 -128.5 -33.5 t-47.5 -95.5q0 -92 188 -162q54 -17 95 -33t91.5 -44.5t83.5 -60.5t55.5 -80t21.5 -105q0 -135 -105 -220q-106 -86 -268 -86q-243 0 -395 152zM178 1188l180 260h205l182 -260h-174l-108 164h-4l-107 -164h-174z" />
<glyph unicode="&#x15e;" horiz-adv-x="1118" d="M84 166l115 153q71 -69 169.5 -112t194.5 -43q115 0 184.5 56.5t69.5 150.5q0 154 -248 256q-175 71 -251 119q-202 126 -199 323q0 179 133 291q134 110 340 110q247 0 403 -147l-92 -166q-62 58 -148.5 92.5t-170.5 34.5q-114 0 -187 -57t-73 -148q0 -29 8.5 -54.5 t20.5 -45t36 -40t42.5 -33.5t54.5 -31t57.5 -27.5l64.5 -28.5t64 -28q107 -49 168 -86q81 -46 130.5 -129.5t49.5 -188.5q0 -163 -109 -278q-111 -117 -297 -132l-16 -79q67 -8 107 -48t40 -102q0 -84 -58 -128t-150 -44q-57 0 -113 12v121q35 -14 86 -14q98 0 98 63 q0 64 -108 64l-37 -2l41 157q-252 21 -420 189z" />
<glyph unicode="&#x15f;" horiz-adv-x="919" d="M68 127l94 135q127 -121 305 -121q80 0 128 36t48 99q0 50 -50 88.5t-138 71.5q-39 14 -58.5 21.5t-57.5 24t-59.5 29.5t-52 33t-48 41.5t-35 48t-25.5 59t-8 69.5q0 138 104 218.5t268 80.5q209 0 336 -115l-80 -143q-44 42 -116.5 67t-145.5 25q-81 0 -128.5 -33.5 t-47.5 -95.5q0 -92 188 -162q58 -19 96.5 -34t90.5 -44t83.5 -60.5t54 -79.5t22.5 -105q0 -123 -90.5 -207.5t-237.5 -96.5l-16 -79q67 -8 107 -48t40 -102q0 -84 -58 -128t-151 -44q-58 0 -113 12v121q32 -14 86 -14q99 0 99 63q0 64 -109 64l-37 -2l41 160 q-206 21 -329 147z" />
<glyph unicode="&#x160;" horiz-adv-x="1116" d="M84 166l115 153q71 -69 169.5 -112t194.5 -43q115 0 184.5 56.5t69.5 150.5q0 154 -248 256q-175 71 -251 119q-202 126 -199 323q0 179 133 291q134 110 340 110q247 0 403 -147l-92 -166q-62 58 -148.5 92.5t-170.5 34.5q-114 0 -187 -57t-73 -148q0 -29 8.5 -54.5 t20.5 -45t36 -40t42.5 -33.5t54.5 -31t57.5 -27.5l64.5 -28.5t64 -28q107 -49 168 -86q81 -46 130.5 -129.5t49.5 -188.5q0 -175 -123 -295q-123 -117 -338 -117q-281 0 -475 191zM279 1806h174l106 -166h4l109 166h174l-182 -260h-205z" />
<glyph unicode="&#x161;" horiz-adv-x="915" d="M66 127l94 135q127 -121 305 -121q80 0 128 36t48 99q0 50 -50 88.5t-138 71.5q-39 14 -58.5 21.5t-57.5 24t-59.5 29.5t-52 33t-48 41.5t-35 48t-25.5 59t-8 69.5q0 138 104 218.5t268 80.5q209 0 336 -115l-80 -143q-44 42 -116.5 67t-145.5 25q-81 0 -128.5 -33.5 t-47.5 -95.5q0 -92 188 -162q54 -17 95 -33t91.5 -44.5t83.5 -60.5t55.5 -80t21.5 -105q0 -135 -105 -220q-106 -86 -268 -86q-243 0 -395 152zM178 1448h174l107 -166h4l108 166h174l-182 -260h-205z" />
<glyph unicode="&#x162;" horiz-adv-x="1259" d="M31 1270v176h1196v-176h-498v-1270h-49l-23 -102q67 -8 107.5 -48t40.5 -102q0 -84 -58 -128t-151 -44q-58 0 -113 12v121q35 -14 86 -14q99 0 99 63q0 64 -109 64l-37 -2l47 180h-41v1270h-497z" />
<glyph unicode="&#x163;" horiz-adv-x="714" d="M61 864v162h140v295h194v-295h250v-162h-250v-463q0 -158 111 -211q74 -34 158 -18v-176q-50 -6 -70 -6q-68 0 -121 12l-22 -104q67 -8 107 -48t40 -102q0 -84 -58 -128t-151 -44q-57 0 -113 12v121q32 -14 86 -14q99 0 99 63q0 64 -109 64l-37 -2l58 219 q-176 89 -176 340v485h-136z" />
<glyph unicode="&#x164;" horiz-adv-x="1259" d="M31 1270v176h1196v-176h-498v-1270h-201v1270h-497zM344 1806h174l107 -166h4l108 166h174l-182 -260h-205z" />
<glyph unicode="&#x165;" horiz-adv-x="714" d="M61 864v162h140v295h194v-295h250v-162h-250v-463q0 -158 111 -211q74 -34 158 -18v-176q-50 -6 -70 -6q-106 0 -197 37q-200 87 -200 352v485h-136zM502 1155q39 107 39 168q0 56 -25 123h174q15 -56 15 -103q0 -81 -52 -188h-151z" />
<glyph unicode="&#x166;" horiz-adv-x="1280" d="M41 1270v176h1196v-176h-498v-479h330v-156h-330v-635h-200v635h-320v156h320v479h-498z" />
<glyph unicode="&#x167;" horiz-adv-x="722" d="M57 530v140h146v194h-135v162h139v295h192v-295h250v-162h-250v-194h240v-140h-240v-137q0 -56 16 -98.5t39.5 -66t55.5 -38t58 -18.5t53 -4l47 4v-176q-27 -6 -70 -6q-102 0 -197 37q-198 84 -198 352v151h-146z" />
<glyph unicode="&#x168;" horiz-adv-x="1486" d="M174 512v934h203v-932q0 -165 99 -258.5t267 -93.5q169 0 267 94t98 260v930h203v-934q0 -242 -156 -389q-157 -148 -410 -148q-256 0 -413 148q-158 149 -158 389zM397 1548q0 260 209 260q33 0 65 -14.5t57 -35t48 -40.5t45.5 -34.5t42.5 -14.5q39 0 59.5 37.5 t20.5 95.5h143q0 -260 -208 -260q-34 0 -66 14.5t-57.5 35t-48 40.5t-45 34.5t-41.5 14.5q-80 0 -80 -133h-144z" />
<glyph unicode="&#x169;" horiz-adv-x="1222" d="M141 373v663h199v-618q0 -130 43.5 -194t151.5 -64q153 0 245 114q92 115 92 277v485h197v-1036h-192v143l8 76h-4q-40 -90 -144 -168q-101 -76 -241 -76q-355 0 -355 398zM260 1190q0 260 209 260q33 0 65 -14.5t57 -35t48 -40.5t45.5 -34.5t42.5 -14.5q39 0 59.5 37.5 t20.5 95.5h143q0 -260 -209 -260q-34 0 -66 14.5t-57.5 35t-48 40.5t-45 34.5t-41.5 14.5q-80 0 -80 -133h-143z" />
<glyph unicode="&#x16a;" horiz-adv-x="1486" d="M174 512v934h203v-932q0 -165 99 -258.5t267 -93.5q169 0 267 94t98 260v930h203v-934q0 -242 -156 -389q-157 -148 -410 -148q-256 0 -413 148q-158 149 -158 389zM483 1606v145h521v-145h-521z" />
<glyph unicode="&#x16b;" horiz-adv-x="1222" d="M141 373v663h199v-618q0 -130 43.5 -194t151.5 -64q153 0 245 114q92 115 92 277v485h197v-1036h-192v143l8 76h-4q-40 -90 -144 -168q-101 -76 -241 -76q-355 0 -355 398zM346 1247v146h520v-146h-520z" />
<glyph unicode="&#x16c;" horiz-adv-x="1486" d="M174 512v934h203v-932q0 -165 99 -258.5t267 -93.5q169 0 267 94t98 260v930h203v-934q0 -242 -156 -389q-157 -148 -410 -148q-256 0 -413 148q-158 149 -158 389zM471 1778v28h147v-26q0 -59 34.5 -91t88.5 -32q52 0 86.5 33t34.5 92v24h147v-28q0 -109 -77 -174.5 t-191 -65.5q-116 0 -193 65t-77 175z" />
<glyph unicode="&#x16d;" horiz-adv-x="1222" d="M141 373v663h199v-618q0 -130 43.5 -194t151.5 -64q153 0 245 114q92 115 92 277v485h197v-1036h-192v143l8 76h-4q-40 -90 -144 -168q-101 -76 -241 -76q-355 0 -355 398zM336 1419v29h147v-27q0 -59 34.5 -91t88.5 -32q52 0 86.5 33t34.5 92v25h147v-29 q0 -109 -77 -174t-191 -65q-116 0 -193 64.5t-77 174.5z" />
<glyph unicode="&#x16e;" horiz-adv-x="1486" d="M174 512v934h203v-932q0 -165 99 -258.5t267 -93.5q169 0 267 94t98 260v930h203v-934q0 -242 -156 -389q-157 -148 -410 -148q-256 0 -413 148q-158 149 -158 389zM567 1673q0 68 50.5 111t123.5 43t122.5 -43t49.5 -111q0 -66 -50.5 -108.5t-121.5 -42.5 q-73 0 -123.5 42.5t-50.5 108.5zM674 1673q0 -30 18.5 -48.5t48.5 -18.5q29 0 48.5 19t19.5 48q0 32 -19 52t-49 20q-31 0 -49 -20t-18 -52z" />
<glyph unicode="&#x16f;" horiz-adv-x="1222" d="M141 373v663h199v-618q0 -130 43.5 -194t151.5 -64q153 0 245 114q92 115 92 277v485h197v-1036h-192v143l8 76h-4q-40 -90 -144 -168q-101 -76 -241 -76q-355 0 -355 398zM432 1315q0 68 50 110.5t124 42.5q73 0 122.5 -42.5t49.5 -110.5q0 -66 -50.5 -109t-121.5 -43 q-73 0 -123.5 43t-50.5 109zM539 1315q0 -30 18.5 -49t48.5 -19q29 0 48.5 19.5t19.5 48.5q0 32 -19 51.5t-49 19.5q-31 0 -49 -19.5t-18 -51.5z" />
<glyph unicode="&#x170;" horiz-adv-x="1486" d="M174 512v934h203v-932q0 -165 99 -258.5t267 -93.5q169 0 267 94t98 260v930h203v-934q0 -242 -156 -389q-157 -148 -410 -148q-256 0 -413 148q-158 149 -158 389zM471 1546l139 260h181l-146 -260h-174zM787 1546l149 260h207l-197 -260h-159z" />
<glyph unicode="&#x171;" horiz-adv-x="1222" d="M141 373v663h199v-618q0 -130 43.5 -194t151.5 -64q153 0 245 114q92 115 92 277v485h197v-1036h-192v143l8 76h-4q-40 -90 -144 -168q-101 -76 -241 -76q-355 0 -355 398zM336 1188l139 260h180l-145 -260h-174zM651 1188l150 260h207l-197 -260h-160z" />
<glyph unicode="&#x172;" horiz-adv-x="1486" d="M176 512v934h201v-932q0 -165 99 -258.5t267 -93.5t267.5 94.5t99.5 259.5v930h201v-934q0 -179 -74 -285q-68 -102 -197 -186q-132 -92 -170 -137q-32 -43 -32 -86q0 -33 25.5 -55t58.5 -29l28 -4l-47 -154q-20 0 -82 18q-64 18 -109.5 62t-45.5 115q0 116 112 206 q-18 -2 -45 -2q-232 0 -395 144q-162 143 -162 393z" />
<glyph unicode="&#x173;" horiz-adv-x="1222" d="M141 373v663h199v-618q0 -130 43.5 -194t151.5 -64q153 0 245 114q92 115 92 277v485h197v-1036q-131 -104 -131 -182q0 -33 26.5 -55t59.5 -29l27 -4l-47 -154q-20 0 -82 18q-64 18 -110 62t-46 115q0 115 141 229h-30v143l8 76h-4q-40 -90 -144 -168q-101 -76 -241 -76 q-355 0 -355 398z" />
<glyph unicode="&#x174;" horiz-adv-x="1927" d="M59 1446h213l252 -1061l29 -154h4q12 76 33 154l284 1061h179l282 -1061l33 -154h4q9 78 27 154l268 1061h209l-381 -1446h-231l-254 938l-43 203h-9q-18 -109 -45 -203l-251 -938h-234zM688 1546l181 260h204l183 -260h-174l-109 164h-4l-107 -164h-174z" />
<glyph unicode="&#x175;" horiz-adv-x="1695" d="M49 1036h211l215 -727l27 -110h4q6 30 29 110l223 725h184l223 -725l27 -110h4q5 34 27 110l217 727h207l-332 -1036h-221l-213 666l-31 112h-4q-8 -37 -29 -112l-213 -666h-221zM563 1188l180 260h205l182 -260h-174l-108 164h-4l-107 -164h-174z" />
<glyph unicode="&#x176;" horiz-adv-x="1212" d="M20 1446h230l266 -475l88 -183h4q54 122 88 183l267 475h229l-485 -834v-612h-201v612zM322 1546l180 260h205l182 -260h-174l-109 164h-4l-106 -164h-174z" />
<glyph unicode="&#x177;" horiz-adv-x="1095" d="M27 1036h223l260 -678l39 -125h4q12 55 35 123l252 680h215l-488 -1222q-44 -117 -133 -180.5t-203 -63.5q-48 0 -97.5 15t-76.5 34l-24 14l69 152q57 -45 119 -45q124 0 189 154l51 118zM266 1188l181 260h204l183 -260h-174l-109 164h-4l-107 -164h-174z" />
<glyph unicode="&#x178;" horiz-adv-x="1212" d="M20 1446h230l266 -475l88 -183h4q54 122 88 183l267 475h229l-485 -834v-612h-201v612zM346 1599v207h164v-207h-164zM690 1599v207h162v-207h-162z" />
<glyph unicode="&#x179;" horiz-adv-x="1216" d="M74 0v135l694 1004q50 73 92 116l12 15v4q-54 -4 -106 -4h-657v176h1015v-133l-696 -1006q-50 -71 -88 -114l-14 -17v-4q50 4 106 4h701v-176h-1059zM541 1546l147 260h215l-196 -260h-166z" />
<glyph unicode="&#x17a;" horiz-adv-x="1046" d="M74 0v115l524 655l84 96v4q-46 -4 -100 -4h-486v170h854v-114l-522 -656q-25 -33 -76 -84l-12 -12v-4q34 6 102 6h527v-172h-895zM426 1188l147 260h215l-196 -260h-166z" />
<glyph unicode="&#x17b;" horiz-adv-x="1216" d="M74 0v135l694 1004q50 73 92 116l12 15v4q-54 -4 -106 -4h-657v176h1015v-133l-696 -1006q-50 -71 -88 -114l-14 -17v-4q50 4 106 4h701v-176h-1059zM543 1606v200h176v-200h-176z" />
<glyph unicode="&#x17c;" horiz-adv-x="1046" d="M74 0v115l524 655l84 96v4q-46 -4 -100 -4h-486v170h854v-114l-522 -656q-25 -33 -76 -84l-12 -12v-4q34 6 102 6h527v-172h-895zM428 1247v201h176v-201h-176z" />
<glyph unicode="&#x17d;" horiz-adv-x="1216" d="M74 0v135l694 1004q50 73 92 116l12 15v4q-54 -4 -106 -4h-657v176h1015v-133l-696 -1006q-50 -71 -88 -114l-14 -17v-4q50 4 106 4h701v-176h-1059zM346 1806h174l107 -166h4l109 166h174l-183 -260h-204z" />
<glyph unicode="&#x17e;" horiz-adv-x="1046" d="M74 0v115l524 655l84 96v4q-46 -4 -100 -4h-486v170h854v-114l-522 -656q-25 -33 -76 -84l-12 -12v-4q34 6 102 6h527v-172h-895zM233 1448h175l106 -166h4l109 166h174l-183 -260h-204z" />
<glyph unicode="&#x17f;" horiz-adv-x="595" d="M74 864v162h129v45q0 94 27.5 168.5t70.5 114.5q109 102 293 102l76 -6v-172q-28 4 -52 4q-36 0 -68 -7.5t-68.5 -28t-58.5 -67t-22 -114.5v-1065h-198v864h-129z" />
<glyph unicode="&#x192;" horiz-adv-x="1181" d="M68 -43q76 -12 135 -12q35 0 67 8t69 30t63 70.5t32 118.5l49 545h-168v160h181l20 208q7 93 41.5 167t81.5 116q127 106 303 102l170 -14v-172q-95 14 -162 14q-35 0 -67.5 -8t-71 -29.5t-64.5 -70t-32 -119.5l-19 -194h240v-160h-254l-49 -561q-10 -118 -57.5 -201 t-118.5 -119q-118 -63 -246 -63l-143 12v172z" />
<glyph unicode="&#x218;" horiz-adv-x="1116" d="M84 166l115 153q71 -69 169.5 -112t194.5 -43q115 0 184.5 56.5t69.5 150.5q0 154 -248 256q-175 71 -251 119q-202 126 -199 323q0 179 133 291q134 110 340 110q247 0 403 -147l-92 -166q-62 58 -148.5 92.5t-170.5 34.5q-114 0 -187 -57t-73 -148q0 -29 8.5 -54.5 t20.5 -45t36 -40t42.5 -33.5t54.5 -31t57.5 -27.5l64.5 -28.5t64 -28q107 -49 168 -86q81 -46 130.5 -129.5t49.5 -188.5q0 -175 -123 -295q-123 -117 -338 -117q-281 0 -475 191zM444 -418q39 107 39 172q0 60 -24 125h174q14 -52 14 -104q0 -88 -51 -193h-152z" />
<glyph unicode="&#x219;" horiz-adv-x="915" d="M66 127l94 135q127 -121 305 -121q80 0 128 36t48 99q0 50 -50 88.5t-138 71.5q-39 14 -58.5 21.5t-57.5 24t-59.5 29.5t-52 33t-48 41.5t-35 48t-25.5 59t-8 69.5q0 138 104 218.5t268 80.5q209 0 336 -115l-80 -143q-44 42 -116.5 67t-145.5 25q-81 0 -128.5 -33.5 t-47.5 -95.5q0 -92 188 -162q54 -17 95 -33t91.5 -44.5t83.5 -60.5t55.5 -80t21.5 -105q0 -135 -105 -220q-106 -86 -268 -86q-243 0 -395 152zM348 -418q39 107 39 172q0 58 -25 125h175q14 -52 14 -104q0 -88 -51 -193h-152z" />
<glyph unicode="&#x21a;" horiz-adv-x="1259" d="M31 1270v176h1196v-176h-498v-1270h-201v1270h-497zM518 -418q39 107 39 172q0 58 -25 125h175q14 -52 14 -104q0 -88 -51 -193h-152z" />
<glyph unicode="&#x21b;" horiz-adv-x="714" d="M61 864v162h140v295h194v-295h250v-162h-250v-463q0 -158 111 -211q74 -34 158 -18v-176q-50 -6 -70 -6q-106 0 -197 37q-200 87 -200 352v485h-136zM326 -418q39 107 39 172q0 58 -25 125h174q14 -52 14 -104q0 -88 -51 -193h-151z" />
<glyph unicode="&#x2c6;" horiz-adv-x="1021" d="M227 1546l181 260h204l183 -260h-174l-109 164h-4l-107 -164h-174z" />
<glyph unicode="&#x2c7;" horiz-adv-x="1021" d="M227 1806h174l107 -166h4l109 166h174l-183 -260h-204z" />
<glyph unicode="&#x2d8;" horiz-adv-x="1021" d="M242 1778v28h147v-26q0 -59 34.5 -91t88.5 -32q52 0 86.5 33t34.5 92v24h147v-28q0 -109 -77 -174.5t-191 -65.5q-116 0 -193 65t-77 175z" />
<glyph unicode="&#x2d9;" horiz-adv-x="1024" d="M424 1606v200h176v-200h-176z" />
<glyph unicode="&#x2da;" horiz-adv-x="1024" d="M338 1673q0 68 50.5 111t123.5 43t122.5 -43t49.5 -111q0 -66 -50.5 -108.5t-121.5 -42.5q-73 0 -123.5 42.5t-50.5 108.5zM444 1673q0 -29 19 -48t49 -19q29 0 48.5 19t19.5 48q0 32 -19 52t-49 20q-31 0 -49.5 -20t-18.5 -52z" />
<glyph unicode="&#x2db;" horiz-adv-x="1021" d="M348 -229q0 45 20.5 90.5t51.5 79.5t58.5 57t51.5 37l21 12l125 -27l-45 -32q-12 -10 -70 -76q-43 -52 -43 -94q0 -33 26.5 -55t59.5 -29l29 -4l-47 -154q-20 0 -82 18q-64 18 -110 62t-46 115z" />
<glyph unicode="&#x2dc;" horiz-adv-x="1021" d="M166 1548q0 260 209 260q33 0 65 -14.5t57 -35t48 -40.5t45.5 -34.5t42.5 -14.5q39 0 59.5 37.5t20.5 95.5h143q0 -260 -209 -260q-34 0 -66 14.5t-57.5 35t-48 40.5t-45 34.5t-41.5 14.5q-80 0 -80 -133h-143z" />
<glyph unicode="&#x2dd;" horiz-adv-x="1021" d="M176 1546l139 260h181l-146 -260h-174zM492 1546l149 260h207l-197 -260h-159z" />
<glyph unicode="&#x400;" horiz-adv-x="1155" d="M190 0v1446h842v-176h-639v-453h518v-176h-518v-465h674v-176h-877zM391 1806h213l149 -260h-168z" />
<glyph unicode="&#x401;" horiz-adv-x="1155" d="M190 0v1446h842v-176h-639v-453h518v-176h-518v-465h674v-176h-877zM371 1599v207h164v-207h-164zM715 1599v207h162v-207h-162z" />
<glyph unicode="&#x402;" horiz-adv-x="1507" d="M31 1270v176h1073v-176h-475v-404l-4 -63h4q176 84 364 84q209 0 329 -119.5t120 -318.5q0 -223 -129 -349q-125 -125 -326 -125q-40 0 -98 7v170q63 -5 74 -5q121 0 198.5 72.5t77.5 216.5q0 125 -74 198t-211 73q-75 0 -156.5 -20t-129.5 -44l-39 -20v-623h-203v1270 h-395z" />
<glyph unicode="&#x403;" horiz-adv-x="1013" d="M190 0v1446h797v-176h-594v-1270h-203zM469 1546l147 260h215l-196 -260h-166z" />
<glyph unicode="&#x404;" horiz-adv-x="1466" d="M102 731q0 315 205 526q207 213 531 213q97 0 186.5 -18.5t152 -47.5t104 -55.5t65.5 -50.5l20 -18l-102 -152q-18 18 -54 43q-33 26 -143 70q-105 45 -221 45q-219 0 -363 -135q-145 -136 -166 -342h756v-168h-756q24 -211 168 -346t365 -135q75 0 148 18t128 46.5 t90.5 52.5t61.5 47l20 18l107 -141q-1 -1 -6 -6.5t-10.5 -11t-15 -14t-25.5 -20.5t-37 -26q-49 -38 -115 -70q-67 -32 -161.5 -55t-190.5 -23q-324 0 -533 218t-209 538z" />
<glyph unicode="&#x405;" horiz-adv-x="1116" d="M84 166l115 153q71 -69 169.5 -112t194.5 -43q115 0 184.5 56.5t69.5 150.5q0 154 -248 256q-175 71 -251 119q-202 126 -199 323q0 179 133 291q134 110 340 110q247 0 403 -147l-92 -166q-62 58 -148.5 92.5t-170.5 34.5q-114 0 -187 -57t-73 -148q0 -29 8.5 -54.5 t20.5 -45t36 -40t42.5 -33.5t54.5 -31t57.5 -27.5l64.5 -28.5t64 -28q107 -49 168 -86q81 -46 130.5 -129.5t49.5 -188.5q0 -175 -123 -295q-123 -117 -338 -117q-281 0 -475 191z" />
<glyph unicode="&#x406;" horiz-adv-x="585" d="M190 0v1446h203v-1446h-203z" />
<glyph unicode="&#x407;" horiz-adv-x="585" d="M43 1599v207h164v-207h-164zM190 0v1446h203v-1446h-203zM387 1599v207h162v-207h-162z" />
<glyph unicode="&#x408;" horiz-adv-x="1091" d="M57 416v71h201v-61q0 -120 57.5 -192t169.5 -72q103 0 165.5 65t62.5 191v852h-365v176h565v-1030q0 -218 -127 -330q-126 -111 -301 -111q-177 0 -303 111q-125 113 -125 330z" />
<glyph unicode="&#x409;" horiz-adv-x="1951" d="M41 -14v188q177 18 250.5 229t73.5 662v381h794v-592h281q201 0 327 -117q127 -118 127 -311q0 -191 -127 -309q-126 -117 -319 -117h-490v1270h-391v-205q0 -214 -12.5 -361.5t-46.5 -281.5q-46 -205 -159 -311t-308 -125zM1159 176h256q125 0 199 66.5t74 183.5 q0 115 -75.5 183.5t-199.5 68.5h-254v-502z" />
<glyph unicode="&#x40a;" horiz-adv-x="2064" d="M190 0v1446h203v-598h674v598h201v-596h293q196 0 319 -117q125 -116 125 -309q0 -189 -127 -307q-126 -117 -317 -117h-494v672h-674v-672h-203zM1268 176h260q124 0 197 66t73 182q0 115 -74 182.5t-198 67.5h-258v-498z" />
<glyph unicode="&#x40b;" horiz-adv-x="1505" d="M31 1270v176h1071v-176h-473v-408l-4 -67h4q186 92 377 92q201 0 302 -112t101 -318v-457h-205v428q0 279 -254 279q-176 0 -321 -95v-612h-203v1270h-395z" />
<glyph unicode="&#x40c;" horiz-adv-x="1257" d="M190 0v1446h203v-608h215l367 608h223l-422 -686v-4l449 -756h-232l-385 662h-215v-662h-203zM563 1546l148 260h215l-197 -260h-166z" />
<glyph unicode="&#x40d;" horiz-adv-x="1540" d="M190 0v1446h203v-938l-12 -211h4q74 141 123 213l641 936h199v-1446h-201v938l12 211h-4q-78 -145 -121 -211l-645 -938h-199zM510 1806h213l149 -260h-167z" />
<glyph unicode="&#x40e;" horiz-adv-x="1226" d="M4 1446h223l353 -727l82 -191h4q20 68 61 189l268 729h213l-460 -1180q-113 -291 -330 -291q-128 0 -264 95l92 153q95 -71 166 -71q58 0 93.5 37.5t69.5 123.5zM313 1776v30h160v-28q0 -61 42 -98.5t101 -37.5q62 0 104 37t42 101v26h158v-30q0 -122 -89 -193 q-88 -70 -215 -70t-215 70t-88 193z" />
<glyph unicode="&#x40f;" horiz-adv-x="1495" d="M190 0v1446h203v-1270h709v1270h203v-1446h-465v-287h-185v287h-465z" />
<glyph unicode="&#x410;" horiz-adv-x="1312" d="M31 0l518 1446h215l518 -1446h-209l-145 416h-545l-145 -416h-207zM436 584h438l-159 456l-58 207h-4q-26 -115 -55 -207z" />
<glyph unicode="&#x411;" horiz-adv-x="1239" d="M190 0v1446h854v-176h-651v-404h318q195 0 317 -116q123 -114 123 -320q0 -190 -121 -311q-119 -119 -309 -119h-531zM393 176h295q121 0 189.5 67.5t68.5 186.5t-70.5 189.5t-191.5 70.5h-291v-514z" />
<glyph unicode="&#x412;" horiz-adv-x="1277" d="M190 0v1446h506q191 0 305.5 -99.5t114.5 -269.5q0 -104 -47.5 -186t-132.5 -125v-4q111 -32 175.5 -128t64.5 -222q0 -196 -134 -306q-130 -106 -333 -106h-519zM393 176h326q115 0 181.5 67.5t66.5 180.5q0 111 -68 178.5t-180 67.5h-326v-494zM393 838h303 q96 0 154.5 61t58.5 158t-58 155t-157 58h-301v-432z" />
<glyph unicode="&#x413;" horiz-adv-x="1013" d="M190 0v1446h797v-176h-594v-1270h-203z" />
<glyph unicode="&#x414;" horiz-adv-x="1474" d="M12 176h146q127 180 177 416t50 557v297h846v-1270h160v-463h-183v287h-1007v-287h-189v463zM371 176h657v1094h-453v-133q0 -650 -204 -961z" />
<glyph unicode="&#x415;" horiz-adv-x="1155" d="M190 0v1446h842v-176h-639v-453h518v-176h-518v-465h674v-176h-877z" />
<glyph unicode="&#x416;" horiz-adv-x="1826" d="M37 0l420 756v4l-391 686h221l338 -608h188v608h201v-608h190l336 608h221l-391 -686v-4l422 -756h-229l-359 662h-190v-662h-201v662h-188l-361 -662h-227z" />
<glyph unicode="&#x417;" horiz-adv-x="1118" d="M55 172l113 137q63 -68 154.5 -109.5t185.5 -41.5q136 0 218.5 70.5t82.5 191.5q0 110 -74 174.5t-196 64.5h-179v168h144q111 0 185.5 66t74.5 168q0 104 -66 167.5t-190 63.5q-180 0 -324 -123l-86 152q180 149 439 149q192 0 311 -104q123 -102 123 -281 q0 -220 -209 -325v-4q118 -32 186 -124t68 -222q0 -195 -142 -316q-137 -119 -350 -119q-134 0 -259 52.5t-210 144.5z" />
<glyph unicode="&#x418;" horiz-adv-x="1540" d="M190 0v1446h203v-938l-12 -211h4q74 141 123 213l641 936h199v-1446h-201v938l12 211h-4q-78 -145 -121 -211l-645 -938h-199z" />
<glyph unicode="&#x419;" horiz-adv-x="1540" d="M190 0v1446h203v-938l-12 -211h4q74 141 123 213l641 936h199v-1446h-201v938l12 211h-4q-78 -145 -121 -211l-645 -938h-199zM473 1776v30h160v-28q0 -61 42 -98.5t101 -37.5q62 0 104 37t42 101v26h157v-30q0 -123 -88 -193t-215 -70t-215 70t-88 193z" />
<glyph unicode="&#x41a;" horiz-adv-x="1257" d="M190 0v1446h203v-608h215l367 608h223l-422 -686v-4l449 -756h-232l-385 662h-215v-662h-203z" />
<glyph unicode="&#x41b;" horiz-adv-x="1388" d="M25 -16v186q176 24 252.5 248t76.5 686v342h844v-1446h-203v1270h-448v-168q0 -552 -119 -826q-117 -277 -403 -292z" />
<glyph unicode="&#x41c;" horiz-adv-x="1742" d="M135 0l119 1446h211l334 -782l69 -195h4q57 160 72 195l334 782h211l117 -1446h-201l-70 911l-4 213h-4q-62 -177 -78 -213l-288 -651h-181l-286 651l-78 217h-4q3 -145 -4 -217l-70 -911h-203z" />
<glyph unicode="&#x41d;" horiz-adv-x="1536" d="M190 0v1446h203v-635h752v635h201v-1446h-201v635h-752v-635h-203z" />
<glyph unicode="&#x41e;" horiz-adv-x="1685" d="M100 733q0 312 215 524q216 213 529 213t526 -213q215 -212 215 -524q0 -320 -215 -538q-214 -220 -526 -220t-529 220q-215 218 -215 538zM309 733q0 -241 156 -407q156 -164 379 -164q224 0 377 164q155 165 155 407q0 235 -155 393q-154 160 -377 160 q-222 0 -379 -160q-156 -159 -156 -393z" />
<glyph unicode="&#x41f;" horiz-adv-x="1519" d="M190 0v1446h1139v-1446h-203v1270h-733v-1270h-203z" />
<glyph unicode="&#x420;" horiz-adv-x="1236" d="M190 0v1446h531q201 0 326 -125q127 -124 127 -328t-127 -331t-326 -127h-328v-535h-203zM393 711h295q129 0 205 76t76 206q0 129 -75 203t-204 74h-297v-559z" />
<glyph unicode="&#x421;" horiz-adv-x="1468" d="M102 731q0 316 207 529q207 210 529 210q329 0 528 -190l-102 -152q-79 72 -193.5 115t-224.5 43q-245 0 -391 -158q-144 -156 -144 -395q0 -237 148 -405q147 -166 391 -166q121 0 238.5 50t205.5 138l109 -145q-230 -230 -559 -230q-331 0 -537 215q-205 217 -205 541z " />
<glyph unicode="&#x422;" horiz-adv-x="1259" d="M31 1270v176h1196v-176h-498v-1270h-201v1270h-497z" />
<glyph unicode="&#x423;" horiz-adv-x="1226" d="M4 1446h223l353 -727l82 -191h4q20 68 61 189l268 729h213l-460 -1180q-113 -291 -330 -291q-128 0 -264 95l92 153q95 -71 166 -71q58 0 93.5 37.5t69.5 123.5z" />
<glyph unicode="&#x424;" horiz-adv-x="1703" d="M80 770q0 271 184 434q187 166 488 166v166h202v-166q299 0 486 -166q186 -162 186 -434q0 -274 -186 -442q-183 -168 -486 -168v-185h-202v185q-302 0 -488 168q-184 169 -184 442zM287 770q0 -198 127 -319q125 -119 338 -119v866q-212 0 -338 -117 q-127 -115 -127 -311zM954 332q213 0 338 119q127 121 127 319q0 196 -127 311q-126 117 -338 117v-866z" />
<glyph unicode="&#x425;" horiz-adv-x="1224" d="M33 0l454 745l-426 701h232l227 -391l90 -168h4q38 78 91 168l229 391h233l-430 -701l457 -745h-227l-265 444l-90 166h-4q-61 -119 -88 -166l-262 -444h-225z" />
<glyph unicode="&#x426;" horiz-adv-x="1550" d="M190 0v1446h203v-1270h709v1270h203v-1270h165v-463h-182v287h-1098z" />
<glyph unicode="&#x427;" horiz-adv-x="1308" d="M104 977v469h205v-426q0 -141 67 -211t208 -70q180 0 327 99v608h205v-1446h-205v586l4 67h-4q-186 -98 -370 -98q-218 0 -327.5 108t-109.5 314z" />
<glyph unicode="&#x428;" horiz-adv-x="2058" d="M190 0v1446h203v-1270h535v1270h202v-1270h535v1270h201v-1446h-1676z" />
<glyph unicode="&#x429;" horiz-adv-x="2121" d="M190 0v1446h203v-1270h535v1270h202v-1270h535v1270h201v-1270h178v-463h-184v287h-1670z" />
<glyph unicode="&#x42a;" horiz-adv-x="1406" d="M16 1270v176h580v-545h305q195 0 318 -123q122 -119 122 -332q0 -200 -120 -323t-312 -123h-516v1270h-377zM596 176h281q122 0 191 71.5t69 198.5q0 128 -72 203.5t-193 75.5h-276v-549z" />
<glyph unicode="&#x42b;" horiz-adv-x="1728" d="M190 0v1446h203v-545h297q195 0 318 -123q122 -119 122 -332q0 -200 -120 -323t-310 -123h-510zM393 176h275q122 0 190 71.5t68 198.5q0 128 -70.5 203.5t-191.5 75.5h-271v-549zM1335 0v1446h201v-1446h-201z" />
<glyph unicode="&#x42c;" horiz-adv-x="1206" d="M190 0v1446h203v-545h307q195 0 318 -123q123 -120 123 -332q0 -199 -121 -323q-120 -123 -311 -123h-519zM393 176h281q123 0 191.5 71t68.5 199t-70.5 203.5t-191.5 75.5h-279v-549z" />
<glyph unicode="&#x42d;" horiz-adv-x="1466" d="M68 197l106 141q79 -80 201 -129t250 -49q213 0 356 137q146 140 170 344h-756v168h758q-21 209 -166 342q-144 135 -360 135q-242 0 -428 -162l-101 152q92 92 235 143t298 51q326 0 530 -210q205 -211 205 -527q0 -323 -211 -540q-209 -218 -530 -218q-159 0 -305 59 t-252 163z" />
<glyph unicode="&#x42e;" horiz-adv-x="2183" d="M190 0v1446h203v-635h246q24 283 227 471q206 188 490 188q306 0 516 -213q211 -211 211 -524q0 -321 -211 -538q-211 -220 -516 -220q-283 0 -482 187q-201 189 -231 473h-250v-635h-203zM842 733q0 -240 149 -405q150 -166 365 -166q216 0 366 166q152 169 152 405 q0 230 -152 391q-151 160 -366 160q-214 0 -365 -160q-149 -158 -149 -391z" />
<glyph unicode="&#x42f;" horiz-adv-x="1273" d="M47 0l324 539l43 67v4q-135 49 -205 157t-70 259q0 134 61 233.5t167 147.5q85 39 270 39h446v-1446h-202v575h-267l-340 -575h-227zM346 1018q0 -125 69 -197.5t187 -72.5h279v522h-230q-129 0 -188 -33q-117 -65 -117 -219z" />
<glyph unicode="&#x430;" horiz-adv-x="1077" d="M68 283q0 113 62 191.5t169 111.5q177 59 387 59h53v21q0 227 -227 227q-153 0 -291 -100l-80 145q63 54 172 88.5t215 34.5q197 0 303.5 -105t106.5 -301v-655h-186v104l6 82h-4q-48 -94 -140 -152.5t-200 -58.5q-140 0 -244 84q-102 83 -102 224zM266 299 q0 -70 53 -118t142 -48q124 0 201 103t77 227v39h-51q-422 0 -422 -203z" />
<glyph unicode="&#x431;" horiz-adv-x="1200" d="M109 596q0 288 102 463q100 172 364 284l371 160l66 -164l-398 -165q-157 -73 -233 -170.5t-86 -243.5h4q123 184 367 184q198 0 317 -131q123 -129 123 -346q0 -216 -135 -354t-355 -138q-247 0 -377 166t-130 455zM315 467q0 -147 83 -235.5t210 -88.5q129 0 213 88 t84 232q0 145 -84 235q-82 88 -205 88q-131 0 -217 -92q-84 -90 -84 -227z" />
<glyph unicode="&#x432;" horiz-adv-x="1064" d="M154 0v1036h428q162 0 254 -69t92 -197q0 -75 -39.5 -135.5t-108.5 -91.5v-2q92 -23 144.5 -90t52.5 -156q0 -139 -103 -217t-278 -78h-442zM352 139h213q103 0 157 43t54 119q0 78 -55.5 121t-157.5 43h-211v-326zM352 598h195q87 0 132.5 41.5t45.5 116.5 q0 143 -184 143h-189v-301z" />
<glyph unicode="&#x433;" horiz-adv-x="845" d="M154 0v1036h649v-170h-451v-866h-198z" />
<glyph unicode="&#x434;" horiz-adv-x="1216" d="M25 164h127q161 217 161 682v190h701v-872h147v-410h-182v246h-768v-246h-186v410zM356 164h459v710h-311v-55q0 -422 -148 -655z" />
<glyph unicode="&#x435;" horiz-adv-x="1140" d="M86 518q0 243 147 393t373 150q209 0 330 -139q119 -137 119 -347q0 -31 -8 -83h-754q9 -165 108 -254q105 -91 248 -91q169 0 305 121l84 -145q-73 -67 -182.5 -107.5t-218.5 -40.5q-240 0 -397 154q-154 157 -154 389zM299 635h555q-4 127 -74 199.5t-178 72.5 q-118 0 -200.5 -73t-102.5 -199z" />
<glyph unicode="&#x436;" horiz-adv-x="1540" d="M35 0l334 532v5l-306 499h211l254 -424h148v424h188v-424h148l256 424h209l-303 -499v-5l333 -532h-223l-270 442h-150v-442h-188v442h-148l-272 -442h-221z" />
<glyph unicode="&#x437;" horiz-adv-x="917" d="M53 127l92 131q117 -123 271 -123q96 0 155.5 45t59.5 125q0 158 -213 158h-127v143h108q197 0 197 150q0 71 -48.5 110t-135.5 39q-130 0 -252 -90l-74 133q149 113 360 113q157 0 254 -75t97 -206q0 -170 -152 -235v-4q186 -58 186 -244q0 -155 -114 -238 q-116 -84 -283 -84q-220 0 -381 152z" />
<glyph unicode="&#x438;" horiz-adv-x="1224" d="M154 0v1036h190v-618q0 -109 -6 -139h4q9 25 92 139l447 618h192v-1036h-192v618q0 45 2 80q1 15 2 29.5t1.5 21t0.5 7.5h-4q-1 -1 -10 -15.5t-31.5 -49.5t-48.5 -73l-449 -618h-190z" />
<glyph unicode="&#x439;" horiz-adv-x="1224" d="M154 0v1036h190v-618q0 -109 -6 -139h4q9 25 92 139l447 618h192v-1036h-192v618q0 45 2 80q1 15 2 29.5t1.5 21t0.5 7.5h-4q-1 -1 -10 -15.5t-31.5 -49.5t-48.5 -73l-449 -618h-190zM307 1417v31h160v-29q0 -61 42 -98t101 -37q63 0 104.5 36.5t41.5 100.5v27h157v-31 q0 -122 -88 -192t-215 -70t-215 70t-88 192z" />
<glyph unicode="&#x43a;" horiz-adv-x="1069" d="M154 0v1036h198v-418h146l282 418h226l-347 -493v-4l388 -539h-236l-309 449h-150v-449h-198z" />
<glyph unicode="&#x43b;" horiz-adv-x="1122" d="M41 -10v178q119 19 176 148.5t57 400.5v319h695v-1036h-199v872h-305v-155q0 -362 -100.5 -538.5t-323.5 -188.5z" />
<glyph unicode="&#x43c;" horiz-adv-x="1495" d="M111 0l90 1036h221l264 -585l57 -140h5l57 140l270 585h217l90 -1036h-192l-45 616l2 179h-4q-35 -90 -66 -152l-246 -518h-169l-246 516l-66 154h-4l2 -179l-45 -616h-192z" />
<glyph unicode="&#x43d;" horiz-adv-x="1228" d="M154 0v1036h198v-422h525v422h198v-1036h-198v444h-525v-444h-198z" />
<glyph unicode="&#x43e;" horiz-adv-x="1288" d="M86 520q0 233 162 385q164 156 395 156q232 0 397 -154q162 -152 162 -387q0 -234 -162 -389q-164 -156 -395 -156q-233 0 -397 156q-162 155 -162 389zM289 520q0 -160 102 -268q105 -105 254 -105q148 0 252 107t104 266q0 160 -104 264q-105 105 -252 105 q-149 0 -254 -105q-102 -105 -102 -264z" />
<glyph unicode="&#x43f;" horiz-adv-x="1212" d="M154 0v1036h905v-1036h-199v866h-508v-866h-198z" />
<glyph unicode="&#x440;" horiz-adv-x="1230" d="M154 -410v1446h184v-92l-6 -78h4q50 92 141.5 143.5t206.5 51.5q209 0 332 -150t123 -393q0 -246 -131 -395q-133 -148 -338 -148q-207 0 -322 177h-4q8 -33 8 -91v-471h-198zM346 514q0 -145 78 -258q80 -109 215 -109q130 0 214.5 101t84.5 268t-81 269t-212 102 q-133 0 -216 -97t-83 -276z" />
<glyph unicode="&#x441;" horiz-adv-x="1116" d="M86 518q0 231 156 387t399 156t389 -152l-94 -139q-119 119 -287 119q-157 0 -258 -107q-102 -105 -102 -262q0 -158 102 -266q104 -107 264 -107q86 0 173 38.5t147 101.5l80 -146q-73 -76 -183.5 -121t-230.5 -45q-242 0 -399 154q-156 153 -156 389z" />
<glyph unicode="&#x442;" horiz-adv-x="1003" d="M43 866v170h920v-170h-363v-866h-197v866h-360z" />
<glyph unicode="&#x443;" horiz-adv-x="1095" d="M27 1036h223l260 -678l39 -125h4q12 55 35 123l252 680h215l-488 -1222q-44 -117 -133 -180.5t-203 -63.5q-48 0 -97.5 15t-76.5 34l-24 14l69 152q57 -45 119 -45q124 0 189 154l51 118z" />
<glyph unicode="&#x444;" horiz-adv-x="1486" d="M88 520q0 232 158 381t403 158v375h191v-375q243 -9 401 -158q158 -146 158 -381q0 -233 -158 -385q-157 -151 -401 -160v-385h-191v385q-246 9 -403 160q-158 152 -158 385zM285 520q0 -163 100.5 -265.5t263.5 -113.5v754q-166 -11 -265 -111t-99 -264zM840 141 q163 11 263.5 113.5t100.5 265.5t-100 263.5t-264 111.5v-754z" />
<glyph unicode="&#x445;" horiz-adv-x="1021" d="M35 0l354 532l-334 504h228l192 -315l33 -62h4q6 10 35 62l192 315h228l-334 -504l354 -532h-225l-217 346l-33 55h-4l-31 -55l-217 -346h-225z" />
<glyph unicode="&#x446;" horiz-adv-x="1249" d="M154 0v1036h198v-864h494v864h201v-864h145v-418h-182v246h-856z" />
<glyph unicode="&#x447;" horiz-adv-x="1071" d="M88 698v338h195v-309q0 -94 47.5 -144.5t158.5 -50.5q127 0 230 74v430h199v-1036h-199v375l2 61h-4q-119 -76 -281 -76q-168 0 -258 87t-90 251z" />
<glyph unicode="&#x448;" horiz-adv-x="1646" d="M154 0v1036h190v-864h383v864h193v-864h383v864h190v-1036h-1339z" />
<glyph unicode="&#x449;" horiz-adv-x="1697" d="M154 0v1036h190v-864h383v864h193v-864h383v864h190v-864h147v-418h-182v246h-1304z" />
<glyph unicode="&#x44a;" horiz-adv-x="1144" d="M20 866v170h480v-374h209q175 0 274.5 -85t99.5 -249q0 -155 -95 -241.5t-281 -86.5h-406v866h-281zM500 143h178q101 0 153 49.5t52 137.5q0 90 -51.5 139t-153.5 49h-178v-375z" />
<glyph unicode="&#x44b;" horiz-adv-x="1443" d="M154 0v1036h198v-374h203q176 0 276.5 -85t100.5 -249q0 -155 -96.5 -241.5t-282.5 -86.5h-399zM352 143h174q101 0 153 49.5t52 137.5t-52.5 138t-154.5 50h-172v-375zM1092 0v1036h198v-1036h-198z" />
<glyph unicode="&#x44c;" horiz-adv-x="997" d="M154 0v1036h198v-374h209q176 0 276.5 -85t100.5 -249q0 -155 -97 -241.5t-284 -86.5h-403zM352 143h178q101 0 153 49.5t52 137.5q0 90 -51.5 139t-153.5 49h-178v-375z" />
<glyph unicode="&#x44d;" horiz-adv-x="1114" d="M61 131l78 141q133 -133 326 -133q142 0 244 85t122 222h-495v144h495q-20 139 -120 224t-240 85q-172 0 -299 -121l-90 137q64 70 170 108t225 38q240 0 393 -156q156 -153 156 -387q0 -236 -156 -389q-154 -154 -397 -154q-249 0 -412 156z" />
<glyph unicode="&#x44e;" horiz-adv-x="1695" d="M154 0v1036h198v-434h189q27 199 176 330q147 129 352 129q226 0 383 -154q158 -155 158 -387q0 -233 -156 -389t-383 -156q-204 0 -354 129q-149 134 -176 334h-189v-438h-198zM733 520q0 -158 96 -268q99 -105 242 -105t238 105q98 107 98 268q0 160 -98 264 q-95 105 -238 105t-242 -105q-96 -107 -96 -264z" />
<glyph unicode="&#x44f;" horiz-adv-x="1048" d="M49 0l240 344l47 64v2q-97 27 -161 109.5t-64 191.5q0 153 100 239t270 86h414v-1036h-199v375h-174l-254 -375h-219zM311 713q0 -92 58.5 -142.5t154.5 -50.5h172v379h-166q-219 0 -219 -186z" />
<glyph unicode="&#x450;" horiz-adv-x="1140" d="M86 518q0 243 147 393t373 150q209 0 330 -139q119 -137 119 -347q0 -31 -8 -83h-754q9 -165 108 -254q105 -91 248 -91q169 0 305 121l84 -145q-73 -67 -182.5 -107.5t-218.5 -40.5q-240 0 -397 154q-154 157 -154 389zM299 635h555q-4 127 -74 199.5t-178 72.5 q-118 0 -200.5 -73t-102.5 -199zM354 1448h213l150 -260h-168z" />
<glyph unicode="&#x451;" horiz-adv-x="1140" d="M86 518q0 243 147 393t373 150q209 0 330 -139q119 -137 119 -347q0 -31 -8 -83h-754q9 -165 108 -254q105 -91 248 -91q169 0 305 121l84 -145q-73 -67 -182.5 -107.5t-218.5 -40.5q-240 0 -397 154q-154 157 -154 389zM299 635h555q-4 127 -74 199.5t-178 72.5 q-118 0 -200.5 -73t-102.5 -199zM342 1241v207h164v-207h-164zM686 1241v207h162v-207h-162z" />
<glyph unicode="&#x452;" horiz-adv-x="1234" d="M25 1133v145h129v168h198v-168h422v-145h-422v-334l-4 -86h4q41 89 142 159q104 72 243 72q355 0 355 -397v-555q0 -86 -19.5 -156t-52.5 -114.5t-72 -76t-84 -47.5t-82.5 -22.5t-72.5 -5.5l-84 6v170q36 -4 59 -4q27 0 51.5 4.5t54.5 20.5t51.5 42t36.5 73t15 110v510 q0 133 -42.5 196.5t-152.5 63.5q-116 0 -206 -71t-123 -185q-17 -63 -17 -137v-369h-198v1133h-129z" />
<glyph unicode="&#x453;" horiz-adv-x="845" d="M154 0v1036h649v-170h-451v-866h-198zM352 1188l148 260h215l-197 -260h-166z" />
<glyph unicode="&#x454;" horiz-adv-x="1116" d="M86 518q0 231 156 387t399 156q117 0 215 -37q97 -37 137 -74l39 -35l-92 -139l-37 33q-14 14 -100 53q-73 33 -156 33q-143 0 -243.5 -81.5t-120.5 -215.5h493v-143h-495q19 -143 121 -229.5t251 -86.5q85 0 166.5 33t122.5 74l37 35l78 -144q-25 -25 -70 -57 q-159 -105 -346 -105q-242 0 -399 154q-156 153 -156 389z" />
<glyph unicode="&#x455;" horiz-adv-x="915" d="M66 127l94 135q127 -121 305 -121q80 0 128 36t48 99q0 50 -50 88.5t-138 71.5q-39 14 -58.5 21.5t-57.5 24t-59.5 29.5t-52 33t-48 41.5t-35 48t-25.5 59t-8 69.5q0 138 104 218.5t268 80.5q209 0 336 -115l-80 -143q-44 42 -116.5 67t-145.5 25q-81 0 -128.5 -33.5 t-47.5 -95.5q0 -92 188 -162q54 -17 95 -33t91.5 -44.5t83.5 -60.5t55.5 -80t21.5 -105q0 -135 -105 -220q-106 -86 -268 -86q-243 0 -395 152z" />
<glyph unicode="&#x456;" horiz-adv-x="503" d="M150 1245v201h204v-201h-204zM154 0v1036h198v-1036h-198z" />
<glyph unicode="&#x457;" horiz-adv-x="503" d="M2 1241v207h164v-207h-164zM154 0v1036h198v-1036h-198zM346 1241v207h162v-207h-162z" />
<glyph unicode="&#x458;" horiz-adv-x="503" d="M-115 -248q28 -4 45 -4q28 0 54.5 4t58.5 18.5t55.5 38t39.5 67t16 101.5v1059h198v-1071q0 -94 -28.5 -169t-73.5 -115q-115 -107 -295 -103q-4 0 -70 4v170zM150 1245v201h204v-201h-204z" />
<glyph unicode="&#x459;" horiz-adv-x="1542" d="M53 -10v178q123 17 179.5 145t56.5 396v327h614v-389h205q176 0 276.5 -83t100.5 -245q0 -151 -97 -235t-284 -84h-399v872h-226v-157q0 -371 -99.5 -542t-326.5 -183zM903 143h182q101 0 152 46t51 130q0 87 -51 135t-152 48h-182v-359z" />
<glyph unicode="&#x45a;" horiz-adv-x="1673" d="M154 0v1036h198v-395h484v395h198v-397h197q177 0 281 -81t104 -236q0 -152 -97 -237t-284 -85h-399v481h-484v-481h-198zM1034 143h183q204 0 204 179q0 174 -213 174h-174v-353z" />
<glyph unicode="&#x45b;" horiz-adv-x="1234" d="M25 1133v145h129v168h198v-168h422v-145h-422v-334l-4 -86h4q41 89 142 159q104 72 243 72q182 0 268.5 -98t86.5 -297v-549h-199v504q0 132 -42.5 195t-152.5 63q-116 0 -206.5 -70.5t-122.5 -183.5q-17 -66 -17 -139v-369h-198v1133h-129z" />
<glyph unicode="&#x45c;" horiz-adv-x="1069" d="M154 0v1036h198v-418h146l282 418h226l-347 -493v-4l388 -539h-236l-309 449h-150v-449h-198zM444 1188l148 260h215l-197 -260h-166z" />
<glyph unicode="&#x45d;" horiz-adv-x="1224" d="M154 0v1036h190v-618q0 -109 -6 -139h4q9 25 92 139l447 618h192v-1036h-192v618q0 45 2 80q1 15 2 29.5t1.5 21t0.5 7.5h-4q-1 -1 -10 -15.5t-31.5 -49.5t-48.5 -73l-449 -618h-190zM377 1448h213l149 -260h-168z" />
<glyph unicode="&#x45e;" horiz-adv-x="1095" d="M27 1036h223l260 -678l39 -125h4q12 55 35 123l252 680h215l-488 -1222q-44 -117 -133 -180.5t-203 -63.5q-48 0 -97.5 15t-76.5 34l-24 14l69 152q57 -45 119 -45q124 0 189 154l51 118zM246 1417v31h160v-29q0 -61 42 -98t101 -37q62 0 103.5 36.5t41.5 100.5v27h158 v-31q0 -122 -88 -192t-215 -70t-215 70t-88 192z" />
<glyph unicode="&#x45f;" horiz-adv-x="1177" d="M154 0v1036h198v-864h473v864h197v-1036h-342v-246h-182v246h-344z" />
<glyph unicode="&#x462;" horiz-adv-x="1411" d="M25 1104v162h366v211h199v-211h418v-162h-418v-238h309q197 0 322 -116q127 -118 127 -312q0 -196 -127 -317t-320 -121h-512v1104h-364zM590 176h278q124 0 198.5 70t74.5 192q0 115 -75.5 183.5t-199.5 68.5h-276v-514z" />
<glyph unicode="&#x463;" horiz-adv-x="1095" d="M-2 940v150h248v356h198v-356h340v-150h-340v-278h215q175 0 275 -85t100 -249q0 -155 -95.5 -241.5t-281.5 -86.5h-411v940h-248zM444 143h185q102 0 154.5 49.5t52.5 137.5t-52.5 138t-154.5 50h-185v-375z" />
<glyph unicode="&#x472;" horiz-adv-x="1685" d="M100 733q0 311 213 524t531 213q315 0 528 -213t213 -524q0 -321 -213 -540q-212 -218 -528 -218q-319 0 -531 218q-213 219 -213 540zM309 649q27 -214 176 -354q151 -139 359 -139t356 139q149 137 176 354h-1067zM309 811h1067q-27 210 -176 344q-150 135 -356 135 q-209 0 -359 -135q-149 -134 -176 -344z" />
<glyph unicode="&#x473;" horiz-adv-x="1288" d="M86 520q0 233 162 385q164 156 395 156q232 0 397 -154q162 -152 162 -387q0 -234 -162 -389q-164 -156 -395 -156q-233 0 -397 156q-162 155 -162 389zM276 461q18 -149 123 -240q106 -92 246 -92q141 0 244 92q104 90 125 240h-738zM276 588h736q-21 141 -125 229 q-104 90 -242 90q-139 0 -246 -90q-102 -89 -123 -229z" />
<glyph unicode="&#x474;" horiz-adv-x="1409" d="M25 1446h219l358 -1022l55 -199h5q27 119 55 199l289 860q35 106 81 133q50 29 160 29h135v-178h-47q-47 0 -61.5 -1.5t-36.5 -11.5q-40 -18 -66 -98l-405 -1157h-213z" />
<glyph unicode="&#x475;" horiz-adv-x="1155" d="M39 1036h209l252 -700l37 -141h4q16 71 37 141l172 514q35 105 89.5 145.5t159.5 40.5h117v-174h-45q-68 0 -97 -21.5t-54 -90.5l-265 -750h-229z" />
<glyph unicode="&#x48a;" horiz-adv-x="1617" d="M190 0v1446h203v-938l-12 -211h4q74 141 123 213l641 936h199v-1270h223v-117l-148 -346h-147l86 287h-215v938l12 211h-4q-78 -145 -121 -211l-645 -938h-199zM477 1776v30h160v-28q0 -61 42 -98.5t101 -37.5q62 0 104 37t42 101v26h157v-30q0 -123 -88 -193t-215 -70 t-215 70t-88 193z" />
<glyph unicode="&#x48b;" horiz-adv-x="1310" d="M154 0v1036h190v-618q0 -109 -6 -139h4q9 25 92 139l447 618h192v-866h189v-113l-127 -303h-142l74 246h-186v618q0 45 2 80q1 15 2 29.5t1.5 21t0.5 7.5h-4q-1 -1 -10 -15.5t-31.5 -49.5t-48.5 -73l-449 -618h-190zM317 1417v31h160v-29q0 -61 42.5 -98t101.5 -37 q62 0 103.5 36.5t41.5 100.5v27h158v-31q0 -122 -88 -192t-215 -70t-215 70q-89 71 -89 192z" />
<glyph unicode="&#x48c;" horiz-adv-x="1386" d="M23 1167v158h335v211h199v-211h377v-158h-377v-290h322q192 0 319 -121t127 -318q0 -196 -127 -317t-317 -121h-527v1167h-331zM557 176h289q124 0 198 70t74 192q0 121 -75 191.5t-199 70.5h-287v-524z" />
<glyph unicode="&#x48d;" horiz-adv-x="1105" d="M8 940v150h248v356h199v-356h340v-150h-340v-278h215q175 0 274.5 -85t99.5 -249q0 -155 -95 -241.5t-281 -86.5h-412v940h-248zM455 143h184q102 0 154.5 49.5t52.5 137.5t-52.5 138t-154.5 50h-184v-375z" />
<glyph unicode="&#x48e;" horiz-adv-x="1273" d="M190 0v1446h531q201 0 326 -125q127 -124 127 -328q0 -210 -134 -338l121 -159l-110 -93l-131 170q-89 -38 -199 -38h-328v-535h-203zM393 694h301q64 0 119 19l-139 184l114 92l142 -188q53 77 53 182q0 135 -76 211t-211 76h-303v-576z" />
<glyph unicode="&#x48f;" horiz-adv-x="1247" d="M154 -410v1446h184v-92l-6 -78h4q1 2 4.5 8.5l7 13t12.5 19t23 27.5q122 127 301 127q209 0 332 -150t123 -393q0 -232 -121 -383l112 -133l-110 -96l-113 133q-107 -64 -237 -64q-62 0 -118 17.5t-94 44.5t-62 51t-36 45l-12 19h-4q8 -33 8 -91v-471h-198zM346 508 q0 -149 80 -258t221 -109q80 0 144 37l-140 170l111 96l133 -161q57 89 57 227q0 171 -82.5 274t-218.5 103t-220.5 -97.5t-84.5 -281.5z" />
<glyph unicode="&#x490;" horiz-adv-x="1030" d="M190 0v1446h644v199h170v-375h-611v-1270h-203z" />
<glyph unicode="&#x491;" horiz-adv-x="845" d="M154 0v1036h491v187h160v-357h-453v-866h-198z" />
<glyph unicode="&#x492;" horiz-adv-x="1036" d="M78 633v149h125v664h794v-176h-594v-488h328v-149h-328v-633h-200v633h-125z" />
<glyph unicode="&#x493;" horiz-adv-x="860" d="M33 426v135h127v475h651v-170h-453v-305h265v-135h-265v-426h-198v426h-127z" />
<glyph unicode="&#x494;" horiz-adv-x="1251" d="M190 0v1446h799v-176h-596v-467q127 59 279 59q495 0 495 -581q0 -323 -137 -484.5t-387 -161.5v166q313 0 313 480q0 214 -77.5 309.5t-245.5 95.5q-109 0 -240 -55v-631h-203z" />
<glyph unicode="&#x495;" horiz-adv-x="1030" d="M154 0v1036h663v-162h-465v-335q111 51 228 51q198 0 290 -127q95 -127 95 -313q0 -375 -310 -574l-96 139q213 142 213 422q0 287 -231 287q-103 0 -189 -53v-371h-198z" />
<glyph unicode="&#x496;" horiz-adv-x="1921" d="M37 0l420 756v4l-391 686h221l338 -608h188v608h201v-608h190l336 608h221l-391 -686v-4l324 -580h196v-463h-182v287h-145l-359 662h-190v-662h-201v662h-188l-361 -662h-227z" />
<glyph unicode="&#x497;" horiz-adv-x="1622" d="M35 0l334 532v5l-306 499h211l254 -424h148v424h188v-424h148l256 424h209l-303 -499v-5l225 -360h184v-418h-182v246h-117l-270 442h-150v-442h-188v442h-148l-272 -442h-221z" />
<glyph unicode="&#x498;" horiz-adv-x="1122" d="M55 172l113 137q63 -68 154.5 -109.5t185.5 -41.5q136 0 218.5 70.5t82.5 191.5q0 110 -74 174.5t-196 64.5h-179v168h144q111 0 185.5 66t74.5 168q0 104 -66 167.5t-190 63.5q-180 0 -324 -123l-86 152q180 149 439 149q192 0 311 -104q123 -102 123 -281 q0 -220 -209 -325v-4q118 -32 186 -124t68 -222q0 -173 -111 -287q-106 -112 -280 -139v-271h-185v269q-243 30 -385 190z" />
<glyph unicode="&#x499;" horiz-adv-x="921" d="M53 127l92 131q117 -123 271 -123q96 0 155.5 45t59.5 125q0 158 -213 158h-127v143h108q197 0 197 150q0 71 -48.5 110t-135.5 39q-130 0 -252 -90l-74 133q149 113 360 113q157 0 254 -75t97 -206q0 -170 -152 -235v-4q186 -58 186 -244q0 -124 -77.5 -205t-210.5 -106 v-232h-178v226q-186 21 -312 147z" />
<glyph unicode="&#x49a;" horiz-adv-x="1349" d="M190 0v1446h203v-608h215l367 608h223l-422 -686v-4l344 -580h199v-463h-182v287h-144l-385 662h-215v-662h-203z" />
<glyph unicode="&#x49b;" horiz-adv-x="1140" d="M154 0v1036h198v-418h146l282 418h226l-347 -493v-4l263 -367h182v-418h-182v246h-111l-309 449h-150v-449h-198z" />
<glyph unicode="&#x49c;" horiz-adv-x="1437" d="M190 0v1446h203v-608h146v245h151v-245h98l365 608h223l-420 -686v-4l449 -756h-231l-386 662h-98v-248h-151v248h-146v-662h-203z" />
<glyph unicode="&#x49d;" horiz-adv-x="1224" d="M154 0v1036h198v-418h111v209h143v-209h47l283 418h225l-344 -493v-4l385 -539h-233l-310 449h-53v-213h-143v213h-111v-449h-198z" />
<glyph unicode="&#x49e;" horiz-adv-x="1267" d="M33 1075v146h164v225h202v-225h195v-146h-195v-237h215l367 608h223l-422 -686v-4l449 -756h-232l-385 662h-215v-662h-202v1075h-164z" />
<glyph unicode="&#x49f;" horiz-adv-x="1069" d="M27 1083v140h127v223h198v-223h232v-140h-232v-436h148l280 389h226l-344 -465v-4l382 -567h-231l-309 475h-152v-475h-198v1083h-127z" />
<glyph unicode="&#x4a0;" horiz-adv-x="1536" d="M35 1270v176h635v-608h217l364 608h224l-422 -686v-4l448 -756h-229l-385 662h-217v-662h-201v1270h-434z" />
<glyph unicode="&#x4a1;" horiz-adv-x="1214" d="M20 866v170h480v-418h145l283 418h223l-344 -493v-4l387 -539h-236l-309 449h-149v-449h-199v866h-281z" />
<glyph unicode="&#x4a2;" horiz-adv-x="1607" d="M190 0v1446h203v-635h752v635h201v-1270h200v-463h-184v287h-217v635h-752v-635h-203z" />
<glyph unicode="&#x4a3;" horiz-adv-x="1296" d="M154 0v1036h198v-422h525v422h198v-864h174v-418h-182v246h-190v444h-525v-444h-198z" />
<glyph unicode="&#x4a4;" horiz-adv-x="1908" d="M190 0v1446h203v-635h692v635h795v-176h-594v-1270h-201v635h-692v-635h-203z" />
<glyph unicode="&#x4a5;" horiz-adv-x="1490" d="M154 0v1036h198v-422h477v422h619v-170h-420v-866h-199v444h-477v-444h-198z" />
<glyph unicode="&#x4a6;" horiz-adv-x="2041" d="M190 0v1446h1004v-623q129 60 279 60q493 0 493 -602q0 -646 -522 -646v166q313 0 313 480q0 228 -77.5 331t-245.5 103q-106 0 -240 -58v-657h-201v1272h-600v-1272h-203z" />
<glyph unicode="&#x4a7;" horiz-adv-x="1671" d="M154 0v1036h813v-438q112 53 229 53q200 0 305 -135q107 -131 107 -336q0 -396 -310 -604l-96 139q213 145 213 457q0 309 -250 309q-109 0 -198 -53v-428h-199v866h-416v-866h-198z" />
<glyph unicode="&#x4a8;" horiz-adv-x="1916" d="M104 745q0 150 47.5 281.5t127.5 220.5q157 173 339 223l70 -182q-153 -51 -268 -194q-111 -138 -111 -355q0 -237 140 -409q140 -168 393 -168q112 0 225 35q-154 114 -238 278.5t-84 362.5q0 278 158 444q156 164 377 164q230 0 375 -160t145 -434q0 -183 -93 -354 t-257 -301q119 -29 236 -29h96v-168h-99q-212 0 -413 80q-206 -105 -430 -105q-326 0 -531 211t-205 559zM954 840q0 -178 77 -323.5t218 -233.5q157 99 249.5 250.5t92.5 316.5q0 196 -87 304t-226 108q-125 0 -225 -109q-99 -108 -99 -313z" />
<glyph unicode="&#x4a9;" horiz-adv-x="1601" d="M88 535q0 208 113 339q114 135 262 187l67 -162q-111 -45 -182.5 -142.5t-71.5 -226.5q0 -163 103 -278q104 -113 309 -113q86 0 178 25q-245 175 -245 457q0 189 124 313q127 127 320 127q192 0 309 -117t117 -299q0 -264 -256 -473q66 -14 160 -14h108v-158h-100 q-179 0 -344 61q-180 -86 -373 -86q-282 0 -440 158t-158 402zM809 625q0 -123 63 -223t177 -162q118 69 186 172t68 223q0 124 -65.5 196t-176.5 72q-109 0 -180.5 -78.5t-71.5 -199.5z" />
<glyph unicode="&#x4aa;" horiz-adv-x="1468" d="M102 731q0 316 207 529q207 210 529 210q329 0 528 -190l-102 -152q-79 72 -193.5 115t-224.5 43q-245 0 -391 -158q-144 -156 -144 -395q0 -237 148 -405q147 -166 391 -166q121 0 238.5 50t205.5 138l109 -145q-204 -204 -490 -225v-267h-184v271q-284 37 -457 243 q-170 209 -170 504z" />
<glyph unicode="&#x4ab;" horiz-adv-x="1118" d="M86 518q0 231 156 387t399 156t389 -152l-94 -139q-119 119 -287 119q-157 0 -258 -107q-102 -105 -102 -262q0 -158 102 -266q104 -107 264 -107q86 0 173 38.5t147 101.5l80 -146q-128 -134 -346 -161v-226h-179v232q-201 35 -323 178q-121 148 -121 354z" />
<glyph unicode="&#x4ac;" horiz-adv-x="1263" d="M29 1270v176h1196v-176h-498v-1094h201v-463h-185v287h-219l2 4v1266h-497z" />
<glyph unicode="&#x4ad;" horiz-adv-x="1015" d="M43 866v170h920v-170h-363v-694h174v-418h-182v246h-189v866h-360z" />
<glyph unicode="&#x4ae;" horiz-adv-x="1187" d="M8 1446h230l266 -475l88 -183h4q54 122 88 183l266 475h230l-486 -834v-612h-200v612z" />
<glyph unicode="&#x4af;" horiz-adv-x="1077" d="M37 1036h209l252 -643l39 -137h4q12 62 39 137l251 643h209l-403 -989v-457h-197v457z" />
<glyph unicode="&#x4b0;" horiz-adv-x="1187" d="M8 1446h230l266 -475l88 -183h4q54 122 88 183l266 475h230l-478 -819h246v-150h-254v-477h-200v477h-250v150h241z" />
<glyph unicode="&#x4b1;" horiz-adv-x="1075" d="M37 1036h211l250 -643l39 -137h4q12 62 39 137l247 643h209l-360 -891h201v-145h-240v-410h-197v410h-237v145h196z" />
<glyph unicode="&#x4b2;" horiz-adv-x="1316" d="M33 0l454 745l-426 701h232l227 -391l92 -172h4q36 82 89 172l229 391h233l-430 -701l348 -569h203v-463h-184v287h-137l-265 444l-90 166h-4q-61 -119 -88 -166l-262 -444h-225z" />
<glyph unicode="&#x4b3;" horiz-adv-x="1091" d="M35 0l354 532l-334 504h228l192 -315l33 -62h4q6 10 35 62l192 315h228l-334 -504l239 -360h177v-418h-183v246h-104l-217 346l-33 55h-4l-31 -55l-217 -346h-225z" />
<glyph unicode="&#x4b4;" horiz-adv-x="1847" d="M35 1270v176h1069v-176h-434v-1094h723v1270h200v-1270h187v-463h-183v287h-1128v1270h-434z" />
<glyph unicode="&#x4b5;" horiz-adv-x="1499" d="M45 866v170h838v-170h-322v-694h531v864h198v-864h154v-416h-182v244h-900v866h-317z" />
<glyph unicode="&#x4b6;" horiz-adv-x="1378" d="M104 977v469h205v-426q0 -141 67 -211t208 -70q180 0 327 99v608h205v-1270h199v-463h-182v287h-222v586l4 67h-4q-186 -98 -370 -98q-218 0 -327.5 108t-109.5 314z" />
<glyph unicode="&#x4b7;" horiz-adv-x="1144" d="M88 698v338h195v-309q0 -94 47.5 -144.5t158.5 -50.5q127 0 230 74v430h199v-864h180v-418h-180v246h-199v375l2 61h-4q-119 -76 -281 -76q-168 0 -258 87t-90 251z" />
<glyph unicode="&#x4b8;" horiz-adv-x="1339" d="M100 983v463h205v-426q0 -135 60.5 -203.5t189.5 -75.5v287h152v-278q143 28 235 88v608h205v-1446h-205v592l4 67h-4q-102 -54 -235 -81v-234h-152v217q-227 0 -341 108t-114 314z" />
<glyph unicode="&#x4b9;" horiz-adv-x="1120" d="M88 698v338h195v-309q0 -171 176 -192v249h145v-243q95 18 166 65v430h199v-1036h-199v383l4 61h-4q-68 -39 -166 -61v-180h-145v162h-6q-174 0 -269.5 86.5t-95.5 246.5z" />
<glyph unicode="&#x4ba;" horiz-adv-x="1284" d="M190 0v1446h203v-535l-4 -67h4q178 94 377 94q201 0 303.5 -111.5t102.5 -316.5v-510h-205v477q0 281 -254 281q-181 0 -324 -94v-664h-203z" />
<glyph unicode="&#x4bb;" horiz-adv-x="1234" d="M154 0v1446h198v-537l-8 -86h4q45 91 146 164q103 74 243 74q355 0 355 -397v-664h-199v618q0 133 -42.5 197t-152.5 64q-148 0 -247 -111q-99 -108 -99 -276v-492h-198z" />
<glyph unicode="&#x4bc;" horiz-adv-x="1794" d="M78 1053q0 95 16 170l17 80h184l-16 -82q-17 -87 -17 -150q0 -95 41 -151t123 -56h8q41 273 221 439q179 167 435 167q272 0 436 -182q162 -180 162 -489l-7 -97h-1046q3 -248 147 -395q145 -145 355 -145q111 0 215 39q66 26 114 52t67.5 41t45.5 38l98 -156 q-227 -201 -561 -201q-294 0 -491 203q-198 207 -201 527h-6q-161 0 -250.5 91t-89.5 257zM641 864h840q0 181 -101 303q-99 123 -290 123q-187 0 -306 -125q-122 -128 -143 -301z" />
<glyph unicode="&#x4bd;" horiz-adv-x="1392" d="M68 799q0 77 24 151h164q-25 -67 -25 -141q0 -166 117 -172q35 194 174 309q142 115 336 115q210 0 328 -139q119 -137 119 -347l-7 -83h-755q9 -163 110 -254q105 -91 248 -91q72 0 149 28.5t119 62.5l37 30l82 -145q-40 -33 -51 -41q-34 -27 -135 -66 q-106 -41 -213 -41q-234 0 -389 146q-153 150 -162 371q-270 0 -270 307zM549 635h555q-4 125 -74 196.5t-178 71.5q-117 0 -200 -72.5t-103 -195.5z" />
<glyph unicode="&#x4be;" horiz-adv-x="1796" d="M78 1053q0 95 16 170l17 80h184l-16 -82q-17 -87 -17 -150q0 -95 41 -151t123 -56h8q41 273 221 439q179 167 435 167q272 0 436 -182q162 -180 162 -489l-7 -97h-1046q3 -248 147 -395q145 -145 355 -145q111 0 215 39q66 26 114 52t67.5 41t45.5 38l98 -156 q-199 -178 -493 -199v-264h-185v273q-253 41 -411 233q-161 199 -164 486h-6q-161 0 -250.5 91t-89.5 257zM641 864h840q0 181 -101 303q-99 123 -290 123q-187 0 -306 -125q-122 -128 -143 -301z" />
<glyph unicode="&#x4bf;" horiz-adv-x="1392" d="M68 799q0 77 24 151h164q-25 -67 -25 -141q0 -166 117 -172q35 194 174 309q142 115 336 115q210 0 328 -139q119 -137 119 -347l-7 -83h-755q9 -163 110 -254q105 -91 248 -91q72 0 149 28.5t119 62.5l37 30l82 -145q-9 -9 -45 -37q-29 -23 -123 -63q-90 -40 -190 -46 v-223h-178v238q-180 40 -293 174q-112 135 -121 326q-270 0 -270 307zM549 635h555q-4 125 -74 196.5t-178 71.5q-117 0 -200 -72.5t-103 -195.5z" />
<glyph unicode="&#x4c0;" horiz-adv-x="583" d="M190 0v1446h201v-1446h-201z" />
<glyph unicode="&#x4c1;" horiz-adv-x="1826" d="M37 0l420 756v4l-391 686h221l338 -608h188v608h201v-608h190l336 608h221l-391 -686v-4l422 -756h-229l-359 662h-190v-662h-201v662h-188l-361 -662h-227zM614 1776v30h160v-28q0 -61 42.5 -98.5t101.5 -37.5q62 0 103.5 37t41.5 101v26h158v-30q0 -123 -88 -193 t-215 -70q-128 0 -216 70t-88 193z" />
<glyph unicode="&#x4c2;" horiz-adv-x="1540" d="M35 0l334 532v5l-306 499h211l254 -424h148v424h188v-424h148l256 424h209l-303 -499v-5l333 -532h-223l-270 442h-150v-442h-188v442h-148l-272 -442h-221zM465 1417v31h160v-29q0 -61 42 -98t101 -37q62 0 103.5 36.5t41.5 100.5v27h158v-31q0 -122 -88 -192t-215 -70 t-215 70t-88 192z" />
<glyph unicode="&#x4c3;" horiz-adv-x="1302" d="M190 0v1446h203v-608h215l367 608h223l-395 -645q200 -53 299 -205q98 -148 98 -344q0 -286 -137 -451q-138 -166 -369 -166v170q132 0 213.5 108.5t81.5 326.5q0 211 -117.5 318.5t-334.5 107.5h-144v-666h-203z" />
<glyph unicode="&#x4c4;" horiz-adv-x="1081" d="M154 0v1036h198v-420h144l284 420h226l-326 -465v-4q315 -94 315 -458q0 -181 -86.5 -317.5t-226.5 -215.5l-94 143q215 114 215 390q0 163 -91.5 249t-262.5 86h-97v-444h-198z" />
<glyph unicode="&#x4c5;" horiz-adv-x="1468" d="M25 -16v186q176 24 252.5 248t76.5 686v342h844v-1270h223v-117l-147 -346h-150l88 287h-217v1270h-448v-168q0 -552 -119 -826q-117 -277 -403 -292z" />
<glyph unicode="&#x4c6;" horiz-adv-x="1200" d="M41 -10v178q119 19 176 148.5t57 400.5v319h695v-866h182v-113l-129 -303h-139l73 246h-186v872h-305v-155q0 -362 -100.5 -538.5t-323.5 -188.5z" />
<glyph unicode="&#x4c7;" horiz-adv-x="1536" d="M190 0v1446h203v-635h752v635h201l2 -1342q0 -114 -27 -205t-72 -143q-114 -131 -325 -123v172q221 0 221 293v537h-752v-635h-203z" />
<glyph unicode="&#x4c8;" horiz-adv-x="1230" d="M154 0v1036h198v-422h525v422h200v-938q0 -201 -78 -317t-229 -205l-104 145q72 38 117 86t69.5 119.5t24.5 169.5v348h-525v-444h-198z" />
<glyph unicode="&#x4c9;" horiz-adv-x="1617" d="M190 0v1446h203v-635h752v635h201v-1270h225v-117l-150 -346h-147l86 287h-215v635h-752v-635h-203z" />
<glyph unicode="&#x4ca;" horiz-adv-x="1306" d="M154 0v1036h198v-422h525v422h198v-866h182v-113l-129 -303h-139l74 246h-186v444h-525v-444h-198z" />
<glyph unicode="&#x4cb;" horiz-adv-x="1306" d="M104 977v469h205v-426q0 -141 67 -211t208 -70q180 0 327 99v608h205v-1446h-223v-287h-182v463h200v410l4 67h-4q-186 -98 -370 -98q-218 0 -327.5 108t-109.5 314z" />
<glyph unicode="&#x4cc;" horiz-adv-x="1077" d="M86 713v323h197v-297q0 -194 196 -194q138 0 248 76v415h199v-1036h-191v-246h-182v383h174v258l2 62h-2q-141 -78 -309 -78q-159 0 -245.5 86.5t-86.5 247.5z" />
<glyph unicode="&#x4cd;" horiz-adv-x="1830" d="M135 0l119 1446h211l334 -782l69 -195h4q57 160 72 195l334 782h211l102 -1270h224v-117l-148 -346h-147l86 287h-201l-70 911l-4 213h-4q-62 -177 -78 -213l-288 -651h-181l-286 651l-78 217h-4q3 -145 -4 -217l-70 -911h-203z" />
<glyph unicode="&#x4ce;" horiz-adv-x="1583" d="M111 0l90 1036h221l264 -585l57 -140h5l57 140l270 585h217l76 -866h188v-113l-129 -303h-141l74 246h-170l-45 616l2 179h-4q-35 -90 -66 -152l-246 -518h-169l-246 516l-66 154h-4l2 -179l-45 -616h-192z" />
<glyph unicode="&#x4cf;" horiz-adv-x="503" d="M154 0v1446h198v-1446h-198z" />
<glyph unicode="&#x4d0;" horiz-adv-x="1312" d="M31 0l518 1446h215l518 -1446h-209l-145 416h-545l-145 -416h-207zM348 1776v30h160v-28q0 -61 42 -98.5t101 -37.5q62 0 104 37t42 101v26h157v-30q0 -123 -88 -193t-215 -70t-215 70t-88 193zM436 584h438l-159 456l-58 207h-4q-26 -115 -55 -207z" />
<glyph unicode="&#x4d1;" horiz-adv-x="1079" d="M68 283q0 113 62 191.5t169 111.5q177 59 387 59h53v21q0 227 -227 227q-153 0 -291 -100l-80 145q63 54 172 88.5t215 34.5q197 0 303.5 -105t106.5 -301v-655h-186v104l6 82h-4q-48 -94 -140 -152.5t-200 -58.5q-140 0 -244 84q-102 83 -102 224zM252 1417v31h160v-29 q0 -61 42 -98t101 -37q62 0 103.5 36.5t41.5 100.5v27h158v-31q0 -122 -88 -192t-215 -70t-215 70t-88 192zM266 299q0 -70 53 -118t142 -48q124 0 201 103t77 227v39h-51q-422 0 -422 -203z" />
<glyph unicode="&#x4d2;" horiz-adv-x="1312" d="M31 0l518 1446h215l518 -1446h-209l-145 416h-545l-145 -416h-207zM401 1599v207h164v-207h-164zM436 584h438l-159 456l-58 207h-4q-26 -115 -55 -207zM745 1599v207h162v-207h-162z" />
<glyph unicode="&#x4d3;" horiz-adv-x="1079" d="M68 283q0 113 62 191.5t169 111.5q177 59 387 59h53v21q0 227 -227 227q-153 0 -291 -100l-80 145q63 54 172 88.5t215 34.5q197 0 303.5 -105t106.5 -301v-655h-186v104l6 82h-4q-48 -94 -140 -152.5t-200 -58.5q-140 0 -244 84q-102 83 -102 224zM266 299 q0 -70 53 -118t142 -48q124 0 201 103t77 227v39h-51q-422 0 -422 -203zM281 1241v207h163v-207h-163zM625 1241v207h161v-207h-161z" />
<glyph unicode="&#x4d4;" horiz-adv-x="1794" d="M16 0l598 1446h1059v-176h-639v-453h518v-176h-518v-465h672v-176h-872v643h-351l-256 -643h-211zM551 811h283v459h-97z" />
<glyph unicode="&#x4d5;" horiz-adv-x="1767" d="M70 291q0 118 61 188.5t166 110.5q65 27 135 35q121 16 256 16h51v25q0 227 -233 227q-152 0 -287 -100l-80 145q66 55 171 89t208 34q263 0 346 -182h4q123 182 367 182q207 0 326 -137q118 -136 118 -344q0 -6 -4 -84h-745q7 -163 102 -256t244 -93q173 0 307 119 l82 -143q-72 -66 -182.5 -107t-218.5 -41q-153 0 -268 67t-177 191h-4q-21 -59 -102 -145q-44 -49 -122 -80t-167 -31q-148 0 -252 84q-102 83 -102 230zM270 301q0 -71 53 -118.5t144 -47.5q120 0 197 103q77 106 77 229v29h-98q-373 0 -373 -195zM938 641h541 q-4 120 -73.5 190t-172.5 70q-118 0 -196.5 -68t-98.5 -192z" />
<glyph unicode="&#x4d6;" horiz-adv-x="1155" d="M190 0v1446h842v-176h-639v-453h518v-176h-518v-465h674v-176h-877zM317 1776v30h160v-28q0 -61 42.5 -98.5t101.5 -37.5q62 0 103.5 37t41.5 101v26h158v-30q0 -123 -88 -193t-215 -70t-215 70q-89 71 -89 193z" />
<glyph unicode="&#x4d7;" horiz-adv-x="1140" d="M86 518q0 243 147 393t373 150q209 0 330 -139q119 -137 119 -347q0 -31 -8 -83h-754q9 -165 108 -254q105 -91 248 -91q169 0 305 121l84 -145q-73 -67 -182.5 -107.5t-218.5 -40.5q-240 0 -397 154q-154 157 -154 389zM293 1417v31h160v-29q0 -61 42 -98t101 -37 q62 0 103.5 36.5t41.5 100.5v27h158v-31q0 -122 -88 -192t-215 -70t-215 70t-88 192zM299 635h555q-4 127 -74 199.5t-178 72.5q-118 0 -200.5 -73t-102.5 -199z" />
<glyph unicode="&#x4d8;" horiz-adv-x="1478" d="M104 694l7 103h1050q-9 215 -143 352q-131 137 -338 137q-110 0 -217 -37q-65 -23 -113.5 -47t-68 -38t-45.5 -36l-103 152q245 190 567 190q300 0 486 -210q188 -212 188 -531q0 -333 -180 -543q-181 -211 -475 -211q-289 0 -452 188t-163 531zM309 635 q0 -232 104.5 -354.5t315.5 -122.5q190 0 309 131q118 130 121 346h-850z" />
<glyph unicode="&#x4d9;" horiz-adv-x="1140" d="M86 481l6 92h758q-9 144 -105 234t-229 90q-79 0 -162 -26.5t-129 -59.5l-39 -31l-80 142l17 12q7 4 28.5 17t44 25t48.5 23q148 62 295 62q230 0 372 -154q144 -150 144 -387q0 -250 -144 -397q-145 -148 -364 -148q-218 0 -339.5 137.5t-121.5 368.5zM293 430 q4 -148 73.5 -222.5t184.5 -74.5q123 0 205 79.5t86 217.5h-549z" />
<glyph unicode="&#x4da;" horiz-adv-x="1478" d="M104 694l7 103h1050q-9 215 -143 352q-131 137 -338 137q-110 0 -217 -37q-65 -23 -113.5 -47t-68 -38t-45.5 -36l-103 152q245 190 567 190q300 0 486 -210q188 -212 188 -531q0 -333 -180 -543q-181 -211 -475 -211q-289 0 -452 188t-163 531zM309 635 q0 -232 104.5 -354.5t315.5 -122.5q190 0 309 131q118 130 121 346h-850zM471 1599v207h164v-207h-164zM815 1599v207h162v-207h-162z" />
<glyph unicode="&#x4db;" horiz-adv-x="1140" d="M86 481l6 92h758q-9 144 -105 234t-229 90q-79 0 -162 -26.5t-129 -59.5l-39 -31l-80 142l17 12q7 4 28.5 17t44 25t48.5 23q148 62 295 62q230 0 372 -154q144 -150 144 -387q0 -250 -144 -397q-145 -148 -364 -148q-218 0 -339.5 137.5t-121.5 368.5zM289 1241v207h164 v-207h-164zM293 430q4 -148 73.5 -222.5t184.5 -74.5q123 0 205 79.5t86 217.5h-549zM633 1241v207h162v-207h-162z" />
<glyph unicode="&#x4dc;" horiz-adv-x="1826" d="M37 0l420 756v4l-391 686h221l338 -608h188v608h201v-608h190l336 608h221l-391 -686v-4l422 -756h-229l-359 662h-190v-662h-201v662h-188l-361 -662h-227zM666 1599v207h163v-207h-163zM1010 1599v207h161v-207h-161z" />
<glyph unicode="&#x4dd;" horiz-adv-x="1540" d="M35 0l334 532v5l-306 499h211l254 -424h148v424h188v-424h148l256 424h209l-303 -499v-5l333 -532h-223l-270 442h-150v-442h-188v442h-148l-272 -442h-221zM516 1241v207h164v-207h-164zM860 1241v207h162v-207h-162z" />
<glyph unicode="&#x4de;" horiz-adv-x="1118" d="M55 172l113 137q63 -68 154.5 -109.5t185.5 -41.5q136 0 218.5 70.5t82.5 191.5q0 110 -74 174.5t-196 64.5h-179v168h144q111 0 185.5 66t74.5 168q0 104 -66 167.5t-190 63.5q-180 0 -324 -123l-86 152q180 149 439 149q192 0 311 -104q123 -102 123 -281 q0 -220 -209 -325v-4q118 -32 186 -124t68 -222q0 -195 -142 -316q-137 -119 -350 -119q-134 0 -259 52.5t-210 144.5zM295 1599v207h164v-207h-164zM639 1599v207h162v-207h-162z" />
<glyph unicode="&#x4df;" horiz-adv-x="917" d="M53 127l92 131q117 -123 271 -123q96 0 155.5 45t59.5 125q0 158 -213 158h-127v143h108q197 0 197 150q0 71 -48.5 110t-135.5 39q-130 0 -252 -90l-74 133q149 113 360 113q157 0 254 -75t97 -206q0 -170 -152 -235v-4q186 -58 186 -244q0 -155 -114 -238 q-116 -84 -283 -84q-220 0 -381 152zM193 1241v207h163v-207h-163zM537 1241v207h161v-207h-161z" />
<glyph unicode="&#x4e0;" horiz-adv-x="1079" d="M68 102l71 150q65 -45 155.5 -75t170.5 -30q142 0 229.5 74t87.5 193q0 104 -54.5 160t-174.5 73q-54 4 -313 4v135l376 412q45 49 76 68l13 10v4q-74 -4 -125 -4h-478v170h836v-154l-401 -428l-60 -51v-4q137 -3 187 -16q315 -58 315 -371q0 -205 -143 -324 q-139 -118 -363 -118q-222 0 -405 122z" />
<glyph unicode="&#x4e1;" horiz-adv-x="997" d="M18 -307l72 149q64 -45 155 -74.5t171 -29.5q142 0 229.5 73.5t87.5 192.5q0 104 -54.5 160.5t-174.5 73.5q-54 4 -314 4v135l377 411q45 49 76 68l12 10v4q-74 -4 -125 -4h-477v170h836v-153l-402 -428l-59 -52v-4q136 -3 186 -16q316 -58 316 -371q0 -201 -144 -321 q-142 -121 -362 -121q-222 0 -406 123z" />
<glyph unicode="&#x4e2;" horiz-adv-x="1540" d="M190 0v1446h203v-938l-12 -211h4q74 141 123 213l641 936h199v-1446h-201v938l12 211h-4q-78 -145 -121 -211l-645 -938h-199zM526 1606v145h521v-145h-521z" />
<glyph unicode="&#x4e3;" horiz-adv-x="1224" d="M154 0v1036h190v-618q0 -109 -6 -139h4q9 25 92 139l447 618h192v-1036h-192v618q0 45 2 80q1 15 2 29.5t1.5 21t0.5 7.5h-4q-1 -1 -10 -15.5t-31.5 -49.5t-48.5 -73l-449 -618h-190zM360 1247v146h521v-146h-521z" />
<glyph unicode="&#x4e4;" horiz-adv-x="1540" d="M190 0v1446h203v-938l-12 -211h4q74 141 123 213l641 936h199v-1446h-201v938l12 211h-4q-78 -145 -121 -211l-645 -938h-199zM518 1599v207h164v-207h-164zM862 1599v207h162v-207h-162z" />
<glyph unicode="&#x4e5;" horiz-adv-x="1224" d="M154 0v1036h190v-618q0 -109 -6 -139h4q9 25 92 139l447 618h192v-1036h-192v618q0 45 2 80q1 15 2 29.5t1.5 21t0.5 7.5h-4q-1 -1 -10 -15.5t-31.5 -49.5t-48.5 -73l-449 -618h-190zM367 1241v207h163v-207h-163zM711 1241v207h161v-207h-161z" />
<glyph unicode="&#x4e6;" horiz-adv-x="1685" d="M100 733q0 313 211 524q213 213 533 213q317 0 530 -213q211 -211 211 -524q0 -323 -211 -540q-212 -218 -530 -218q-321 0 -533 218q-211 217 -211 540zM309 733q0 -241 152 -407q150 -164 383 -164q231 0 381 164q151 165 151 407q0 236 -151 393q-151 160 -381 160 q-232 0 -383 -160q-152 -158 -152 -393zM586 1599v207h164v-207h-164zM930 1599v207h162v-207h-162z" />
<glyph unicode="&#x4e7;" horiz-adv-x="1288" d="M86 520q0 233 162 385q164 156 395 156q232 0 397 -154q162 -152 162 -387q0 -234 -162 -389q-164 -156 -395 -156q-233 0 -397 156q-162 155 -162 389zM289 520q0 -160 102 -268q105 -105 254 -105q148 0 252 107t104 266q0 160 -104 264q-105 105 -252 105 q-149 0 -254 -105q-102 -105 -102 -264zM393 1241v207h164v-207h-164zM737 1241v207h162v-207h-162z" />
<glyph unicode="&#x4e8;" horiz-adv-x="1685" d="M100 733q0 311 213 524t531 213q315 0 528 -213t213 -524q0 -321 -213 -540q-212 -218 -528 -218q-319 0 -531 218q-213 219 -213 540zM309 649q27 -214 176 -354q151 -139 359 -139t356 139q149 137 176 354h-1067zM309 811h1067q-27 210 -176 344q-150 135 -356 135 q-209 0 -359 -135q-149 -134 -176 -344z" />
<glyph unicode="&#x4e9;" horiz-adv-x="1288" d="M86 520q0 233 162 385q164 156 395 156q232 0 397 -154q162 -152 162 -387q0 -234 -162 -389q-164 -156 -395 -156q-233 0 -397 156q-162 155 -162 389zM276 461q18 -149 123 -240q106 -92 246 -92q141 0 244 92q104 90 125 240h-738zM276 588h736q-21 141 -125 229 q-104 90 -242 90q-139 0 -246 -90q-102 -89 -123 -229z" />
<glyph unicode="&#x4ea;" horiz-adv-x="1685" d="M100 733q0 311 213 524t531 213q315 0 528 -213t213 -524q0 -321 -213 -540q-212 -218 -528 -218q-319 0 -531 218q-213 219 -213 540zM309 649q27 -214 176 -354q151 -139 359 -139t356 139q149 137 176 354h-1067zM309 811h1067q-27 210 -176 344q-150 135 -356 135 q-209 0 -359 -135q-149 -134 -176 -344zM590 1599v207h164v-207h-164zM934 1599v207h162v-207h-162z" />
<glyph unicode="&#x4eb;" horiz-adv-x="1288" d="M86 520q0 233 162 385q164 156 395 156q232 0 397 -154q162 -152 162 -387q0 -234 -162 -389q-164 -156 -395 -156q-233 0 -397 156q-162 155 -162 389zM276 461q18 -149 123 -240q106 -92 246 -92q141 0 244 92q104 90 125 240h-738zM276 588h736q-21 141 -125 229 q-104 90 -242 90q-139 0 -246 -90q-102 -89 -123 -229zM387 1241v207h164v-207h-164zM731 1241v207h162v-207h-162z" />
<glyph unicode="&#x4ec;" horiz-adv-x="1466" d="M68 197l106 141q79 -80 201 -129t250 -49q213 0 356 137q146 140 170 344h-756v168h758q-21 209 -166 342q-144 135 -360 135q-242 0 -428 -162l-101 152q92 92 235 143t298 51q326 0 530 -210q205 -211 205 -527q0 -323 -211 -540q-209 -218 -530 -218q-159 0 -305 59 t-252 163zM414 1599v207h164v-207h-164zM758 1599v207h162v-207h-162z" />
<glyph unicode="&#x4ed;" horiz-adv-x="1114" d="M61 131l78 141q133 -133 326 -133q142 0 244 85t122 222h-495v144h495q-20 139 -120 224t-240 85q-172 0 -299 -121l-90 137q64 70 170 108t225 38q240 0 393 -156q156 -153 156 -387q0 -236 -156 -389q-154 -154 -397 -154q-249 0 -412 156zM266 1241v207h164v-207h-164 zM610 1241v207h162v-207h-162z" />
<glyph unicode="&#x4ee;" horiz-adv-x="1226" d="M4 1446h223l353 -727l82 -191h4q20 68 61 189l268 729h213l-460 -1180q-113 -291 -330 -291q-128 0 -264 95l92 153q95 -71 166 -71q58 0 93.5 37.5t69.5 123.5zM356 1606v145h521v-145h-521z" />
<glyph unicode="&#x4ef;" horiz-adv-x="1095" d="M27 1036h223l260 -678l39 -125h4q12 55 35 123l252 680h215l-488 -1222q-44 -117 -133 -180.5t-203 -63.5q-48 0 -97.5 15t-76.5 34l-24 14l69 152q57 -45 119 -45q124 0 189 154l51 118zM289 1247v146h520v-146h-520z" />
<glyph unicode="&#x4f0;" horiz-adv-x="1226" d="M4 1446h223l353 -727l82 -191h4q20 68 61 189l268 729h213l-460 -1180q-113 -291 -330 -291q-128 0 -264 95l92 153q95 -71 166 -71q58 0 93.5 37.5t69.5 123.5zM371 1599v207h164v-207h-164zM715 1599v207h162v-207h-162z" />
<glyph unicode="&#x4f1;" horiz-adv-x="1095" d="M27 1036h223l260 -678l39 -125h4q12 55 35 123l252 680h215l-488 -1222q-44 -117 -133 -180.5t-203 -63.5q-48 0 -97.5 15t-76.5 34l-24 14l69 152q57 -45 119 -45q124 0 189 154l51 118zM295 1241v207h164v-207h-164zM639 1241v207h162v-207h-162z" />
<glyph unicode="&#x4f2;" horiz-adv-x="1226" d="M4 1446h223l353 -727l82 -191h4q20 68 61 189l268 729h213l-460 -1180q-113 -291 -330 -291q-128 0 -264 95l92 153q95 -71 166 -71q58 0 93.5 37.5t69.5 123.5zM373 1546l139 260h180l-145 -260h-174zM688 1546l150 260h206l-196 -260h-160z" />
<glyph unicode="&#x4f3;" horiz-adv-x="1095" d="M27 1036h223l260 -678l39 -125h4q12 55 35 123l252 680h215l-488 -1222q-44 -117 -133 -180.5t-203 -63.5q-48 0 -97.5 15t-76.5 34l-24 14l69 152q57 -45 119 -45q124 0 189 154l51 118zM289 1188l139 260h181l-146 -260h-174zM605 1188l149 260h207l-197 -260h-159z " />
<glyph unicode="&#x4f4;" horiz-adv-x="1308" d="M104 977v469h205v-426q0 -141 67 -211t208 -70q180 0 327 99v608h205v-1446h-205v586l4 67h-4q-186 -98 -370 -98q-218 0 -327.5 108t-109.5 314zM371 1599v207h164v-207h-164zM715 1599v207h162v-207h-162z" />
<glyph unicode="&#x4f5;" horiz-adv-x="1071" d="M88 698v338h195v-309q0 -94 47.5 -144.5t158.5 -50.5q127 0 230 74v430h199v-1036h-199v375l2 61h-4q-119 -76 -281 -76q-168 0 -258 87t-90 251zM260 1241v207h164v-207h-164zM604 1241v207h162v-207h-162z" />
<glyph unicode="&#x4f6;" horiz-adv-x="1021" d="M190 0v1446h797v-176h-594v-1094h201v-463h-184v287h-220z" />
<glyph unicode="&#x4f7;" horiz-adv-x="851" d="M154 0v1036h649v-170h-451v-694h172v-418h-180v246h-190z" />
<glyph unicode="&#x4f8;" horiz-adv-x="1728" d="M190 0v1446h203v-545h297q195 0 318 -123q122 -119 122 -332q0 -200 -120 -323t-310 -123h-510zM393 176h275q122 0 190 71.5t68 198.5q0 128 -70.5 203.5t-191.5 75.5h-271v-549zM610 1599v207h164v-207h-164zM954 1599v207h162v-207h-162zM1335 0v1446h201v-1446h-201z " />
<glyph unicode="&#x4f9;" horiz-adv-x="1443" d="M154 0v1036h198v-374h203q176 0 276.5 -85t100.5 -249q0 -155 -96.5 -241.5t-282.5 -86.5h-399zM352 143h174q101 0 153 49.5t52 137.5t-52.5 138t-154.5 50h-172v-375zM465 1241v207h164v-207h-164zM809 1241v207h162v-207h-162zM1092 0v1036h198v-1036h-198z" />
<glyph unicode="&#x524;" horiz-adv-x="1591" d="M190 0v1446h1139v-1270h201v-463h-184v287h-220v1270h-733v-1270h-203z" />
<glyph unicode="&#x525;" horiz-adv-x="1280" d="M154 0v1036h905v-864h174v-418h-182v246h-191v866h-508v-866h-198z" />
<glyph unicode="&#x1e9e;" horiz-adv-x="1384" d="M178 0v1036q0 176 117 293q120 117 299 117h635v-139l-283 -414l-51 -68v-4l51 -2q152 -12 246 -131q98 -116 98 -268q0 -173 -127 -297q-126 -123 -301 -123h-305v176h291q103 0 169 70t66 174q0 101 -65 170t-166 69h-180v142l231 346q54 85 82 113l10 10v4 q-20 -4 -90 -4h-303q-96 0 -157.5 -65.5t-61.5 -164.5v-1040h-205z" />
<glyph unicode="&#x2000;" horiz-adv-x="913" />
<glyph unicode="&#x2001;" horiz-adv-x="1827" />
<glyph unicode="&#x2002;" horiz-adv-x="913" />
<glyph unicode="&#x2003;" horiz-adv-x="1827" />
<glyph unicode="&#x2004;" horiz-adv-x="609" />
<glyph unicode="&#x2005;" horiz-adv-x="456" />
<glyph unicode="&#x2006;" horiz-adv-x="304" />
<glyph unicode="&#x2007;" horiz-adv-x="304" />
<glyph unicode="&#x2008;" horiz-adv-x="228" />
<glyph unicode="&#x2009;" horiz-adv-x="28" />
<glyph unicode="&#x200a;" horiz-adv-x="101" />
<glyph unicode="&#x2010;" horiz-adv-x="884" d="M143 496v176h598v-176h-598z" />
<glyph unicode="&#x2011;" horiz-adv-x="884" d="M143 496v176h598v-176h-598z" />
<glyph unicode="&#x2012;" horiz-adv-x="884" d="M143 496v176h598v-176h-598z" />
<glyph unicode="&#x2013;" horiz-adv-x="1370" d="M147 504v160h1076v-160h-1076z" />
<glyph unicode="&#x2014;" horiz-adv-x="1779" d="M147 504v160h1485v-160h-1485z" />
<glyph unicode="&#x2018;" horiz-adv-x="512" d="M123 1071l133 397h147l-88 -397h-192z" />
<glyph unicode="&#x2019;" horiz-adv-x="499" d="M131 1071l86 397h195l-136 -397h-145z" />
<glyph unicode="&#x201a;" horiz-adv-x="528" d="M102 -182l88 397h187l-131 -397h-144z" />
<glyph unicode="&#x201c;" horiz-adv-x="800" d="M123 1071l133 397h147l-88 -397h-192zM412 1071l133 397h147l-88 -397h-192z" />
<glyph unicode="&#x201d;" d="M131 1071l86 397h195l-133 -397h-148zM420 1071l86 397h194l-133 -397h-147z" />
<glyph unicode="&#x201e;" horiz-adv-x="811" d="M102 -182l88 397h187l-131 -397h-144zM385 -182l88 397h189l-134 -397h-143z" />
<glyph unicode="&#x2020;" horiz-adv-x="872" d="M90 877v159h248v410h192v-410h252v-159h-252v-979h-192v979h-248z" />
<glyph unicode="&#x2021;" horiz-adv-x="927" d="M119 350v160h246v367h-246v159h246v410h192v-410h252v-159h-252v-367h252v-160h-252v-452h-192v452h-246z" />
<glyph unicode="&#x2022;" horiz-adv-x="974" d="M172 596q0 131 92 223q91 94 223 94q133 0 224 -94q94 -91 94 -223q0 -131 -94 -225q-92 -92 -224 -92q-131 0 -223 92q-92 95 -92 225z" />
<glyph unicode="&#x2026;" horiz-adv-x="1558" d="M143 0v215h207v-215h-207zM676 0v215h207v-215h-207zM1206 0v215h209v-215h-209z" />
<glyph unicode="&#x202f;" horiz-adv-x="365" />
<glyph unicode="&#x2030;" horiz-adv-x="2265" d="M104 1167q0 122 91 213q93 90 219 90q131 0 221 -90q92 -89 92 -213q0 -126 -92 -215q-88 -88 -221 -88q-128 0 -219 88q-91 91 -91 215zM137 0l1104 1446h195l-1106 -1446h-193zM264 1167q0 -63 43.5 -107t106.5 -44q66 0 109.5 44t43.5 107t-45 108.5t-108 45.5 t-106.5 -45.5t-43.5 -108.5zM848 276q0 126 90 216t219 90t219 -90q92 -89 92 -216q0 -124 -92 -213q-88 -88 -219 -88t-219 88q-90 90 -90 213zM1008 278.5q0 -64.5 43 -108.5q43 -43 106.5 -43t106.5 43q44 44 44 108.5t-44 108.5q-43 44 -106.5 44t-106.5 -44t-43 -108.5 zM1573 276q0 126 90 216q93 90 219 90q128 0 221 -90q92 -89 92 -216q0 -124 -92 -213q-91 -88 -221 -88q-128 0 -219 88q-90 90 -90 213zM1733 278.5q0 -64.5 43 -108.5q43 -43 107 -43t108 43q44 44 44 108.5t-44 108.5t-108 44t-107 -44t-43 -108.5z" />
<glyph unicode="&#x2039;" horiz-adv-x="735" d="M92 578l336 421h199l-336 -421l336 -420h-199z" />
<glyph unicode="&#x203a;" horiz-adv-x="735" d="M109 158l335 420l-335 421h198l336 -421l-336 -420h-198z" />
<glyph unicode="&#x2044;" horiz-adv-x="346" d="M-246 0l688 1446h152l-686 -1446h-154z" />
<glyph unicode="&#x205f;" horiz-adv-x="456" />
<glyph unicode="&#x2070;" d="M74 1315q0 467 321 467q322 0 322 -467q0 -469 -322 -469q-321 0 -321 469zM227 1315q0 -328 168 -328q166 0 166 328q0 325 -166 325q-168 0 -168 -325z" />
<glyph unicode="&#x2074;" d="M39 1085v103l410 573h165v-540h127v-136h-127v-219h-151v219h-424zM205 1221h258v252l6 118h-4q-30 -61 -59 -98l-201 -268v-4z" />
<glyph unicode="&#x2075;" d="M82 985l90 105q29 -45 83.5 -74t109.5 -29q76 0 130 48.5t54 119.5q0 72 -54.5 121t-132.5 49q-83 0 -153 -43l-86 33l49 446h473v-137h-348l-14 -127l-11 -65h4q53 20 115 20q135 0 223 -88t88 -211q0 -125 -92 -217q-93 -90 -235 -90q-181 0 -293 139z" />
<glyph unicode="&#x2076;" d="M82 1262q0 129 39 239q41 115 135 197q96 84 229 84q111 0 191 -45l-51 -129q-57 32 -133 32q-91 0 -154 -72t-84 -186h4q64 64 162 64q134 0 216.5 -82t82.5 -211q0 -136 -83.5 -221.5t-217.5 -85.5q-149 0 -242 112q-94 113 -94 304zM240 1219q0 -89 51 -160 q54 -72 127 -72q68 0 107.5 47t39.5 121q0 75 -46 123.5t-120 48.5q-62 0 -110.5 -33t-48.5 -75z" />
<glyph unicode="&#x2077;" d="M98 1624v137h619v-104l-424 -791h-170l358 662l60 96v4q-54 -4 -92 -4h-351z" />
<glyph unicode="&#x2078;" d="M72 1124q0 129 145 232q-100 69 -100 186q0 109 82.5 174.5t203.5 65.5q114 0 205 -66q88 -64 88 -178q0 -115 -114 -229q131 -76 131 -203q0 -114 -95 -188q-93 -72 -223 -72q-132 0 -227 74q-96 75 -96 204zM221 1130q0 -67 51 -109t123 -42q65 0 114.5 38.5t49.5 94.5 q0 55 -53 92q-26 20 -51 31q-15 9 -69 33.5t-64 29.5q-101 -76 -101 -168zM264 1536q0 -35 29 -72q29 -30 59.5 -47.5t96.5 -44.5q11 -7 24 -10q76 82 76 168q0 54 -43 85.5t-105 31.5q-60 0 -98.5 -29t-38.5 -82z" />
<glyph unicode="&#x2079;" d="M72 1475q0 135 84 221t215 86q146 0 241 -115q97 -117 97 -301q0 -198 -107 -360q-106 -160 -297 -160q-113 0 -190 45l51 131q59 -33 133 -33q90 0 154.5 71.5t83.5 184.5h-5q-63 -63 -161 -63q-134 0 -216.5 82t-82.5 211zM223 1475q0 -76 46 -126.5t120 -50.5 q62 0 111 34.5t49 76.5q0 90 -51 158q-52 73 -127 73q-66 0 -107 -47.5t-41 -117.5z" />
<glyph unicode="&#x2080;" d="M74 127q0 467 321 467q322 0 322 -467q0 -469 -322 -469q-321 0 -321 469zM227 127q0 -328 168 -328q166 0 166 328q0 326 -166 326q-168 0 -168 -326z" />
<glyph unicode="&#x2081;" d="M137 362l217 211h138v-759h188v-136h-533v136h191v510l4 53h-4q-10 -20 -35 -45l-74 -70z" />
<glyph unicode="&#x2082;" d="M90 -248q0 70 24 129t62 99.5t84.5 75.5t93 64.5t84.5 58t62 64.5t24 76q0 57 -42 95.5t-105 38.5q-91 0 -174 -99l-101 92q44 65 121 106.5t160 41.5q129 0 211 -76q84 -75 84 -192q0 -78 -40 -144t-106 -112q-25 -17 -71 -46t-75 -48.5t-61 -46.5t-49.5 -55.5 t-19.5 -59.5h436v-136h-596q-6 38 -6 74z" />
<glyph unicode="&#x2083;" d="M72 -207l86 109q32 -44 90 -73.5t119 -29.5q70 0 120 45.5t50 110.5q0 66 -52.5 105.5t-128.5 39.5h-69l-35 78l182 211l51 49v4q-41 -6 -75 -6h-289v137h555v-98l-223 -258q107 -14 173 -82t66 -180q0 -119 -90 -209q-88 -88 -229 -88q-89 0 -170 35.5t-131 99.5z" />
<glyph unicode="&#x2084;" d="M39 0l410 573h165v-540h127v-135h-127v-220h-151v220h-424v102zM205 33h258v252l6 118h-4q-30 -61 -59 -98l-201 -268v-4z" />
<glyph unicode="&#x2085;" d="M82 -203l90 105q29 -45 83.5 -74t109.5 -29q76 0 130 48.5t54 119.5q0 72 -54.5 121t-132.5 49q-83 0 -153 -43l-86 33l49 446h473v-137h-348l-14 -127l-11 -65h4q53 20 115 20q135 0 223 -88t88 -211q0 -126 -92 -215q-92 -92 -235 -92q-181 0 -293 139z" />
<glyph unicode="&#x2086;" d="M82 74q0 129 39 239q41 115 135 197q96 84 229 84q111 0 191 -45l-51 -129q-59 33 -133 33q-91 0 -154 -72t-84 -186h4q63 63 162 63q134 0 216.5 -82t82.5 -211q0 -136 -83.5 -221.5t-217.5 -85.5q-147 0 -242 115q-94 113 -94 301zM240 31q0 -90 51 -158 q53 -74 127 -74q68 0 107.5 47t39.5 121q0 75 -46 123.5t-120 48.5q-62 0 -110.5 -33t-48.5 -75z" />
<glyph unicode="&#x2087;" d="M98 436v137h619v-104l-424 -791h-170l358 662l60 96v4q-54 -4 -92 -4h-351z" />
<glyph unicode="&#x2088;" d="M72 -61q0 128 145 231q-100 69 -100 186q0 109 82.5 174.5t203.5 65.5q114 0 205 -66q88 -64 88 -178q0 -115 -114 -229q131 -76 131 -203q0 -115 -95 -186q-92 -74 -223 -74q-132 0 -227 74q-96 75 -96 205zM221 -55q0 -67 51.5 -109.5t122.5 -42.5q65 0 114.5 38.5 t49.5 94.5q0 55 -53 92q-26 20 -51 31q-15 9 -69.5 34t-63.5 30q-101 -76 -101 -168zM264 350q0 -34 29 -71q29 -30 60 -48t96 -45q11 -7 24 -10q76 82 76 168q0 54 -43 85.5t-105 31.5q-60 0 -98.5 -29t-38.5 -82z" />
<glyph unicode="&#x2089;" d="M72 287q0 135 84 221t215 86q146 0 241 -115q97 -117 97 -301q0 -200 -107 -358q-104 -162 -297 -162q-113 0 -190 45l51 131q59 -33 133 -33q90 0 154.5 71.5t83.5 184.5h-5q-63 -63 -161 -63q-134 0 -216.5 82t-82.5 211zM223 287q0 -76 46 -126t120 -50q62 0 111 34 t49 76q0 90 -51 158q-53 74 -127 74q-66 0 -107 -47.5t-41 -118.5z" />
<glyph unicode="&#x20ac;" horiz-adv-x="1181" d="M53 528v129h115q-10 67 -2 148h-113v131h137q65 239 254 385q189 149 441 149q103 0 205 -24l-48 -184q-64 20 -161 20q-169 0 -296.5 -93.5t-178.5 -252.5h575l-27 -131h-577q-9 -62 0 -148h551l-27 -129h-491q50 -165 178.5 -262.5t298.5 -97.5q101 0 186 27l39 -185 q-96 -35 -227 -35q-259 0 -449 152q-190 155 -248 401h-135z" />
<glyph unicode="&#x2116;" horiz-adv-x="2170" d="M180 0v1446h201l643 -938q35 -49 102 -176l17 -35h4q-12 129 -12 211v938h202v-1446h-198l-647 938l-119 211h-4q12 -129 12 -211v-938h-201zM1487 963q0 120 84 204q87 84 209 84q121 0 205 -84q86 -83 86 -204q0 -124 -86 -207q-84 -84 -205 -84q-125 0 -209 84 t-84 207zM1505 401v144h543v-144h-543zM1638 962.5q0 -61.5 41 -104.5t101 -43t98 43q41 43 41 104.5t-41 102.5q-38 41 -98 41t-101 -41t-41 -102.5z" />
<glyph unicode="&#x2122;" horiz-adv-x="2031" d="M125 1309v137h778v-137h-311v-764h-154v764h-313zM969 545l71 901h144l211 -471l28 -84h4q12 47 27 84l213 471h143l70 -901h-154l-43 538l3 62h-5l-192 -434h-125l-197 434h-4l2 -62l-43 -538h-153z" />
<glyph unicode="&#x2212;" horiz-adv-x="1181" d="M61 504v160h1059v-160h-1059z" />
<glyph unicode="&#x221e;" horiz-adv-x="987" d="M121 715q0 154 108 262q111 108 265 108q156 0 264 -108t108 -262q0 -153 -108 -264q-109 -109 -264 -109q-153 0 -265 109q-108 111 -108 264z" />
<glyph unicode="&#x2248;" horiz-adv-x="1181" d="M78 393q146 146 309 146q100 0 219 -72q123 -72 187 -72q118 0 227 115l82 -121q-144 -147 -309 -147q-101 0 -222 71q-119 72 -184 72q-112 0 -225 -113zM78 778q144 150 309 150q100 0 219 -72q123 -72 187 -72q123 0 227 113l82 -121q-143 -149 -309 -149 q-101 0 -222 71q-119 72 -184 72q-114 0 -225 -111z" />
<glyph unicode="&#x2260;" horiz-adv-x="1181" d="M100 309v160h334l164 227h-498v160h605l165 234l105 -70l-117 -164h219v-160h-325l-164 -227h489v-160h-596l-162 -229l-106 70l115 159h-228z" />
<glyph unicode="&#x2264;" horiz-adv-x="1181" d="M98 516v135l955 426v-182l-731 -309v-4l731 -310v-182zM100 -195h953v-157h-953v157z" />
<glyph unicode="&#x2265;" horiz-adv-x="1181" d="M127 90v182l731 310v4l-731 309v182l956 -426v-135zM127 -195h952v-157h-952v157z" />
<glyph unicode="&#x25fc;" horiz-adv-x="1034" d="M0 0v1034h1034v-1034h-1034z" />
<glyph unicode="&#xf6c3;" horiz-adv-x="686" d="M244 -418q39 107 39 172q0 58 -25 125h174q14 -52 14 -104q0 -88 -51 -193h-151z" />
<glyph unicode="&#xf6d4;" horiz-adv-x="688" d="M39 1776v30h160v-28q0 -61 42 -98.5t101 -37.5q62 0 103.5 37t41.5 101v26h158v-30q0 -123 -88 -193t-215 -70t-215 70t-88 193z" />
<glyph unicode="&#xf8ff;" horiz-adv-x="2314" d="M86 449v569l258 145v310l543 290l274 -145l271 145l542 -290v-310l254 -145v-569l-254 -148v-311l-542 -289l-271 145l-274 -145l-543 289v311zM193 477l233 -131v-285l487 -258l248 136l242 -136l487 258v285l234 131v510l-234 135v279l-487 258l-242 -131l-248 131 l-487 -258v-279l-233 -135v-510zM293 502v461l203 118v252l440 234l225 -121l219 121l439 -234v-252l204 -118v-461l-204 -123v-248l-439 -233l-219 118l-225 -118l-440 233v248zM782 1128h133v-942h89v467h466v82h-466v393h407q34 0 46.5 -13t12.5 -46v-86h86v111 q0 62 -26.5 89t-91.5 27h-656v-82z" />
<glyph horiz-adv-x="0" />
<glyph horiz-adv-x="681" />
<glyph horiz-adv-x="1181" d="M80 725q0 328 110 526q58 105 161 162t241 57q512 0 512 -745q0 -750 -512 -750q-113 0 -201 38t-146 104.5t-95.5 162.5t-53.5 205.5t-16 239.5zM289 725q0 -563 303 -563t303 563q0 559 -303 559t-303 -559z" />
<glyph horiz-adv-x="1181" d="M190 1110l347 336h180v-1270h317v-176h-833v176h319v934l2 88h-4q-15 -30 -69 -84l-136 -131z" />
<glyph horiz-adv-x="1181" d="M115 111q0 104 39 194t102 155.5t138.5 124t151 110t138.5 102.5t102 113t39 130q0 106 -73.5 173t-188.5 67q-87 0 -166 -50.5t-127 -133.5l-149 100q68 125 189 199.5t270 74.5q201 0 327 -114q127 -115 127 -301q0 -115 -51 -207q-11 -21 -23 -40t-29 -39t-26.5 -32.5 t-33.5 -33t-31.5 -28t-37.5 -30.5t-34.5 -26.5t-41 -29.5t-38.5 -28q-40 -29 -168 -117q-81 -53 -132 -124t-52 -144h721v-176h-932q-10 72 -10 111z" />
<glyph horiz-adv-x="1181" d="M98 172l111 154q65 -70 159.5 -114t190.5 -44q123 0 209 74q86 77 86 190q0 127 -98 197q-92 69 -240 69h-98l-47 109l315 371q27 33 78 84l12 10v4q-44 -6 -123 -6h-489v176h864v-129l-393 -455q104 -9 194 -53q98 -46 164 -145t66 -226q0 -190 -137 -327 q-139 -136 -355 -136q-130 0 -254.5 52t-214.5 145z" />
<glyph horiz-adv-x="1181" d="M35 387v127l670 932h229v-889h196v-170h-196v-387h-199v387h-700zM258 557h477v528l8 146h-4q-39 -79 -71 -121l-410 -549v-4z" />
<glyph horiz-adv-x="1181" d="M113 176l114 148q126 -156 318 -156q132 0 223 82q92 83 92 211q0 131 -94 213q-93 84 -234 84q-133 0 -243 -72l-119 43l72 717h731v-176h-555l-33 -305l-12 -74h4q82 43 188 43q228 0 365 -137q139 -136 139 -336q0 -208 -147 -346q-146 -140 -365 -140 q-130 0 -247.5 52.5t-196.5 148.5z" />
<glyph horiz-adv-x="1181" d="M96 655q0 115 24 228.5t76.5 220t127 187.5t183.5 130t238 49q156 0 283 -59l-65 -174q-89 47 -209 47q-185 0 -295 -143q-110 -139 -137 -342h4q44 61 132.5 98t186.5 37q204 0 330 -135q127 -136 127 -342q0 -209 -131 -346q-133 -136 -334 -136q-233 0 -387 189 t-154 491zM309 551q0 -134 94 -262q95 -127 240 -127q115 0 186.5 83t71.5 212q0 138 -81 222.5t-216 84.5q-118 0 -207 -59q-88 -58 -88 -154z" />
<glyph horiz-adv-x="1181" d="M123 1270v176h967v-139l-652 -1307h-211l564 1137q43 85 69 118l12 15v4q-36 -4 -102 -4h-647z" />
<glyph horiz-adv-x="1181" d="M86 412q0 74 26 144.5t70 121.5q72 84 135 125q-161 112 -161 284q0 161 116 271q115 112 334 112q204 0 328 -106q127 -106 127 -279q0 -83 -37 -170q-33 -78 -64.5 -122.5t-72.5 -85.5q196 -120 196 -308q0 -174 -137 -299t-358 -125q-215 0 -359 123 q-143 125 -143 314zM293 428q0 -119 88 -195q87 -75 205 -75q120 0 205 67q86 71 86 178q0 95 -93 156q-41 29 -88 53q-25 13 -116 54l-111 49q-176 -123 -176 -287zM356 1087q0 -52 31 -104q23 -35 88 -78q10 -7 119 -63q10 -4 41 -17t56.5 -24t39.5 -17q131 137 131 285 q0 102 -71 160.5t-189 58.5q-113 0 -179.5 -56.5t-66.5 -144.5z" />
<glyph horiz-adv-x="1181" d="M78 987q0 214 131 348q132 135 334 135q237 0 387 -188q153 -188 153 -494q0 -299 -157 -544q-77 -124 -206.5 -196.5t-287.5 -72.5q-157 0 -280 60l65 176q98 -49 207 -49q186 0 297 141q110 142 137 344h-4q-42 -61 -131.5 -98t-187.5 -37q-204 0 -330 135 q-127 136 -127 340zM281 987q0 -136 80 -220.5t214 -84.5q121 0 209 61q88 64 88 142q0 147 -98 272q-95 127 -229 127q-120 0 -192 -82.5t-72 -214.5z" />
<glyph horiz-adv-x="884" d="M143 625v176h598v-176h-598z" />
<glyph horiz-adv-x="600" d="M109 758q0 431 237 809h174q-231 -387 -231 -811q0 -468 231 -889h-174q-237 396 -237 891z" />
<glyph horiz-adv-x="600" d="M80 -133q231 421 231 889q0 424 -231 811h174q238 -380 238 -809q0 -493 -238 -891h-174z" />
<glyph horiz-adv-x="616" d="M176 -133v1700h340v-150h-166v-1399h166v-151h-340z" />
<glyph horiz-adv-x="616" d="M100 18h166v1399h-166v150h340v-1700h-340v151z" />
<glyph horiz-adv-x="727" d="M84 639v176q83 17 128.5 75.5t45.5 151.5v172q0 88 24 157.5t62 107.5q57 53 123 73.5t123 18.5l47 -2v-152h-27q-20 0 -39.5 -3.5t-46 -16.5t-45.5 -35t-33 -63.5t-14 -96.5v-211q0 -90 -45 -159.5t-121 -100.5v-4q166 -64 166 -260v-236q0 -57 14 -98.5t33 -63.5 t46 -34.5t46 -15.5t39 -3h27v-151q-24 -4 -47 -4q-88 0 -160 33q-172 78 -172 325v197q0 92 -44.5 151t-129.5 72z" />
<glyph horiz-adv-x="727" d="M90 16h29q53 0 104 31q33 21 52.5 69t19.5 115v236q0 93 43.5 162t122.5 98v4q-71 27 -118.5 98t-47.5 162v211q0 138 -72 180q-53 35 -104 35h-29v152q12 2 47 2q88 0 158 -33q174 -78 174 -324v-172q0 -92 45.5 -153t128.5 -74v-176q-80 -10 -127 -72t-47 -151v-197 q0 -88 -24.5 -158.5t-63.5 -107.5q-54 -53 -120.5 -73.5t-123.5 -18.5l-47 4v151z" />
<glyph horiz-adv-x="1630" d="M115 719q0 319 217 536q219 222 530 222q279 0 404 -119q129 -117 129 -297v-580h147v-149h-559q-187 0 -305 112q-119 113 -119 273q0 158 117 272q119 113 307 113h221q-2 93 -91.5 152t-240.5 59q-233 0 -397 -176q-162 -174 -162 -418q0 -250 162 -418 q164 -170 420 -170v-162q-338 0 -559 215q-221 218 -221 535zM760 721q0 -101 67.5 -170.5t169.5 -69.5h207v484h-203q-104 0 -172.5 -70.5t-68.5 -173.5z" />
<glyph horiz-adv-x="1148" d="M92 700l336 422h199l-336 -422l336 -419h-199zM506 700l336 422h198l-335 -422l335 -419h-198z" />
<glyph horiz-adv-x="1148" d="M109 281l335 419l-335 422h198l336 -422l-336 -419h-198zM522 281l336 419l-336 422h199l336 -422l-336 -419h-199z" />
<glyph horiz-adv-x="737" d="M92 700l336 422h199l-336 -422l336 -419h-199z" />
<glyph horiz-adv-x="737" d="M109 281l335 419l-335 422h198l336 -422l-336 -419h-198z" />
<glyph horiz-adv-x="1363" d="M143 627v159h1078v-159h-1078z" />
<glyph horiz-adv-x="1773" d="M143 627v159h1487v-159h-1487z" />
<glyph horiz-adv-x="491" d="M143 602v211h203v-211h-203z" />
<glyph horiz-adv-x="956" d="M88 344q0 68 20 126.5t52 101t71 80t77.5 71.5t70.5 68.5t52 78.5t20 93v84h192v-97q0 -63 -19 -117t-49.5 -93.5t-67.5 -75t-74 -69t-67.5 -67t-49.5 -77.5t-19 -93q0 -86 66.5 -144t166.5 -58q123 0 232 86l110 -142q-146 -131 -356 -131q-177 0 -303 105 q-125 104 -125 270zM444 1241v203h205v-203h-205z" />
<glyph horiz-adv-x="559" d="M176 -2l14 1049h179l12 -1049h-205zM176 1241v203h205v-203h-205z" />
<glyph horiz-adv-x="970" d="M170 721q0 131 92 223q91 94 223 94q133 0 224 -94q94 -91 94 -223q0 -131 -94 -225q-93 -93 -224 -93q-130 0 -223 93q-92 95 -92 225z" />
<glyph horiz-adv-x="1198" d="M106 557q0 153 50 283q53 134 170.5 218.5t273.5 84.5q240 0 365 -174q127 -174 127 -414q0 -239 -127 -410q-126 -170 -365 -170q-241 0 -367 170q-127 174 -127 412zM307 559q0 -170 74 -291q77 -121 219 -121q141 0 215 121q76 122 76 291q0 170 -76 289 q-73 123 -215 123t-219 -121q-74 -121 -74 -291z" />
<glyph horiz-adv-x="989" d="M90 887l377 231h176v-946h281v-172h-787v172h312v625l2 121h-5q-36 -36 -77 -60l-187 -110z" />
<glyph horiz-adv-x="1107" d="M98 944q69 80 193 141q119 58 250 58q186 0 299 -101q114 -99 114 -247q0 -173 -131 -316q-131 -144 -401 -311v-4q39 8 123 8h463v-172h-885v137q329 217 479 362t150 269q0 97 -65.5 148t-172.5 51q-156 0 -307 -154z" />
<glyph horiz-adv-x="1095" d="M70 -80l102 139q143 -149 330 -149q124 0 209 70q86 71 86 182q0 126 -101 190q-101 66 -233 66h-107l-45 104l305 350q42 50 68 68l12 8v4q-44 -6 -121 -6h-423v172h813v-117l-396 -434q159 -13 283 -100q67 -43 106 -120.5t39 -172.5q0 -189 -137 -311 q-134 -125 -354 -125q-266 0 -436 182z" />
<glyph horiz-adv-x="1214" d="M59 68v127l635 923h236v-878h209v-172h-209v-306h-199v306h-672zM281 240h450v524l10 145h-4q-36 -80 -71 -129z" />
<glyph horiz-adv-x="1103" d="M86 -66l104 136q55 -67 138.5 -106.5t173.5 -39.5q128 0 223 74q94 70 94 201q0 130 -94 200q-92 74 -223 74q-60 0 -122 -14.5t-95 -32.5l-31 -16l-113 41l74 667h705v-172h-535l-33 -278l-10 -72h4q79 39 191 39q211 0 346 -117q137 -116 137 -311q0 -207 -143 -332 t-363 -125q-123 0 -238.5 48.5t-189.5 135.5z" />
<glyph horiz-adv-x="1210" d="M115 602q0 283 151 520q77 119 205.5 188.5t284.5 69.5q155 0 280 -55l-65 -162q-86 45 -207 45q-182 0 -297 -139q-111 -138 -135 -330h4q44 62 132.5 98.5t188.5 36.5q200 0 326 -126q127 -127 127 -316q0 -200 -131 -328q-129 -129 -330 -129q-235 0 -385 170 q-149 171 -149 457zM324 520q0 -135 92 -256q94 -117 231 -117q121 0 191.5 78t70.5 205q0 126 -79.5 204.5t-213.5 78.5q-115 0 -206 -60q-86 -59 -86 -133z" />
<glyph horiz-adv-x="1054" d="M72 948v170h942v-131l-625 -1225h-209l537 1063q47 89 65 109l9 14v4q-36 -4 -101 -4h-618z" />
<glyph horiz-adv-x="1204" d="M111 391q0 90 49 172q24 40 46.5 70t48.5 53.5t40 34t45 31.5q-164 108 -164 272q0 148 113 252t323 104q199 0 320 -100q125 -98 125 -262q0 -179 -166 -354q194 -114 194 -289q0 -163 -135 -283q-135 -117 -350 -117q-212 0 -350 117q-139 118 -139 299zM309 403 q0 -113 86 -184q87 -72 205 -72q119 0 201 64q84 66 84 168q0 55 -32 94t-97 74q-43 25 -80 41l-94 39q-21 10 -93 41q-180 -116 -180 -265zM369 1020q-10 -76 86 -150q11 -10 35 -23.5t56 -28.5t36 -17l77 -31q50 -18 76 -31q129 129 129 267q0 93 -69 147.5t-185 54.5 q-111 0 -176 -52.5t-65 -135.5z" />
<glyph horiz-adv-x="1175" d="M86 686q0 202 129 328q132 129 332 129q233 0 383 -172q151 -171 151 -455t-153 -520q-75 -118 -203.5 -188t-284.5 -70q-155 0 -280 55l65 162q86 -45 207 -45q183 0 293 137q111 135 139 330h-4q-43 -60 -132 -95.5t-189 -35.5q-203 0 -328 125t-125 315zM285 688 q0 -124 80.5 -202t214.5 -78q121 0 204 57q88 58 88 133q0 138 -94 254q-91 119 -231 119q-121 0 -191.5 -77.5t-70.5 -205.5z" />
<glyph horiz-adv-x="1181" d="M98 557q0 155 49 283q53 134 171 218.5t274 84.5q239 0 364 -174q127 -174 127 -414q0 -239 -127 -410q-126 -170 -364 -170q-241 0 -367 170q-127 174 -127 412zM299 559q0 -170 74 -291q77 -121 219 -121q141 0 215 121q76 122 76 291q0 170 -76 289q-74 123 -215 123 q-142 0 -219 -121q-74 -121 -74 -291z" />
<glyph horiz-adv-x="1181" d="M184 887l377 231h176v-946h281v-172h-787v172h312v625l2 121h-4q-35 -35 -78 -60l-187 -110z" />
<glyph horiz-adv-x="1181" d="M135 944q69 80 193 141q119 58 250 58q186 0 299 -101q114 -99 114 -247q0 -173 -131 -316q-131 -144 -401 -311v-4q39 8 123 8h462v-172h-884v137q328 217 478 361.5t150 269.5q0 97 -65 148t-172 51q-156 0 -307 -154z" />
<glyph horiz-adv-x="1181" d="M113 -80l102 139q143 -149 330 -149q125 0 209 70.5t84 181.5q0 126 -101 190q-101 66 -231 66h-107l-45 104l303 348q42 50 68 68l12 8v4q-43 -6 -119 -6h-423v172h811v-117l-394 -432q59 -4 116 -20t114 -47t100 -74.5t69.5 -108.5t26.5 -143q0 -189 -137 -311 q-134 -125 -352 -125q-266 0 -436 182z" />
<glyph horiz-adv-x="1181" d="M45 68v127l635 923h235v-878h209v-172h-209v-306h-198v306h-672zM266 240h451v524l10 145h-4q-35 -77 -72 -129z" />
<glyph horiz-adv-x="1181" d="M123 -66l104 136q55 -67 138.5 -106.5t173.5 -39.5q128 0 223 74q94 70 94 201q0 130 -94 200q-92 74 -223 74q-60 0 -122 -14.5t-95 -32.5l-31 -16l-113 41l74 667h704v-172h-534l-33 -278l-10 -72h4q79 39 190 39q212 0 347 -117q137 -116 137 -311q0 -206 -144 -332 q-143 -125 -362 -125q-123 0 -238.5 48.5t-189.5 135.5z" />
<glyph horiz-adv-x="1181" d="M102 602q0 281 152 520q77 119 205 188.5t284 69.5t281 -55l-66 -162q-86 45 -206 45q-182 0 -297 -139q-112 -140 -136 -330h5q44 62 132.5 98.5t188.5 36.5q200 0 326 -126q127 -127 127 -316q0 -200 -131 -328q-129 -129 -330 -129q-235 0 -385 170q-150 173 -150 457 zM311 520q0 -135 92 -256q95 -117 232 -117q121 0 191.5 78t70.5 205q0 126 -79.5 204.5t-213.5 78.5q-116 0 -207 -60q-86 -59 -86 -133z" />
<glyph horiz-adv-x="1181" d="M133 948v170h942v-131l-624 -1225h-209l536 1063q46 86 66 109l8 14v4q-36 -4 -100 -4h-619z" />
<glyph horiz-adv-x="1181" d="M100 391q0 89 50 172q24 40 46.5 70t48.5 53.5t40 34t45 31.5q-164 108 -164 272q0 148 113 252t323 104q199 0 320 -100q125 -98 125 -262q0 -179 -166 -354q194 -114 194 -289q0 -163 -135 -283q-135 -117 -350 -117q-212 0 -350 117q-140 119 -140 299zM299 403 q0 -113 86 -184q87 -72 205 -72q119 0 201 64q83 65 83 168q0 55 -32 94t-97 74q-46 26 -79 41l-95 39q-37 17 -92 41q-180 -116 -180 -265zM358 1020q-10 -76 86 -150q11 -10 35 -23.5t56 -28.5t36 -17l78 -31q50 -18 76 -31q129 129 129 267q0 93 -69 147.5t-185 54.5 q-111 0 -176.5 -52.5t-65.5 -135.5z" />
<glyph horiz-adv-x="1181" d="M86 686q0 202 129 328q132 129 332 129q233 0 383 -172q151 -171 151 -455t-153 -520q-75 -118 -203.5 -188t-284.5 -70q-155 0 -280 55l65 162q86 -45 207 -45q183 0 293 137q111 135 139 330h-4q-43 -60 -132 -95.5t-189 -35.5q-203 0 -328 125t-125 315zM285 688 q0 -124 80.5 -202t214.5 -78q121 0 204 57q88 58 88 133q0 138 -94 254q-91 119 -231 119q-121 0 -191.5 -77.5t-70.5 -205.5z" />
<glyph horiz-adv-x="1056" d="M88 174l105 145q62 -71 154 -117t183 -46q99 0 159.5 43t60.5 120q0 100 -218 185q-46 17 -77 29t-76 33.5t-76 41.5t-65 49t-54.5 59.5t-33.5 70.5t-13 85q0 137 92.5 224t245.5 106v178h146v-176q193 -21 307 -125l-84 -157q-114 108 -285 108q-97 0 -156 -41.5 t-59 -120.5q0 -103 217 -180q63 -22 108.5 -40.5t104 -52t95 -70t62.5 -91.5t25 -119q0 -133 -96 -224.5t-254 -108.5v-191h-145v191q-107 12 -207.5 63.5t-165.5 128.5z" />
<glyph horiz-adv-x="1134" d="M94 612q0 194 119 328q120 138 311 168v174h150v-168q203 -15 346 -158l-96 -149q-47 59 -126 95t-159 36q-150 0 -250 -92q-96 -93 -96 -232t96 -235q98 -94 250 -94q166 0 285 131l94 -148q-123 -138 -344 -159v-164h-150v170q-190 29 -311 166q-119 137 -119 331z" />
<glyph horiz-adv-x="1224" d="M109 0v172h127v322h-93v139h93v180q0 169 129 283q130 112 327 112q208 0 355 -112l-97 -148q-107 82 -256 82q-114 0 -187 -64t-73 -159v-174h445v-139h-445v-322h666v-172h-991z" />
<glyph horiz-adv-x="1273" d="M104 1186h228l213 -377l88 -184h4q58 126 88 184l215 377h227l-284 -475h196v-131h-272l-70 -117v-45h342v-129h-342v-289h-200v289h-340v129h340v45l-72 117h-268v131h192z" />
<glyph horiz-adv-x="1075" d="M-4 -76q77 -12 133 -12q28 0 53.5 4t58 18.5t57 37.5t43.5 66.5t24 100.5l43 484h-170v161h182l20 213q7 93 41.5 167.5t81.5 115.5q126 106 299 102q78 0 148 -12l26 -4v-172q-95 14 -164 14q-217 0 -235 -225l-21 -199h240v-161h-254l-43 -500q-10 -118 -57.5 -201 t-118.5 -119q-118 -63 -244 -63l-143 12v172z" />
<glyph horiz-adv-x="1230" d="M104 406v120h134q-8 51 -2 125h-132v123h150q57 197 220.5 315.5t408.5 118.5q99 0 198 -24l-45 -164q-67 20 -157 20q-154 0 -260 -71.5t-152 -194.5h516l-27 -123h-522q-10 -69 4 -125h498l-25 -120h-434q45 -120 151.5 -190.5t256.5 -70.5q95 0 180 29l35 -166 q-98 -33 -217 -33q-241 0 -406 121q-160 121 -219 310h-154z" />
<glyph d="M74 1001q0 467 321 467q322 0 322 -467q0 -469 -322 -469q-321 0 -321 469zM227 1001q0 -327 168 -327q166 0 166 327q0 326 -166 326q-168 0 -168 -326z" />
<glyph d="M137 1237l217 211h138v-760h188v-135h-533v135h191v510l4 53h-4q-10 -20 -35 -45l-74 -69z" />
<glyph d="M90 627q0 70 24 129t62 99.5t84.5 75.5t93 64.5t84.5 58t62 64.5t24 76q0 57 -42 95t-105 38q-92 0 -174 -98l-101 92q44 64 121 105.5t160 41.5q130 0 211 -75q84 -75 84 -193q0 -78 -40 -144t-106 -112q-25 -17 -71 -46t-75 -48.5t-61 -46.5t-49.5 -55.5t-19.5 -59.5 h436v-135h-596q-6 38 -6 74z" />
<glyph d="M72 668l86 108q32 -44 89.5 -73t119.5 -29q70 0 120 45t50 110q0 66 -52.5 106t-128.5 40h-69l-35 78l182 211l51 49v4q-41 -6 -75 -6h-289v137h555v-98l-223 -258q107 -14 173 -82.5t66 -180.5q0 -118 -90 -208q-89 -89 -229 -89q-88 0 -169.5 35.5t-131.5 100.5z" />
<glyph d="M39 772v102l410 574h165v-541h127v-135h-127v-219h-151v219h-424zM205 907h258v252l6 119h-4q-30 -61 -59 -98l-201 -269v-4z" />
<glyph d="M82 672l90 104q29 -44 83.5 -73t109.5 -29q76 0 130 48.5t54 119.5q0 72 -54.5 121t-132.5 49q-83 0 -153 -43l-86 32l49 447h473v-137h-348l-14 -127l-11 -66h4q55 21 115 21q135 0 223 -88t88 -211q0 -125 -92 -217q-94 -91 -235 -91q-180 0 -293 140z" />
<glyph d="M82 948q0 130 39 240q40 113 135 196q96 84 229 84q111 0 191 -45l-51 -129q-59 33 -133 33q-91 0 -154 -72t-84 -186h4q64 64 162 64q134 0 216.5 -82t82.5 -211q0 -137 -84 -222.5t-217 -85.5q-148 0 -242 113t-94 303zM240 905q0 -89 51 -160q53 -71 127 -71 q68 0 107.5 47t39.5 121q0 75 -46 123.5t-120 48.5q-62 0 -110.5 -33.5t-48.5 -75.5z" />
<glyph d="M98 1311v137h619v-105l-424 -790h-170l358 661l60 97v4q-54 -4 -92 -4h-351z" />
<glyph d="M72 809q0 128 145 231q-100 69 -100 187q0 109 82.5 174t203.5 65q116 0 205 -65q88 -64 88 -178q0 -116 -114 -230q131 -76 131 -202q0 -115 -95 -189q-93 -72 -223 -72q-132 0 -227 74q-96 75 -96 205zM221 815q0 -67 51 -109t123 -42q65 0 114.5 38.5t49.5 94.5 q0 55 -53 92q-26 20 -51 31q-15 9 -69 33.5t-64 29.5q-101 -76 -101 -168zM264 1221q0 -35 29 -72q29 -30 59.5 -47.5t96.5 -44.5q11 -7 24 -10q76 82 76 167q0 54 -43 85.5t-105 31.5q-60 0 -98.5 -28.5t-38.5 -81.5z" />
<glyph d="M72 1161q0 135 84 221t215 86q147 0 241 -114q97 -117 97 -301q0 -199 -107 -361q-106 -160 -297 -160q-111 0 -190 46l51 131q59 -33 133 -33q90 0 154.5 71.5t83.5 184.5h-5q-64 -64 -161 -64q-134 0 -216.5 82t-82.5 211zM223 1161q0 -76 46 -126t120 -50 q62 0 111 34.5t49 76.5q0 89 -51 157q-53 74 -127 74q-66 0 -107 -47.5t-41 -118.5z" />
<glyph d="M74 449q0 466 321 466q322 0 322 -466q0 -469 -322 -469q-321 0 -321 469zM227 449q0 -328 168 -328q166 0 166 328q0 325 -166 325q-168 0 -168 -325z" />
<glyph d="M137 684l217 211h138v-760h188v-135h-533v135h191v510l4 53h-4q-10 -20 -35 -45l-74 -69z" />
<glyph d="M90 74q0 70 24 129t62 99.5t84.5 75.5t93 64.5t84.5 58t62 64.5t24 76q0 57 -42 95t-105 38q-92 0 -174 -98l-101 92q44 64 121 105.5t160 41.5q130 0 211 -75q84 -75 84 -193q0 -78 -40 -144t-106 -112q-25 -17 -71 -46t-75 -48.5t-61 -46.5t-49.5 -55.5t-19.5 -59.5 h436v-135h-596q-6 38 -6 74z" />
<glyph d="M72 115l86 108q32 -44 89.5 -73t119.5 -29q70 0 120 45t50 110q0 66 -52.5 106t-128.5 40h-69l-35 78l182 211l51 49v4q-41 -6 -75 -6h-289v137h555v-98l-223 -258q107 -14 173 -82.5t66 -180.5q0 -118 -90 -208q-88 -88 -229 -88q-89 0 -170 35.5t-131 99.5z" />
<glyph d="M39 219v103l410 573h165v-541h127v-135h-127v-219h-151v219h-424zM205 354h258v252l6 119h-4q-30 -61 -59 -98l-201 -269v-4z" />
<glyph d="M82 119l90 104q29 -44 83.5 -73t109.5 -29q76 0 130 48.5t54 119.5q0 72 -54.5 121t-132.5 49q-83 0 -153 -43l-86 33l49 446h473v-137h-348l-14 -127l-11 -66h4q56 21 115 21q135 0 223 -88t88 -211q0 -125 -92 -217q-93 -90 -235 -90q-181 0 -293 139z" />
<glyph d="M82 395q0 130 39 240q40 113 135 196q96 84 229 84q111 0 191 -45l-51 -129q-59 33 -133 33q-91 0 -154 -72t-84 -186h4q64 64 162 64q134 0 216.5 -82t82.5 -211q0 -136 -83.5 -221.5t-217.5 -85.5q-149 0 -242 112q-94 113 -94 303zM240 352q0 -88 51 -159 q54 -72 127 -72q68 0 107.5 47t39.5 121q0 75 -46 123.5t-120 48.5q-62 0 -110.5 -33.5t-48.5 -75.5z" />
<glyph d="M98 758v137h619v-104l-424 -791h-170l358 662l60 96v4q-54 -4 -92 -4h-351z" />
<glyph d="M72 258q0 128 145 231q-100 69 -100 187q0 109 82.5 174t203.5 65q116 0 205 -65q88 -64 88 -178q0 -116 -114 -230q131 -76 131 -202q0 -115 -95 -189q-92 -71 -223 -71q-133 0 -227 73q-96 75 -96 205zM221 264q0 -67 51 -109t123 -42q65 0 114.5 38.5t49.5 94.5 q0 55 -53 92q-26 20 -51 31q-15 9 -69 33.5t-64 29.5q-101 -76 -101 -168zM264 670q0 -35 29 -72q29 -30 59.5 -47.5t96.5 -44.5q11 -7 24 -10q76 82 76 168q0 54 -42.5 85t-105.5 31q-60 0 -98.5 -28.5t-38.5 -81.5z" />
<glyph d="M72 608q0 135 84 221t215 86q147 0 241 -114q97 -117 97 -301q0 -199 -107 -361q-105 -159 -297 -159q-113 0 -190 45l51 131q59 -33 133 -33q90 0 154.5 71.5t83.5 184.5h-5q-64 -64 -161 -64q-134 0 -216.5 82t-82.5 211zM223 608q0 -76 46 -126t120 -50q62 0 111 34.5 t49 76.5q0 89 -51 157q-53 74 -127 74q-66 0 -107 -47.5t-41 -118.5z" />
<glyph horiz-adv-x="913" d="M80 250q0 88 52.5 159.5t135.5 112.5q30 15 79 38t82 38.5t72 38t62 42t39 45.5t16 54q0 115 -161 115q-138 0 -271 -92l-80 145q165 115 355 115q159 0 253.5 -70t94.5 -200q0 -70 -29.5 -127t-77.5 -95t-105 -69.5t-114.5 -57t-105.5 -51t-77.5 -58t-29.5 -71.5 q0 -56 48 -87.5t128 -31.5q169 0 302 121l96 -137q-184 -152 -402 -152q-165 0 -263.5 75t-98.5 200z" />
<glyph horiz-adv-x="1216" d="M92 541q0 229 121 374q122 146 332 146q108 0 194.5 -40.5t132.5 -117.5h7q-7 14 -7 31v102h191v-993q0 -123 -44 -217t-119.5 -148.5t-166 -81t-192.5 -26.5q-181 0 -355 86l66 156q137 -70 285 -70q152 0 239.5 73t87.5 216v84l6 65h-4q-101 -168 -311 -168 q-212 0 -338 150q-125 149 -125 379zM293 547q0 -165 81 -264t220 -99q128 0 201 87.5t73 269.5q0 348 -293 348q-133 0 -207.5 -91t-74.5 -251z" />
<glyph horiz-adv-x="1540" d="M35 0l334 532v5l-306 499h211l254 -424h148v834h188v-834h148l256 424h209l-303 -499v-5l333 -532h-223l-270 442h-150v-442h-188v442h-148l-272 -442h-221z" />
<glyph horiz-adv-x="1222" d="M141 373v663h199v-618q0 -130 43.5 -194t151.5 -64q153 0 245 114q92 115 92 277v485h197v-1036h-192v143l8 76h-4q-40 -90 -144 -168q-101 -76 -241 -76q-355 0 -355 398z" />
<glyph horiz-adv-x="1222" d="M141 373v663h199v-618q0 -130 43.5 -194t151.5 -64q153 0 245 114q92 115 92 277v485h197v-1036h-192v143l8 76h-4q-40 -90 -144 -168q-101 -76 -241 -76q-355 0 -355 398zM299 1417v31h160v-29q0 -61 42 -98t101 -37q63 0 104.5 36.5t41.5 100.5v27h157v-31 q0 -122 -88 -192t-215 -70t-215 70t-88 192z" />
<glyph horiz-adv-x="1069" d="M154 0v1446h198v-791h148l280 381h226l-344 -456v-5l382 -575h-231l-309 485h-152v-485h-198z" />
<glyph horiz-adv-x="1077" d="M35 0l387 1036h229l383 -1036h-209l-252 702l-34 140h-4q-19 -87 -39 -140l-252 -702h-209z" />
<glyph horiz-adv-x="1234" d="M154 0v1036h192v-141l-6 -78h4q43 94 139 166q104 78 254 78q355 0 355 -397v-664h-199v618q0 133 -42.5 197t-152.5 64q-148 0 -247 -111q-99 -108 -99 -270v-498h-198z" />
<glyph horiz-adv-x="1871" d="M154 0v1036h192v-141l-6 -78h4q42 99 141 170q103 74 220 74q257 0 309 -236h4q49 100 145 166q101 70 223 70q176 0 259.5 -97.5t83.5 -299.5v-664h-199v621q0 132 -40.5 196t-141.5 64q-138 0 -224 -121q-84 -122 -84 -277v-483h-198v621q0 132 -38.5 196t-139.5 64 q-140 0 -226 -121t-86 -277v-483h-198z" />
<glyph horiz-adv-x="1284" d="M141 373v663h199v-618q0 -130 43.5 -194t151.5 -64q153 0 245 114q92 115 92 277v485h197v-864h166v-418h-182v246h-176v143l8 76h-4q-40 -90 -144 -168q-101 -76 -241 -76q-355 0 -355 398z" />
<glyph horiz-adv-x="1869" d="M141 371v663h199v-620q0 -132 40.5 -196t141.5 -64q140 0 221 118q86 121 86 279v483h199v-620q0 -132 38.5 -196t139.5 -64q140 0 226 120q86 121 86 277v483h198v-1036h-192v141l6 78h-4q-42 -98 -142 -170q-103 -74 -219 -74q-257 0 -309 236h-4q-48 -98 -147 -166 q-101 -70 -222 -70q-176 0 -259 98t-83 300z" />
<glyph horiz-adv-x="1923" d="M141 371v663h199v-620q0 -132 40.5 -196t141.5 -64q140 0 221 118q86 121 86 279v483h199v-620q0 -132 38.5 -196t139.5 -64q140 0 226 120q86 121 86 277v483h198v-862h156v-418h-180v244h-168v141l6 78h-4q-42 -98 -142 -170q-103 -74 -219 -74q-257 0 -309 236h-4 q-48 -98 -147 -166q-101 -70 -222 -70q-176 0 -259 98t-83 300z" />
<glyph horiz-adv-x="1183" d="M53 866v170h418v-282q0 -85 -2 -97h4q42 50 116.5 80.5t160.5 30.5q164 0 266 -106t102 -289q0 -176 -117 -287q-114 -111 -309 -111q-205 0 -312.5 109t-107.5 293v489h-219zM471 369q0 -105 59.5 -171.5t161.5 -66.5q100 0 161.5 63.5t61.5 172.5q0 123 -56 181 t-154 58q-108 0 -171 -64t-63 -173z" />
<glyph horiz-adv-x="1052" d="M141 377v659h199v-282q0 -47 -4 -97h4q42 49 117.5 80t158.5 31q165 0 268 -105t103 -290q0 -176 -117 -287q-114 -111 -311 -111q-204 0 -311 109t-107 293zM340 369q0 -105 59 -171.5t160 -66.5t164 63.5t63 172.5q0 123 -57 181t-158 58q-108 0 -169.5 -64t-61.5 -173 z" />
<glyph horiz-adv-x="1695" d="M154 0v1446h198v-844h189q27 199 176 330q147 129 352 129q226 0 383 -154q158 -155 158 -387q0 -233 -156 -389t-383 -156q-204 0 -354 129q-149 134 -176 334h-189v-438h-198zM733 520q0 -158 96 -268q99 -105 242 -105t238 105q98 107 98 268q0 160 -98 264 q-95 105 -238 105t-242 -105q-96 -107 -96 -264z" />
<glyph horiz-adv-x="1214" d="M135 496v393q0 255 135 418t373 163q164 0 264 -81q101 -82 101 -203q0 -200 -248 -320v-4q90 -9 168 -49q85 -41 142.5 -133t57.5 -209q0 -220 -141 -358q-138 -138 -366 -138q-234 0 -361 148q-125 146 -125 373zM330 754h4q44 75 153 129l121 59q110 56 156.5 108 t46.5 121q0 66 -54 108t-134 42q-137 0 -215 -102.5t-78 -270.5v-194zM332 457q0 -149 79 -232.5t207 -83.5q134 0 221 87t87 237q0 133 -84 202.5t-215 69.5q-117 0 -205 -73q-90 -72 -90 -207z" />
<glyph horiz-adv-x="911" d="M14 -334l82 156q110 -78 240 -78q135 0 216 76.5t81 199.5q0 124 -80 191.5t-229 67.5h-119v161h121q113 0 188.5 65t75.5 173q0 98 -62 155.5t-163 57.5q-136 0 -240 -96l-92 129q149 137 362 137q183 0 289 -100t109 -246q1 -114 -58 -203.5t-160 -134.5v-4 q259 -92 259 -361q0 -189 -132 -315q-133 -127 -348 -127q-203 0 -340 96z" />
<glyph horiz-adv-x="1464" d="M27 176h151l447 1270h211l448 -1270h152v-463h-183v287h-1042v-287h-184v463zM389 176h684l-289 840l-51 198h-4q-18 -75 -53 -198z" />
<glyph horiz-adv-x="1302" d="M29 0l516 1446h211l516 -1446h-215l-350 1016l-54 198h-4q-28 -129 -53 -198l-348 -1016h-219z" />
<glyph horiz-adv-x="1234" d="M43 164h121l334 872h237l330 -872h127v-410h-182v246h-785v-246h-182v410zM362 164h502l-207 555l-41 139h-4q-19 -85 -39 -139z" />
<glyph horiz-adv-x="1077" d="M35 0l387 1036h229l383 -1036h-209l-252 702l-34 140h-4q-19 -87 -39 -140l-252 -702h-209z" />
<glyph horiz-adv-x="1810" d="M25 0l575 1446h418v-592h280q200 0 326 -117q127 -118 127 -311q0 -191 -127 -309q-126 -117 -317 -117h-490v1270h-80l-504 -1270h-208zM1018 176h256q124 0 197 67t73 183t-74.5 184t-199.5 68h-252v-502z" />
<glyph horiz-adv-x="1519" d="M35 0l436 1036h408v-389h206q175 0 275 -83t100 -245q0 -152 -95.5 -235.5t-281.5 -83.5h-401v883h-84l-367 -883h-196zM879 143h184q102 0 153.5 46t51.5 130q0 87 -52.5 135t-154.5 48h-182v-359z" />
<glyph horiz-adv-x="1458" d="M29 0l516 1446h211l452 -1270h244v-117l-145 -346h-150l86 287h-186l-350 1016l-54 198h-4q-28 -129 -53 -198l-348 -1016h-219z" />
<glyph horiz-adv-x="1200" d="M35 0l387 1036h229l320 -866h219v-113l-127 -303h-141l73 246h-170l-252 702l-34 140h-4q-19 -87 -39 -140l-252 -702h-209z" />
</font>
</defs>
</svg>
